<svg id="Layer_1" data-name="Layer 1" xmlns="http://www.w3.org/2000/svg" viewBox="0 0 16 16">
  <title>amplify3</title>
  <g>
    <g>
      <path d="M5.15,7.87H4.26l-.18.55H3.57l.87-2.54H5l.87,2.54H5.32Zm-.77-.4H5l-.31-1h0Z"/>
      <path d="M6.74,5.88l.65,1.87h0l.65-1.87h.67V8.42H8.21V7.66l0-1.12h0L7.56,8.42H7.22L6.55,6.55h0l0,1.11v.76H6.07V5.88Z"/>
      <path d="M9.7,7.5v.92H9.19V5.88h1a1,1,0,0,1,.69.22.82.82,0,0,1,0,1.18,1,1,0,0,1-.69.22Zm0-.39h.51A.41.41,0,0,0,10.53,7a.46.46,0,0,0,0-.6.41.41,0,0,0-.32-.12H9.7Z"/>
    </g>
    <path d="M13.74,15.78h-.93V13.47h-.58v-.4l1.51-.44Z"/>
    <polygon points="12.77 12.62 9.96 11.87 12.02 9.81 12.77 12.62"/>
    <path d="M15.66,15.78h-.94V13.47h-.57v-.4l1.51-.44Z"/>
  </g>
  <path d="M2.09,12.84l-.26-.26-.38-.45.7-.55c.11.13.22.26.34.38l.22.24ZM.47,10.51a8.7,8.7,0,0,1-.32-.9L1,9.36a7.47,7.47,0,0,0,.29.79Zm14-.8-.85-.27c0-.08.05-.16.07-.25l.86.23A2.45,2.45,0,0,1,14.44,9.71Zm-14.6-2V7.49c0-.23,0-.47,0-.7l.89.09c0,.2,0,.41,0,.61v.22Zm14-.2a7.39,7.39,0,0,0,0-.84l.88-.11a7.07,7.07,0,0,1,.06.91ZM1.13,5.25.29,4.94c.11-.29.24-.59.38-.87l.79.41A5.75,5.75,0,0,0,1.13,5.25Zm12.29-.17a6.41,6.41,0,0,0-.35-.75l.78-.43a6.18,6.18,0,0,1,.41.86Zm-11-2-.67-.6a8.45,8.45,0,0,1,.68-.66L3,2.52A6.69,6.69,0,0,0,2.41,3.11ZM12.09,3a8.37,8.37,0,0,0-.62-.57L12,1.72a7.08,7.08,0,0,1,.7.64ZM4.39,1.6,4,.8A8.59,8.59,0,0,1,4.88.43l.29.85A6.71,6.71,0,0,0,4.39,1.6Zm5.67-.08q-.37-.17-.78-.3L9.55.37a8.44,8.44,0,0,1,.88.34ZM6.8.94,6.73.05a6,6,0,0,1,.95,0l0,.89A5.89,5.89,0,0,0,6.8.94Z"/>
  <path d="M7.53,13.28a5.91,5.91,0,1,1,5.9-5.9A5.9,5.9,0,0,1,7.53,13.28ZM7.53,3a4.41,4.41,0,1,0,4.4,4.41A4.41,4.41,0,0,0,7.53,3Z"/>
</svg>
