<svg id="Layer_1" data-name="Layer 1" xmlns="http://www.w3.org/2000/svg" viewBox="0 0 16 16">
  <title>amplify</title>
  <path d="M11.27,13.34h0a9.1,9.1,0,0,1-.48-.81c-.17.09-.33.21-.5.28.26.44.54.9.79,1.38l.41-.24a.1.1,0,0,0,0-.16C11.43,13.64,11.36,13.49,11.27,13.34ZM3.17,8.48h0a4.14,4.14,0,0,1,.08-.87H3.16L1.75,7.55c-.11,0-.16,0-.18.15A6.36,6.36,0,0,0,2,11a6.44,6.44,0,0,0,3.49,3.43c.29.13.59.22.88.32,0-.06,0-.08,0-.1.11-.49.22-1,.33-1.51A4.91,4.91,0,0,1,3.17,8.48Zm6.46,4.61h0a3.42,3.42,0,0,1-.63.16c.09.52.2,1,.3,1.51,0,.11,0,.17.18.13l.48-.13c.11,0,.15-.07.11-.2C9.92,14.08,9.78,13.58,9.63,13.09Zm1.4-.78h0l.83,1.33c.11-.09.18-.17.28-.24-.34-.42-.63-.83-.94-1.24Zm-2.95.92h0a4.78,4.78,0,1,1,4.76-4.77,4.78,4.78,0,0,1-4.76,4.77Zm0-9.73h0a5,5,0,1,0,5,5A5,5,0,0,0,8.08,3.5Zm-6.4,7.56h0l.13.26-.9.36.11.24L.83,12l-.31-.44Zm-.26-.56h0l0,0-.9.35,0,0Zm-.16-.36h0l-.91.17,0,0Zm0-.56h0v0l-.91.15,0,0ZM1,8.48H1l0,.84-.16,0L.54,9C.48,8.92.43,8.9.39,8.86a.22.22,0,0,0-.11,0,.11.11,0,0,0-.09,0A.16.16,0,0,0,.15,9,.13.13,0,0,0,.2,9.1a.27.27,0,0,0,.13,0l0,.28h0a.28.28,0,0,1-.26-.09A.42.42,0,0,1,0,9,.48.48,0,0,1,.06,8.7a.26.26,0,0,1,.22-.13.41.41,0,0,1,.18,0l.26.21L.87,9h0l0-.48Zm0-.45h0v.08L.15,8l0-.08Zm0-.33h0v0L.15,7.59v0Zm.19-.55h0v0L.33,7V7ZM.74,6.26h0l0-.11A.12.12,0,0,0,.76,6,.07.07,0,0,0,.68,6,.07.07,0,0,0,.59,6a.1.1,0,0,0,0,.07s0,.06,0,.07,0,.06.06.06l-.07.22h0a.25.25,0,0,1-.17-.15A.32.32,0,0,1,.37,6a.42.42,0,0,1,.15-.24.26.26,0,0,1,.24,0l.11.07a.27.27,0,0,1,.05.15.69.69,0,0,1,.13-.11.19.19,0,0,1,.15,0A.39.39,0,0,1,1.4,6a.4.4,0,0,1,0,.3.42.42,0,0,1-.14.22.26.26,0,0,1-.24,0H1l.07-.22s.06,0,.09,0,.06,0,.06-.08a.08.08,0,0,0,0-.11s0,0-.07,0a.14.14,0,0,0-.13,0,.11.11,0,0,0-.06.11l0,.11Zm.88-.59h0v0L.89,5.19l0,0ZM2,5.14H2l0,0-.9-.35,0,0Zm.19-.37h0l0,0-.9-.52v0Zm-.13-.65h0l.15-.18-.3-.2h0l0,0,.15.35Zm.31-.38h0l.08-.1.16.13-.07.1.2.14-.17.21-.2-.15-.27.35-.15-.09-.32-.81v0l.17-.21ZM3.1,3.5h0L2.36,3l0,0Zm.37-.21h0l0,0-.72-.72,0,0Zm.37-.36h0L3.1,2.22h0Zm.09-.69h0l-.28-.61.59-.35.11.19L4,1.71l.11.22s0,0,0-.07a.14.14,0,0,1,.07-.06.39.39,0,0,1,.28-.06A.77.77,0,0,1,4.69,2a.33.33,0,0,1,0,.29.34.34,0,0,1-.2.26.53.53,0,0,1-.3.07A.25.25,0,0,1,4,2.41H4l.22-.15a.12.12,0,0,0,.1.07.09.09,0,0,0,.11,0,.13.13,0,0,0,.05-.11.79.79,0,0,0,0-.13A.19.19,0,0,0,4.34,2a.12.12,0,0,0-.13,0L4.15,2a.11.11,0,0,0,0,.07Zm1.2-.05h0l0,0L4.76,1.3l0,0ZM5.5,2h0l0,0-.33-.9,0,0Zm.55-.18h0l0,0L5.68.93h0ZM6.7,1.1h0l-.1,0,0,0,0,.06a.24.24,0,0,0,.07.16.16.16,0,0,0,.13.06s.07,0,.07-.07a.27.27,0,0,0,0-.13.16.16,0,0,0-.05-.13.23.23,0,0,0-.11,0ZM6.64.56H6.9l0,.19a.22.22,0,0,0-.11,0,.16.16,0,0,0-.09,0c-.08,0-.11,0-.13.07a.2.2,0,0,0,0,.19h0A.5.5,0,0,1,6.6.93a.5.5,0,0,1,.13,0A.32.32,0,0,1,7,1a.38.38,0,0,1,.13.24.33.33,0,0,1-.07.28.39.39,0,0,1-.26.14.45.45,0,0,1-.33-.07.34.34,0,0,1-.17-.28l0-.2A.41.41,0,0,1,6.33.73.48.48,0,0,1,6.64.56ZM7.71,1.65H7.64L7.53.55H7.6Zm.5-.18H8.08L8.13.55h.13Zm.29.18H8.45L8.6.55h0ZM9.87.88h0a.83.83,0,0,0-.33.31,3.44,3.44,0,0,0-.21.39l0,.09L9,1.63l0-.11a1.94,1.94,0,0,1,.2-.38A1.44,1.44,0,0,1,9.59.82L9,.73,9,.55l.88.14Zm.09,1h0l0,0,.35-.9h0Zm.55.18h0l0,0,.35-.9v0Zm.37.19h0l0,0,.34-.91,0,0Zm1.18-.34h0a.13.13,0,0,0,0-.09s0-.05-.06-.07,0,0-.07,0l-.07.05s0,.06,0,.1,0,0,.06.07a.11.11,0,0,0,.07,0,.09.09,0,0,0,.09-.06Zm-.2.41h0a.22.22,0,0,0,0-.11.14.14,0,0,0-.06-.07s-.05,0-.09,0-.06,0-.07.07,0,.07,0,.11a.07.07,0,0,0,0,.07s.08,0,.1,0a.16.16,0,0,0,.07-.07Zm.4-.3h0a.35.35,0,0,1-.11.1.28.28,0,0,1-.13,0,.22.22,0,0,1,.06.15.33.33,0,0,1,0,.15.28.28,0,0,1-.2.15.41.41,0,0,1-.26-.08.3.3,0,0,1-.16-.2.27.27,0,0,1,0-.26.56.56,0,0,1,.11-.11c.06,0,.1,0,.15,0s0-.09,0-.15,0-.09,0-.12a.27.27,0,0,1,.19-.15c.07,0,.14,0,.24.05a.46.46,0,0,1,.16.21A.35.35,0,0,1,12.26,2Zm-.11,1.15h0v0l.71-.9h0Zm.37.18h0l0,0,.72-.72,0,0Zm.37.37h0l0,0,.72-.72,0,0Zm1,.2h0s0,.06,0,.06A.18.18,0,0,0,14,4l.09-.08a.33.33,0,0,0,.13-.14c0-.06,0-.08,0-.11s-.06-.06-.13,0a.3.3,0,0,0-.15.05c-.05.06-.09.08-.09.13a.11.11,0,0,0,0,.11Zm-.35.19h0a.16.16,0,0,0,.13.07c.05,0,.11,0,.16,0l.06,0a.25.25,0,0,1-.13,0A.23.23,0,0,1,13.67,4a.31.31,0,0,1-.08-.28.55.55,0,0,1,.21-.28.42.42,0,0,1,.33-.09.44.44,0,0,1,.31.17.49.49,0,0,1,.09.31.5.5,0,0,1-.24.32l-.24.18a.7.7,0,0,1-.37.11.52.52,0,0,1-.33-.18.34.34,0,0,1,0-.11L13.24,4l.17-.11.05.11Zm.27.72h0v0l.9-.35,0,0Zm.37.55h0l0,0,.72-.53,0,0Zm.19.37h0l0,0,.9-.35,0,0Zm.26.92h0l-.1-.29.92-.3-.09-.28.21,0,.25.52Zm.92.57h0a.34.34,0,0,0,.18-.07s.06-.07,0-.11,0-.07-.09-.07a.36.36,0,0,0-.21,0l-.29,0a.87.87,0,0,0-.19.07.21.21,0,0,0-.05.11.13.13,0,0,0,.09.1.3.3,0,0,0,.22,0l.3-.06Zm-.22.32h0a.53.53,0,0,1-.39,0,.42.42,0,0,1-.19-.26.51.51,0,0,1,.06-.33.53.53,0,0,1,.35-.18l.26-.06a.51.51,0,0,1,.39,0A.42.42,0,0,1,16,7a.37.37,0,0,1-.06.32.58.58,0,0,1-.35.18Zm-.43.59h0V8.05l.92-.13V8Zm0,.55h0V8.55l.92-.07v.11Zm0,.24h0V8.84l.92.1V9Zm0,.87h0l0-.26.85.13,0-.24.17,0V10Zm-.18.81h0l0-.24.81.22.06-.24.17,0-.06.51ZM4.3,9.29h.35l-.19-.52h0l-.16.52Zm.44.2h-.5l-.09.28H3.84l.5-1.29h.29l.5,1.29h-.3Zm.9-1h0L6,9.42H6l.33-.94H6.6V9.77H6.36V9.38l0-.57v0l-.33,1H5.88l-.33-.94h0l0,.57v.39H5.31V8.48Zm1.42.62h.28a.31.31,0,0,0,.19,0,.25.25,0,0,0,0-.15.37.37,0,0,0,0-.17.41.41,0,0,0-.19-.05H7.06V9.1Zm0,.21h0v.46H6.79V8.48h.57a.58.58,0,0,1,.39.11.34.34,0,0,1,.14.29.41.41,0,0,1-.14.3.65.65,0,0,1-.39.11l-.3,0Zm1.3.27H9v.19H8.08V8.48h.28ZM9,8.48h.37V9.77H9Zm1.38.75H9.81v.54H9.55V8.48h.93v.2H9.81V9h.57Zm.74-.16h0l.33-.59h.34l-.5.84v.45H11V9.31l-.51-.83h.33Zm1-.56H12v.33h-.06V8.51h-.16v0h.37Zm.07,0h0l.11.29h0l.13-.29h.07v.36h0V8.7l0-.15h0l-.13.29h0l-.13-.29h0v.29h0V8.48ZM5.59,7.26H6l-.19-.52h0l-.17.52Zm.44.2H5.52l-.1.28H5.13l.5-1.29h.29l.5,1.29h-.3ZM6.86,7h0L7,6.63h.29L7,7.18l.31.56H7.05l-.17-.37-.17.37H6.42l.31-.56-.29-.55h.29Zm1.4.37h0l.13-.72h.24L8.39,7.74H8.17L8,7.09H8l-.17.65H7.58L7.34,6.63h.24l.13.72h0l.16-.72h.19ZM9,7.52H9a.28.28,0,0,0,.13,0s0-.06.07-.09V7.24H9.07A.14.14,0,0,0,9,7.3s0,0,0,.11A.15.15,0,0,0,9,7.5s.05,0,.07,0Zm.26.2h0s0-.06,0-.07a.87.87,0,0,1,0-.1.36.36,0,0,1-.11.13A.21.21,0,0,1,9,7.74a.32.32,0,0,1-.34-.33.35.35,0,0,1,.11-.26.55.55,0,0,1,.34-.09H9.2V7a.16.16,0,0,0,0-.11.24.24,0,0,0-.11-.06.15.15,0,0,0-.1,0,.24.24,0,0,0,0,.09H8.65a.32.32,0,0,1,.11-.24.44.44,0,0,1,.31-.09.42.42,0,0,1,.3.09A.35.35,0,0,1,9.48,7v.44a.34.34,0,0,0,0,.15.25.25,0,0,0,0,.13Zm.81-.48h0l0,.06h0l.22-.69h.33L10.2,7.83c0,.07-.07.15-.15.18a.32.32,0,0,1-.24.08.1.1,0,0,1-.07,0l-.08,0,0-.2h0l0,0a.16.16,0,0,0,.11,0,.13.13,0,0,0,.05-.09l0-.08-.39-1h.34Zm4.28-.15a6.51,6.51,0,1,0-5.09,7.67A6.5,6.5,0,0,0,14.37,7.09ZM9.24,15c-3.45.7-6.82-1.9-7.54-5.36A6.41,6.41,0,1,1,14.26,7.13,6.77,6.77,0,0,1,9.24,15ZM13.3,4.77a6.39,6.39,0,0,0-7.58-2.4c.13.37.24.72.35,1.07,0,.09.13.19,0,.28,0-.08-.11-.15-.15-.24-.13-.35-.24-.7-.37-1.07-.13,0-.18,0-.13.18s.13.34.21.52.18.44.25.66c-.12.13-.22.1-.27,0a2.59,2.59,0,0,0-.17-.33c-.13-.24-.24-.52-.39-.78-.18.11-.36.22-.57.33l.83,1.15c-.33.27-.62.57-.94.85-.33-.28-.68-.54-1-.82C3.25,4,3.17,4,3.1,4.14a5.84,5.84,0,0,1-.39.48L4,5.4a7.55,7.55,0,0,0-.52,1,4.88,4.88,0,0,1,9.33,2,4.84,4.84,0,0,1-1.65,3.67l1.05,1.2A6.45,6.45,0,0,0,13.3,4.77ZM13.15,9l1,1-1.29.3A4.94,4.94,0,0,0,13.15,9Z"/>
</svg>
