<svg id="Layer_1" data-name="Layer 1" xmlns="http://www.w3.org/2000/svg" viewBox="0 0 16 16">
  <title>amplify2</title>
  <g>
    <g>
      <path d="M.6,6.19s0,0,0-.05,0,0,0-.08L.58,6a.09.09,0,0,1,.1,0s0,0,.07.06a.08.08,0,0,1,0,.11l0,.11.17,0,0-.11c0-.05,0-.09.05-.11a.15.15,0,0,1,.13,0s0,0,.07.06a.08.08,0,0,1,0,.11s0,0-.05.07-.06,0-.1,0L1,6.56a.26.26,0,0,0,.24,0,.45.45,0,0,0,.15-.22A.49.49,0,0,0,1.4,6a.43.43,0,0,0-.21-.19.33.33,0,0,0-.14,0,.36.36,0,0,0-.13.11s0-.11-.06-.14a.38.38,0,0,0-.11-.08.26.26,0,0,0-.24,0A.52.52,0,0,0,.36,6a.45.45,0,0,0,0,.28.26.26,0,0,0,.17.14Z"/>
      <path d="M9.25,1.14a1.78,1.78,0,0,0-.2.39l0,.11.3,0,0-.09a2.69,2.69,0,0,1,.2-.38A.85.85,0,0,1,9.86.88L9.92.7,9,.55,9,.73l.59.1A1.22,1.22,0,0,0,9.25,1.14Z"/>
      <path d="M.27,8.85a.22.22,0,0,1,.11,0A.92.92,0,0,1,.53,9l.37.37.16,0,0-.85-.17,0L.88,9h0L.71,8.83c-.13-.09-.2-.17-.25-.2a.35.35,0,0,0-.19-.06.3.3,0,0,0-.22.13A.49.49,0,0,0,0,9a.37.37,0,0,0,.11.3.26.26,0,0,0,.25.09V9.12H.2S.14,9.05.14,9s0-.1,0-.11A.13.13,0,0,1,.27,8.85Z"/>
      <path d="M13.35,4.22a.46.46,0,0,0,.33.18.62.62,0,0,0,.37-.11l.24-.18a.49.49,0,0,0,.24-.31.46.46,0,0,0-.1-.32.4.4,0,0,0-.31-.16.38.38,0,0,0-.33.09.48.48,0,0,0-.2.27.33.33,0,0,0,.07.28.36.36,0,0,0,.09.08h.13l-.05,0a.25.25,0,0,1-.17.06.16.16,0,0,1-.13-.08L13.46,4l-.06-.11L13.23,4l.06.11S13.33,4.18,13.35,4.22Zm.51-.44c0-.06,0-.08.09-.13a.26.26,0,0,1,.15-.06c.08,0,.11,0,.13,0s0,.05,0,.11-.06.09-.13.15L14,4a.13.13,0,0,1-.09,0s0,0-.06,0S13.84,3.81,13.86,3.78Z"/>
      <path d="M15.41,6.65l-.26.06a.65.65,0,0,0-.35.18.55.55,0,0,0-.05.34.36.36,0,0,0,.18.25.49.49,0,0,0,.39,0l.26,0a.65.65,0,0,0,.35-.19A.37.37,0,0,0,16,7a.43.43,0,0,0-.18-.28A.61.61,0,0,0,15.41,6.65Zm.31.48a.3.3,0,0,1-.18.08l-.29,0a.32.32,0,0,1-.23,0,.14.14,0,0,1-.09-.09A.14.14,0,0,1,15,7.08.43.43,0,0,1,15.17,7l.3,0a.33.33,0,0,1,.2,0c.05,0,.07,0,.09.07A.09.09,0,0,1,15.72,7.13Z"/>
      <path d="M11.58,2.49a.37.37,0,0,0,.25.07A.29.29,0,0,0,12,2.41a.49.49,0,0,0,0-.15A.22.22,0,0,0,12,2.12l.13,0L12.26,2a.46.46,0,0,0,0-.26.38.38,0,0,0-.16-.2.39.39,0,0,0-.24-.06.33.33,0,0,0-.19.15s0,.09,0,.13a.25.25,0,0,0,0,.15.23.23,0,0,0-.14,0,.26.26,0,0,0-.11.12.23.23,0,0,0,0,.25A.34.34,0,0,0,11.58,2.49Zm.29-.74.07-.06a.12.12,0,0,1,.08,0,.09.09,0,0,1,.05.08.16.16,0,0,1,0,.09s0,.05-.09.05l-.07,0s0,0-.06-.07S11.85,1.79,11.87,1.75Zm-.22.4a.23.23,0,0,1,.07-.07s.06,0,.1,0l0,.07a.2.2,0,0,1,0,.11.14.14,0,0,1-.07.08s-.06,0-.09,0-.06,0-.06-.08S11.63,2.19,11.65,2.15Z"/>
      <path d="M2.08,4.42l.27-.35.21.15L2.72,4l-.2-.15.07-.09-.16-.13-.08.09L1.78,3.3l-.16.2v0l.31.81Zm-.2-.68h0l.3.2L2,4.13l-.15-.35Z"/>
      <polygon points="1.67 11.06 0.51 11.56 0.82 12 1.01 11.93 0.9 11.69 1.8 11.32 1.67 11.06"/>
      <path d="M4.13,2.12a.22.22,0,0,1,0-.08L4.2,2a.11.11,0,0,1,.13,0,.29.29,0,0,1,.11.11.46.46,0,0,1,0,.13.11.11,0,0,1-.06.11.08.08,0,0,1-.11,0s-.07,0-.09-.08L4,2.41a.27.27,0,0,0,.22.17.53.53,0,0,0,.29-.08.34.34,0,0,0,.21-.25.4.4,0,0,0,0-.3.73.73,0,0,0-.24-.2.34.34,0,0,0-.28.05l-.07.06s0,0,0,.07l-.11-.22.41-.24-.11-.18-.59.35.27.61Z"/>
      <path d="M6.45,1.56a.46.46,0,0,0,.33.08A.45.45,0,0,0,7,1.49a.32.32,0,0,0,.07-.28A.34.34,0,0,0,7,1,.3.3,0,0,0,6.73.9a.22.22,0,0,0-.13,0A.29.29,0,0,0,6.52,1c0-.07,0-.15,0-.18S6.6.77,6.67.75a.18.18,0,0,1,.09,0,.2.2,0,0,1,.11,0l0-.18-.13,0a.32.32,0,0,0-.13,0,.47.47,0,0,0-.31.16.46.46,0,0,0-.07.35l0,.21A.35.35,0,0,0,6.45,1.56Zm.15-.44.09,0a.22.22,0,0,1,.11,0s0,.08,0,.13a.49.49,0,0,1,0,.13s0,.06-.08.07a.17.17,0,0,1-.13-.05.46.46,0,0,1-.07-.17l0-.05Z"/>
      <polygon points="15.78 9.64 14.93 9.51 14.89 9.77 15.98 9.96 15.98 9.42 15.82 9.4 15.78 9.64"/>
      <polygon points="15.58 10.56 14.77 10.34 14.71 10.58 15.74 10.88 15.8 10.36 15.63 10.32 15.58 10.56"/>
      <polygon points="15.56 5.71 15.36 5.77 15.45 6.04 14.53 6.34 14.62 6.63 15.82 6.23 15.56 5.71"/>
      <path d="M4.29,9.29l.17-.52.18.52Z"/>
    </g>
    <path d="M8.07,2.11a6.57,6.57,0,1,0,6.57,6.57A6.57,6.57,0,0,0,8.07,2.11ZM6.37,4,5.86,2.62C6,3,6.26,3.69,6.37,4Zm-.25.14-.36-.85C5.85,3.55,6.05,4,6.12,4.17Zm-.23.1L5.22,2.9C5.35,3.13,5.85,4.16,5.89,4.27Zm-1.23-1c.26.37.59.86.84,1.21-.33.27-.68.44-1,.72-.34-.28-1.08-.86-1.12-.86A6.5,6.5,0,0,1,4.66,3.22ZM1.76,7.79A6.44,6.44,0,0,1,2.91,4.88l1.26.73a4.93,4.93,0,0,0-.85,2.21h0C2.83,7.81,1.79,7.77,1.76,7.79Zm4.61,7.13a.17.17,0,0,0,0-.05l.31-1.4a4.92,4.92,0,0,0,1.33.2,4.94,4.94,0,0,0,1-.1c.08.48.2,1,.28,1.51A6,6,0,0,1,6.37,14.92Zm3.85-.06c-.14-.45-.3-1-.43-1.47a4.48,4.48,0,0,0,.68-.29c.23.4.51.86.74,1.29A8.18,8.18,0,0,1,10.22,14.86Zm1.18-1.3.26.44s0,0,0,.05Zm.87,0c-.31-.39-.58-.76-.86-1.13l1,1Zm-4.2-.16a4.77,4.77,0,1,1,4.77-4.77A4.78,4.78,0,0,1,8.07,13.45Zm5.21-4.21,1,1L13,10.53A4.85,4.85,0,0,0,13.28,9.24Z"/>
    <g>
      <path d="M6,7.71H5.58L5.49,8H5.23L5.68,6.7h.26L6.38,8H6.12Zm-.38-.2H6L5.81,7h0Z"/>
      <path d="M6.84,7.34h0L7,7h.29L7,7.5l.3.49H7l-.16-.32L6.69,8H6.4l.3-.49L6.41,7H6.7Z"/>
      <path d="M8.23,7.65h0L8.36,7H8.6L8.36,8H8.15L8,7.42H8L7.79,8H7.57L7.33,7h.24l.13.61h0L7.88,7h.17Z"/>
      <path d="M9.29,8a.14.14,0,0,0,0-.07l0-.08a.29.29,0,0,1-.1.12A.25.25,0,0,1,9,8a.36.36,0,0,1-.24-.08.29.29,0,0,1-.08-.21.25.25,0,0,1,.11-.22.56.56,0,0,1,.32-.08h.14V7.35a.14.14,0,0,0,0-.11.11.11,0,0,0-.1,0,.15.15,0,0,0-.1,0,.12.12,0,0,0,0,.09H8.73a.24.24,0,0,1,.1-.21A.47.47,0,0,1,9.13,7a.4.4,0,0,1,.27.09.31.31,0,0,1,.11.25v.39a.53.53,0,0,0,0,.13l0,.12Zm-.23-.18.12,0a.18.18,0,0,0,.07-.08V7.57H9.11a.17.17,0,0,0-.13,0,.13.13,0,0,0,0,.1.11.11,0,0,0,0,.08S9,7.81,9.06,7.81Z"/>
      <path d="M10,7.59v0h0L10.23,7h.28l-.39,1.1A.42.42,0,0,1,10,8.3a.28.28,0,0,1-.21.07H9.74l-.07,0,0-.19h.05a.15.15,0,0,0,.1,0,.22.22,0,0,0,.05-.08l0-.07L9.59,7h.28Z"/>
    </g>
    <g>
      <path d="M4.46,9.62H4l-.08.28H3.66L4.1,8.61h.26L4.8,9.9H4.54Zm-.39-.2h.32l-.16-.51h0Z"/>
      <path d="M5.26,8.61l.33,1h0l.33-1h.34V9.9H6V9.52L6,9H6l-.34,1H5.5L5.16,9h0l0,.57V9.9H4.92V8.61Z"/>
      <path d="M6.76,9.43V9.9H6.5V8.61H7a.48.48,0,0,1,.35.12A.35.35,0,0,1,7.49,9a.35.35,0,0,1-.13.3A.48.48,0,0,1,7,9.43Zm0-.2H7a.23.23,0,0,0,.16-.05A.2.2,0,0,0,7.23,9a.25.25,0,0,0-.05-.16A.24.24,0,0,0,7,8.81H6.76Z"/>
      <path d="M7.94,9.7h.57v.2H7.68V8.61h.26Z"/>
      <path d="M8.93,9.9H8.67V8.61h.26Z"/>
      <path d="M10,9.36H9.44V9.9H9.19V8.61h.88v.2H9.44v.36H10Z"/>
      <path d="M10.68,9.21h0l.28-.6h.29l-.45.84V9.9h-.25V9.43l-.44-.82h.29Z"/>
    </g>
    <g>
      <path d="M11.77,8.48h-.18V9h-.13V8.48h-.18v-.1h.49Z"/>
      <path d="M12,8.38l.16.48h0l.17-.48h.17V9h-.13V8.55h0L12.22,9h-.09L12,8.55h0V9h-.13V8.38Z"/>
    </g>
  </g>
</svg>
