<svg id="Layer_1" data-name="Layer 1" xmlns="http://www.w3.org/2000/svg" viewBox="0 0 16 16">
  <defs>
    <style>
      .cls-1 {
        fill-rule: evenodd;
      }
    </style>
  </defs>
  <title>api</title>
  <g>
    <path class="cls-1" d="M5.72,8.34h.9L6.18,7.15h0L5.72,8.34Zm1,.3H5.6l-.25.67H5L6,6.69h.33l1,2.62H7Z"/>
    <path class="cls-1" d="M8.19,8h.66a.53.53,0,0,0,.39-.15.47.47,0,0,0,.15-.35.48.48,0,0,0-.15-.37A.49.49,0,0,0,8.85,7H8.19V8Zm0,.27h0V9.31H7.83V6.69h1a1,1,0,0,1,.65.23.7.7,0,0,1,.23.55A.7.7,0,0,1,9.5,8a.94.94,0,0,1-.65.22Z"/>
    <path class="cls-1" d="M10.21,6.69h.47V9.31h-.47Z"/>
    <path class="cls-1" d="M9,3.49H9A4.57,4.57,0,0,1,12.56,8a4.4,4.4,0,0,1-.22,1.42l.75,2.53,2.31-1.09A8.2,8.2,0,0,0,15.92,8,8,8,0,0,0,9.09,0l1.85,2.21Z"/>
    <path class="cls-1" d="M1.56,9.28h0L3.91,10a4.44,4.44,0,0,1-.54-2.11A4.56,4.56,0,0,1,7.66,3.42L9.73,2.11,7.94,0h0a8,8,0,0,0-8,7.9,7.77,7.77,0,0,0,1.1,4Z"/>
    <path class="cls-1" d="M12.67,12.92h0l-.76-2.57a4.45,4.45,0,0,1-7.08.75l-2.48-.84-.47,2.6A7.8,7.8,0,0,0,8.09,16,7.9,7.9,0,0,0,15,11.85Z"/>
  </g>
</svg>
