<svg id="Layer_1" data-name="Layer 1" xmlns="http://www.w3.org/2000/svg" viewBox="0 0 16 16">
  <title>api_builder</title>
  <g>
    <path d="M4.52,11.79c.72,0,1.46,0,2.18,0A1.26,1.26,0,0,0,8,11.05c.43-.8.88-1.57,1.36-2.32a1.28,1.28,0,0,0,0-1.49C8.88,6.47,8.43,5.7,8,4.93a1.33,1.33,0,0,0-1.3-.72c-1.44,0-2.85,0-4.28,0-.56,0-1.09,0-1.36-.64s.19-1,.56-1.36C5.74-1.94,13.11,0,14.79,5.75A8,8,0,0,1,2.71,14.67a6.38,6.38,0,0,1-1.25-1.12,1.4,1.4,0,0,1-.32-1.12,1.47,1.47,0,0,1,1-.61,23.31,23.31,0,0,1,2.37,0Z"/>
    <path d="M5.16,10.73c-.62-.19-1.33-.21-1.68-.59A3.9,3.9,0,0,1,2.31,7.93a3.74,3.74,0,0,1,1.17-2.2c.32-.35,1.09-.3,1.68-.32s1.22,0,1.49.26A4.32,4.32,0,0,1,7.82,7.91,4.09,4.09,0,0,1,6.7,10.14C6.38,10.52,5.72,10.54,5.16,10.73Z"/>
  </g>
</svg>
