<svg id="Layer_1" data-name="Layer 1" xmlns="http://www.w3.org/2000/svg" viewBox="0 0 16 16">
  <title>b2b</title>
  <path d="M10.82,3.17h-.74V2.1h.64a.69.69,0,0,1,.48.15.58.58,0,0,1,.18.41.52.52,0,0,1-.15.38A.76.76,0,0,1,10.82,3.17ZM5.61,3a.52.52,0,0,0,.15-.38.48.48,0,0,0-.18-.41A.67.67,0,0,0,5.1,2.1H4.47V3.17H5.2A.63.63,0,0,0,5.61,3Zm5.72,1.53a.48.48,0,0,0,.18-.43.86.86,0,0,0-.13-.46A.57.57,0,0,0,11,3.5h-.84V4.7h.76A.61.61,0,0,0,11.33,4.57Zm-5.59,0a.51.51,0,0,0,.18-.43,1,1,0,0,0-.13-.46.57.57,0,0,0-.43-.18H4.52V4.7h.76A.61.61,0,0,0,5.74,4.57ZM15.75,2V14a2,2,0,0,1-1.95,2H2.2A2,2,0,0,1,.25,14V2a2,2,0,0,1,2-2H13.8A2,2,0,0,1,15.75,2ZM9.65,5.08h1.2a1.31,1.31,0,0,0,.79-.26.8.8,0,0,0,.3-.68.79.79,0,0,0-.18-.54.81.81,0,0,0-.46-.3A1.14,1.14,0,0,0,11.66,3a.51.51,0,0,0,.13-.38A.8.8,0,0,0,11.51,2a1.33,1.33,0,0,0-.82-.23h-1ZM6.88,2.76h.46a.69.69,0,0,1,.15-.48A.61.61,0,0,1,8,2.1a.47.47,0,0,1,.41.18.58.58,0,0,1,.15.41.8.8,0,0,1-.1.38A3.37,3.37,0,0,1,8,3.58L6.91,4.77v.31H9.12V4.72H7.47v0l.91-.92a4.43,4.43,0,0,0,.48-.58A1,1,0,0,0,9,2.66.92.92,0,0,0,8.74,2,1,1,0,0,0,8,1.75,1.21,1.21,0,0,0,7.16,2a.94.94,0,0,0-.28.73ZM4.06,5.08H5.25A1.29,1.29,0,0,0,6,4.82a.78.78,0,0,0,.31-.68.79.79,0,0,0-.18-.54.81.81,0,0,0-.46-.3A1.14,1.14,0,0,0,6.07,3a.5.5,0,0,0,.12-.38A.83.83,0,0,0,5.92,2a1.33,1.33,0,0,0-.82-.23h-1ZM15,6.58a1.08,1.08,0,0,1-.56.17H1.59A1.08,1.08,0,0,1,1,6.58V14a1.19,1.19,0,0,0,1.2,1.19H13.82A1.17,1.17,0,0,0,15,14V6.58Zm-3.49,5.11.92.89a.14.14,0,0,1,0,.1c0,.05,0,.1,0,.1l-.92.89a.14.14,0,0,1-.1.05.14.14,0,0,1-.15-.15s0-.08,0-.1l.69-.64H9.53a.2.2,0,0,1-.13-.05h0l-1-1.14.21-.23,1,1.14h2.34l-.69-.66a.15.15,0,0,1,0-.1.13.13,0,0,1,.15-.15s.08,0,.1,0Zm.46-2.14H9.6L6.86,12.78h0a.16.16,0,0,1-.11.05H4a.15.15,0,0,1-.15-.15A.14.14,0,0,1,4,12.55h2.7L9.42,9.32h0a.25.25,0,0,1,.13-.05H12l-.69-.63a.15.15,0,0,1,0-.11c0-.1.05-.15.16-.15s.1,0,.1,0l.91.89a.12.12,0,0,1,.05.1c0,.05,0,.11-.05.11l-.91.89s0,.05-.1.05a.15.15,0,0,1-.16-.16s0-.07,0-.1l.66-.66ZM3.81,9.4A.14.14,0,0,1,4,9.27H6.73s.1,0,.1.05h0l1,1.15-.18.22-1-1.14H4A.14.14,0,0,1,3.81,9.4Z"/>
</svg>
