<svg id="Layer_1" data-name="Layer 1" xmlns="http://www.w3.org/2000/svg" viewBox="0 0 16 16">
  <title>book</title>
  <path d="M15.73,4.14h0a.3.3,0,0,1-.32-.34V2.08a.34.34,0,0,0-.34-.34H10.14a2.19,2.19,0,0,0-1.81.61l0,0h0l-.1.13h0c-.13.18-.24.11-.3,0l-.18-.23-.09-.12a1.83,1.83,0,0,0-1.36-.48H1a.34.34,0,0,0-.33.34v1.7c0,.29-.16.35-.26.36H.35c-.08,0-.26.06-.26.4v8.1A.36.36,0,0,0,.45,13H5.23a3.09,3.09,0,0,1,2.39.8l.12.14h0a.41.41,0,0,0,.63,0l.06-.08h0l.09-.1.05-.06a3,3,0,0,1,2.14-.7h4.93a.36.36,0,0,0,.36-.36V4.46A.28.28,0,0,0,15.73,4.14Zm-1.07,7.23a.3.3,0,0,1-.3.29H10.3a2.51,2.51,0,0,0-2,.65l-.07.09,0,0h0c-.14.19-.34,0-.34,0l-.09-.11a2.37,2.37,0,0,0-1.89-.67H1.73a.29.29,0,0,1-.3-.29V2.74a.29.29,0,0,1,.3-.29H5c2.41,0,2.64,1.37,2.66,1.77v6c0,.44.21.52.32.53h.18c.12,0,.31-.08.31-.42V4.14h0a1.58,1.58,0,0,1,1.66-1.69h4.25a.3.3,0,0,1,.3.29Z"/>
</svg>
