<svg id="Layer_1" data-name="Layer 1" xmlns="http://www.w3.org/2000/svg" viewBox="0 0 1080 600">
  <title>CC14</title>
  <rect width="1080" height="600" style="fill: #fff"/>
  <g id="r2">
    <path d="M1032.86,290.14V493.86H649.14V290.14h383.72M1034,289H648V495h386V289Z" style="fill: #8e8e8e"/>
  </g>
  <g id="r1">
    <path d="M1032.86,69.14V228.86H649.14V69.14h383.72M1034,68H648V230h386V68Z" style="fill: #8e8e8e"/>
  </g>
  <g id="orb3_dash">
    <path d="M302,170h-3.17c-.67,0-1.33,0-2,.06h-.37l-.25,0h-1.09l-1.12.06.24,4c2.57-.15,5.18-.23,7.76-.23v-4Zm-16,1-2.18.29h-.06l-.19,0h-.06l-.24,0h-.07l-.18,0h-.13l-.25,0h0c-1.52.23-3,.48-4.55.76l.72,3.93c2.53-.46,5.11-.86,7.67-1.17l-.48-4Zm-15.73,2.9q-3,.75-6,1.65h0l-.24.07h0l-.06,0h0l-.24.07h-.06l-.12,0h0l-.05,0h-.07l-.11,0h0l-.05,0h0l-.05,0h0l-.11,0H263l0,0h0l-.12,0h0l0,0h-.13l1.2,3.81c2.46-.77,5-1.48,7.47-2.1l-1-3.88Zm-15.25,4.8-1.83.72h0l-.18.08h-.1l-.13.06h0l0,0h0l0,0h0l-.13,0h-.11l-.12.05h0l0,0h0l-.17.07h0l0,0h0l-.18.08h0l0,0h0l-.18.07h0c-1.33.56-2.65,1.14-4,1.74l1.66,3.64c2.35-1.07,4.75-2.08,7.15-3l-1.43-3.74Zm-14.55,6.64,0,0h0l-.06,0h0l-.11.06h0l0,0h0l0,0h0l-.11.05h0l0,0h0l0,0h0l0,0h0l0,0h0l0,0h-.05l0,0,0,0h0l0,0h0l0,0h0l-.1.06h0l0,0h0l0,0h0l-.11.07h0l0,0h0l0,0h0l-.12.07h0l0,0h0l-.17.09h0l-.21.12h0l0,0h0l-.17.1h0l-.16.09h0l0,0h0l-.16.09h0l0,0h0l-.17.09h0l0,0h0l-.12.07h0l0,0h0l0,0h0l-.11.06h0l0,0h0l0,0h0l-.11.06h0l0,0h0l0,0h0l-.08,0h0l0,0h-.06l0,0h0l0,0h0l0,0h0l0,0h-.06l-.06,0h-.05l0,0h0l0,0,0,0h0l0,0h0l0,0h0l0,0h0l0,0,0,0h0l0,0h0l0,0h0l0,0,0,0,0,0h-.05l0,0h0l0,0,0,0h0l0,0h0l0,0h0l0,0h0l0,0h0l0,0h0l0,0h0l0,0,0,0h0l0,0h0l0,0h0l0,0h0l0,0h0l0,0h0l0,0H235l-.06,0h0l0,0h0l0,0h0l-.1.07h0l0,0h0l0,0h0l-.11.07h0l0,0h0l-.88.53,2.09,3.41c2.2-1.35,4.46-2.64,6.73-3.85l-1.88-3.53Zm-13.63,8.36L225,195h0l0,0h0l-.1.07h0l-.05,0h0l0,0h0l-.1.07h0l0,0h0l0,0h0l0,0h0l0,0,0,0,0,0h0l0,0,0,0,0,0h0l0,0,0,0h0l0,0h0l-.06,0h0l0,0h0l0,0h0l-.11.08h0l0,0h0l0,0h0l-.12.09h0l0,0h0c-.8.6-1.59,1.2-2.38,1.82h0l-.12.09h0l0,0h0l0,0h0l0,0h0l-.06,0h0l0,0h0l0,0,0,0h0l0,0h0l0,0h0l0,0h0l0,0h0l0,0h0l0,0h0l0,0h0l2.49,3.13c2-1.6,4.1-3.17,6.21-4.64l-2.3-3.28Zm-12.51,10-.85.77h0l-.1.09h0l0,0h0l0,0,0,0h0l0,0h0l0,0h0l0,0h0l-.09.08h0l0,0h0l0,0h0c-1.5,1.38-3,2.81-4.4,4.26l2.86,2.81c1.8-1.84,3.69-3.64,5.6-5.37l-2.68-3ZM203.16,215q-1.66,1.92-3.27,3.91h0l0,0h0l-.08.11h0l0,0v0l0,0h0l-.08.09v0l0,0h0l0,0,0,0,0,0,0,0,0,0,0,0v0l0,0v0l0,0h0l0,0h0l0,0v0l0,0h0l0,.05h0l0,0v0l0,0h0l-.07.1h0l0,0h0l0,0h0l-.08.09h0l0,0h0l-.11.14h0l0,0h0l-.12.15h0l0,.05h0l-.07.1h0l0,0h0l-.11.14h0l0,0h0l-.07.1h0l0,.05h0l0,0h0l0,.05,3.17,2.44c1.57-2,3.23-4.06,4.92-6l-3-2.63Zm-9.75,12.68q-1.42,2.12-2.78,4.29h0l-.13.2h0l0,0h0l-.06.1h0l0,0v0l0,0h0l0,0v0l0,0v0l0,0v0l0,0v0l0,0,0,0v0l0,0v0l0,0h0L190,233h0l0,0h0c-.29.47-.57.94-.85,1.42l3.44,2c1.31-2.21,2.7-4.42,4.15-6.55l-3.32-2.24Zm-8.13,13.76v.07l0,0v0l0,0h0l0,0v0l0,0v.07l0,0v.07l0,0v0l0,0h0l0,0h0l0,0v.06h0l0,0h0l0,0v0l0,0v.08l0,0v0l0,.05v0l0,0v0l0,0v0l0,0h0l0,.05v0l0,0v0l0,0h0l0,0h0l0,0v0l0,0v0l0,0v0l0,0h0l0,.05v0l0,0v0l0,0v0l0,.05h0l0,0v0l0,0v0l0,0h0l0,.05h0l0,0h0l0,0h0l0,.05h0l0,.06h0l0,.05h0l0,0v0l0,0h0l0,.05h0l0,.05h0l0,0h0l-.05.11h0l0,0h0l0,0v0l-.05.1h0l0,0v0l0,0h0l0,.11h0l0,0h0l0,0v0l-.05.1h0l0,0v0l0,0h0l0,.06h0l0,0h0l0,0v0l0,0h0l0,.05h0l0,0v0l0,0h0l0,0h0l0,.06h0l0,0h0l0,0v0l0,0h0l0,.05v0l0,0v0l0,0V246l0,0v0l0,0v.07l0,0v0l0,0v.1l0,0v0l0,.05v.07l0,0v.05h0l0,.07h0l0,0h0v0h0l-.05.12h0v0h0l0,0h0l-.08.18h0c-.23.51-.45,1-.67,1.52l3.67,1.59c1-2.35,2.14-4.71,3.31-7l-3.56-1.82Zm-6.39,14.66v0l0,0v.23l0,.11h0l0,.06h0l0,0h0c-.69,1.92-1.34,3.85-1.94,5.81h0l0,.18h0l0,.05h0l0,.05h0l0,.11V263l0,.05v0l0,0v.38h0l0,.08h0v0h0v0h0v0l3.84,1.13c.73-2.46,1.55-4.94,2.43-7.36l-3.76-1.37Zm-4.54,15.33c-.43,1.86-.82,3.72-1.17,5.61h0v0h0v0h0l0,.14h0v.44h0l0,.13h0v.06h0c-.08.45-.16.9-.23,1.36l3.94.66c.43-2.54.94-5.1,1.51-7.61l-3.89-.9Zm-2.63,15.77c-.08.73-.15,1.45-.21,2.17h0l0,.25h0v.06h0l0,.25h0V290h0a1.94,1.94,0,0,1,0,.24h0v.06h0l0,.24h0v.06h0c0,.1,0,.2,0,.31h0c0,.08,0,.16,0,.25h0v.06h0l0,.25h0v.06h0v.06h0v.19h0v.06h0v.05h0v.18h0v.05h0v.05h0v.18h0v.05h0v.05h0v.06h0v.06h0v.66h0v.1h0v0h0c0,.56-.06,1.11-.08,1.67l4,.18c.11-2.58.31-5.18.57-7.74l-4-.42Zm3.3,15.92-4,.06c0,.42,0,.84,0,1.26h0v.25h0v.06h0v.05h0V305h0v.06h0v.05h0v.06h0v.13h0v.06h0v.11h0v.12h0v0h0v0h0v.05h0v.06h0V306h0v.55h0v.12h0v.17h0v.75h0v1h0v0h0v.1h0v.05h0v.15h0V309h0v0h0c0,.11,0,.21,0,.31h0c0,.61.08,1.22.13,1.83l4-.3c-.2-2.57-.32-5.17-.36-7.75Zm1.19,15.46-4,.55c.05.37.1.74.16,1.11h0l0,.24h0v.05h0l0,.18h0v.05h0v.05h0l0,.12h0v.19l0,.11v.19h0v.23h0l0,.12V322h0v.05h0v.06h0v.05h0v.05h0v.05h0l0,.12h0v.05h0v.05h0v.05h0l0,.12h0v.06h0v.05h0l0,.17h0v.05h0c0,.08,0,.16,0,.24h0c.21,1.23.44,2.45.69,3.67l3.92-.79c-.51-2.52-.95-5.09-1.3-7.64Zm3.06,15.19-3.86,1c.16.61.32,1.21.49,1.81h0v.05h0l0,.05h0l0,.11V337l0,.06v.11h0v0h0c.51,1.76,1,3.51,1.62,5.23l3.8-1.26c-.82-2.44-1.56-4.94-2.23-7.43Zm4.91,14.7-3.71,1.5q1.32,3.28,2.82,6.47h0l0,0h0l.06.11h0l0,.05h0l0,0h0l.05.11h0l0,0h0l0,.05h0l.05.1h0l0,0v0l0,0h0l0,.05h0l0,.05h0l3.61-1.72c-1.11-2.32-2.16-4.71-3.12-7.1Zm6.67,14-3.5,1.94c.46.83.92,1.65,1.4,2.47h0l.1.17h0l0,0h0l.07.11h0l0,0h0l0,0v0l0,.06h0l0,0v0l0,0v0l0,0,0,0,0,0v0l0,0v0l0,0v0l0,0,0,0,0,0v0l0,0v0l0,0h0l0,.05h0l0,0h0l0,0h0l.07.11h0l0,0h0l0,.05h0l.09.16h0l0,.05h0l.09.16h0l.48.8h0l.1.16h0l0,0h0l.09.16h0l0,.05h0l.06.1h0l0,.05h0l0,0h0l0,.05h0l0,.05h0l0,0h0l0,0v0l0,0,0,0v0l0,0v0l0,0h0l.09.16h0l.38.61,3.37-2.15c-1.38-2.17-2.72-4.42-4-6.67Zm8.33,13.08-3.24,2.35c.8,1.09,1.61,2.18,2.44,3.25h0l0,0h0l.07.09h0l0,0h0l0,0h0l0,0v0l0,0,0,0,0,0v0l0,0,.07.1h0l0,0h0l0,0h0l.09.12h0c.62.79,1.26,1.58,1.9,2.35l3.08-2.54c-1.63-2-3.23-4.05-4.74-6.13Zm9.85,12-2.92,2.73q2.12,2.28,4.34,4.45h0l0,0h0l.1.1h0l0,0h0l0,0h0l.07.06h0l0,0v0l0,0h0l0,0h0l0,0,0,0,0,0,0,0v0l0,0v0l0,0h0l0,0h0l0,0h0l.09.08h0l0,0h0l.45.43,2.76-2.9c-1.87-1.78-3.7-3.63-5.46-5.52Zm11.24,10.69-2.58,3.06q3.06,2.58,6.28,5l2.38-3.21c-2.06-1.53-4.11-3.15-6.08-4.81Zm12.45,9.24-2.19,3.36c1.33.86,2.68,1.71,4.05,2.53h0l.16.1h0l0,0h0l0,0h0l.06,0,0,0H235l0,0,0,0h0l.05,0h0l0,0,0,0h0v0l0,0h0l.05,0h0l.05,0h0l0,0h0l2,1.13,2-3.48c-2.24-1.27-4.47-2.63-6.62-4Zm13.47,7.66-1.76,3.6,2.8,1.33h0l0,0h0l.17.08h0l0,0h0l0,0h0l.08,0h0l0,0h.12l.05,0h.1l0,0h0l0,0h.08l0,0h0l0,0h0l.05,0h.07l0,0h0l.05,0h0l.05,0h0l0,0h0l0,0h0l.11.05h0l.06,0h0l.05,0h0l.11.05h0l0,0h0l0,0h0l.11.05h0l.05,0h0l.05,0h0l.11,0h0l.05,0h0l.05,0h0l.11.05h0l0,0h0l0,0h0l.1.05H250l0,0h0l0,0h.15l.06,0h0l0,0h0l0,0h0l1.3.55,1.54-3.69c-2.38-1-4.76-2.06-7.07-3.2Zm14.31,6-1.3,3.78c1.05.36,2.11.71,3.17,1h.05l.19.05h.06l0,0h0l.14,0h.1l.14,0h.11l.13,0h.11l.13,0h0l0,0h.11l.09,0H264l.13,0h.12l.13,0h.06l0,0h0l.12,0h.13l.11,0H265l.07,0h.19l.05,0h.19l0,0h.16l0,0h.21l0,0h.19l.06,0h.13l0,0h0l.17.05h.06l.18.05h0l1.08-3.86c-2.48-.69-5-1.46-7.41-2.3Zm14.93,4.15-.83,3.91c1.42.3,2.85.58,4.28.84H279l.12,0h.75l.1,0H280l.24,0h0c.73.12,1.46.24,2.19.34l.6-3.95c-2.55-.38-5.12-.85-7.64-1.38Zm15.34,2.29-.35,4,1.11.1h0l.25,0h1.39c1.74.11,3.48.19,5.23.24l.11-4c-2.58-.07-5.18-.22-7.74-.44Zm23.24-.07c-2.56.24-5.16.4-7.74.49l.13,4,2-.08h.06l.25,0h1.63l.31,0h0l1.24-.08h0l.31,0h.07l.18,0h.83l.14,0h.11l.91-.08-.38-4Zm15.32-2.39c-2.51.55-5.08,1-7.62,1.43l.61,3.95q3.1-.48,6.16-1.11h0l.18,0h.19l0,0h.16l1.13-.24-.86-3.91Zm14.9-4.24c-2.42.85-4.91,1.65-7.38,2.35l1.09,3.85,1.44-.42h0l.06,0h0l.12,0h.12l.05,0h0l.05,0H340l.05,0h.16l.12,0h.06l0,0h0l.14,0h.1l.19-.06h.05l2.44-.79h0l.19-.06h0l0,0h0l.18-.06h0l0,0h.05l.14,0h0l0,0h.06l.12,0h0l0,0h.12l.06,0h.19l0,0h.17l0,0h.19l.11,0h.12l.12,0h0l.05,0h0l.05,0h0l-1.33-3.77Zm14.28-6c-2.31,1.15-4.68,2.24-7.05,3.24l1.56,3.68c1-.43,2-.87,3-1.33h0l.06,0h0l.17-.07h0l0,0h0l.16-.08h0l.05,0h0l.1,0h0l.05,0h.07l0,0h0l.05,0h0l0,0h0l0,0h0l.05,0h0l.05,0h0l0,0h.07l0,0h0l0,0h.08l0,0h.05l.05,0h0l0,0h.11l.07,0h0l0,0h0l0,0h0l.12-.06h0l0,0h0l0,0h0l.17-.08h0l2-1-1.78-3.58ZM371.94,407c-2.15,1.42-4.37,2.79-6.6,4.07l2,3.47c2.32-1.34,4.58-2.74,6.8-4.21l-2.2-3.33Zm12.39-9.32c-2,1.67-4,3.3-6.06,4.84l2.41,3.2.15-.11h0l.05,0h0l.1-.07h0l0,0h0l0,0h0l.05,0h0l0,0,0,0,0,0h0l0,0,0,0,0,0,0,0h0l0,0h0l0,0h0l.11-.08h0l0,0h0c1-.79,2-1.58,3-2.4h0l0,0h0l.1-.08h0l0,0h0l0,0h0l.05,0h0l0,0,0,0,0,0,0,0h0l0,0h0l0,0h0l0,0h0l0,0h0l.09-.07h0l.05,0h0c.52-.42,1-.85,1.53-1.28l-2.59-3ZM395.5,387c-1.75,1.9-3.57,3.76-5.42,5.55l2.77,2.88c1.92-1.85,3.79-3.76,5.59-5.72L395.5,387Zm9.78-12c-1.5,2.09-3.08,4.17-4.71,6.17l3.1,2.52h0l0-.05h0l0,0h0l0,0h0l.08-.09h0l0,0h0l.12-.15h0l0,0h0l.11-.14h0l0-.05h0l.08-.1h0l0,0h0l0,0h0l.08-.09h0l0,0h0l.11-.15h0l0,0h0l.08-.09h0l0,0h0l0,0h0l.07-.09h0l0,0v0l0,0h0l0-.05h0l0,0v0l0,0h0l0,0h0l0,0,0,0,0,0v0l0,0,0,0,0,0,0,0v0l0,0,0,0,0,0v0l0,0h0l.06-.07h0l0,0h0l0,0h0l.08-.11h0l0,0h0c1-1.28,1.95-2.57,2.89-3.89l-3.25-2.33Zm8.25-13.12c-1.23,2.26-2.55,4.51-3.92,6.69l3.38,2.12q2.13-3.37,4.05-6.89l-3.51-1.92Zm6.58-14c-.94,2.39-2,4.78-3.07,7.11l3.62,1.7q1.69-3.61,3.17-7.34l-3.72-1.47ZM424.93,333c-.65,2.5-1.38,5-2.18,7.44l3.8,1.25c.35-1.08.69-2.17,1-3.26h0v0h0v0h0l0-.12v-.35l0,0h0l0-.12h0l0-.05h0c.35-1.2.68-2.41,1-3.62l-3.87-1Zm3-15.21c-.34,2.56-.76,5.13-1.26,7.65l3.93.77c.06-.33.13-.65.19-1h0l0-.18h0V325h0V325h0l0-.11h0v-.17h0v-.06h0v-.51l0-.07h0v-.1h0v-.06l0-.12v-.06h0v-.1h0l0-.09h0v0h0v-.1h0l0-.14h0V323h0v0h0l0-.13v-.06h0v-.06l0-.12v-.06h0v-.1h0l0-.13h0V320h0v-.16l0-.13h0v-.05h0v0h0l0-.2h0v-.05h0v-.05h0c0-.32.09-.65.13-1l-4-.53ZM429,302.36c0,2.57-.13,5.18-.31,7.75l4,.28c0-.58.08-1.16.11-1.74h0a1.93,1.93,0,0,0,0-.24v-.19h0v-.58h0v-.2h0v-.05h0v-.05h0c.08-1.63.13-3.28.14-4.92l-4,0Zm3.21-15.94-4,.44c.29,2.56.49,5.16.62,7.74l4-.2c-.14-2.69-.35-5.34-.64-8Zm-2.73-15.75-3.89.92c.59,2.5,1.12,5.06,1.55,7.6l3.95-.69c-.2-1.11-.4-2.22-.62-3.32h0v-.05h0l0-.17h0v-.05h0v-.05h0l0-.12h0v-.05h0v-.05h0v-.06h0v-.06h0v-.16h0v-.06h0l0-.06V274h0v-.54h0v-.55h0v-.17h0v-.05h0l0-.06h0v-.05h0v-.11h0l0-.11h0v-.05h0v-.05h0l0-.18h0l0-.06h0c-.09-.41-.18-.81-.28-1.21Zm-4.64-15.31-3.75,1.4c.9,2.41,1.73,4.88,2.48,7.35l3.83-1.17c-.33-1.07-.67-2.13-1-3.19h0v0h0l-.07-.19h0v-.05h0l-.06-.18h0v0h0v0h0l0-.09h0v0h0v-.11l0-.05v-.51h0v-.16h0l0-.05h0l0-.05h0l0-.05h0l0-.05h0l0-.06h0l0-.06h0l0,0h0l0,0h0l0-.11h0l0,0h0l-.06-.17h0l0-.05h0l0-.06h0l0-.12h0l0-.05h0l-.08-.23h0l-.09-.24h0c-.14-.39-.28-.78-.43-1.17h0l0,0Zm-6.48-14.61-3.55,1.84c1.19,2.28,2.32,4.64,3.36,7l3.66-1.62-1-2.11h0l0-.06h0l-.05-.11h0l0,0h0l0-.05h0l-.05-.11h0l0,0h0v-.06l0-.05h0l0,0v0l0,0v-.08l0-.05v0l0,0v-.07l-.06-.12h0l0,0h0c-.63-1.32-1.27-2.61-1.94-3.91h0l0-.08ZM410.13,227l-3.3,2.26c1.46,2.13,2.87,4.32,4.19,6.53l3.43-2.06c-1.37-2.29-2.81-4.54-4.32-6.73Zm-9.82-12.62-3,2.65c1.7,1.93,3.36,3.94,4.95,6l3.15-2.46-1.14-1.45h0l0,0h0l-.09-.11h0l0,0v0l0,0h0l-.08-.09v0l0,0v0l0,0h0l0-.05v0l0,0v0l0,0,0,0,0,0,0,0,0,0,0,0v0l0,0,0,0,0,0v0l0,0v0l0,0,0,0,0,0v0l0,0h0l0,0,0,0,0,0v0l0,0v0l0,0h0l0,0h0l0,0v0l0,0h0l0,0v0l0,0h0l0,0v0l0,0h0l0,0v0l0,0v0l0,0,0,0,0,0,0,0,0,0h0l0,0,0,0,0,0,0,0,0,0,0,0,0,0v0l0,0,0,0,0,0,0,0,0,0,0,0,0,0v0l0,0,0,0,0,0,0,0,0,0,0,0h0l0,0,0,0-.08-.09h0l0,0h0l0,0h0l-.05-.06h0l0,0,0,0,0,0v0l0,0h0l-.05-.06h0l0,0h0l0,0h0l-.08-.09h0l0,0,0,0,0,0v0l-.08-.09h0l0,0h0l0,0h0l-.05-.07h0l0,0h0l0,0h0l-.08-.1h0l0,0v0l0,0h0l-.08-.09v0l0,0,0,0,0,0v0l0,0,0,0,0,0v0l0,0,0,0,0,0,0,0,0,0,0,0,0,0,0,0,0,0v0l0,0,0,0h0l0,0,0,0,0,0,0,0,0,0,0,0,0,0v0l0,0h0l0,0h0l0-.05h0l0,0h0l0,0h0l0,0h0l0-.05ZM389,203.08l-2.66,3c1.92,1.71,3.82,3.5,5.63,5.33l2.84-2.82-.71-.71h0l-.18-.17h0l-.17-.17h0l-.13-.13h0l0,0h0l-.14-.12h0l0,0h0l-.09-.09h0l-.05,0h0l-.13-.13h0l0,0h0l-.13-.13h0l-.18-.18h0l-.14-.13h0l0,0h0l-.14-.13h0l-.13-.13h0l0,0h0l-.13-.13h0a1.37,1.37,0,0,0-.17-.17h0l0,0h0l-.14-.13h0l-.18-.17h0c-.85-.8-1.71-1.58-2.58-2.36Zm-12.58-9.88-2.27,3.29c2.11,1.46,4.21,3,6.24,4.61l2.47-3.15h0l-.1-.08h0l0,0h0l0,0h0l-.09-.07h0l0,0h0l0,0h0l0,0h0l0,0h0l0,0h0l0,0h0l-.05,0h0l0,0,0,0,0,0h0l0,0,0,0,0,0h0l0,0,0,0,0,0h0l0,0,0,0,0,0,0,0h0l0,0,0,0-.09-.06,0,0,0,0h0l0,0h0l-.06-.05h0l0,0h0l0,0h0l-.1-.08h0l0,0h0l0,0h0l-.11-.08h0l0,0h0l0,0h0l-.1-.08h0l0,0h0l-.15-.12h0l0,0h0l-.15-.12h0l-.16-.11h0l0,0h0c-1.28-1-2.57-1.88-3.89-2.79Zm-13.68-8.28-1.85,3.54c2.27,1.2,4.55,2.48,6.75,3.81l2.07-3.42q-1.41-.85-2.85-1.68h0l-.05,0h0l-.1-.06h0l0,0h0l-.05,0h0l-.1-.06h0l0,0h0l0,0h0l0,0,0,0h0l0,0h-.07l0,0h0l-.07,0h0l0,0h0l0,0h0l-.13-.07h0l0,0h0c-1-.56-2-1.11-3.06-1.65Zm-14.58-6.55-1.41,3.75c2.4.9,4.81,1.9,7.16,2.95l1.64-3.65c-2.43-1.09-4.89-2.1-7.39-3Zm-15.28-4.7-1,3.88c2.51.61,5,1.3,7.48,2.06l1.18-3.82-.6-.19h-.12l-.06,0h0l0,0h-.16l-.06,0h-.16q-3.21-1-6.5-1.75Zm-15.75-2.8-.46,4c2.56.3,5.14.67,7.68,1.12l.7-3.93c-2.12-.38-4.24-.7-6.39-1h-.11l-.14,0h-.72l-.56-.06ZM302,170v4c2.32,0,4.67.06,7,.19l.21-4c-1.71-.09-3.43-.15-5.16-.17h-2Z" style="fill: #b5b5b5"/>
  </g>
  <g id="orb2_dash">
    <path d="M300,120h-2.15c-2,0-3.94.08-5.89.17l.17,4c2.61-.11,5.25-.17,7.87-.17v-4Zm-16.07.71q-4,.36-8,.88l.54,4c2.58-.34,5.21-.64,7.81-.87l-.35-4ZM268,122.84c-1.1.19-2.19.4-3.28.62h-.33l-.13,0h-.46l-.06,0h-.42l-.41.09h0l-.14,0h0c-.89.18-1.77.38-2.66.58l.89,3.92c2.55-.58,5.14-1.1,7.71-1.56l-.71-4Zm-15.69,3.55h-.18q-2.53.69-5.05,1.47h0l-.07,0h0l-.26.08h0l-.07,0h0l0,0h-.31l0,0h0l-.21.07h0l-.05,0h0l-.05,0h0l-.05,0h0l-.05,0h0l-.05,0h0l-1.13.36h0l1.24,3.83c2.48-.81,5-1.56,7.53-2.25l-1.06-3.88ZM237,131.33l-2.05.79h0l-.05,0h0l-.21.09h0l0,0h-.12l0,0h-.08l0,0h0l-.05,0h0l-.06,0h0c-1.51.59-3,1.21-4.51,1.84h0l-.06,0h0l-.06,0h0l1.58,3.7c2.4-1,4.86-2,7.3-2.92L237,131.33Zm-14.79,6.31c-2.42,1.16-4.82,2.37-7.17,3.64l1.9,3.54c2.3-1.23,4.66-2.43,7-3.56l-1.74-3.62ZM208,145.24c-1,.62-2.06,1.25-3.09,1.89h0l-.46.28h0l-.06,0h0l0,0h0l0,0h0l0,0h0l0,0h0l0,0h0l0,0h0l0,0h0l0,0h0l0,0,0,0,0,0h0l0,0,0,0,0,0,0,0h0l0,0,0,0,0,0h0l0,0,0,0,0,0h0l0,0h0l0,0h0l0,0h0l-.42.26h0l0,0h0l-1.63,1.06,2.21,3.36c2.18-1.43,4.42-2.84,6.66-4.17L208,145.24Zm-13.43,8.84-1,.71h0l0,0h0l0,0h0l0,0h0l0,0,0,0,0,0,0,0h0l0,0h0c-.87.64-1.74,1.3-2.6,2h0l0,0h0l0,0h0l0,0h0l0,0h0l0,0,0,0h0l0,0h0c-.71.55-1.43,1.11-2.13,1.67l2.5,3.15c2-1.62,4.15-3.22,6.26-4.75l-2.35-3.26Zm-12.6,10-1.89,1.66h0l-.46.42h0l0,0h0l0,0h0l0,0h0l0,0,0,0,0,0h0l0,0,0,0,0,0,0,0,0,0,0,0,0,0,0,0,0,0,0,0v0l-.05,0h0l0,0v0l0,0,0,0,0,0,0,0,0,0h0l0,0,0,0,0,0,0,0,0,0h0l0,0v0l0,0h0l0,0v0l0,0h0l-.15.14h0l-.05,0h0l0,.05h0l0,0h0l0,0v0l0,0h0l0,0h0l0,0h0l0,0h0l0,0h0l-.35.32h0l-.05,0h0l-.05,0h0l0,0h0l0,0h0l0,0h0l0,0h0l-.39.36h0l0,0h0l-.05,0h0l0,0h0l-.05.05h0l-.49.46h0l0,0h0l-.05,0h0l-.06.07,2.77,2.92c1.89-1.8,3.85-3.58,5.82-5.29l-2.64-3Zm-11.66,11.08-.09.09h0l0,0h0l0,0h0l0,0h0l-.09.09h0l-.16.17h0l0,0,0,0,0,0,0,0,0,0,0,0,0,0,0,0,0,0,0,0,0,0,0,0h0l0,0h0l0,0h0q-2.11,2.22-4.15,4.52h0l0,0h0l0,.05h0l0,0v0l0,0,0,0,0,0,0,0h0c-.07.08-.14.15-.2.23l3,2.65c1.72-1.95,3.51-3.9,5.33-5.78l-2.9-2.79ZM159.7,187.23c-.42.52-.84,1-1.25,1.57h0l0,0h0l0,.05h0l0,0v0l0,0,0,0,0,0,0,0,0,0,0,0,0,0,0,0,0,0,0,0h0l-.17.22h0l0,0h0l0,.05h0l0,.05h0l0,0h0l0,.05h0q-1.49,1.92-2.93,3.89L158,196c1.54-2.11,3.15-4.21,4.79-6.24l-3.13-2.52Zm-9.52,13q-2.24,3.35-4.32,6.78l3.45,2.09c1.35-2.24,2.77-4.47,4.22-6.64l-3.35-2.23ZM141.86,214l-.39.72h0l0,.05,0,0,0,0v0l0,0v0l0,0v0l0,0,0,0v0l0,0h0l0,.05h0q-1.59,3-3.06,6l3.61,1.76c1.14-2.34,2.36-4.69,3.61-7L141.86,214Zm-7.06,14.45q-1.23,2.82-2.35,5.69h0l0,.06h0l0,.05v0l0,0v0l0,0v0l0,0v.06l0,.05h0l-.52,1.35,3.76,1.44c.93-2.44,1.93-4.89,3-7.29l-3.69-1.6Zm-5.73,15q-1.26,3.81-2.36,7.69l3.87,1.09c.71-2.51,1.49-5,2.3-7.52l-3.81-1.26Zm-4.36,15.48c0,.18-.09.37-.13.55h0v.35h0q-.61,2.69-1.15,5.41h0l0,.13v.24h0c-.08.39-.15.78-.22,1.17l4,.74c.48-2.56,1-5.15,1.62-7.69l-3.92-.92Zm-2.95,15.81c-.2,1.43-.39,2.88-.55,4.32h0v.07h0v.07h0v.07h0l0,.21h0v.07h0v.34h0l0,.13v.42h0V281h0l0,.14h0v.07h0v.06h0v.06h0v.06h0c0,.45-.09.89-.13,1.34l4,.38c.25-2.6.56-5.22.92-7.81l-4-.56Zm-1.53,16c-.1,2.14-.18,4.29-.21,6.45h0v.32h0v.06h0v.06h0v.06h0c0,.34,0,.69,0,1l4,0c0-2.61.09-5.26.22-7.86l-4-.2Zm3.92,15.93-4,.15c0,1,.08,1.91.13,2.86h0v.08h0c0,.12,0,.23,0,.35h0v.06h0v.06h0v.07h0v.07h0v.22h0v.21h0c0,.1,0,.19,0,.29h0v.06h0v.13h0v.06h0v.14h0v.06h0v.06h0v.06h0v.06h0a2.64,2.64,0,0,1,0,.28h0v.06h0v.06h0c.06.86.12,1.72.19,2.58l4-.32c-.21-2.6-.37-5.24-.46-7.86Zm1.28,15.68-4,.5c.34,2.68.73,5.32,1.19,8l4-.69c-.44-2.57-.83-5.18-1.16-7.77Zm2.67,15.49-3.93.86.24,1.09V340h0v.06h0c.5,2.15,1,4.29,1.59,6.42l3.89-1c-.67-2.52-1.3-5.09-1.86-7.64ZM132.16,353l-3.84,1.21.27.86h0l0,.05h0v.35l.07.22h0l0,.06h0l0,.05h0l0,.05h0l0,.05h0l0,.05h0c.21.63.42,1.27.64,1.9h0l0,.06h0l0,.06h0c0,.16.1.32.16.47h0l0,.05h0l0,.05h0l0,.05h0l0,.05h0l.12.36h0l0,.06h0v.05h0l0,.05h0l0,.05h0l0,.06h0c0,.15.11.31.16.47h0l0,.06h0l0,.06h0c.21.61.43,1.22.65,1.83l3.78-1.38c-.9-2.45-1.75-5-2.53-7.45Zm5.4,14.77-3.71,1.55c1,2.48,2.12,4.92,3.27,7.35l3.63-1.72c-1.11-2.36-2.18-4.78-3.19-7.18ZM144.27,382l-3.56,1.87V384l0,0v0l0,0,0,0v0l0,0v0l.11.2h0l0,0h0l0,0h0l0,.05h0l0,.05h0l0,.06h0l0,.05h0l.69,1.27h0l0,.05h0l0,.05h0l0,.05h0l0,0h0l0,.05h0l.05.1h0l.08.13v0l0,0,0,0v0l0,0v0l0,0v0l0,0v0l0,0v0l0,0v0l0,.05h0q1.11,2,2.27,4l3.47-2c-1.32-2.25-2.6-4.57-3.82-6.87Zm7.95,13.56-3.37,2.19q2.19,3.38,4.52,6.65l3.28-2.34c-1.52-2.12-3-4.31-4.43-6.5Zm9.14,12.8-3.17,2.48,1.32,1.67h0l0,0h0l0,0v0l0,0v0l0,0v0l0,0v0l0,0,0,0,0,0,0,0,0,0,0,0,0,0,0,0h0l0,.05h0l0,.06h0l0,.05h0l0,0h0l0,0h0l0,0v0l0,0v0l0,0h0l0,0h0l0,0h0l0,0h0l0,.05h0c.08.11.17.21.25.31h0l0,0h0l0,.05h0l0,0h0l0,0h0l0,0h0l0,0h0l0,0h0c.08.11.17.21.25.31h0l0,0h0l0,0h0l0,0h0l0,0v0l0,0v0l0,0,0,0,0,0h0l0,0h0l0,.05h0l.13.16h0l0,.05h0l0,0h0l0,0h0l0,0h0l0,0h0l0,0h0l0,0,0,0,0,0v0l0,0v0l0,0,0,0,0,0,0,0,0,0,0,0,0,0,0,0,0,0,0,0,0,0,0,0,0,0,0,0,0,0,0,0,0,0,0,0v0l0,0v0l0,0,0,0,0,0,0,0,0,0,0,0,0,0h0l0,0h0l.15.18h0l0,0h0l0,0h0l0,0h0l0,0h0l0,0h0l0,0h0l0,0h0l0,0h0l3.05-2.61c-1.7-2-3.37-4-5-6.09Zm10.23,11.94-2.93,2.75,1.32,1.4h0l.09.09h0l0,0h0l0,0h0l.05,0,0,0h0l0,0h0l0,0h0l0,0h0l0,0h0q1.55,1.6,3.14,3.17h0l0,0h0l0,0,0,0,0,0,0,0,0,0,0,0,0,0,0,0,0,0,0,0h0l.42.41L177.1,426c-1.87-1.82-3.72-3.71-5.51-5.62Zm11.26,11-2.68,3,1.35,1.19,0,0,0,0,0,0,0,0,0,0,0,0,0,0h0l0,0h0l0,0h0l0,0h0l0,0h0l0,0h0l1.84,1.58h0l.05,0h0l0,0h0l0,0h0l.05,0h0l0,0h0l0,0h0l.05,0h0l.05.05h0l0,0,0,0,0,0,0,0,0,0,0,0h0l0,0h0l0,0h0l0,0h0l0,0h0l1.7,1.4,2.54-3.12c-2-1.65-4-3.36-6-5.1ZM195,441.26l-2.4,3.23,1,.74h0l.05,0h0l.05,0h0l0,0h0l0,0h0l0,0h0l.35.25h0l.05,0h0l0,0h0l0,0h0l0,0h0l0,0h0l0,0h0l.05,0h0l0,0h0c.12.08.24.16.35.25h0l0,0h0l0,0h0l0,0h0l0,0h0l.05,0h0l0,0h0l.46.33h0l.05,0h0l0,0h0l0,0h0l.05,0h0c1.06.75,2.12,1.49,3.2,2.22l2.26-3.33c-2.16-1.46-4.32-3-6.42-4.55Zm13,8.82L206,453.5q3.42,2.12,7,4.06l1.95-3.52c-2.29-1.26-4.57-2.6-6.8-4Zm13.76,7.62L220,461.3h0q2.28,1.14,4.61,2.21h0l.06,0h0l.05,0h0l.05,0h0l0,0h0l0,0h0l0,0h.08l0,0,.13.06h0l.05,0h0l.05,0h0l0,0h0l0,0h0l0,0h0l0,0h0l.05,0h0l1.61.72,1.63-3.68c-2.39-1.06-4.78-2.18-7.12-3.34Zm14.38,6.35-1.46,3.75.58.23h0l.05,0h0l.05,0h.07l.05,0h0l.05,0h.06l.06,0h0l0,0h.08l0,0h.15l0,0h.08l.06,0h0l.32.12h0l.06,0h0l.06,0h0l.06,0h0l.06,0h0l.39.14h0l.06,0h0l.05,0h.08l.05,0h0l.05,0h.08l.05,0h0l.13,0h0l0,0h.09l0,0h.18l0,0h0l0,0h.07l.16,0h.07l0,0h0l0,0h0l.05,0h0l.05,0h.07c.86.31,1.73.62,2.6.91h.07l0,0h0l0,0h0l.05,0h0l.16,0h.22l0,0h0l0,0h0l.06,0h0l1.29-3.81c-2.47-.84-5-1.74-7.39-2.69Zm14.89,5L250,473l1.86.53h0l0,0h0l0,0h.14l0,0h0l.21.06h.44l.2.05h0l.05,0h0l.06,0h.14c1.48.4,3,.78,4.45,1.14h0l.94-3.91c-2.53-.61-5.09-1.29-7.6-2Zm15.29,3.68-.77,4,1.57.29h.66c1.89.34,3.79.66,5.7.94l.59-4c-2.58-.38-5.19-.83-7.75-1.32Zm15.55,2.29-.4,4,2.11.21h.31l.14,0h.22l2.42.2h.74l2.07.13.23-4c-2.6-.15-5.24-.36-7.84-.63Zm23.58.83c-1.82.06-3.67.09-5.5.09l-2.37,0-.06,4h4.33c1.24,0,2.48,0,3.72-.08l-.12-4Zm15.68-1.17c-2.59.31-5.22.56-7.83.76l.3,4,1.34-.11h.29l.21,0h1.37l.24,0h.26l.3,0h.14l.37,0h.19l.3,0h.27l.22,0H320l1.7-.2-.48-4Zm15.51-2.57c-2.55.54-5.15,1-7.72,1.46l.65,4,1.27-.21h.32l.14,0h.27q3-.53,5.91-1.15l-.84-3.93Zm15.22-3.95c-2.49.77-5,1.49-7.56,2.14l1,3.9,1.77-.47h.15l.05,0h.21l.06,0h0l.06,0h0l.06,0h0l.05,0h1.81l.06,0h.15l.05,0h0l.05,0h0l.05,0h0l.06,0h0c1-.29,2-.59,3-.9l-1.19-3.84Zm14.8-5.31c-2.41,1-4.88,1.94-7.34,2.82l1.36,3.79.94-.34h.2l0,0H362l.05,0h0q3.14-1.15,6.22-2.41l-1.53-3.73ZM381,456.28c-2.32,1.2-4.69,2.37-7.06,3.47l1.69,3.65c1.55-.72,3.1-1.47,4.63-2.23h0l.24-.12h0l0,0h0l0,0h0l0,0h0l0,0,0,0h.06l0,0h.06l0,0h0l1.89-1L381,456.28Zm13.61-7.86c-2.2,1.4-4.46,2.78-6.72,4.08l2,3.49.82-.48h0l0,0h0l0,0h0l0,0,0,0h0l0,0h0l0,0h0l.05,0h0q2-1.2,4-2.44h0l.05,0h0l0,0h0l0,0,0,0,0,0,0,0h0l0,0h0l1.34-.85-2.17-3.39Zm12.87-9.05c-2.07,1.6-4.2,3.17-6.33,4.67l2.31,3.29q2-1.41,4-2.87h0l0,0h0l0,0,0,0,0,0,0,0,0,0,0,0,0,0,0,0,0,0,0,0h0l0,0h0l0,0h0l.27-.2h0l.05,0h0l.06,0h0l1.29-1h0l.05,0h0l0,0h0l0,0h0l0,0,0,0,0,0,0,0,0,0,0,0,0,0,0,0h0l-2.46-3.18Zm12-10.15c-1.92,1.77-3.9,3.52-5.9,5.21l2.6,3.07c2.05-1.74,4.06-3.51,6-5.33l-2.73-2.95Zm11-11.19c-1.75,1.94-3.57,3.86-5.4,5.72l2.86,2.83h0l1.32-1.35h0l.08-.09h0l0-.05h0l0,0h0l.44-.45h0l0,0h0l0,0h0l0,0h0l0,0h0l0,0h0l0,0h0l.25-.26h0l0,0h0l0,0v0l0,0h0l0,0,0,0,0,0v0l0,0h0l0,0v0l0,0,0,0,0,0,0,0,0,0,0,0,0,0,0,0,0,0h0l.07-.07h0l0,0,0,0,0,0,0,0,0,0,0,0,0,0,0,0,0,0,0,0,0,0,0,0,0,0,0,0,0,0,0,0,0,0v0l0,0,0,0,0,0h0a2.09,2.09,0,0,1,.2-.22h0l0-.05h0l0,0h0l0,0h0l0,0h0l0,0h0l0,0h0l0,0h0c.5-.53,1-1.07,1.49-1.62l-3-2.7Zm10-12.12c-1.57,2.09-3.21,4.16-4.88,6.18l3.1,2.56q2.57-3.11,5-6.31l-3.21-2.43Zm8.9-13c-1.38,2.22-2.83,4.43-4.3,6.58l3.31,2.28c1.35-2,2.66-4,3.93-6h0l0,0,0,0,0,0v0l0,0,0,0v0l0,0,0,0,0,0v0l0,0h0l0-.05h0l.21-.33L449.45,393Zm7.72-13.7c-1.18,2.33-2.43,4.66-3.71,6.94l3.51,2c1.31-2.33,2.57-4.7,3.79-7.09l-3.59-1.82Zm6.45-14.34c-1,2.43-2,4.86-3.07,7.24l3.67,1.66c1.1-2.45,2.15-4.91,3.14-7.41l-3.74-1.49Zm5.14-14.85c-.74,2.5-1.55,5-2.4,7.48l3.8,1.32q1.3-3.8,2.45-7.66l-3.85-1.14Zm3.78-15.27c-.51,2.56-1.09,5.14-1.72,7.68l3.9,1c.65-2.59,1.23-5.21,1.76-7.85l-3.94-.79Zm2.4-15.53c-.29,2.59-.63,5.21-1,7.79l4,.62q.6-4,1.05-8l-4-.43Zm1-15.7c-.05,2.61-.16,5.26-.33,7.86l4,.26c.08-1.26.15-2.52.2-3.78h0v-.06h0v-.07h0v-.21h0v-.74h0v-.07c0-.1,0-.2,0-.3h0c0-.92.06-1.85.07-2.77l-4-.08Zm3.64-16-4,.28c.18,2.6.3,5.24.37,7.86l4-.1-.06-2h0v-.05h0v-.06h0c0-.12,0-.24,0-.37h0V293h0V293h0c0-.12,0-.25,0-.37h0v-.06h0q-.11-2.47-.27-4.95Zm-1.81-16-4,.63c.4,2.58.76,5.2,1.05,7.79l4-.45q-.45-4-1.08-8Zm-3.23-15.75-3.9,1c.64,2.53,1.22,5.11,1.75,7.67l3.94-.81q-.81-4-1.79-7.84Zm-4.64-15.41-3.79,1.34c.86,2.46,1.68,5,2.43,7.47l3.85-1.16q-.86-2.88-1.82-5.72h0l0-.05h0l0-.06h0l0,0h0v0c-.2-.56-.39-1.12-.59-1.69Zm-6-14.92-3.66,1.67c1.08,2.37,2.13,4.8,3.1,7.23l3.73-1.51c-.73-1.8-1.48-3.6-2.27-5.38h0l0,0v-.08l0,0v-.06l0,0v-.06l0,0v-.06l0,0v0l0,0v0l0,0h0l0-.06h0l0-.06h0l0,0h0l0,0h0l0-.06h0l0-.06h0l-.48-1Zm-7.31-14.32-3.5,2c1.29,2.27,2.55,4.6,3.73,6.93l3.59-1.83q-1.85-3.6-3.82-7.08ZM448,197.55l-3.3,2.3c1.48,2.14,2.94,4.35,4.33,6.56l3.41-2.15,0,0h0l0-.05h0l0-.05h0l0-.05h0l0-.06h0c-1.19-1.87-2.4-3.72-3.65-5.54h0l0-.05h0l0-.06h0l0,0h0l0,0h0l0-.05h0l0-.05h0l-.12-.17h0l0-.05,0,0,0,0,0,0v0l0,0,0,0,0,0,0,0,0,0h0l0,0h0l0,0Zm-9.74-12.79-3.09,2.57c1.67,2,3.32,4.08,4.9,6.15l3.2-2.43-.35-.47h0l0-.05h0l0-.05h0l0-.05h0l0,0h0l0-.05h0l-.21-.27h0l0,0h0l0,0v0l0,0v0l0,0v0l0,0v0l0,0,0,0v0l0,0v0l0,0v0l0,0v0l0,0h0l0,0h0l-.13-.18h0l0,0h0l0,0h0l0,0h0l0,0h0l0,0h0l0,0h0l0,0h0l-.27-.34h0l0,0h0l0,0h0l0,0h0l0,0h0l0,0h0l0,0h0l0,0h0l0,0h0c-.07-.09-.15-.18-.22-.28h0l0,0v0l0,0v0l0,0v0l0,0v0l0,0v0l0,0,0,0,0,0,0,0,0,0,0,0,0,0,0,0,0,0h0l0,0h0l-.06-.08v0l0,0v0l0,0v0l0,0,0,0v0l0,0,0,0,0,0,0,0,0,0,0,0,0,0,0,0,0,0,0,0,0,0v0l0,0h0l-.21-.26h0l0-.05h0l0,0h0l0-.05h0l0,0h0l-.05,0h0l-1.17-1.42Zm-10.85-11.88-2.84,2.84c1.84,1.85,3.67,3.76,5.43,5.69l3-2.71,0,0h0l0,0h0l0,0h0l0,0h0l0,0h0l0,0h0l0,0,0,0-.08-.09,0,0,0,0,0,0v0l0,0h0l0,0h0l0,0v0l0,0h0l0,0h0l0,0h0l0,0h0l0,0h0c-.58-.63-1.17-1.26-1.76-1.88h0l-.43-.45h0l0,0h0l0,0h0l0,0h0l0,0v0l0,0h0l0,0,0,0,0,0v0l0,0h0l0,0h0l-.06-.07,0,0h0l0,0,0,0,0,0,0,0,0,0,0,0,0,0,0,0,0,0v0l0,0,0,0,0,0h0l0,0h0l0,0h0l0,0h0l0-.05h0l-.37-.39h0l-1.18-1.18ZM415.58,162,413,165.09c2,1.67,4,3.42,5.91,5.18l2.72-3-1.12-1h0l-.36-.32h0l0,0h0l0,0h0l0,0h0l0,0,0,0,0,0h0l0,0h0l0,0h0l0,0,0,0-.26-.23h0l0,0h0l0,0,0,0,0,0h0l0,0h0l0,0h0l0,0h0l0,0h0l0,0h0l-.27-.24h0l0,0h0l0,0h0l0,0h0l0,0h0l0,0h0l0,0h0l0,0h0l0,0h0l-.37-.32h0l-.1-.08h0l0,0h0l0,0h0l0,0h0l-.43-.37h0l0,0h0l0,0v0l0,0,0,0,0,0h0l0,0h0l0,0,0,0,0,0,0,0,0,0,0,0,0,0h0l0,0-.05,0h0l0,0h0l0,0,0,0,0,0h0l-.05,0h0l0,0h0l0,0h0l0,0h0l-.05,0h0l-.88-.75Zm-12.77-9.77-2.3,3.3c2.14,1.49,4.28,3.05,6.35,4.64l2.44-3.2c-2-1.54-4.07-3-6.15-4.5h0l0,0h0l0,0h0l0,0h0l0,0h0l0,0,0,0,0,0,0,0Zm-13.59-8.6-2,3.49c2.26,1.3,4.53,2.66,6.74,4.06l2.15-3.4c-2.26-1.43-4.56-2.82-6.89-4.15Zm-14.31-7.35-1.68,3.66c2.38,1.08,4.75,2.24,7.08,3.43l1.84-3.58c-1.18-.6-2.35-1.19-3.54-1.76h0l0,0h0l-.05,0h0l0,0h0l0,0h0l0,0h0l0,0h0l0,0h0l-.05,0h0l-.15-.07H378l0,0h-.06l0,0h0l0,0h-.06l0,0h0l0,0h0l0,0h0l-.05,0h0l-.3-.14h0l-.05,0h0l-.05,0h0l-.06,0h0l-2.08-1Zm-14.91-6L358.66,134c2.46.87,4.93,1.81,7.35,2.79l1.51-3.73q-2.53-1-5.11-2h0l0,0h0l0,0h-.09l0,0h-.11l-2.06-.74Zm-15.39-4.67-1,3.9c2.53.64,5.07,1.35,7.57,2.11l1.17-3.85h-.23l-.06,0h0c-1.63-.5-3.28-1-4.93-1.41h-.07l-.07,0h0l-.06,0h0l-.19-.05h-.37l-1.76-.46Zm-15.75-3.27-.64,4c2.58.42,5.18.9,7.74,1.43l.81-3.94-.54-.11h-.85l-.06,0h0l-.34-.06h-.07l-.69-.13h0l-1.1-.21h0l-.55-.1h0l-.06,0h-.07l-.28,0H332l-.06,0h-.08l-.34-.06h-.21l-.55-.09h0l-1.89-.32Zm-16-1.85-.28,4c2.61.18,5.24.43,7.83.73l.46-4-1.11-.13h-.31l-.22,0h0q-3.08-.33-6.18-.55h-.19ZM300,120v4c1.58,0,3.17,0,4.74.06l.11-4c-1.13,0-2.27,0-3.41,0H300Z" style="fill: #b5b5b5"/>
  </g>
  <g id="orb1_dash">
    <path d="M300,50h-2.79c-1.76,0-3.52,0-5.28.11l.13,4c2.63-.08,5.3-.13,7.94-.13V50Zm-16.12.51h-1l-.25,0h0c-1.13.07-2.26.16-3.38.25h0l-.37,0h-3l.39,4c2.61-.25,5.27-.47,7.9-.63l-.25-4Zm-16.05,1.54-1.75.23h0l-.11,0h0l-.23,0H265l-.13,0h-.34l-.15,0h-.24l-.25,0h-.23l-.15,0h-.25l-.13,0h-.7l-.06,0h-.05l-.11,0h0l-.08,0h-.65l-.11,0h-.27l-.1,0h0l-.11,0h0l-.08,0h0l-.07,0h0l-.11,0h0l-.08,0h-.28l-.1,0h-.14l.65,4c2.6-.42,5.24-.8,7.85-1.14l-.51-4Zm-15.92,2.57c-1.45.28-2.89.58-4.33.89,0,0,0,0,0,0l-.12,0h0l-.24,0h0l-.1,0h0l-.09,0h0l-.11,0h0l-.08,0h-.16l-.08,0h-.06l-.07,0h-.22l-.12,0h-.14l-.06,0h0l-.24.05h0l-.07,0h-.14l-.13,0H245l-.06,0h0l-.1,0h-.06l-.06,0h-.22l-.1,0h0l-.1,0h0l-.08,0h0l-.11,0,.9,3.93c2.56-.58,5.17-1.14,7.76-1.64l-.77-4Zm-15.72,3.6-1.65.44h0l-.36.1h0l-.09,0h0l-.25.07h0l-.07,0h0l-.08,0h0l-.13,0h-.1l0,0h-.06l-.06,0-.06,0-.09,0h0l-.07,0h0l-.08,0h0l-.11,0h0l-.09,0h0l-.1,0h0l-.24.07h0l-3.75,1.09,1.16,3.86c2.52-.75,5.09-1.47,7.63-2.14l-1-3.9Zm-15.46,4.61-2.08.71h0l-.08,0h0l-.15,0h0l-.06,0h0l-.06,0,0,0-.06,0-.09,0h0l-.07,0h0l-.08,0h0l-.11,0h0l-.1,0h0l-.1,0h0l-.24.08h0c-1.35.47-2.69,1-4,1.45l1.4,3.78c2.47-.92,5-1.8,7.48-2.64l-1.28-3.82Zm-15.12,5.6-2.39,1h0l-.34.14h0l-.08,0h0l-.25.11h0l-.08,0h0l-.25.11h0c-1.33.57-2.65,1.14-4,1.73l1.64,3.68c2.4-1.07,4.86-2.12,7.3-3.11l-1.53-3.74ZM190.89,75q-2.73,1.32-5.41,2.7h0l-.1,0h0l-.21.12h0l-.09,0h0l-.11.06s0,0,0,0l-.09,0h0l-.08,0,0,0-.1.05h0l-.07,0,0,0-.07,0,0,0-.1,0,0,0-.07,0,0,0-.06,0,0,0-.08,0-.05,0-.06,0,0,0-.05,0,0,0,1.88,3.57c2.33-1.23,4.71-2.44,7.08-3.59L190.89,75Zm-14.27,7.51c-.91.51-1.79,1-2.69,1.55h0l-.08.05h0l-.22.13,0,0-.06,0,0,0-.1.06,0,0-.05,0-.05,0,0,0-.05,0,0,0-.09,0,0,0-.07,0,0,0-.08,0h0l-.1.06h0l-.09,0h0l-.32.18h0c-.87.51-1.73,1-2.59,1.56l2.11,3.44c2.24-1.38,4.54-2.73,6.83-4l-2-3.51Zm-13.76,8.42-1.22.81h0l-.07,0,0,0-.06,0,0,0-.09.06,0,0-.05,0,0,0-.05,0-.07,0,0,0-.06,0,0,0-.06,0,0,0-.09.06h0l-.08.06h0l-.07,0,0,0-.1.06h0l-.09.06h0l-.08.06h0l-.1.07s0,0,0,0l-.09.06h0l-.09.06h0l-.1.07h0l-.09.06,0,0-.09.06h0l-.1.07h0l-.08,0,0,0-.08.06h0l-.1.07h0l-.09.06h0l-.09.06s0,0,0,0l-.1.06,0,0-.08,0,0,0-.08,0h0l-.09.07h0l-.07,0,0,0-.08,0,0,0-.09.06,0,0-.06,0,0,0-.06,0,0,0-.07,0-.05,0,0,0,0,0-.05,0-.07,0-.05,0,0,0,0,0-.06,0,0,0-.13.09h0l-.06,0h0c-.36.25-.72.5-1.07.76l2.32,3.29c2.15-1.51,4.36-3,6.56-4.46l-2.22-3.37Zm-13.18,9.28-2.2,1.68h0l-.09.07h0l-.09.07h0l-.07.06,0,0-.07,0,0,0-.09.07,0,0-.06,0,0,0-.06,0,0,0-.08.06-.05,0,0,0,0,0,0,0-.19.15,0,0-.06,0h0l-.2.16h0l-.07.06h0l-2.63,2.09,2.53,3.14c2.05-1.65,4.15-3.29,6.26-4.88l-2.43-3.22Zm-12.56,10.12-2.66,2.31h0l-.27.24h0l-.09.08h0l-.18.17h0l-.28.25h0l-2.52,2.28,2.72,3c1.94-1.78,3.94-3.56,5.94-5.27l-2.63-3.06Zm-11.89,10.9-.13.13h0c-1.88,1.84-3.72,3.69-5.53,5.59l2.91,2.79c1.82-1.9,3.7-3.8,5.58-5.64l-2.82-2.88Zm-11.16,11.64-.37.41,0,0-.05.05,0,0-.06.07-.05.05,0,0,0,.06,0,0-.08.08h0l-.06.08,0,0-.07.07h0l-.16.18h0l-.08.09h0l-.16.19h0q-2,2.26-4,4.58l3.09,2.6c1.69-2,3.45-4,5.21-6l-3-2.69Zm-10.4,12.33-1.24,1.58h0l-.22.3h0l-.06.08v0l-.07.09h0l-.07.09,0,0-.06.08h0l-.07.1h0l-.06.08,0,0-.06.08h0l-.07.1h0l-.06.08,0,0-.06.08h0l-.07.1h0l-.06.08,0,0-.06.08h0l-.07.1h0l-.06.08,0,0-.14.19h0l-.06.09h0l-.15.19h0l-.08.09h0c-.51.66-1,1.34-1.51,2h0l-.22.3h0l-.07.09h0L102,154c1.57-2.12,3.19-4.24,4.82-6.3l-3.17-2.5Zm-9.58,13-.32.47,0,0,0,0,0,0,0,0-.06.09h0l-.06.09,0,0-.06.09h0l-2.18,3.24h0l-.06.09h0l-.13.2v0l0,.08,0,0,0,.07,0,0,0,.09,0,.05,0,0,0,.05,0,0-.08.14h0l0,.07v0c-.34.51-.66,1-1,1.52L93,167.07c1.43-2.21,2.91-4.43,4.4-6.6l-3.32-2.29Zm-8.72,13.56c-1.38,2.3-2.73,4.63-4,7l3.52,2c1.28-2.3,2.61-4.61,4-6.87l-3.46-2.07Zm-7.84,14.09c-.09.18-.17.35-.26.52h0l0,.07,0,0,0,.06,0,0,0,.08,0,.06,0,0,0,.08v0L77,187h0l-.06.1h0q-1.52,3-2.94,6l3.64,1.73c1.13-2.38,2.31-4.77,3.52-7.11l-3.59-1.85Zm-6.9,14.58q-1.22,2.76-2.34,5.56v0l0,.09v0l0,.1,0,0,0,.06,0,.06,0,0-.58,1.45,3.75,1.49c1-2.45,2-4.91,3-7.32l-3.69-1.61Zm-5.95,15v0l0,.08v0l0,.07v0l0,.11h0l0,.11v0l0,.08v0l-.08.22v0l0,.09v0l-.08.23h0l0,.11v0l-.12.34h0c0,.12-.08.23-.13.35h0l-.12.35h0l-.12.36h0l0,.11h0l-.12.35h0l-.12.36h0l-.12.35h0c0,.12-.07.23-.11.35h0l0,.11h0l-.07.23h0l0,.1v0l-.07.22v0l0,.09v0l0,.1h0l0,.11v0l0,.08v0l0,.07v0l0,.1,0,0,0,.06v.05l0,.06,0,.05,0,.1,0,0,0,.05,0,.06v0l-.07.23v0l0,.07v0a3.58,3.58,0,0,1-.11.35h0c-.07.22-.14.44-.22.66l3.84,1.24c.81-2.51,1.67-5,2.56-7.51l-3.79-1.36Zm-5,15.34c-.62,2.15-1.21,4.32-1.77,6.49v0l0,.08v0l0,.14v0l0,.06v.1l0,.08v0l0,.11h0l0,.11v0l-.12.48,3.9,1c.65-2.55,1.35-5.12,2.07-7.65l-3.87-1.12Zm-3.95,15.64-.15.66h0l-.06.26v0l0,.07v.22l0,.1v0l0,.07V248l-.05.23v0l0,.1v0q-.56,2.64-1.05,5.31h0l0,.1v.14l0,.11v.26l4,.73c.48-2.59,1-5.2,1.57-7.77l-3.94-.86Zm-2.93,15.85,0,.08h0v.1l0,.09h0l0,.15v.69l0,.24h0v.24h0l0,.24v0l0,.11h0c0,.12,0,.24,0,.37h0l-.12.87h0l-.06.37h0V266h0c0,.12,0,.25,0,.37h0l0,.11v0l0,.23v1.08c0,.12,0,.25-.05.37h0c-.09.68-.17,1.38-.25,2.06l4,.48c.31-2.62.67-5.26,1.06-7.86l-4-.61Zm-1.91,16c0,.41-.07.83-.1,1.25h0v.26l0,.23v1.65l0,.24h0V282c-.1,1.42-.19,2.84-.27,4.27l4,.22c.14-2.63.33-5.3.55-7.92l-4-.34Zm-.87,16.1V300h0v.55c0,.62,0,1.25,0,1.87l4,0c0-.79,0-1.58,0-2.38,0-1.85,0-3.72.06-5.56l-4-.09Zm4.19,16-4,.16.09,2.14h0c0,.12,0,.24,0,.36v.69c.09,1.62.19,3.24.31,4.85l4-.29c-.19-2.63-.35-5.29-.45-7.92Zm1.16,15.82-4,.42c.19,1.87.41,3.72.65,5.57h0l0,.26v.31l0,.12h0V333h0c.07.53.15,1.07.22,1.61l4-.55c-.36-2.61-.69-5.26-1-7.88Zm2.17,15.72-4,.68c0,.16,0,.33.08.49h0l0,.11v0l0,.11h0l0,.12v.27l0,.08v.34l0,.15v.12l0,.08v0l.05.27h0l0,.08v0c0,.13,0,.24.07.37h0l0,.09h0l0,.27h0l0,.09v0l0,.27h0l0,.09v0l0,.08v0l0,.16h0l0,.07v0l0,.06v0l0,.06v.15l0,.06v.05l0,.07v0l0,.11h0l0,.12v0l0,.1v0c.19,1,.4,2.05.61,3.07l3.95-.81c-.53-2.57-1-5.2-1.47-7.79Zm3.19,15.54-3.93.94c.12.47.23,1,.35,1.42h0l0,.09h0l.07.26v0l0,.08v0l.06.26h0l0,.08v0l0,.07v0l0,.17h0l0,.07v0l0,.08v0l.06.25v0l0,.08v0l.07.27h0l0,.09h0c.37,1.44.75,2.88,1.15,4.32l3.88-1.07c-.69-2.54-1.35-5.12-2-7.68ZM65,372.7l-3.85,1.19.39,1.26v0l0,.06,0,.06,0,.05,0,.1v0l0,.09v0l0,.1h0c.43,1.36.87,2.71,1.32,4.06v0l0,.09v0l0,.1v0l0,.06,0,.06v0l0,.06v0c.15.42.29.84.44,1.27l3.81-1.32c-.86-2.49-1.69-5-2.47-7.54Zm5.18,15-3.77,1.43c.13.36.27.71.4,1.06h0l0,.11h0l.09.23v0l0,.09v0l0,.11h0l.05.11v0l0,.08v0l.08.21v0l0,.08v0l.08.22h0l0,.1v0l.08.22h0l0,.11h0c.61,1.52,1.22,3,1.86,4.54l3.72-1.56c-1-2.43-2-4.9-3-7.36Zm6.13,14.63L72.6,404c1.12,2.44,2.28,4.87,3.47,7.27l3.61-1.8c-1.17-2.35-2.32-4.76-3.42-7.15Zm7.07,14.2-3.55,1.91q1.09,2,2.22,4h0l.13.24h0l0,.07v0l0,.07h0l.07.13,0,0,0,.06,0,0,0,.05,0,.05,0,.09,0,0,0,.05,0,.05,0,0,0,.07,0,0,0,.07,0,0,0,.07,0,0,0,.1h0l.05.09v0l0,.09h0l.12.22h0l.62,1.09,3.49-2c-1.32-2.28-2.63-4.6-3.88-6.92Zm8,13.72-3.42,2.13c.13.22.27.43.4.64h0l.07.1h0l.13.21h0l.06.09v0l.13.2v0l.06.08v0l.06.1h0l.06.09,0,0,0,.08v0l.13.19v0l0,.09h0l.13.21h0c.06.11.13.21.2.32h0c.91,1.41,1.83,2.82,2.77,4.21l3.34-2.25c-1.46-2.18-2.92-4.42-4.31-6.65Zm8.84,13.17-3.27,2.35h0l.07.09,0,0,0,.06,0,0,0,0,0,.06h0l.09.12v0l0,.06h0c.71,1,1.44,2,2.16,2.95h0l.22.29v0l.16.21h0l0,.06v0l.15.2,0,0,0,.06,0,0,.14.18,0,0,0,.05,0,0,0,0,.06.08,0,0,0,.05,0,0,0,.06,0,0,.06.08,0,0,.05,0,0,0,0,.06,0,0,.07.09,0,0,0,.07,0,0,.06.07v0l.07.09v0l.06.07,0,0,.06.08h0l.07.09v0l.06.07v0l.07.09h0l.07.1v0l.06.07h0l3.2-2.45c-1.61-2.09-3.2-4.23-4.74-6.37ZM109.82,456l-3.11,2.56c.68.83,1.36,1.65,2.06,2.47h0l.06.07h0l.15.18,0,0,0,0,0,.05,0,0,.07.08,0,0,0,.06,0,0,.07.08h0l.08.09h0l.07.09h0c.79.93,1.58,1.85,2.38,2.77l3-2.66c-1.74-2-3.47-4-5.14-6.05Zm10.46,11.93-2.94,2.76,1.2,1.28h0l.08.09h0l.09.09s0,0,0,0l.08.09h0l.07.07,0,0,.08.08v0l.06.07,0,0,.06.06,0,0,.07.08,0,0,0,0,0,0,0,.05,0,0,.07.07,0,0,0,0,0,0,0,.05,0,.05,0,.05,0,0,0,0,0,0,0,0,.06.06,0,0,0,.05,0,0,0,.05,0,0,.06.06,0,0,0,0,0,.05,0,0,0,0,0,.06.05.05,0,0,.05.05,0,0,.06.07,0,0,0,.05,0,0,0,0,0,0,.08.08v0l.07.06,0,0,.06.06,0,0,.08.08h0l.07.07,0,0,.07.07h0l.09.08h0l.08.08h0l.08.08h0l.17.18h0c.36.35.71.71,1.07,1.07l2.85-2.85c-1.86-1.86-3.71-3.78-5.51-5.71Zm11.2,11.24-2.76,2.94.5.46h0l.19.17,0,0,0,.05,0,0,.05,0,.07.07,0,0,.06.05,0,0,.06.06h0l.08.08h0l.08.08h0c1.42,1.31,2.84,2.6,4.29,3.88l0,0,.06,0,0,0,.05,0,.09.08h0l.07.06h0l.05.05,2.67-3c-2-1.74-3.95-3.54-5.87-5.34Zm11.9,10.5-2.57,3.11.15.12,0,0,.06,0,0,0,.19.16h0l.06.05,0,0,.19.16h0l.06.05,0,0,.2.16h0l.06.05h0l.2.16v0l.07.05h0l.2.16h0l.07.06h0l.2.17h0l.06.05h0l.2.16,0,0,.06.05h0l.14.11h0l.06.05,0,0,.05.05h0l.12.09,0,0,.05,0,0,0,.06.05h0l.12.09,0,0,.05,0,0,0,.05,0,0,0,.09.07,0,0,0,0,.05,0,0,0,.07.05,0,0,.06.05,0,0,.06,0,0,0,.09.07h0l.08.06,0,0,.07.06h0l.1.07h0l.09.07h0l2.08,1.62,2.47-3.19c-2.08-1.61-4.17-3.27-6.2-4.95Zm12.55,9.71-2.36,3.27.25.18h0l.06.05h0l.11.08,0,0,.05,0,0,0,0,0,.05,0,.06,0,.06.05,0,0,.05,0,0,0,.07.05,0,0,.08.06,0,0,.06,0,0,0,.08.06h0l.09.06,0,0,.06.05,0,0,.09.06h0l.09.06,0,0,.07,0h0l.09.07h0l.08.06,0,0,.07,0,0,0,.09.07h0l.08.05,0,0,.06.05,0,0,.08.06,0,0,.08.05,0,0,.06.05,0,0,.09.06,0,0,.07.05,0,0,.06,0,0,0,.09.06,0,0,.05,0,0,0,0,0,0,0,.09.06,0,0,0,0,0,0,0,0,.05,0,.08.06,0,0,0,0,0,0,0,0,.05,0,.07.05.05,0,0,0,0,0,0,0,.09.06,0,0,.06,0,0,0,.06,0,0,0,.19.13,0,0,.06,0,0,0,.13.09h0l.06,0,0,0,.06,0,0,0,.11.08,0,0,.06,0,0,0,.05,0,0,0,.09.07,0,0,.05,0,0,0,.05,0,0,0,.08.05.05,0,0,0,.06,0,0,0,.06,0,.05,0,.07.05,0,0,.06,0,0,0,.09.06h0l.09.06h0l2.26-3.34c-2.18-1.48-4.37-3-6.5-4.55Zm13.15,8.89-2.15,3.41.69.44h0l.06,0,0,0,.06,0,0,0,.07,0,.05,0,.05,0,0,0,0,0,.09.06h0l.07,0,0,0,.08,0h0l.1.07h0l.1.06h0l.09.06h0l.21.13h0l.32.19h0l1.61,1h0l.32.19h0l.21.13h0l.09.06h0l.1.06h0l.1.06h0l.08.05,0,0,.08,0,0,0,.09.05,0,0,.06,0,0,0,.06,0,0,0,.09,0,.05,0,.05,0,0,0,0,0,.11.07h0l.07,0,0,0,.07,0h0l.23.13h0l.7.42,2-3.48c-2.27-1.33-4.56-2.72-6.78-4.12Zm13.69,8-1.93,3.55q3.21,1.74,6.47,3.39h0l.11.06h0l.22.11h0l.09,0h0l.2.11h0l1.81-3.6c-2.35-1.18-4.72-2.42-7-3.68Zm14.17,7.12-1.69,3.66.3.14h0l.06,0,0,0,.06,0,.09.05h0l.09,0,0,0,.1,0h0c2.17,1,4.36,2,6.57,2.9l1.57-3.72c-2.42-1-4.87-2.1-7.26-3.21Zm14.61,6.19-1.45,3.76c1.78.69,3.58,1.35,5.38,2h0l.35.13h0l.07,0h0l.22.08h.05l.06,0h0l.06,0,.09,0h.05l.06,0,0,0,.06,0,0,0,.11,0h0l.1,0h0l.1,0h0l.23.08h0l.11,0h0l.23.09,1.33-3.81c-2.48-.87-5-1.79-7.45-2.73Zm15,5.22-1.2,3.85q3.66,1.14,7.37,2.18h0l.11,0h0l.11,0h0l.11,0h0l1.07-3.89c-2.53-.7-5.09-1.46-7.61-2.24Zm15.29,4.24-.95,3.92c2.6.63,5.23,1.22,7.87,1.77l.82-4c-2.58-.54-5.18-1.12-7.74-1.74Zm15.53,3.23-.69,4,3.9.65h.11l.27,0h.25l.11,0h.34l.1,0h.15l.1,0h0l.23,0h0l.11,0h0l2.24.33.57-4c-2.61-.37-5.24-.78-7.84-1.24Zm15.71,2.23-.44,4,2.75.28h.14l.23,0h1.7l.12,0h2.09l.25,0H280l.63,0,.3-4c-2.62-.2-5.28-.45-7.9-.73Zm15.82,1.21-.18,4,2.76.11h2.09l3.21.06.06-4c-2.64,0-5.31-.11-7.94-.23Zm23.81-.07c-2.63.13-5.3.22-7.93.27l.08,4q3.29-.06,6.55-.21h.8l.27,0h0l.42,0-.2-4Zm15.81-1.32c-2.61.3-5.27.57-7.89.79l.33,4c2.18-.18,4.36-.39,6.52-.62h0l.11,0h.57l.16,0h.11l.55-.06-.47-4ZM344.2,542c-2.59.47-5.23.9-7.83,1.29l.59,4q3-.45,6-1h.28l.08,0h.11l.08,0h0l1.43-.26-.72-4Zm15.51-3.34c-2.56.64-5.16,1.24-7.73,1.79l.85,3.95q3.94-.85,7.85-1.83l-1-3.91ZM375,534.33c-2.51.81-5.06,1.58-7.6,2.3l1.11,3.88q3.88-1.11,7.72-2.34L375,534.33ZM389.91,529c-2.45,1-5,1.89-7.43,2.78l1.35,3.8,2.2-.8h0l.06,0,0,0,.06,0,.1,0,0,0,.06,0,.05,0,.07,0,0,0,.11,0h0l.1,0h0l.1,0h0l.23-.08h0q2.11-.79,4.23-1.62L389.91,529Zm14.57-6.28c-2.38,1.12-4.81,2.21-7.23,3.25l1.6,3.71h0q3.34-1.44,6.65-3h0l.1,0h0l.11,0h0l.07,0,0,0,.05,0,.22-.1h.05l-1.72-3.65Zm14.14-7.21c-2.31,1.27-4.67,2.52-7,3.72l1.83,3.59,1.62-.83,0,0,.07,0,0,0,.12-.06h0l.05,0,.05,0,.05,0,0,0,.06,0,.08,0,0,0,.06,0,0,0,.07,0,0,0,.1,0h0l.07,0,0,0,.09-.05h0l.11-.06h0l.09,0h0l.1-.06h0l.11-.05h0l.1,0h0L417,521h0l.09-.05h0l.21-.12h0l.1-.06h0l.22-.12h0l.1-.06h0l.33-.17h0l.33-.17h0l.33-.17h0l1.76-1-1.94-3.53Zm13.63-8.11c-2.21,1.42-4.49,2.82-6.75,4.17l2.06,3.46,3-1.78h0l.23-.14h0l.08,0h0l.22-.14h0l.08,0h0l.22-.14h0l.08,0h0l.22-.14h0l.07,0h0l.23-.14h0l.08,0h0l2.31-1.45-2.18-3.4Zm13.09-9c-2.12,1.56-4.3,3.1-6.47,4.59l2.28,3.33c1.32-.9,2.62-1.82,3.92-2.74h0l.19-.14h0l.08-.06h0l.09-.07h0l.08-.06,0,0,.05,0,0,0,.05,0,.07-.05,0,0,.06,0,0,0,.06,0h0l.21-.16h0l1.48-1.08-2.39-3.25Zm12.49-9.79c-2,1.69-4.09,3.37-6.17,5l2.49,3.17q3.18-2.49,6.27-5.08l-2.59-3.09Zm11.83-10.57c-1.91,1.81-3.87,3.62-5.83,5.38l2.69,3q1.92-1.73,3.81-3.48v0l.07-.06,0,0,.08-.07,0,0,0-.05,0,0,0,0,.17-.16,0,0,.06-.05h0l1.52-1.43-2.78-2.92Zm11.13-11.31c-1.78,1.93-3.63,3.86-5.47,5.74l2.87,2.83,0,0,0,0,0,0,.07-.07,0,0,.05,0,0,0,0,0,0,0,.08-.07,0,0,.05-.05,0,0,.05-.05,0,0,.07-.07,0,0,.05-.05,0,0,.05,0,0,0,.07-.07,0,0,.05,0,0,0,.06-.05,0,0,.07-.07,0,0,.05-.05,0,0,.06-.06,0,0,.08-.07,0,0,.06-.06,0,0,.07-.08h0l.08-.08,0,0,0-.06,0,0,.07-.08h0l.07-.08,0,0,0-.06,0,0,.08-.08h0l.07-.08,0,0,.06-.07,0,0,.08-.08h0l.07-.07,0,0,.06-.06,0,0,.08-.08h0l.08-.08,0,0,.06-.07h0l.08-.09h0l.07-.07,0,0,.06-.07h0l.08-.09h0l.07-.08h0l.07-.08h0l.09-.08v0l.07-.07v0l.08-.08h0l.09-.09h0l.07-.08h0l.16-.17,0,0,.07-.07v0l.16-.17h0l.08-.08h0l.16-.17v0l.08-.08h0l.17-.18h0l.08-.09h0l.17-.18h0l.26-.27h0c.08-.09.17-.18.25-.28h0l-3-2.73Zm10.38-12c-1.65,2-3.37,4.09-5.09,6.08l3.05,2.64,0,0h0l.16-.2,0,0,0-.05,0,0,.09-.11h0l0-.05,0,0,0-.05,0,0,.07-.08,0,0,0,0,0,0,0,0,.05-.05,0,0,.06-.08,0,0,.05-.06,0,0,.05-.07h0l.07-.09,0,0,.06-.06,0,0,.07-.09h0l.08-.09v0l.06-.07,0,0,.15-.18h0l.07-.08h0l.16-.19h0l.08-.09h0l.16-.19h0l.24-.29h0l.24-.29h0c.16-.19.32-.39.49-.58h0l.16-.19h0l.08-.1h0l.16-.19h0l.07-.09h0l.16-.18h0l.06-.09h0l.15-.18,0,0,.06-.07,0,0,.07-.08v0l.06-.07,0,0,0-.05,0,0,0-.05.07-.08,0,0,.05-.05,0,0,.16-.2h0l.05-.06h0l.44-.54-3.14-2.54Zm9.59-12.64c-1.52,2.14-3.1,4.3-4.69,6.39l3.21,2.44c.24-.31.48-.62.71-.94h0l.09-.12,0,0,0,0,0,0,0,0,.05-.07v0l.07-.1h0l.07-.09h0q1.32-1.77,2.61-3.55h0l.14-.2h0l.06-.1h0l.07-.09h0l.07-.1h0l.06-.09,0,0,0-.08h0l.07-.1,0,0,.05-.07,0,0,.05-.07,0,0,.06-.09,0,0,0-.06,0,0,0-.06,0-.05,0-.06v0l-3.29-2.33Zm8.76-13.23c-1.38,2.24-2.82,4.49-4.27,6.68l3.36,2.23c1.49-2.24,2.93-4.51,4.35-6.8l-3.44-2.11Zm7.89-13.77c-1.23,2.32-2.52,4.66-3.83,6.95l3.5,2h0l0-.08,0,0,0-.07v0l.06-.09,0,0,0,0,0-.06,0,0,.12-.22h0c1-1.75,2-3.5,2.91-5.28h0l0-.08h0l.07-.14v0l0-.06,0,0,0-.07,0,0,.05-.11,0,0,0-.05,0,0,0-.06,0,0,0-.06,0-.07,0,0,0-.07v0l-3.56-1.89Zm7-14.25c-1.08,2.4-2.22,4.82-3.37,7.18l3.62,1.78c1.18-2.41,2.32-4.85,3.43-7.3l-3.68-1.66Zm6-14.67c-.92,2.47-1.9,4.95-2.9,7.39l3.73,1.53,1.26-3.11h0l0-.08v0l0-.07v0l.06-.13v0l0-.06,0,0,0-.06,0-.06,0-.06,0-.08,0,0,0-.07v0l0-.09h0l0-.11v0l0-.09v0l.08-.23h0l0-.11h0l.14-.35h0c0-.11.09-.23.13-.35h0l.14-.35h0l0-.11h0l.09-.23v0l0-.09v0l.08-.22,0,0,0-.07,0-.05,0-.06,0-.09v0l0-.07v0l.24-.63-3.78-1.42Zm5.08-15c-.76,2.52-1.58,5.07-2.42,7.56l3.82,1.29q1-3,2-6.05v0l0-.06v0l0-.07,0-.09v0l0-.08,0,0,0-.09v0l.33-1.08-3.86-1.17Zm4.09-15.32c-.6,2.56-1.25,5.15-1.92,7.69l3.89,1c.26-1,.51-1.94.76-2.91v0l0-.11h0l0-.12v0l0-.09v0l0-.07v0l0-.1v0l0-.08,0,0v-.11l0-.05,0-.11v0l0-.07v0l0-.06v0l.05-.24v0l0-.08v0l.06-.25v0l0-.07v0l0-.08v0l0-.15v0l0-.07v0l0-.07v0l0-.15h0v-.12l0-.05v-.11l0-.1v0l0-.08v0l0-.09v0l.06-.24h0c.1-.45.21-.9.31-1.35l-3.92-.91Zm3.08-15.57c-.43,2.6-.9,5.23-1.41,7.81l4,.78c.19-1,.38-1.93.56-2.9h0l0-.09v0l.05-.24v-.22l0-.06V345l0-.08v0l0-.11v-.15l0-.09v0l0-.24h0l0-.11h0l0-.24h0l0-.12h0c0-.13.05-.25.07-.37h0c0-.17,0-.33.08-.5h0c.08-.41.15-.83.22-1.24h0c0-.17.05-.33.08-.5h0l0-.25-4-.66Zm2.08-15.73c-.26,2.62-.57,5.28-.92,7.89l4,.52q.52-4,.93-8l-4-.4Zm1-15.83c-.09,2.64-.22,5.3-.4,7.93l4,.27c.18-2.68.32-5.36.41-8.06l-4-.14Zm4.09-16-4,.11c.06,2.37.1,4.77.1,7.14v.8l4,0V300h0v-2.12h0v-.1h0v-.1h0c0-1.14,0-2.28-.06-3.41v-.51c0-.34,0-.67,0-1Zm-1-16.1-4,.37c.24,2.62.44,5.28.6,7.91l4-.24c-.08-1.22-.16-2.43-.25-3.65h0v-.26l0-.23v-2.27h0V278c0-.46-.08-.91-.13-1.37Zm-2-16-4,.63c.41,2.6.78,5.24,1.11,7.86l4-.5c-.08-.66-.16-1.3-.25-1.95h0c0-.13,0-.24,0-.37v-.13l0-.25v-.25l0-.23v-1.59l0-.1V263l0-.11v-.37h0l0-.11v0l0-.09v0l0-.1h0l0-.24h0l0-.12h0c-.05-.38-.11-.75-.17-1.12Zm-3-15.84-3.94.89c.58,2.57,1.13,5.18,1.62,7.76l4-.75c-.18-.94-.36-1.87-.55-2.81h0l0-.09h0l-.05-.25v-.15l0-.06v-.1l0-.11V249l0-.1h0l0-.12h0l0-.12h0c-.26-1.27-.54-2.54-.82-3.81Zm-4.06-15.61L536,230.34c.74,2.53,1.45,5.1,2.11,7.65l3.91-1c-.24-.89-.47-1.78-.71-2.67h0l-.06-.24h0l0-.1v0l0-.09v0l0-.11v0l0-.07v-.05l0-.05v-.06l0,0,0-.11v0l0-.07v0l0-.07v0l-.07-.26h0c-.33-1.19-.67-2.37-1-3.56Zm-5.06-15.31L531,215.28c.91,2.47,1.78,5,2.61,7.49l3.83-1.26c-.37-1.12-.75-2.24-1.13-3.35h0l0-.11h0l-.08-.23h0l0-.1v0l0-.11h0l0-.11v0l0-.09v0l0-.08v0l0-.1v0l0-.08,0,0,0-.07,0,0,0-.1,0,0,0-.06,0,0v-.06l0-.05,0-.06,0-.09v-.05l0-.06,0,0,0-.06v0l-.05-.13v0l0-.07,0,0,0-.08h0l-.08-.24v0l0-.07v0c0-.08-.06-.17-.08-.25v0l0-.08h0l-.1-.25h0l0-.08v0a2.5,2.5,0,0,0-.09-.25h0l0-.08v0l-.09-.24v0l0-.08v0l0-.05Zm-6-14.95L525,200.57c1.07,2.41,2.11,4.87,3.1,7.31l3.73-1.51-.6-1.48h0l0-.07v0l-.1-.23v0l0-.07v0l0-.06v0l0-.12,0,0,0,0,0-.05,0-.06,0,0,0-.1,0-.05,0,0,0-.05,0-.06,0,0,0-.11,0,0,0-.06,0,0,0-.06v0l-.09-.23v0l0-.08h0l-.1-.24v0c-.53-1.25-1.07-2.49-1.62-3.74Zm-7-14.53-3.57,1.87c1.22,2.33,2.41,4.72,3.56,7.09l3.63-1.75-.11-.23h0l-.11-.22v0l0-.08v0l0-.07,0-.06,0-.07,0-.06v0l0-.07h0c-.87-1.79-1.76-3.55-2.67-5.32h0l0-.07v0l-.11-.21,0,0,0-.05,0-.06,0,0-.05-.1v0l0-.08v0l-.05-.09h0l-.06-.11Zm-7.92-14-3.45,2.09c1.37,2.25,2.72,4.56,4,6.85l3.51-2c-.61-1.09-1.23-2.16-1.85-3.24h0l0-.08h0l-.14-.23v0l0-.06,0,0,0-.05,0-.08,0,0,0-.06,0,0-.05-.09h0l-.06-.1h0l-.05-.1h0c-.53-.9-1.07-1.8-1.61-2.69ZM505,156.86l-3.3,2.31c1.51,2.16,3,4.37,4.44,6.58l3.38-2.21v0l0,0-.05-.08,0-.05,0,0,0,0,0,0,0-.05-.06-.08,0,0,0-.06,0,0,0-.05,0,0-.05-.09,0,0,0-.05,0,0,0,0,0,0-.07-.12,0,0,0-.06v0l0-.06h0l-.09-.14h0l-.05-.07v0l-.15-.22h0l-.05-.07h0l-.15-.23h0l-.05-.07h0c-.82-1.22-1.64-2.44-2.48-3.65h0l-.2-.3,0,0,0-.07h0l-.09-.14h0l-.05-.06,0,0,0-.06,0,0-.06-.1,0,0,0,0ZM495.33,144l-3.15,2.52c1.65,2.06,3.28,4.17,4.86,6.28l3.22-2.42c-.53-.72-1.08-1.44-1.63-2.15h0l-.22-.29h0l-.16-.21h0l-.05-.06v0l-.15-.2,0,0-.05-.06,0,0-.14-.18,0,0,0-.05,0,0,0-.05-.06-.08,0,0,0,0,0-.05,0,0,0,0-.06-.09,0,0,0-.06,0,0,0-.07,0,0-.07-.09v0l-.06-.07,0,0-.14-.19h0l-.07-.09h0c-.49-.63-1-1.26-1.48-1.88Zm-10.47-12.26-3,2.72c1.77,1.94,3.54,3.94,5.24,6l3.07-2.62c-.35-.42-.71-.83-1.07-1.24h0l-.16-.18v0l-.06-.07,0,0-.06-.07v0l-.07-.08,0,0,0,0,0,0,0,0-.08-.09,0,0-.05-.05,0,0-.05,0h0l-.11-.13h0l-.06-.06h0l-.24-.28h0l-.93-1.05h0l-.25-.28h0l-.25-.28h0l-.05-.06h0l-.17-.19,0,0-.05-.06h0l-.1-.11,0,0L486,133l0,0,0-.06,0,0-.07-.09,0,0,0,0,0,0,0,0-.05-.06,0-.05-.05-.05,0,0,0,0,0,0-.07-.08,0,0-.06-.06,0,0-.05-.06,0,0-.08-.08h0l-.06-.07,0,0-.06-.06v0l-.08-.09s0,0,0,0Zm-11.24-11.57-2.8,2.9c1.89,1.83,3.78,3.72,5.62,5.61l2.89-2.81-.83-.85,0,0-.05,0,0,0,0,0-.06-.06,0,0-.05-.06,0,0-.17-.17h0l-.08-.08h0q-2.13-2.15-4.3-4.25Zm-12-10.82-2.6,3.07c2,1.71,4,3.47,6,5.23l2.71-3,0,0-.06-.06,0,0-.07-.07h0l-.08-.07,0,0-.06-.06,0,0-.07-.07h0l-.08-.07,0,0,0,0,0,0L467,114l-.05,0-.05,0,0,0,0,0,0,0,0,0-.08-.07,0,0-.05,0,0,0-.06,0h0l-.11-.1,0,0-.06-.05h0l-.19-.17h0l-.06-.06h0l-.19-.18h0l-.07-.06h0l-1.62-1.41h0l-.21-.18h0l-.06-.06h0l-.06,0h0l-.11-.1,0,0-.05,0,0,0,0,0-.05,0-.06,0-.05,0,0,0,0-.05,0,0-.09-.07h0l-.08-.07h0l-.09-.08h0l-1.25-1.06ZM449,99.27l-2.41,3.23c2.12,1.57,4.23,3.2,6.29,4.84l2.51-3.16,0,0,0,0,0,0-.06,0,0,0-.08-.07,0,0-.07-.05,0,0-.19-.15h0l-.1-.08h0q-2.72-2.14-5.49-4.21h0l-.08-.06h0l-.09-.07ZM435.8,90.06l-2.2,3.39c2.21,1.43,4.43,2.92,6.59,4.42l2.3-3.31-.45-.32h0l-.07,0,0,0-.09-.06,0,0-.05,0-.05,0,0,0-.09-.07h0l-.08-.06,0,0-.08,0h0l-.2-.14h0c-.83-.57-1.66-1.14-2.5-1.69h0l-.21-.13h0l-.08-.06h0l-.1-.07h0l-.1-.06,0,0-.07,0,0,0-.07,0,0,0-.09-.06,0,0,0,0-.05,0,0,0-.11-.08h0l-.07,0,0,0-.07,0h0l-.22-.15h0l-1.31-.86ZM422,81.73l-2,3.52c2.29,1.29,4.6,2.63,6.86,4L429,85.79l-.37-.22,0,0-.06,0h0l-.1-.06-.05,0,0,0-.06,0,0,0-.09-.06h0l-.08-.05,0,0-.07,0,0,0-.2-.12h0l-.09,0h0l-.2-.12h0l-.09,0h0l-.21-.12h0l-.1-.06h0l-.2-.12h0l-.09-.05,0,0-.1-.06h0l-.1,0,0,0-.08,0,0,0-.09,0,0,0-.08,0,0,0L426,84l0,0-.07,0,0,0-.06,0-.05,0,0,0-.06,0,0,0-.12-.07h0l-.06,0,0,0-.22-.13h0l-.08,0h0L422.47,82h0l-.08,0h0l-.22-.12,0,0-.06,0-.05,0,0,0Zm-14.32-7.42L405.93,78c2.38,1.13,4.77,2.32,7.1,3.54l1.86-3.58c-1.49-.78-3-1.53-4.49-2.28h0l-.33-.16h0l-.11,0h0l-.22-.11h0l-.1,0h0l-.22-.1h0l-.1,0h0L409,75h0l-.1,0h0l-.22-.1h0l-.1,0h0l-.22-.11h0l-.11,0h0l-.23-.1h0l-.11,0h0l-.23-.11ZM392.9,67.83l-1.5,3.75c2.45,1,4.91,2,7.32,3.06L400.34,71l0,0h0l-.06,0h0l-.12-.06h0l-.07,0h0l-.07,0h0l-.13-.06h0l-.07,0h0l-.07,0,0,0-.13,0h0l-.06,0,0,0-.06,0,0,0-.1,0,0,0-.05,0-.05,0-.06,0-.05,0h-.05l-.09,0h0l-.06,0,0,0-.07,0h0l-.1,0h0l-.08,0,0,0L398,70h0l-.11,0h0l-.1,0h0l-.1,0h0l-.23-.09h0c-1.51-.64-3-1.27-4.55-1.88Zm-15.15-5.5-1.26,3.83c2.51.82,5,1.69,7.5,2.59L385.37,65l-.71-.26h0l-.24-.09h0l-.1,0h0l-.08,0h0l-.09,0h0l-.07,0-.05,0h-.05l-.06,0h0l-.23-.08h0l-.08,0h0c-1.84-.65-3.68-1.27-5.53-1.88h0l-.09,0h0l-.06,0Zm-15.49-4.51-1,3.9c2.55.66,5.13,1.36,7.66,2.1L370,60q-2.35-.69-4.72-1.33h0l-.23-.07h0l-.09,0h0l-.08,0h0l-.1,0h-.05l-.06,0h-.06l-.05,0h-.08l-.15,0h0l-.08,0h0l-1.89-.49Zm-15.74-3.5-.74,4c2.58.49,5.2,1,7.77,1.6l.87-3.94-1.65-.36h0l-.36-.08h0l-.07,0h0l-.12,0H352l-.05,0h-.17l-.09,0h0l-.08,0h-.16l-.08,0h0l-.11,0h0l-.08,0H351l-.12,0h0l-.1,0h0l-.09,0h0l-.24,0h0l-.1,0h0l-.1,0h0L350,55h0l-.11,0h0l-.11,0h0l-.24-.05h0l-.11,0h0l-2.85-.55Zm-15.94-2.47-.48,4c2.61.31,5.26.68,7.86,1.08l.61-4-2.11-.32h0l-.37,0H336l-.23,0h-.27l-.1,0h0l-.08,0h-1.9l-.24,0h-.25l-2.26-.29Zm-16.06-1.43-.23,4c2.63.15,5.3.35,7.92.58l.36-4h-.17l-.28,0h-.22l-.27,0H321l-.24,0h-.25l-.25,0h-2.13l-.25,0H315.4l-.88,0ZM300,50v4c2.11,0,4.25,0,6.36.08l.1-4c-1.87,0-3.76-.07-5.64-.08H300Z" style="fill: #b5b5b5"/>
  </g>
  <circle id="orbit1" cx="300" cy="300" r="250" style="fill: none"/>
  <circle id="orbit2" cx="300" cy="300" r="180" style="fill: none"/>
  <circle id="orbit3" cx="300" cy="300" r="130" style="fill: none"/>
  <g id="core">
    <circle cx="300" cy="300" r="70.5" style="fill: #bababa"/>
  </g>
  <g id="drop3">
    <text transform="translate(355.91 181.45) rotate(26.7)" style="font-size: 24px;font-family: Roboto-Regular, Roboto">.</text>
    <text transform="translate(361.46 184.24) rotate(29.42)" style="font-size: 24px;font-family: Roboto-Regular, Roboto">.</text>
    <text transform="translate(366.89 187.29) rotate(32.15)" style="font-size: 24px;font-family: Roboto-Regular, Roboto">.</text>
    <text transform="matrix(0.8, 0.59, -0.59, 0.8, 372.16, 190.44)" style="font-size: 24px;font-family: Roboto-Regular, Roboto">o</text>
    <text transform="translate(382.81 198.41) rotate(41.01)" style="font-size: 24px;font-family: Roboto-Regular, Roboto">r</text>
    <text transform="translate(388.84 203.68) rotate(44)" style="font-size: 24px;font-family: Roboto-Regular, Roboto"> </text>
    <text transform="matrix(0.67, 0.74, -0.74, 0.67, 393.03, 207.51)" style="font-size: 24px;font-family: Roboto-Regular, Roboto">h</text>
    <text transform="translate(401.86 217.38) rotate(53.68)" style="font-size: 24px;font-family: Roboto-Regular, Roboto">e</text>
    <text transform="matrix(0.53, 0.85, -0.85, 0.53, 409.12, 227.38)" style="font-size: 24px;font-family: Roboto-Regular, Roboto">r</text>
    <text transform="translate(413.28 233.86) rotate(62.44)" style="font-size: 24px;font-family: Roboto-Regular, Roboto">e</text>
    <text transform="translate(418.92 244.9) rotate(66.51)" style="font-size: 24px;font-family: Roboto-Regular, Roboto">.</text>
    <text transform="translate(421.41 250.6) rotate(69.25)" style="font-size: 24px;font-family: Roboto-Regular, Roboto">.</text>
    <text transform="matrix(0.31, 0.95, -0.95, 0.31, 423.61, 256.41)" style="font-size: 24px;font-family: Roboto-Regular, Roboto">.</text>
  </g>
  <g id="drop2">
    <text transform="translate(312.31 121.39) rotate(4.91)" style="font-size: 24px;font-family: Roboto-Regular, Roboto">.</text>
    <text transform="matrix(0.99, 0.12, -0.12, 0.99, 318.56, 121.92)" style="font-size: 24px;font-family: Roboto-Regular, Roboto">.</text>
    <text transform="translate(324.78 122.67) rotate(8.91)" style="font-size: 24px;font-family: Roboto-Regular, Roboto">.</text>
    <text transform="matrix(0.98, 0.21, -0.21, 0.98, 330.94, 123.53)" style="font-size: 24px;font-family: Roboto-Regular, Roboto">o</text>
    <text transform="translate(344.01 126.4) rotate(15.51)" style="font-size: 24px;font-family: Roboto-Regular, Roboto">r</text>
    <text transform="translate(351.77 128.57) rotate(17.74)" style="font-size: 24px;font-family: Roboto-Regular, Roboto"> </text>
    <text transform="matrix(0.93, 0.36, -0.36, 0.93, 357.29, 130.23)" style="font-size: 24px;font-family: Roboto-Regular, Roboto">h</text>
    <text transform="matrix(0.91, 0.42, -0.42, 0.91, 369.73, 134.97)" style="font-size: 24px;font-family: Roboto-Regular, Roboto">e</text>
    <text transform="translate(381.01 140.29) rotate(28.26)" style="font-size: 24px;font-family: Roboto-Regular, Roboto">r</text>
    <text transform="matrix(0.85, 0.52, -0.52, 0.85, 387.9, 143.9)" style="font-size: 24px;font-family: Roboto-Regular, Roboto">e</text>
    <text transform="matrix(0.82, 0.57, -0.57, 0.82, 398.49, 150.47)" style="font-size: 24px;font-family: Roboto-Regular, Roboto">.</text>
    <text transform="matrix(0.8, 0.59, -0.59, 0.8, 403.68, 154.03)" style="font-size: 24px;font-family: Roboto-Regular, Roboto">.</text>
    <text transform="translate(408.71 157.74) rotate(38.45)" style="font-size: 24px;font-family: Roboto-Regular, Roboto">.</text>
  </g>
  <g id="drop1">
    <text transform="matrix(0.74, -0.67, 0.67, 0.74, 126.31, 122.87)" style="font-size: 24px;font-family: Roboto-Regular, Roboto">D</text>
    <text transform="translate(137.96 112.5) rotate(-39.26)" style="font-size: 24px;font-family: Roboto-Regular, Roboto">r</text>
    <text transform="translate(144.17 107.35) rotate(-36.84)" style="font-size: 24px;font-family: Roboto-Regular, Roboto">a</text>
    <text transform="matrix(0.83, -0.56, 0.56, 0.83, 154.56, 99.55)" style="font-size: 24px;font-family: Roboto-Regular, Roboto">g</text>
    <text transform="matrix(0.85, -0.52, 0.52, 0.85, 165.79, 92.12)" style="font-size: 24px;font-family: Roboto-Regular, Roboto"> </text>
    <text transform="translate(170.66 89) rotate(-29.13)" style="font-size: 24px;font-family: Roboto-Regular, Roboto">A</text>
    <text transform="translate(184.06 81.58) rotate(-25.98)" style="font-size: 24px;font-family: Roboto-Regular, Roboto">x</text>
    <text transform="translate(194.65 76.31) rotate(-22.53)" style="font-size: 24px;font-family: Roboto-Regular, Roboto">w</text>
    <text transform="translate(211.22 69.52) rotate(-19)" style="font-size: 24px;font-family: Roboto-Regular, Roboto">e</text>
    <text transform="translate(223 65.44) rotate(-15.99)" style="font-size: 24px;font-family: Roboto-Regular, Roboto">g</text>
    <text transform="translate(235.97 61.8) rotate(-13.74)" style="font-size: 24px;font-family: Roboto-Regular, Roboto">i</text>
    <text transform="translate(241.7 60.33) rotate(-11.53)" style="font-size: 24px;font-family: Roboto-Regular, Roboto">a</text>
    <text transform="matrix(0.99, -0.15, 0.15, 0.99, 254.4, 57.72)" style="font-size: 24px;font-family: Roboto-Regular, Roboto">n</text>
    <text transform="matrix(1, -0.1, 0.1, 1, 267.67, 55.76)" style="font-size: 24px;font-family: Roboto-Regular, Roboto">s</text>
    <text transform="translate(280.01 54.62) rotate(-3.42)" style="font-size: 24px;font-family: Roboto-Regular, Roboto"> </text>
    <text transform="translate(285.8 54.2) rotate(-1.22)" style="font-size: 24px;font-family: Roboto-Regular, Roboto">h</text>
    <text transform="translate(299.23 53.92) rotate(1.72)" style="font-size: 24px;font-family: Roboto-Regular, Roboto">e</text>
    <text transform="translate(311.75 54.34) rotate(4.07)" style="font-size: 24px;font-family: Roboto-Regular, Roboto">r</text>
    <text transform="translate(319.56 54.84) rotate(6.38)" style="font-size: 24px;font-family: Roboto-Regular, Roboto">e</text>
    <text transform="translate(332.02 56.29) rotate(8.55)" style="font-size: 24px;font-family: Roboto-Regular, Roboto">.</text>
    <text transform="translate(338.26 57.23) rotate(10.02)" style="font-size: 24px;font-family: Roboto-Regular, Roboto">.</text>
    <text transform="matrix(0.98, 0.2, -0.2, 0.98, 344.48, 58.33)" style="font-size: 24px;font-family: Roboto-Regular, Roboto">.</text>
  </g>
  <g id="dropCustText">
    <text transform="matrix(0.65, -0.76, 0.76, 0.65, 241.06, 258.08)" style="font-size: 24px;font-family: Roboto-Regular, Roboto">d</text>
    <text transform="matrix(0.76, -0.66, 0.66, 0.76, 249.71, 248.31)" style="font-size: 24px;font-family: Roboto-Regular, Roboto">r</text>
    <text transform="matrix(0.84, -0.54, 0.54, 0.84, 255.17, 243.24)" style="font-size: 24px;font-family: Roboto-Regular, Roboto">o</text>
    <text transform="translate(265.98 236.16) rotate(-22.66)" style="font-size: 24px;font-family: Roboto-Regular, Roboto">p</text>
    <text transform="translate(278.16 231.31) rotate(-15.23)" style="font-size: 24px;font-family: Roboto-Regular, Roboto"> </text>
    <text transform="matrix(0.99, -0.14, 0.14, 0.99, 283.37, 229.64)" style="font-size: 24px;font-family: Roboto-Regular, Roboto">c</text>
    <text transform="translate(295.3 227.83) rotate(1.66)" style="font-size: 24px;font-family: Roboto-Regular, Roboto">u</text>
    <text transform="translate(308.25 228.19) rotate(11.47)" style="font-size: 24px;font-family: Roboto-Regular, Roboto">s</text>
    <text transform="translate(319.96 230.68) rotate(19.36)" style="font-size: 24px;font-family: Roboto-Regular, Roboto">t</text>
    <text transform="translate(327.32 233.01) rotate(27.64)" style="font-size: 24px;font-family: Roboto-Regular, Roboto">o</text>
    <text transform="translate(338.92 238.51) rotate(40.64)" style="font-size: 24px;font-family: Roboto-Regular, Roboto">m</text>
    <text transform="matrix(0.6, 0.8, -0.8, 0.6, 353.91, 251.86)" style="font-size: 24px;font-family: Roboto-Regular, Roboto">e</text>
    <text transform="translate(361.09 261.65) rotate(61.1)" style="font-size: 24px;font-family: Roboto-Regular, Roboto">r</text>
    <text transform="translate(364.96 268.28) rotate(68.94)" style="font-size: 24px;font-family: Roboto-Regular, Roboto">s</text>
    <text transform="matrix(0.24, 0.97, -0.97, 0.24, 369.13, 279.57)" style="font-size: 24px;font-family: Roboto-Regular, Roboto"> </text>
    <text transform="translate(370.72 284.79) rotate(83.34)" style="font-size: 24px;font-family: Roboto-Regular, Roboto">h</text>
    <text transform="matrix(-0.05, 1, -1, -0.05, 372.24, 297.66)" style="font-size: 24px;font-family: Roboto-Regular, Roboto">e</text>
    <text transform="translate(371.46 309.76) rotate(100.98)" style="font-size: 24px;font-family: Roboto-Regular, Roboto">r</text>
    <text transform="translate(370.24 317.14) rotate(108.74)" style="font-size: 24px;font-family: Roboto-Regular, Roboto">e</text>
    <text transform="translate(366.16 328.6) rotate(115.79)" style="font-size: 24px;font-family: Roboto-Regular, Roboto"> </text>
    <text transform="matrix(-0.54, 0.84, -0.84, -0.54, 363.98, 333.64)" style="font-size: 24px;font-family: Roboto-Regular, Roboto">&gt;</text>
  </g>
  <text transform="translate(647.58 51.6)" style="font-size: 24px;font-family: Roboto-Regular, Roboto">Axw<tspan x="45.77" y="0" style="letter-spacing: -0.00732421875em">a</tspan><tspan x="58.79" y="0" style="letter-spacing: -0.00634765625em">y</tspan><tspan x="70.71" y="0">gians</tspan></text>
  <text transform="translate(647.58 278.6)" style="font-size: 24px;font-family: Roboto-Regular, Roboto">Customers</text>
  <g id="a10">
    <circle cx="918.88" cy="105.75" r="31.5" style="fill: #f2f2f2"/>
    <g id="a10_face">
      <path d="M927.41,98.4h0l-.26.21,0,0-.2.26a8.38,8.38,0,0,1-2.22,5.31c-2.68,2.64-2.89,2.59-4.54,2.59h0c-1.65,0-1.86.05-4.54-2.59a8.71,8.71,0,0,1-2.27-5.37v0c2.79-4.08,9.64-3.61,11.24-9.81a3.88,3.88,0,0,0,.26-.31c1.91.47,2.27,7.75,2.32,8.57.1.37.21.52.21.57l.51-.72s.06-2.94.06-3a.55.55,0,0,1,.3-.15h.06a1.06,1.06,0,0,1,.46.88,2.59,2.59,0,0,1,.1.62,4.33,4.33,0,0,1-1.39,3Zm-7.32,15.8h0a11.48,11.48,0,0,1-7.48-2.38s2.84-2.84,2.94-3a4.87,4.87,0,0,0,.26-2.43,8.79,8.79,0,0,0,1.75,1.35,5,5,0,0,0,2.48.46h.56a4.42,4.42,0,0,0,2-.46,9.74,9.74,0,0,0,1.8-1.4,5,5,0,0,0,.26,2.48.88.88,0,0,0,.36.41,14,14,0,0,0,2.58,2.58c-1.86,1.86-5.31,2.38-7.53,2.38Zm21,3.15h0a7,7,0,0,0-1.24-3c-.93-.93-3.71-1.8-6.55-2.68-6.76-4.75,1.81-20.14-5.93-27.88a8.63,8.63,0,0,0-5.83-2.69c-8.2,0-11.19,4.44-12.17,8.83-1.65,7.33,4.28,15.13-3.3,21.95l.05.05c-2.58.77-5,1.55-5.77,2.37a9.22,9.22,0,0,0-1.24,3,77.49,77.49,0,0,0-1.7,8.78l45.43.05c-.57-3.72-1.29-7.13-1.75-8.83Z" style="fill: #63585b"/>
    </g>
  </g>
  <g id="a9">
    <circle cx="765.63" cy="106.25" r="31.5" style="fill: #f2f2f2"/>
    <g id="a9_face">
      <path d="M766.2,116.05h0c-2.25,0-7.29-.78-9.87-2.88,0,0,5-4.91,5.15-5.06a4.76,4.76,0,0,0,.27-2.46,10.53,10.53,0,0,0,1.77,1.36,5.63,5.63,0,0,0,2.63.47h.53a4.79,4.79,0,0,0,2.15-.47,10.07,10.07,0,0,0,1.88-1.41,5,5,0,0,0,.26,2.51c.06.15,5.15,5.06,5.15,5.06-1.93,1.89-7.61,2.88-9.92,2.88Zm-7.08-18h0v-.89c.54,1,2.25,1.26,3.54,1.26h.11c.59,0,2.09,0,2.57-.84a2.88,2.88,0,0,0,.38-1.51h.86a3.48,3.48,0,0,0,.43,1.51c.48.84,2,.84,2.57.89a0,0,0,0,1,0,0c1.34,0,3.06-.26,3.6-1.31,0,0,0-.1.1-.16v0a10,10,0,0,1-.05,1.2h0a8.38,8.38,0,0,1-2.31,5.39c-2.78,2.66-3.05,2.61-4.72,2.61h0c-1.72,0-1.93.05-4.72-2.61A8.75,8.75,0,0,1,759.12,98Zm.54-3h0a.56.56,0,0,0,.1-.26,12.52,12.52,0,0,1,5,.42,2.82,2.82,0,0,1-.27,2c-.11.21-.81.48-1.93.48-1.34-.06-2.47-.42-2.74-.89a3.19,3.19,0,0,1-.21-1.78Zm12.76,1.78h0c-.21.47-1.39.83-2.73.89-1.08,0-1.83-.27-1.93-.48a3,3,0,0,1-.22-2,12,12,0,0,1,5.1-.37,2.69,2.69,0,0,1-.22,2Zm-1.18-2.88h0a11.37,11.37,0,0,0-4.45.73h-1.23a11.57,11.57,0,0,0-4.45-.73h-.65c2.74-2.66,8.85-1.83,11.48-5.12A26.9,26.9,0,0,1,773.12,94h0a9.11,9.11,0,0,0-1.83-.11ZM788,116.26h0a5.47,5.47,0,0,0-1.13-2.56c-1-1-4.18-2-7.4-2.88-3.54-1-7.13-2.09-7.72-3.18a2.64,2.64,0,0,1-.38-1.26c.38-.1.75-.26,1.07-.36a10.43,10.43,0,0,0,0-2.62,12.24,12.24,0,0,1,.43,2.35,29.32,29.32,0,0,0,3.92-2c0-2.62.05-2.93-.11-5.54a24.4,24.4,0,0,1,.43,5.33,20.17,20.17,0,0,0,2.41-2c.49-4.18-1.07-13.27-5.84-17.71a6.06,6.06,0,0,0-2.1-1.68,12.11,12.11,0,0,0-5.47-1,10.52,10.52,0,0,0-3.16.42h0a10.33,10.33,0,0,0-2.9,1.3,9.62,9.62,0,0,0-2.89,2.93c-3.49,4.75-4.62,12.12-4.19,15.78a25.6,25.6,0,0,0,2.31,2,22.18,22.18,0,0,1-.32-4.18,14.88,14.88,0,0,0,.75,4.39,24.71,24.71,0,0,0,5.36,2.66,3.61,3.61,0,0,1-.32,1.26c-.64,1.09-4.24,2.14-7.78,3.18-3.22.89-6.38,1.83-7.4,2.88a5.58,5.58,0,0,0-1.13,2.56h0a80.65,80.65,0,0,0-1.77,8.88l26.34,0v0h20.91c-.59-3.71-1.34-7.16-1.82-8.88Z" style="fill: #63585b"/>
    </g>
  </g>
  <g id="a8">
    <circle cx="842.25" cy="105.5" r="31.5" style="fill: #f2f2f2"/>
    <g id="a8_face">
      <path d="M833.1,94.93h0c.1-.53.34-.87.48-.87l0,0a.59.59,0,0,1,.34.19c0,.15.86,3.27.86,3.27l.52.68s0-.15.15-.39a1.6,1.6,0,0,0,0-.29A5.07,5.07,0,0,0,839,98.54h.1c.62,0,2.2,0,2.73-.93a4,4,0,0,0,.43-1.7,1.59,1.59,0,0,0,.43,0h.05a1.44,1.44,0,0,0,.38,0,5,5,0,0,0,.43,1.7c.53.93,2.11.93,2.73.93h.1a5,5,0,0,0,3.45-1v0a5,5,0,0,0,.24.58l.52-.73s.67-3.07.67-3.22a1.23,1.23,0,0,1,.34-.19s0,0,0,0,.38.34.48.87a4.85,4.85,0,0,1,.09.69,4.28,4.28,0,0,1-1.44,3.12l-.23.24-.2.15,0,0v.1a9.4,9.4,0,0,1-2.35,5.61c-2.78,2.78-3.59,2.73-5.32,2.73h0c-1.68,0-2.49,0-5.32-2.73a9.37,9.37,0,0,1-2.3-5.61v-.1l-.24-.19-.29-.24a4.44,4.44,0,0,1-1.38-3.12,4.29,4.29,0,0,1,0-.69ZM841,97.18h0c-.15.24-.87.53-2.06.53-1.44,0-2.64-.44-2.88-1a3.41,3.41,0,0,1-.24-2.25,13.67,13.67,0,0,1,5.41.44,3.72,3.72,0,0,1-.23,2.25Zm8.28-.44h0c-.24.53-1.44.92-2.87,1a2.9,2.9,0,0,1-2.06-.53,3.65,3.65,0,0,1-.24-2.25,13.67,13.67,0,0,1,5.41-.44,3.35,3.35,0,0,1-.24,2.25Zm-12.12-9h0c1.44-.34,3.36,1,5.42,1s4-1.31,5.41-1c1.72.39,2.63,2,2.1,6l-.09,0a10.93,10.93,0,0,0-2-.15,11.36,11.36,0,0,0-4.7.83c-.19,0-.43.05-.67.05s-.43-.05-.67-.05a11.31,11.31,0,0,0-4.69-.83,16.18,16.18,0,0,0-2.25.24c-.53-4,.38-5.65,2.1-6Zm13.37,21.5h0a8.85,8.85,0,0,1-15.81,0,5.48,5.48,0,0,0,2-1.56,4.18,4.18,0,0,0,.34-1.9h0a14.46,14.46,0,0,0,1.77,1.75,8.07,8.07,0,0,0,7.52,0,16.09,16.09,0,0,0,1.82-1.8,3.85,3.85,0,0,0,.33,2h0a5,5,0,0,0,2,1.56ZM834.2,99.56h0a12.68,12.68,0,0,0,1.49,4.44c.1.15.19.29.33.54a3,3,0,0,1,0,2.78,2.36,2.36,0,0,1-2,1.31s-.38.15-1.1.39c2.3,3.66,5.75,6,9.67,6s7.38-2.34,9.63-6l-1-.39c0,.05-.05,0-.05,0a2.65,2.65,0,0,1-2-1.31,3.18,3.18,0,0,1,.15-3,1,1,0,0,0,.19-.29A11.73,11.73,0,0,0,851,99.56a4.83,4.83,0,0,0,1.73-4.72,3.3,3.3,0,0,0-.19-.69,11.4,11.4,0,0,0,0-3.41c.15-1.8-.91-4.44-2.34-5.26-.39-2.1-3.69-3.51-7.71-3.51-4.79,0-9.82,3.36-9.87,8.67a10.81,10.81,0,0,0,.05,3.51,2.8,2.8,0,0,0-.24.69,4.93,4.93,0,0,0,1.72,4.72Zm29.27,15h-.05a0,0,0,1,0,0-.1,4.11,4.11,0,0,0-1.92-2c-2.68-.87-6.51-2.34-8.67-3.16-2.34,3.85-6,6.33-10.2,6.33s-7.9-2.53-10.24-6.38c-2.3.83-6.52,2.29-9.25,3.21a4.09,4.09,0,0,0-1.91,2,0,0,0,0,0-.05,0c-.48,1.66-.58,3.81-1,10.73h45c-.57-7.61-1.39-9.7-1.67-10.68Z" style="fill: #63585b"/>
    </g>
  </g>
  <g id="a7">
    <circle cx="692" cy="102" r="31.5" style="fill: #f2f2f2"/>
    <g id="a7_face">
      <path d="M691.57,107.2h0a11.62,11.62,0,0,1-7.55-2.39s2.86-2.85,3-3a4.87,4.87,0,0,0,.26-2.43,10.74,10.74,0,0,0,1.72,1.34,5.31,5.31,0,0,0,2.55.47H692a4.39,4.39,0,0,0,2.08-.47,9.09,9.09,0,0,0,1.82-1.4,5,5,0,0,0,.26,2.49.93.93,0,0,0,.37.42,12.77,12.77,0,0,0,2.55,2.59c-1.82,1.87-5.36,2.39-7.55,2.39ZM684.7,91.79h0v-.05l-.21-.21-.26-.21a4.12,4.12,0,0,1-1.41-2.95,2.76,2.76,0,0,1,.11-.68,1.22,1.22,0,0,1,.41-.88h.06a.67.67,0,0,1,.36.16c0,.1.21,3.11.21,3.11l.52.67a3.55,3.55,0,0,0,.1-.41c.06-.78.16-1.77.21-2.65a26.51,26.51,0,0,1,.73-5.39,13.21,13.21,0,0,0,.11,5.08c.41.05.93.11,1.56.16.15-1,.47-2.49.47-2.49,0,.57.1,1.81.15,2.54,1.67.1,3.91.26,6.2.21.05-1.3.15-4.36.15-5.19,0,0,.16,3.37.21,5.13a20.66,20.66,0,0,0,3.07-.2,12.92,12.92,0,0,0,.21-5.24,72.93,72.93,0,0,1,1,7.93c.1.32.21.47.21.52l.52-.72s0-2.91,0-3.06a.56.56,0,0,1,.31-.16h.06c.15,0,.36.36.46.88a2.25,2.25,0,0,1,.06.63,4.27,4.27,0,0,1-1.36,3l-.26.21-.05,0-.21.26a8.37,8.37,0,0,1-2.24,5.35c-2.7,2.64-3,2.59-4.58,2.59h0c-1.67,0-1.87,0-4.58-2.59a8.75,8.75,0,0,1-2.29-5.4Zm7.13-16.29h0A8.24,8.24,0,0,1,700,81c-1.51-2.33-4.79-3.68-8.17-3.68s-6.66,1.35-8.17,3.68a8.24,8.24,0,0,1,8.17-5.5Zm20.93,34.4h0a5.57,5.57,0,0,0-1.1-2.54c-1-1-4.06-2-7.18-2.86-3.44-1-6.93-2.07-7.5-3.16a3.3,3.3,0,0,1-.36-1.56,16.7,16.7,0,0,0,4.94-.73c2.92-5.86,2-16.34-2.55-22.51h0a4.66,4.66,0,0,0-2.18-1.92,12.19,12.19,0,0,0-5.31-1,10.37,10.37,0,0,0-7.45,3v0a1.23,1.23,0,0,0-.21.26,9.75,9.75,0,0,0-2.08,3.78c-2.5,6.08-2.6,13.75-.26,18.47a15.85,15.85,0,0,0,5.1.73,4.1,4.1,0,0,1-.31,1.56c-.62,1.09-4.11,2.12-7.55,3.16-3.12.88-6.19,1.82-7.18,2.86a5.57,5.57,0,0,0-1.1,2.54h0a79.49,79.49,0,0,0-1.72,8.82l25.57,0v0h20.3c-.57-3.69-1.3-7.11-1.77-8.82Z" style="fill: #63585b"/>
    </g>
  </g>
  <g id="a6">
    <circle cx="762.5" cy="176.5" r="31.5" style="fill: #f2f2f2"/>
    <g id="a6_face">
      <path d="M787.57,183.18h0a3.68,3.68,0,0,0-2.43-2.82l-11.48-4.27,3.85,7.6H769.8l-3.86,7.59-3.85-7.59h-7.72l3.86-7.6-11.53,4.27a3.66,3.66,0,0,0-2.42,2.82,69.28,69.28,0,0,0-1.48,11.94h46.28a65.37,65.37,0,0,0-1.51-11.94Z" style="fill: #63585b"/>
      <path d="M771.43,173.78h0a24.27,24.27,0,0,0,8-2.43s-4.29,0-4.29-11.39c0-6.86-3.82-10.42-9.19-10.42s-9.22,3.56-9.22,10.42c0,11.39-4.29,11.39-4.29,11.39a24.27,24.27,0,0,0,8,2.43l5.52,10.89,5.49-10.89Z" style="fill: #63585b"/>
    </g>
  </g>
  <g id="a5">
    <circle cx="918.5" cy="177.5" r="31.5" style="fill: #f2f2f2"/>
    <g id="a5_face">
      <path d="M911.75,169h0v-.1l-.28-.24-.25-.2a4.48,4.48,0,0,1-1.45-3.18c0-.24.05-.49.05-.68.1-.59.39-.93.49-.93h.09a.79.79,0,0,1,.34.15c0,.14.24,3.86.24,3.86l.24.29.1-.15a5.41,5.41,0,0,0,.58-2.59,8,8,0,0,0-.15-1.46v-.05c0-.34,0-.78,0-1.27s0-.78,0-1.22a15.28,15.28,0,0,1,.29-1.91c.2-.44.44-.68.73-.68,1.35,0,4.06,1.12,6.18,1.12s4.83-1.12,6.18-1.12c.39,0,.68.39.82,1.17a10.47,10.47,0,0,1,.2,2.54v.1A12.92,12.92,0,0,0,926,164a6.12,6.12,0,0,0,0,.93,8,8,0,0,0,.44,2.93l.05.2.48-.39s.24-3.72.24-3.86a.64.64,0,0,1,.34-.15h0c.14,0,.38.34.48.93a2.9,2.9,0,0,1,.05.68,4.62,4.62,0,0,1-1.4,3.18h0l-.29.2-.19.14-.05.1v.1a9.11,9.11,0,0,1-2.37,5.67c-2.85,2.83-3.09,2.78-4.78,2.78h-.1c-1.74,0-1.93.05-4.78-2.78a9.11,9.11,0,0,1-2.37-5.67Zm2.13,6.6h0a14.6,14.6,0,0,0,1.84,1.76,4.4,4.4,0,0,0,3.23.92,4.31,4.31,0,0,0,3.19-.92,14.67,14.67,0,0,0,1.79-1.71h0a3.65,3.65,0,0,0,.29,1.9c-.77,2.69-8.69,3.42-10.67,0a3.66,3.66,0,0,0,.29-2Zm5.94,20.28h21.69c-.58-7.87-1.45-11.29-1.74-12.32a1,1,0,0,0-.2-.44,1.92,1.92,0,0,0-1.3-1.36c-3.38-1.13-8.84-2.64-10.63-3.13l-2.07-.79a2.07,2.07,0,0,1-.53-.63,3.51,3.51,0,0,1,0-2.88c.19-.25.29-.4.38-.54a13,13,0,0,0,1.5-4.5,4.91,4.91,0,0,0,1.74-4.84,3.2,3.2,0,0,0-.19-.68,10.4,10.4,0,0,0,.09-3h0c0-1.62-.34-6.31-2.41-8.41l-.44,1a8.17,8.17,0,0,0-2.8-2l-.29.93a8.24,8.24,0,0,0-3.28-1.61l-.05.73a12.8,12.8,0,0,0-4.06-.68l.39.88a6,6,0,0,0-4.64-.1l2.22,1.22a4.28,4.28,0,0,0-4.49,1.91l1.89-.3a3.67,3.67,0,0,0-1.94,4.6,20.12,20.12,0,0,1,1.55-2.15,14.91,14.91,0,0,0-.39,6.45,2.22,2.22,0,0,0-.62,1.22,5,5,0,0,0,1.78,4.84,13,13,0,0,0,1.5,4.5,1.2,1.2,0,0,0,.19.29,3.23,3.23,0,0,1,.2,3.13,3.52,3.52,0,0,1-.54.63l-2.12.79c-1.79.49-7.25,2-10.58,3.13a2,2,0,0,0-1.35,1.36,2.44,2.44,0,0,0-.15.44h0c-.48,1.71-1.2,5.14-1.73,12.32H918c.33,0,.62.05,1,.05s.58-.05.87-.05Z" style="fill: #63585b"/>
    </g>
  </g>
  <g id="a4">
    <circle cx="841.5" cy="176.5" r="31.5" style="fill: #f2f2f2"/>
    <g id="a4_face">
      <path d="M842.56,179.69h0c-2.57-.5-5.44-1.41-6.47-3.06a3.73,3.73,0,0,0,.31-2h0a13.34,13.34,0,0,0,2,1.81,6.46,6.46,0,0,0,4.16,1,6.63,6.63,0,0,0,4.16-1,18,18,0,0,0,2-1.86,3.9,3.9,0,0,0,.31,2.06c-1,1.65-3.91,2.56-6.47,3.06Zm1.28,4.92h0a3.93,3.93,0,0,1-2.62,0,10.93,10.93,0,0,1-.82-3.21c0-1.21,4.31-1.21,4.31,0a11.08,11.08,0,0,1-.87,3.21Zm-9.7-16.87h0v-.1l-.31-.2-.26-.25a4.66,4.66,0,0,1-1.54-3.32,2.58,2.58,0,0,1,.06-.7c.1-.6.36-1,.51-1h0c.1-.05.26,0,.36.15s1,3.47,1,3.47l.56.75.15-.45c-.61-17.93,11.71-.7,14.89-8.64,2.21.51.87,7.54.92,8.49a2,2,0,0,0,.26.55l.57-.75s.77-3.27.77-3.42.25-.2.36-.15h0c.15,0,.41.36.51,1a3.07,3.07,0,0,1,.05.7,4.62,4.62,0,0,1-1.54,3.32l-.26.25-.2.15-.1,0v.1a9.1,9.1,0,0,1-2.57,5.92c-3,3-3.95,2.92-5.8,2.92h-.1c-1.85,0-2.78,0-5.86-2.92a9.37,9.37,0,0,1-2.51-5.92Zm31.36,16.17h0v-.1a4.28,4.28,0,0,0-2.15-2.11C859,180.29,852,177.63,852,177.63s0,0,0,0a2.71,2.71,0,0,1-2.15-1.36,3.34,3.34,0,0,1,.15-3.21,1.39,1.39,0,0,0,.26-.3A14.19,14.19,0,0,0,851.8,168a5,5,0,0,0,1.9-5,3,3,0,0,0-.21-.71,11.74,11.74,0,0,0,0-3.61c.16-1.91-1-4.72-2.56-5.58-.41-2.21-4.06-3.71-8.52-3.71-5.29,0-10.84,3.56-10.89,9.24a12.77,12.77,0,0,0,0,3.66,3,3,0,0,0-.2.71,5,5,0,0,0,1.9,5,14,14,0,0,0,1.59,4.72c.1.1.2.3.41.55a3.5,3.5,0,0,1,0,3,2.59,2.59,0,0,1-2.21,1.36s-7.7,2.66-12,4.07a4.28,4.28,0,0,0-2.15,2.11v.05c-.57,1.75-.62,4-1.19,11.35H840c.31-3.47,1-9,1.08-9.85a4,4,0,0,0,2.82,0c.06.81.77,6.38,1.13,9.85H867.4c-.66-8-1.59-10.3-1.9-11.3Z" style="fill: #63585b"/>
    </g>
  </g>
  <g id="a3">
    <circle cx="688.5" cy="175.5" r="31.5" style="fill: #f2f2f2"/>
    <g id="a3_face">
      <path d="M705.24,172.83h0a1.48,1.48,0,0,1-.94,1.25l-.84.44a2.11,2.11,0,0,1-2.14,2.12c-.47,0-.64-.1-.74-.3a2.36,2.36,0,0,1-.16-1.05c0-.23,0-.5,0-.77v-8c0-.27,0-.54,0-.78a2.14,2.14,0,0,1,.16-1c.1-.21.27-.31.74-.34a2.15,2.15,0,0,1,2.14,2.16v.1l.84.3a1.57,1.57,0,0,1,.94,1.29v4.62Z" style="fill: #63585b"/>
      <path d="M701.55,162.54h0a13,13,0,0,0-24,0,3.82,3.82,0,0,0-2.44,1,15,15,0,0,1,28.93,0,3.87,3.87,0,0,0-2.45-1Z" style="fill: #63585b"/>
      <path d="M696.6,181.64h0l-.14,0,0,.14a2.18,2.18,0,1,1-2.14-2.57,2.2,2.2,0,0,1,2,1.25l.07.17.2,0a20.17,20.17,0,0,0,4.66-2.13h.13a3.88,3.88,0,0,0,2.31-.74,16.09,16.09,0,0,1-7,3.88Z" style="fill: #63585b"/>
      <path d="M709.66,190.92h0c-1.11-1.08-3-2-5.8-2.87a8.82,8.82,0,0,0,2-1.28l.33-.27.74-.61-1.3-.47c-2.28-.88-3.92-2.26-4.46-3.78v-.1a.11.11,0,0,1-.07,0c-.36.2-.77.37-1.13.54,0,0-.07,0-.1.07-.37.13-.71.3-1.08.44a.44.44,0,0,0-.2.07c-.26.1-.53.16-.8.27a3.79,3.79,0,0,1-3.48,2.29,3.45,3.45,0,0,1-.67-.07,1.6,1.6,0,0,0,.2.58,2,2,0,0,0,.4.54,1.2,1.2,0,0,1,.2.54c0,.34-.4.81-1.37,1.15a13,13,0,0,1-7.13,0c-1-.34-1.38-.81-1.34-1.15a1.06,1.06,0,0,1,.16-.54,2.09,2.09,0,0,0,.41-.54,4.45,4.45,0,0,0,.4-2.1v-.06a8.89,8.89,0,0,0,4,1.14,6.85,6.85,0,0,0,2.11-.37l.2-.06a4.12,4.12,0,0,1-1.11-1.66l-.06,0a5.51,5.51,0,0,1-1.14.16,8.77,8.77,0,0,1-4.82-2.12c-1.54-1.49-2.51-3.28-3-8.71V172h0c0-.47-.16-2.76-.2-3.54,2-1.59,4.76-2.23,7.37-3.14a10.35,10.35,0,0,0,5.73-4c.53,3.11,1.77,4.89,2.94,7,0,.5-.1,2.06-.1,2.06l0,.71a23.48,23.48,0,0,1-1.27,7,4.58,4.58,0,0,1,.9.67,7.39,7.39,0,0,0,.84-.34.35.35,0,0,0,.16-.06.58.58,0,0,0,.21-.07c.46-.24.93-.44,1.37-.68a2.5,2.5,0,0,1-.4-.5,3.62,3.62,0,0,1-.34-1.83v-9.55a4.61,4.61,0,0,1,.14-1.31,2.25,2.25,0,0,1,1.07-1.35,11.42,11.42,0,0,0-21,0,1.74,1.74,0,0,1,.83.84,3.26,3.26,0,0,1,.37,1.82v9.55a4.7,4.7,0,0,1-.13,1.29A2.24,2.24,0,0,1,679,178a2.67,2.67,0,0,1-1,.27l0,0c.07.37.17.77.27,1.18a3.3,3.3,0,0,1,.13,1c0,2-1.77,3.85-4.69,5l-.4.13-.9.34,1.1.88A9.92,9.92,0,0,0,675.3,188c-2.91.91-4.89,1.82-6,2.93a1.16,1.16,0,0,0-.3.81c0,.81.64,1.35,1.58,2,2.78,1.79,9.2,3.75,18.51,3.88h.81a50.5,50.5,0,0,0,14.56-2.13,16.79,16.79,0,0,0,4-1.75c.9-.61,1.51-1.15,1.57-2a1.19,1.19,0,0,0-.33-.81Z" style="fill: #63585b"/>
      <path d="M673.83,168.21h0a1.47,1.47,0,0,1,.94-1.29l.8-.3v-.1a2.19,2.19,0,0,1,2.14-2.16c.5,0,.64.13.77.34a2.65,2.65,0,0,1,.14,1v9.55a2.67,2.67,0,0,1-.14,1c-.13.2-.27.33-.77.33a2.16,2.16,0,0,1-2.14-2.16l-.8-.4a1.41,1.41,0,0,1-.94-1.25v-4.62Z" style="fill: #63585b"/>
    </g>
  </g>
  <g id="a2">
    <circle cx="995.5" cy="106.5" r="31.5" style="fill: #f2f2f2"/>
    <g id="a2_face">
      <path d="M1002,117.37h0a8.14,8.14,0,0,0-4-1.85c-.33,1.7-1.67,8.3-1.67,8.11v-8.4a10,10,0,0,0,5.31-6.5l.82.43c.67,3.22-.48,8.21-.48,8.21ZM990,107.69h0a3.69,3.69,0,0,0,.34-1.9,9.87,9.87,0,0,0,1.82,1.71,4.41,4.41,0,0,0,3.21.9,4.46,4.46,0,0,0,3.2-.9,15.67,15.67,0,0,0,1.87-1.76,3.76,3.76,0,0,0,.29,2c-.58,1.89-3,5.93-5.36,6.4-2.4-.47-4.7-4.32-5.37-6.4Zm-1.2,9.68h0s-1.14-5-.47-8.21l.81-.43a10,10,0,0,0,5.32,6.5s-3.69.24-5.66,2.14Zm-.67-18.13h0v-.1l-.28-.19-.24-.23a4.39,4.39,0,0,1-1.44-3.14,2.77,2.77,0,0,1,0-.66c.09-.57.33-.9.48-.9h0c.09,0,.23,0,.33.14s.29,3.28.29,3.28l.52.71.15-.43c.05-1,0,0,.05-1v-.24a2.73,2.73,0,0,1,0-.57v-.05h0c.05-.43,1.15-1.56,3.07-2.89a12.87,12.87,0,0,0-1.49,3.7c1-1.61,4.12-3.85,6.76-5.6a26.16,26.16,0,0,1-2.68,3,27.86,27.86,0,0,0,6.89-5.37c1.73,1.28,2.06,8,2.11,8.88a1.57,1.57,0,0,0,.24.52l.52-.71s.1-3.09,0-3.23c.15-.09.29-.19.39-.14h0c.15,0,.39.33.48.9a2.77,2.77,0,0,1,.05.66,4.39,4.39,0,0,1-1.44,3.14l-.28.23-.15.15-.09,0v.1a8.68,8.68,0,0,1-2.4,5.6c-2.87,2.8-3.06,2.75-4.83,2.75h0c-1.73,0-2,0-4.84-2.75a8.91,8.91,0,0,1-2.35-5.6Zm28,14h0v0a2,2,0,0,0-1.39-1.38c-4.07-1.32-11.21-3.22-11.21-3.22s0,0,0,0a2.55,2.55,0,0,1-2-1.28,3.06,3.06,0,0,1,.14-3,1.53,1.53,0,0,0,.24-.29,13.48,13.48,0,0,0,1.48-4.46,4.8,4.8,0,0,0,1.77-4.74,2.28,2.28,0,0,0-.19-.67,10.26,10.26,0,0,0,0-3.41,5.67,5.67,0,0,0-.28-2.33,7.53,7.53,0,0,1,.67,1.8c0-3-1.34-3.79-1.82-4,.33-.62,1.62-1.09,1.62-1.09A2.16,2.16,0,0,0,1003,85a2.82,2.82,0,0,0-1.15-2.89,2.86,2.86,0,0,1,.29,2.13c-.24-.66-.77-1.94-2-2.18a3.66,3.66,0,0,1,.67,1.09c0-.09-1.1-1.38-4.16-1.71a3.38,3.38,0,0,1,.62.57,14,14,0,0,0-2-.14c-4.93,0-9.48,3.42-9.53,8.78a12.1,12.1,0,0,0,0,3.46,2.28,2.28,0,0,0-.19.67,4.7,4.7,0,0,0,1.77,4.74,13.48,13.48,0,0,0,1.48,4.46,5.19,5.19,0,0,0,.39.53,3.4,3.4,0,0,1,0,2.8,2.42,2.42,0,0,1-2.06,1.28s-7.19,1.9-11.21,3.22a2,2,0,0,0-1.39,1.38v0c-.48,1.66-1.2,5-1.72,12h45c-.57-7.6-1.43-11-1.72-12Z" style="fill: #63585b"/>
    </g>
  </g>
  <g id="a1">
    <circle cx="995.5" cy="179.5" r="31.5" style="fill: #f2f2f2"/>
    <g id="a1_face">
      <path d="M988.55,169.61h0l1.18,4.74v1.92l5.71,4.27,5.67-4.27v-1.92l1.18-4.74a1.86,1.86,0,0,0,1.33-.43c1-.94,1.72-3.33,1-4.58-.51-.9-.67-.7-.67-.7v-4.39c0-2.7-1.17-4.86-3.52-4.86-.78-1.68-2.7-2.11-5-2.11-5.16,0-8.57,2.82-8.57,6.62v4.74s-.15-.2-.66.7c-.67,1.25,0,3.64,1,4.58a1.9,1.9,0,0,0,1.33.43Z" style="fill: #63585b"/>
      <path d="M1014.18,182.18h0l-12.13-4-4.73,14.73v-6.66l-1.53-2.35,1.53-1.45-1.88-1.88-1.92,1.88,1.53,1.45-1.53,2.35v6.66l-4.73-14.73-12.13,4a4.1,4.1,0,0,0-2.54,2.94,69.61,69.61,0,0,0-1.45,13h45.54a66.31,66.31,0,0,0-1.49-13,4.1,4.1,0,0,0-2.54-2.94Z" style="fill: #63585b"/>
    </g>
  </g>
  <g id="cust">
    <g id="c6">
      <g id="c6_circle">
        <circle cx="711.5" cy="340.5" r="38.5" style="fill: #f2f2f2"/>
      </g>
      <g id="c6_face">
        <path d="M711.75,346.93h0a15.44,15.44,0,0,1-10-3.13s3.79-3.74,3.92-3.94a6.34,6.34,0,0,0,.35-3.2,13.67,13.67,0,0,0,2.27,1.77,7.12,7.12,0,0,0,3.37.61h.68a5.88,5.88,0,0,0,2.75-.61,12.36,12.36,0,0,0,2.41-1.84,6.53,6.53,0,0,0,.34,3.27,1.2,1.2,0,0,0,.49.54,16.89,16.89,0,0,0,3.36,3.4c-2.4,2.45-7.08,3.13-10,3.13Zm-9.07-20.2h0v-.68a12.76,12.76,0,0,0,3.3-5c0,1.5-.9,3-1.58,4.49a33.12,33.12,0,0,0,9.83-6.73,20.94,20.94,0,0,1-3,6.12,24,24,0,0,0,8.39-8.57,35.14,35.14,0,0,1,1.31,10.34l-.07.07c-.34,3-1.17,5.23-3,7-3.57,3.47-3.92,3.4-6,3.4h-.07c-2.2,0-2.47.07-6-3.4-1.78-1.77-2.61-4-3-7.07Zm37.06,23.74h-.07a7.25,7.25,0,0,0-1.44-3.33c-1.31-1.36-5.37-2.59-9.49-3.74-4.54-1.36-9.15-2.73-9.9-4.15a2.87,2.87,0,0,1-.42-1.64c.42-.13.9-.34,1.31-.47a13.88,13.88,0,0,0,0-3.41,16.34,16.34,0,0,1,.55,3.07,36.92,36.92,0,0,0,5-2.66c0-3.4.07-3.81-.14-7.21a32.77,32.77,0,0,1,.55,6.94,26.1,26.1,0,0,0,3.1-2.65c.62-5.45-1.38-17.28-7.5-23.07a7.68,7.68,0,0,0-2.68-2.17,15.22,15.22,0,0,0-7-1.36,13.53,13.53,0,0,0-4.06.54h0a13,13,0,0,0-3.71,1.7,12.42,12.42,0,0,0-3.72,3.81c-4.47,6.19-5.91,15.79-5.36,20.55a31.89,31.89,0,0,0,3,2.65,28.94,28.94,0,0,1-.42-5.44,19.43,19.43,0,0,0,1,5.71,31.67,31.67,0,0,0,6.87,3.47,4.72,4.72,0,0,1-.41,1.64c-.82,1.42-5.43,2.79-10,4.15-4.12,1.15-8.18,2.38-9.49,3.74a7.25,7.25,0,0,0-1.44,3.33h-.07A105.51,105.51,0,0,0,681.5,362h60.58c-.76-4.83-1.72-9.32-2.34-11.57Z" style="fill: #63585b"/>
      </g>
    </g>
    <g id="c5">
      <g id="c5_circle">
        <circle cx="841" cy="340.5" r="38.5" style="fill: #f2f2f2"/>
      </g>
      <g id="c5_face">
        <path d="M865.72,344.37h0l-16-5.33-6.26,19.45V349.7l-2-3.11,2-1.91L841,342.2l-2.53,2.48,2,1.91-2,3.11v8.79L832.17,339l-16,5.33a5.42,5.42,0,0,0-3.36,3.88,92.9,92.9,0,0,0-1.91,17.12H871a88.68,88.68,0,0,0-2-17.12,5.42,5.42,0,0,0-3.36-3.88Z" style="fill: #63585b"/>
        <path d="M831.86,327.76h0l1.55,6.26v2.54L841,342.2l7.5-5.64V334l1.55-6.26a2.47,2.47,0,0,0,1.75-.57c1.4-1.24,2.28-4.4,1.35-6.05-.67-1.19-.88-.93-.88-.93v-5.8c0-3.57-1.55-6.41-4.65-6.41-1-2.23-3.57-2.8-6.62-2.8-6.82,0-11.32,3.73-11.32,8.75v6.26s-.21-.26-.88.93c-.88,1.65,0,4.81,1.35,6.05a2.52,2.52,0,0,0,1.75.57Z" style="fill: #63585b"/>
      </g>
    </g>
    <g id="c4">
      <g id="c4_circle">
        <circle cx="970.5" cy="340.5" r="38.5" style="fill: #f2f2f2"/>
      </g>
      <g id="c4_face">
        <path d="M963.41,341.82h0a18.15,18.15,0,0,0,1.34-4.48h0a28.43,28.43,0,0,0,2.42,2.4,6,6,0,0,0,4.35,1.23,6.07,6.07,0,0,0,4.34-1.23,17.28,17.28,0,0,0,2.42-2.47,21,21,0,0,0,1.35,4.55l2.74.77-10.85,11.1-10.86-11.1,2.75-.77Zm-1.6-13.44h0v-.2l-.38-.26-.32-.26h0a6.26,6.26,0,0,1-2-4.28,4.61,4.61,0,0,1,.13-1c.12-.78.44-1.24.63-1.24,0-.06.07-.06.07-.06a.81.81,0,0,1,.45.26c0,.19.38,4.48.38,4.48l.7,1,.19-.58c.07-1.37.26-3.38.32-4.74v-.33a3,3,0,0,1,.07-.78v-.06h0c-1.41-7-.2-9.87,2.36-10.45,1.85-.46,4.34,1.3,7,1.3s5.24-1.76,7-1.3c2.55.58,3.76,3.44,2.36,10.45h.06v.06a3,3,0,0,0,.07.78,3,3,0,0,1-.07.33c.13,1.36.26,3.37.39,4.74a1.51,1.51,0,0,0,.19.58l.7-1s.32-4.29.32-4.48c.19-.13.32-.26.45-.26s.06,0,.12.06.51.46.64,1.24a4.53,4.53,0,0,1,.07,1,6.17,6.17,0,0,1-1.92,4.28h0l-.38.26-.39.26v.2c-.38,3.31-1.27,5.78-3.19,7.72-3.77,3.77-4.09,3.7-6.38,3.77h-.13c-2.24-.07-2.62,0-6.39-3.77-1.91-1.94-2.81-4.41-3.19-7.72ZM1001.72,364h0c-.77-10.45-1.92-15.06-2.3-16.42v.06l-.06-.06a2.62,2.62,0,0,0-1.79-1.88c-5.49-1.82-15.07-4.42-15.07-4.42s-.06,0-.06,0a3.37,3.37,0,0,1-2.69-1.75c-1-1.62-.32-3,.19-4.22a1.26,1.26,0,0,0,.26-.39,16.63,16.63,0,0,0,2-6.1,6.63,6.63,0,0,0,2.37-6.56,4,4,0,0,0-.26-.91,16.27,16.27,0,0,0,.06-4.74c.2-2.46-1.21-6.1-3.25-7.2-.45-2.92-4.22-4.81-9.77-4.81-6.64,0-12.71,4.61-12.77,11.95a13.31,13.31,0,0,0,.06,4.8,4.07,4.07,0,0,0-.32.91,6.8,6.8,0,0,0,2.43,6.56,18.6,18.6,0,0,0,2,6.1l.51.71a4.36,4.36,0,0,1,0,3.9,3.2,3.2,0,0,1-2.75,1.75s-9.57,2.6-15.07,4.42a2.61,2.61,0,0,0-1.78,1.88l-.07.06h0c-.64,2.34-1.53,7-2.23,16.3l60.34.06Z" style="fill: #63585b"/>
      </g>
    </g>
    <g id="c3">
      <g id="c3_circle">
        <circle cx="715.5" cy="442.5" r="38.5" style="fill: #f2f2f2"/>
      </g>
      <g id="c3_face">
        <path d="M708.64,438.27h0a20.07,20.07,0,0,0,2.4,2.4,5.82,5.82,0,0,0,4.3,1.24,6,6,0,0,0,4.3-1.24,28.41,28.41,0,0,0,2.46-2.46,5.5,5.5,0,0,0,.38,2.72c-1.26,2.08-4,3.25-7.14,3.9-3.16-.65-5.88-1.82-7.14-3.9a6.51,6.51,0,0,0,.44-2.66Zm-3-9h0v-.13l-.32-.26-.38-.33h0a6.06,6.06,0,0,1-1.89-4.28,5.27,5.27,0,0,1,.06-1c.13-.78.44-1.24.63-1.24h.06a1,1,0,0,1,.51.2c-.06.19.32,4.54.32,4.54l.69,1a4.64,4.64,0,0,1,.19-.59h0c.76,1.49,3.1,1.88,4.93,1.95h.13c.82-.07,2.9,0,3.6-1.23a5.12,5.12,0,0,0,.51-2.21h1.2a4.44,4.44,0,0,0,.57,2.21c.63,1.23,2.71,1.16,3.54,1.23h.12c1.83-.07,4.17-.46,4.93-1.95,0-.06.07-.13.13-.26a2.29,2.29,0,0,0,.31.78l.7-1s.13-4.29.13-4.48a.66.66,0,0,1,.44-.2h.06c.19,0,.51.46.63,1.24a4.61,4.61,0,0,1,.13,1,6.16,6.16,0,0,1-2,4.28l-.32.33-.25.19-.12.07v.13c-.38,3.31-1.27,5.84-3.16,7.79-3.8,3.83-4.11,3.7-6.45,3.76h-.07c-2.27-.06-2.59.07-6.44-3.76-1.84-2-2.72-4.48-3.16-7.79Zm7.46-1.95h0c-.19.33-1.14.71-2.66.65-1.9,0-3.48-.52-3.79-1.23a4.3,4.3,0,0,1-.32-2.92,17.38,17.38,0,0,1,7.08.51,5,5,0,0,1-.31,3Zm10.87-.58h0c-.38.71-2,1.23-3.8,1.23-1.51.06-2.52-.32-2.65-.65a4.53,4.53,0,0,1-.38-3,17.45,17.45,0,0,1,7.08-.51,4.74,4.74,0,0,1-.25,2.92Zm-16.37-8.12h0c3.35-2,10.8-.19,14.28-4.15,2.72.65,3.29,3.18,3.29,5.26a15.9,15.9,0,0,1-.19,2.4,2,2,0,0,0-.13.58h0a17.66,17.66,0,0,0-8.72.91h-1.71a14.61,14.61,0,0,0-6.13-1.1,12.39,12.39,0,0,0-2.4.19.24.24,0,0,0-.06-.19V422a3.59,3.59,0,0,1,1.77-3.44Zm9.29,32.59h0c-.19.39-3,.39-3.23,0a14.84,14.84,0,0,1-1-4.16c0-1.55,5.31-1.55,5.31,0a15,15,0,0,1-1.07,4.16Zm-3.35,1h0a4.28,4.28,0,0,0,3.47,0c.07,1.11,1,8.25,1.39,12.73H745.3c-.76-10.39-1.9-15-2.28-16.36a.06.06,0,0,1-.06-.07,2.75,2.75,0,0,0-1.77-1.88c-5.44-1.82-15-4.41-15-4.41s-.06,0-.06,0a3.35,3.35,0,0,1-2.66-1.76c-1-1.62-.31-3,.19-4.22.13-.13.19-.26.32-.39a18.74,18.74,0,0,0,2-6.16,6.84,6.84,0,0,0,2.4-6.56,3.12,3.12,0,0,0-.32-.84,17.15,17.15,0,0,0,.07-4.81c.19-2.46-1.21-6.1-3.16-7.2-.51-2.92-4.24-4.87-9.74-4.87-6.57,0-12.64,4.67-12.7,12a18,18,0,0,0,.06,4.87,3.05,3.05,0,0,0-.25.84,6.63,6.63,0,0,0,2.34,6.56,16.75,16.75,0,0,0,2,6.16,5.37,5.37,0,0,0,.44.72,4.41,4.41,0,0,1,0,3.89,3,3,0,0,1-2.65,1.76s-9.61,2.59-15,4.41a2.82,2.82,0,0,0-1.84,1.88v.07c-.63,2.33-1.58,6.88-2.27,16.42l26.86-.06c.38-4.48,1.26-11.62,1.33-12.73Z" style="fill: #63585b"/>
      </g>
    </g>
    <g id="c2">
      <g id="c2_circle">
        <circle cx="842.5" cy="440" r="38.5" style="fill: #f2f2f2"/>
      </g>
      <g id="c2_face">
        <path d="M841.63,447.39h0a15.24,15.24,0,0,1-10-3.2s3.78-3.83,3.92-4a6.61,6.61,0,0,0,.34-3.27,14,14,0,0,0,2.27,1.81,7,7,0,0,0,3.37.63h.69a5.82,5.82,0,0,0,2.75-.63,12.26,12.26,0,0,0,2.41-1.88,6.8,6.8,0,0,0,.34,3.34,1.28,1.28,0,0,0,.48.56,17.48,17.48,0,0,0,3.37,3.48c-2.4,2.5-7.08,3.2-10,3.2Zm-9.07-20.67h0v-.06l-.28-.28-.34-.28a5.58,5.58,0,0,1-1.86-4,3.47,3.47,0,0,1,.14-.9,1.62,1.62,0,0,1,.55-1.18h.07a1,1,0,0,1,.48.2c-.07.14.27,4.18.27,4.18l.69.9a5.29,5.29,0,0,0,.14-.55c.14-1.26,10.72-5,15.47-11.76,2.54.62,3.09,2.92,3.09,4.87a12.09,12.09,0,0,1-.2,2.23c-.07.2-.07.34-.14.55.14,1.18.27,2.78.34,4,.14.42.28.62.28.69l.69-1s.06-3.9.06-4.11a.81.81,0,0,1,.42-.2h.07c.2.07.48.48.62,1.18a3.87,3.87,0,0,1,.06.83,5.82,5.82,0,0,1-1.78,4l-.35.28-.07.07-.27.34c-.35,3.07-1.17,5.36-3,7.17-3.57,3.55-3.92,3.48-6,3.48h-.07c-2.2,0-2.47.07-6-3.48-1.79-1.81-2.61-4.1-3-7.24ZM869.62,451h-.07a7.53,7.53,0,0,0-1.45-3.41c-1.3-1.39-5.36-2.65-9.48-3.83-4.54-1.39-9.15-2.78-9.91-4.24a6.36,6.36,0,0,1,.14-5,.63.63,0,0,1,.35-.07c.13-.07.2-.07.34-.14a1,1,0,0,0,.69-.63h.07c0-.07.06-.07.06-.14h0a1.16,1.16,0,0,0,.21-.41,1.39,1.39,0,0,0,.34-.56,15.3,15.3,0,0,0,2-5.64,7.32,7.32,0,0,0,2.41-5.56,5.14,5.14,0,0,0-.14-1.46,2,2,0,0,0-.14-.63l.07-.7a10.13,10.13,0,0,0,.07-1.46,12.21,12.21,0,0,0-.14-2.29v-.42a10,10,0,0,0-1-4.18,8.47,8.47,0,0,0-2.2-2.92,6.2,6.2,0,0,0-3.37-3.62,16,16,0,0,0-7-1.39c-6.8,0-13.13,4.8-13.34,12.39-.06.69-.13,1.46-.13,2.29s.07,1.53.13,2.16a3.45,3.45,0,0,0-.13.77,5.14,5.14,0,0,0-.14,1.46,7.29,7.29,0,0,0,2.41,5.56,16,16,0,0,0,2,5.64,1.65,1.65,0,0,0,.34.56c.07.2.21.34.21.41h0l.14.14h0a1,1,0,0,0,.68.63,3.94,3.94,0,0,0,.69.21,6.38,6.38,0,0,1,.21,5c-.83,1.46-5.43,2.85-10,4.24-4.13,1.18-8.18,2.44-9.49,3.83a7.55,7.55,0,0,0-1.44,3.41h-.07a109.42,109.42,0,0,0-2.27,11.83l33.76.07v-.07H872c-.76-4.94-1.72-9.54-2.34-11.83Z" style="fill: #63585b"/>
      </g>
    </g>
    <g id="c1">
      <g id="c1_circle">
        <circle cx="969.5" cy="437.5" r="38.5" style="fill: #f2f2f2"/>
      </g>
      <g id="c1_face">
        <path d="M979.68,449.46h0a11.36,11.36,0,0,0-5.46-2.54c-.46,2.35-2.3,11.4-2.3,11.14V446.53a13.78,13.78,0,0,0,7.3-8.93l1.12.59c.92,4.43-.66,11.27-.66,11.27ZM963.3,436.17h0a5,5,0,0,0,.46-2.61,14.18,14.18,0,0,0,2.5,2.35,6,6,0,0,0,4.41,1.23,6.11,6.11,0,0,0,4.4-1.23,21.57,21.57,0,0,0,2.57-2.42,5.17,5.17,0,0,0,.39,2.68c-.79,2.6-4.07,8.14-7.36,8.79-3.29-.65-6.45-5.93-7.37-8.79Zm-1.64,13.29h0s-1.58-6.84-.66-11.27l1.12-.59a13.74,13.74,0,0,0,7.3,8.93s-5.07.32-7.76,2.93Zm-.92-24.89h0v-.13l-.4-.27-.33-.32a6,6,0,0,1-2-4.3,3.7,3.7,0,0,1,.07-.91c.13-.79.46-1.24.65-1.24h.07c.13-.07.33.06.46.19s.39,4.5.39,4.5l.73,1,.2-.59c.06-1.43,0-.06.06-1.43v-.33a3,3,0,0,1,.07-.78v-.07h0c.06-.58,1.58-2.15,4.21-4a17.58,17.58,0,0,0-2,5.08c1.38-2.21,5.65-5.28,9.27-7.69a35.76,35.76,0,0,1-3.68,4.17A38.1,38.1,0,0,0,978,410.1c2.37,1.76,2.83,11,2.89,12.18a2.3,2.3,0,0,0,.33.72l.72-1s.14-4.23.07-4.43c.2-.13.39-.26.53-.19h.06c.2,0,.53.45.66,1.24a3.7,3.7,0,0,1,.07.91,6,6,0,0,1-2,4.3l-.39.32-.2.2-.13.07v.13c-.4,3.32-1.32,5.8-3.29,7.69-3.95,3.84-4.21,3.78-6.64,3.78h-.07c-2.37,0-2.69.06-6.64-3.78-1.91-1.89-2.83-4.37-3.22-7.69Zm38.47,19.22h0v-.06a2.75,2.75,0,0,0-1.91-1.89c-5.59-1.83-15.39-4.44-15.39-4.44s-.06,0-.06,0a3.47,3.47,0,0,1-2.76-1.76c-.92-1.62-.33-3,.19-4.17a1.43,1.43,0,0,0,.33-.39,18.22,18.22,0,0,0,2-6.12,6.62,6.62,0,0,0,2.43-6.52,3.46,3.46,0,0,0-.26-.91,14.24,14.24,0,0,0,0-4.7,7.9,7.9,0,0,0-.39-3.19,10,10,0,0,1,.92,2.48c0-4.11-1.84-5.22-2.5-5.48.46-.84,2.23-1.5,2.23-1.5a3,3,0,0,0-3-.13,3.9,3.9,0,0,0-1.58-4,3.94,3.94,0,0,1,.39,2.93c-.33-.91-1.05-2.67-2.7-3a5.53,5.53,0,0,1,.93,1.5c-.07-.13-1.52-1.89-5.73-2.34a4.75,4.75,0,0,1,.86.78,18.46,18.46,0,0,0-2.76-.2c-6.78,0-13,4.7-13.09,12.06a16.44,16.44,0,0,0,.06,4.76,3.89,3.89,0,0,0-.26.91,6.5,6.5,0,0,0,2.43,6.52,18.46,18.46,0,0,0,2,6.12c.14.2.27.39.53.72a4.61,4.61,0,0,1,0,3.84,3.32,3.32,0,0,1-2.83,1.76S949.56,440,944,441.84a2.73,2.73,0,0,0-1.9,1.89v.06c-.66,2.28-1.65,6.91-2.37,16.42h61.82c-.79-10.42-2-15-2.37-16.42Z" style="fill: #63585b"/>
      </g>
    </g>
  </g>
  <g id="resetButton">
    <text transform="translate(668.58 557.6)" style="font-size: 24px;fill: #fff;font-family: Roboto-Regular, Roboto">Reset all</text>
  </g>
  <path id="griffin" d="M664.82,168v55.72L419.67,107.14V70l214.5,102.14V116.43l56.18,26.93V180.5ZM474.46,207.43v37.14l39,18.57L450.78,330h41.79l74.75-78.46Zm190.36,34.82L448.92,139.64v37.15L620.71,258.5Z" style="fill: #d9272e;opacity: 0"/>
  <g id="takeShape" style="opacity: 0">
    <path id="slash" d="M94.73,540.36,90,535.7l41.56-41.56,4.68,4.71Z" style="fill: #bababa;opacity: 0"/>
    <path id="imag1" d="M180.18,517.78c.22,3.47,0,7,0,10.53H177V522c0-.77,0-1.53-.05-2.29-.15-1.88-1.18-2.91-2.86-2.9a3,3,0,0,0-3,3c-.06,2.33,0,4.67,0,7,0,.45,0,.89-.07,1.43h-3.25c0-2.28,0-4.55,0-6.82a12.92,12.92,0,0,0-.19-2.41,2.6,2.6,0,0,0-2.68-2.24,2.81,2.81,0,0,0-2.87,2.25,16.86,16.86,0,0,0-.23,3c0,2,0,4,0,6.18h-3.19v-14h3c.09.43.18.9.22,1.07a25.88,25.88,0,0,1,4.41-1.46c1.72-.24,3.14.65,4.16,2.32a6.13,6.13,0,0,1,5.24-2.38C178.17,514,180,515.35,180.18,517.78ZM150.6,528.31h3.13V514.23H150.6Zm46.15-10c.18,3.27,0,6.57,0,10.2-1.07-.55-2.75,1-3.16-.9a27.7,27.7,0,0,1-5.16,1.07,4.17,4.17,0,0,1-4.48-4c-.13-2.68,1.25-4.51,4-4.85a47.13,47.13,0,0,1,5.58,0c.28-2.73-1.94-3.46-7.4-2.12-.16-.38-.36-.78-.5-1.19s-.26-.85-.4-1.34a11.63,11.63,0,0,1,7.91-.85A4.35,4.35,0,0,1,196.75,518.27ZM192.1,522c-.45-.08-.9-.12-1.65-.21a5.7,5.7,0,0,0-2,.57,2.64,2.64,0,0,0-1.08,1.78,2.32,2.32,0,0,0,1,1.65,4.07,4.07,0,0,0,4.72-.84C194.28,523.56,193.88,522.36,192.1,522Zm-41.58-10.2h3.31V508.9h-3.31Zm64.87,14.1c0,4-1.95,6.25-5.92,6.8a12.48,12.48,0,0,1-8.18-1.61c.44-.88.8-1.6,1.21-2.4,2.7,1.19,5.42,2.36,8.2.48,1.3-.89,1.49-2.33,1.31-4.16a6.49,6.49,0,0,1-5.36,2.26,6.37,6.37,0,0,1-4.88-2.73,7.29,7.29,0,0,1,.82-9c2.48-2.38,5.89-2.34,9.35.19.09-.52.17-1,.26-1.54h3.2v2.08C215.4,519.53,215.43,522.73,215.39,525.93Zm-3.21-5.36a4,4,0,0,0-4.18-3.94,3.89,3.89,0,0,0-4.06,4,3.94,3.94,0,0,0,4.05,3.87A4.05,4.05,0,0,0,212.18,520.57Z" style="fill: #bababa"/>
    <path id="imag2" d="M240.94,518.1c.17,3.33,0,6.68,0,10.22H237.8c0-1.2,0-2.35,0-3.5,0-1.77,0-3.55-.14-5.32a2.67,2.67,0,0,0-2.64-2.65,2.93,2.93,0,0,0-3.25,2.16,8.21,8.21,0,0,0-.25,2.1c0,2.38,0,4.75,0,7.21h-3.23V514.23h3.14c.06.52.11,1,.19,1.83a5.37,5.37,0,0,1,4.79-2.22C239,514,240.81,515.56,240.94,518.1Zm16.35-.29c.28,3.45.1,6.94.1,10.62-1-.51-2.65,1-3.22-1.35a6.63,6.63,0,0,1-5.35,1.58c-2.46-.31-4.06-1.85-4.17-4.06a4.25,4.25,0,0,1,3.85-4.81,48.75,48.75,0,0,1,5.81,0c-.23-2.91-2-3.46-7.52-2.13-.28-.76-.58-1.54-.94-2.49,3.08-1.36,6.17-1.93,9.19-.33A4.57,4.57,0,0,1,257.29,517.81Zm-4.45,4.24c-.45-.08-.9-.13-1.67-.24a9.93,9.93,0,0,0-2.16.6,1.88,1.88,0,0,0,0,3.41,4.21,4.21,0,0,0,4.85-.91C254.94,523.51,254.55,522.37,252.84,522.05Zm-32.51,6.28h3.12V514.27h-3.12Zm-.23-16.49h3.41v-2.92H220.1Zm49.42,13.59a15.86,15.86,0,0,1-1.94.26c-.91,0-1.65-.36-1.68-1.37,0-2.41,0-4.83,0-7.4h3.65v-2.83h-3.75v-3.81h-3.31V514l-1.63.28v2.64l1.65.22c0,1,0,1.87,0,2.78,0,2-.05,4,.18,5.93.26,2.21,2.22,3.18,5.09,2.76C269.66,528.32,269.78,528.1,269.52,525.43Z" style="fill: #bababa"/>
    <path id="imag3" d="M273.6,514.25h3.06v14.06H273.6Zm-.21-2.43h3.46v-2.93h-3.46Zm39.13,6.2a4.27,4.27,0,0,0-4.76-4.12,20.72,20.72,0,0,0-4.63,1.46c0-.13-.08-.61-.14-1.11h-3.06v14.07H303c0-.5,0-.8,0-1.1,0-2.43,0-4.87.08-7.31a3,3,0,0,1,3.26-3.08c1.72.06,2.77,1.18,2.88,3.1,0,.66,0,1.32,0,2v6.39h3.24C312.57,524.8,312.73,521.4,312.52,518ZM296,521.17a7.58,7.58,0,0,1-7.62,7.65,7.5,7.5,0,1,1-.06-15A7.37,7.37,0,0,1,296,521.17Zm-3.32.3a4.48,4.48,0,0,0-4.3-4.74A4.29,4.29,0,0,0,284,521.2a4.43,4.43,0,0,0,4.21,4.66A4.3,4.3,0,0,0,292.64,521.47Z" style="fill: #bababa"/>
    <path id="imag4" d="M333.56,525.46c.57,2.52.21,3-2.28,3.2-3,.22-4.49-1.1-4.61-4.09-.05-1.27,0-2.54,0-3.81v-3.69l-1.68-.16v-2.62l1.63-.3V510.3H330v3.82h3.82V517H330c0,2.48,0,4.71,0,6.94,0,1.36.8,1.9,2.08,1.81C332.57,525.66,333.06,525.54,333.56,525.46Zm33.72-10.84c-2.24-.6-4.06-.79-5.5,1.17a47.2,47.2,0,0,1-3.91,4.23l-.35-.17V508.77h-3.14v19.5h3.12c.2-2.17-.6-4.61,2.17-5.74l2.77,3.94c1.54,2.19,2.19,2.42,5,1.65-1.88-2.72-3.73-5.42-6-8.73Zm15.58,7.85H372.59c.45,3.74,4.05,4.62,7.86,1.92l1.74,1.54c-1.6,2.69-5.64,3.65-9,2.17a7.55,7.55,0,0,1-3.72-9.42,6.94,6.94,0,0,1,8.3-4.7C381.18,514.66,383.25,518.05,382.86,522.47Zm-3.3-2.36c-.38-2.36-1.63-3.6-3.5-3.58s-3.15,1.33-3.53,3.58ZM349.5,518.2c.14,3.32,0,6.66,0,10-2.33.53-2.89.38-3.16-.63a25.33,25.33,0,0,1-4.9,1.08,4.28,4.28,0,0,1-4.76-4.09c-.14-2.63,1.35-4.48,4.2-4.83a46.45,46.45,0,0,1,5.41,0c.09-2.71-1.69-3.28-7.5-2.1l-.88-2.51c2.91-1.25,5.79-1.69,8.74-.56A4.1,4.1,0,0,1,349.5,518.2ZM345,522.06c-.5-.1-1-.15-1.79-.26a9.86,9.86,0,0,0-2.17.68,1.88,1.88,0,0,0,.05,3.33,4.16,4.16,0,0,0,4.95-1C347,523.38,346.64,522.39,345,522.06Z" style="fill: #bababa"/>
    <path id="imag5" d="M397,524.48a3.93,3.93,0,0,1-2.79,3.78c-3.09,1-5.87.23-8.63-1.64l1.32-2.09c1.41.51,2.7,1.05,4,1.44a3,3,0,0,0,1.77-.08c.49-.21,1.12-.73,1.17-1.17a1.8,1.8,0,0,0-.9-1.37,29.06,29.06,0,0,0-3.28-1.17c-2.7-.95-3.68-2.32-3.31-4.68.33-2.17,2.16-3.52,4.77-3.58a8.81,8.81,0,0,1,5.51,1.62l-1.19,2.14a36.21,36.21,0,0,0-3.63-1.09c-.95-.19-2.07-.16-2.38,1s.79,1.49,1.62,1.82c1.17.47,2.4.81,3.55,1.33A3.61,3.61,0,0,1,397,524.48Zm20.36-3.82c-1.06-.47-2.2-.77-3.28-1.21-.81-.33-2-.56-1.69-1.77s1.49-1.28,2.5-1.08a37.17,37.17,0,0,1,3.56,1.08l1.18-2.16A8.93,8.93,0,0,0,413,514a4.21,4.21,0,0,0-3.71,4.48c.08,2,1.38,3,3,3.58,1.23.47,2.52.79,3.72,1.33a1.62,1.62,0,0,1,.8,1.27,1.72,1.72,0,0,1-1,1.16,3.24,3.24,0,0,1-1.92.14c-1.35-.37-2.64-.92-4-1.43-.37.54-.81,1.21-1.35,2a9.64,9.64,0,0,0,7.88,2,4.14,4.14,0,0,0,3.51-3.7C420.13,522.81,419.4,521.56,417.35,520.66Zm19.27-2.39a4.37,4.37,0,0,0-4.86-4.37,21.07,21.07,0,0,0-4.62,1.42v-6.57H424v19.51h3.18c0-2.68,0-5.21,0-7.74,0-2.31,1.21-3.66,3.15-3.69s3,1.27,3,3.71v7.73h3.31C436.66,524.85,436.78,521.55,436.62,518.27Z" style="fill: #bababa"/>
    <path id="imag6" d="M450,514.41a11.45,11.45,0,0,0-8.5.68c.31.9.57,1.7.83,2.48,6.17-1,7.53-.59,7.53,2.4a27.87,27.87,0,0,0-3-.41,12.67,12.67,0,0,0-3,.25c-2.48.52-3.69,2.24-3.56,4.89a4.21,4.21,0,0,0,3.93,3.94,6.76,6.76,0,0,0,5.51-1.53c.59,2.23,2.15,1,3.3,1.26,0-3.58.14-7-.06-10.44A4,4,0,0,0,450,514.41Zm-.77,10.68a3.8,3.8,0,0,1-3.76,1,2,2,0,0,1-1.89-1.86,2,2,0,0,1,1.59-2.11,16,16,0,0,1,1.69-.32,6.72,6.72,0,0,1,1.44.18c.6.24,1.63.55,1.66.89A3.34,3.34,0,0,1,449.23,525.09Zm35.7-11a6.93,6.93,0,0,0-8.62,4.07,7.68,7.68,0,0,0,3.23,9.75c3.23,1.68,7.51.79,9.3-2l-1.73-1.58c-3.89,2.67-7.23,1.88-7.94-1.94H489.4C490.16,518.8,488.13,515.12,484.93,514.13Zm-5.67,6a3.48,3.48,0,0,1,3.57-3.64,3.3,3.3,0,0,1,3.21,3.64ZM467.05,514c-2.26-.65-4.23.31-5.92,2.27-.06-.87-.09-1.41-.13-2h-3.11v18.46h3.25v-6.22a6.47,6.47,0,0,0,9.22.56c2.75-2.59,3.15-7.88.51-10.83A8.44,8.44,0,0,0,467.05,514Zm-1.87,11.86a4.6,4.6,0,0,1,0-9.16,4.36,4.36,0,0,1,4.08,4.6A4.3,4.3,0,0,1,465.18,525.85Z" style="fill: #bababa"/>
  </g>
  <path id="axway_5" d="M669,371.37l-30.85,68.57H624l11.67-25.64-20.84-42.93h14.8l13.13,28.76,12.09-28.76Z" style="fill: none"/>
  <path id="axway_4" d="M615.65,388.46c0-10-5.63-18.76-21.26-18.76-13.13,0-20.22,8.54-21,16.26l11.88,2.5c.41-4.17,3.54-7.92,9.38-7.92,5.62,0,8.33,2.92,8.33,6.46,0,1.67-1,3.12-3.75,3.54l-12.09,1.88c-8.33,1-14.79,6-14.79,14.59,0,7.71,6.46,14.79,16.88,14.79,7.29,0,11.88-3.33,14.38-7.29a27.91,27.91,0,0,0,.41,5.83h12.3a45.86,45.86,0,0,1-.62-7.71Zm-12.93,12.29c0,8.76-5.21,11.26-10.63,11.26-4.37,0-6.46-2.71-6.46-5.63,0-4,2.71-5.83,6-6.25l11-1.67Z" style="fill: none"/>
  <path id="axway_3" d="M573.55,371.37l-15.43,49.18H544.78L533.32,387l-11.25,33.55H508.52l-15-47.22,1.26-1.75H493l-.07-.21h14L516,402.84l10.63-31.47h14l10.63,31.68,9.17-31.68Z" style="fill: none"/>
  <path id="axway_2" d="M493,371.58l.55,1.75-15.84,22.21,17.72,25H479.76l-10.21-15c-1.88,2.71-8.34,12.29-10,15h-15L461.84,396l-17.51-24.38h15.84c1.67,2.71,8.13,11.88,9.79,14.58l9.59-14.58Z" style="fill: none"/>
  <path id="axway_1" d="M442.24,388.46c0-10-5.62-18.76-21.25-18.76-13.13,0-20.22,8.54-21.05,16.26l11.88,2.5c.41-4.17,3.54-7.92,9.37-7.92,5.63,0,8.34,2.92,8.34,6.46,0,1.67-1,3.12-3.75,3.54l-12.09,1.88c-8.34,1-14.8,6-14.59,14.59,0,7.71,6.46,14.79,16.88,14.79,7.3,0,11.88-3.33,14.38-7.29a27.26,27.26,0,0,0,.42,5.83h12.09a45.85,45.85,0,0,1-.63-7.71Zm-12.92,12.29c0,8.76-5.21,11.26-10.63,11.26-4.37,0-6.46-2.71-6.46-5.63,0-4,2.71-5.83,6-6.25l11-1.67Z" style="fill: none"/>
  <rect x="650" y="510" width="384" height="70" style="fill: #7c7c7c"/>
  <g id="message">
    <text transform="translate(698.18 550)" style="font-size: 22px;fill: #fff;font-family: Roboto-Regular, Roboto">Sta<tspan x="33.42" y="0" style="letter-spacing: 0.00830078125em">r</tspan><tspan x="41.14" y="0">t dragging and d</tspan><tspan x="202.46" y="0" style="letter-spacing: -0.009765625em">r</tspan><tspan x="209.78" y="0">opping!</tspan></text>
  </g>
</svg>
