<svg id="Layer_1" data-name="Layer 1" xmlns="http://www.w3.org/2000/svg" viewBox="0 0 16 16">
  <title>central</title>
  <g>
    <path d="M11.38,2.3l3.07,5a.75.75,0,0,1,0,.79L11.6,12.79a.77.77,0,0,1-.65.37H5.05a.77.77,0,0,1-.65-.37L1.55,8.12a.75.75,0,0,1,0-.79L4.4,2.66a.78.78,0,0,1,.65-.36h6.33M12,1.2H4.43a.75.75,0,0,0-.64.36L.26,7.33a.75.75,0,0,0,0,.79l3.53,5.77a.74.74,0,0,0,.64.37h7.14a.74.74,0,0,0,.64-.37l3.53-5.77a.75.75,0,0,0,0-.79L12,1.2Z"/>
    <path d="M10.18,4.26l1.91,3.12a.68.68,0,0,1,0,.7l-1.72,2.8a.65.65,0,0,1-.56.32H6.19a.65.65,0,0,1-.56-.32L3.91,8.08a.68.68,0,0,1,0-.7l1.72-2.8a.65.65,0,0,1,.56-.32h4m.61-1.1H5.58A.67.67,0,0,0,5,3.48L2.62,7.38a.68.68,0,0,0,0,.7L5,12a.67.67,0,0,0,.57.32h4.84A.67.67,0,0,0,11,12l2.39-3.9a.68.68,0,0,0,0-.7L10.79,3.16Z"/>
    <path d="M9.22,5.14H6.78a.63.63,0,0,0-.55.31L5,7.39a.64.64,0,0,0,0,.68L6.23,10a.63.63,0,0,0,.55.31H9.22A.63.63,0,0,0,9.77,10L11,8.07a.64.64,0,0,0,0-.68L9.77,5.45A.63.63,0,0,0,9.22,5.14Z"/>
  </g>
</svg>
