<svg id="Layer_1" data-name="Layer 1" xmlns="http://www.w3.org/2000/svg" viewBox="0 0 16 16">
  <title>dashboard</title>
  <g>
    <path d="M16.05,10.84a15.75,15.75,0,0,1-.61,2.21c-.13.29-.58.45-.9.66-.08-.34-.32-.74-.24-1A7,7,0,0,0,13,5.82,6.81,6.81,0,0,0,5.66,3.93a6.46,6.46,0,0,0-4.4,6c0,.9.27,1.83.32,2.74a3.85,3.85,0,0,1-.26,1.09C1,13.47.57,13.31.44,13a8,8,0,1,1,15.37-4.1c.06.27.14.51.22.77S16.05,10.44,16.05,10.84Z"/>
    <path d="M7.93,12.41c-.78,0-1.52,0-2.3,0-.58,0-.77-.3-.45-.86C6,10.2,6.75,8.86,7.53,7.5c.29-.5.58-.48.88,0,.74,1.28,1.49,2.59,2.23,3.89.38.67.14,1-.61,1s-1.41,0-2.1,0Z"/>
  </g>
</svg>
