<?xml version="1.0" encoding="utf-8"?>
<!-- Generator: Adobe Illustrator 24.0.0, SVG Export Plug-In . SVG Version: 6.00 Build 0)  -->
<svg version="1.1" id="Layer_1" xmlns="http://www.w3.org/2000/svg" xmlns:xlink="http://www.w3.org/1999/xlink" x="0px" y="0px"
	 viewBox="0 0 128 128" style="enable-background:new 0 0 128 128;" xml:space="preserve">
<g>
	<path d="M94.3,53.7c-0.8,7.5,0.1,16.3-4.9,22.5c-1.6,0.4-3.5-1.4-5.4-1.6c-0.6-0.1-0.9-0.4-0.5-1.1c4.1-5.8,3.8-12.9,3.7-19.9
		c0.9-8.4-8.6,1.9-18.6-15.5c-9.7,19.3-28.7,11.4-27.1,16.8c-0.6,10.1,0.9,17.5,8,23.6c11.8,9.2,12.2,0.7,13.9,11.8
		c-13.5,1-26.2-11.1-28.4-24.6c-0.5-13.1-2.4-28.9,6.7-38.9C64.8,3.3,98.1,22.8,94,53.7C94.1,53.7,94.2,53.7,94.3,53.7z"/>
	<path d="M111.9,53.4c0,9.4,0.9,11.9-6.8,16.4c-1.3,4.9-3.5,8.8-7.3,11.6c-2.7,2.5-6.6,3.3-9.5,5.4c-1.2,1.5-1.7,3.4-3.7,4
		c-6.8,1-20.6,2.2-17.3-8c1.8-4.4,6-3.8,10-3.8c3.6,0.1,7.2-0.7,9.9,2.3c4.5,0.6,10.9-5.6,12.2-8.6c2.9-4.2-2.7-4.7-3.1-8.1
		c-3.2-35.5,5.6-21.6,3.1-30.4c-5-20.9-27.2-32.5-47-25.6c-11.7,4-22.8,15.8-23.6,28.8c5,3.5,3.7,9.2,3.9,14.4
		c-0.2,5.3,1.5,14.3-3.9,17.1c-10.3,3.2-13.1-6.2-12.3-14.1c0.3-4.8-1-10,1.6-14c1.1-2,4-2.3,4.3-4.9c2-11.7,8.6-21.8,17.8-28
		c26.2-17.7,61-2.2,65.8,28.7c0.3,0.8,0.7,1.3,1.6,1.9C113.2,41.5,111.8,48.1,111.9,53.4z"/>
</g>
<path d="M16,124.9c1.2-16.1,13.5-22.3,30.2-24.5c1.2-0.1,2.4-0.1,3.5-0.2c-0.4,0.8-0.5,1.9-1.2,2.5c-6.8,5.2-0.7,6.7,3.5,7.2
	c7.7,0.8,15.7,1.2,23.4,0.5c3.8-0.4,13.7-1,4.7-8.1c-0.3-0.2,0.5-2.1,0.9-2.1c13.4-1.9,30.2,9.5,29.9,21c-0.1,2.2-0.2,6.9-2.8,7
	c-29.3,0.6-63-0.2-92.2,0C16,127,16,125.9,16,124.9z"/>
</svg>
