<svg id="Layer_1" data-name="Layer 1" xmlns="http://www.w3.org/2000/svg" viewBox="0 0 16 16">
  <title>integration_builder</title>
  <g>
    <g>
      <path d="M2.08,10.21A1.25,1.25,0,0,1,.83,9V2.11A1.25,1.25,0,0,1,2.08.86H8.93a1.25,1.25,0,0,1,1.25,1.25V5h.75V2.11a2,2,0,0,0-2-2H2.08a2,2,0,0,0-2,2V9a2,2,0,0,0,2,2H5.13v-.75Z"/>
      <path d="M13.94,5h-3v.75h3a1.28,1.28,0,0,1,1.28,1.28v6.77a1.28,1.28,0,0,1-1.28,1.29H7.17a1.29,1.29,0,0,1-1.29-1.29V11H5.13v2.87a2,2,0,0,0,2,2h6.77a2,2,0,0,0,2-2V7.06A2,2,0,0,0,13.94,5Z"/>
      <rect x="10.18" y="5.03" width="0.75" height="0.75"/>
      <rect x="5.13" y="10.21" width="0.75" height="0.75"/>
    </g>
    <path d="M8.2,11v-.75H9l0,.63V11Zm-.75,0H6.7v-.75h.75ZM6,11H5.2v-.75H6Zm3.92-.23-.35-.66A1.33,1.33,0,0,0,10,9.69l.6.45A2,2,0,0,1,9.87,10.73Zm1.05-1.44-.74-.12a1.49,1.49,0,0,0,0-.21V8.48H11V9A1.69,1.69,0,0,1,10.92,9.29Zm0-1.56H10.2V7H11Zm0-1.5H10.2V5.47H11Z"/>
    <path d="M5.9,9.71H5.15V9H5.9Zm0-1.5H5.15V7.46H5.9Zm0-1.42L5.2,6.64a2,2,0,0,1,.38-.83l.59.46A1.36,1.36,0,0,0,5.93,6.79Zm.69-.88-.33-.67A1.93,1.93,0,0,1,7.17,5v.74A1.36,1.36,0,0,0,6.62,5.91Zm3.56-.13H9.43V5h.75Zm-1.5,0H7.93V5h.75Z"/>
  </g>
</svg>
