<svg id="Layer_1" data-name="Layer 1" xmlns="http://www.w3.org/2000/svg" viewBox="0 0 16 16">
  <defs>
    <style>
      .cls-1 {
        fill-rule: evenodd;
      }
    </style>
  </defs>
  <title>mft</title>
  <g>
    <path class="cls-1" d="M11.36,1.21h0A.34.34,0,0,0,11,.88H7.14V.57C7.14.39,7,.28,6.76.28H5.07a.34.34,0,0,0-.36.31V1.72h6.65Z"/>
    <path class="cls-1" d="M5.61,7.73h0a.29.29,0,0,0-.29-.28h-3V7.18A.26.26,0,0,0,2,6.92H.68a.28.28,0,0,0-.27.29v1h5.2Z"/>
    <path class="cls-1" d="M10.46,7.21h0v1h5.2V7.73a.3.3,0,0,0-.3-.28h-3V7.18a.27.27,0,0,0-.29-.26H10.76A.29.29,0,0,0,10.46,7.21Z"/>
    <path d="M15.75,8.82H10.2a.23.23,0,0,0-.25.26l.08.69H8.43V6.42H11a.43.43,0,0,0,.4-.35l.4-3.29a.3.3,0,0,0-.31-.34h-7a.3.3,0,0,0-.31.34l.4,3.29a.43.43,0,0,0,.4.35H7.44V9.77H5.81l.1-.69a.24.24,0,0,0-.26-.26H.1a.23.23,0,0,0-.23.26l.31,2.6A.32.32,0,0,0,.49,12H5.27a.33.33,0,0,0,.31-.27l.11-.93h4.47l.12.93a.31.31,0,0,0,.31.27h4.77a.35.35,0,0,0,.33-.27L16,9.08A.23.23,0,0,0,15.75,8.82ZM7.41,5.31H7V4.72l0-.87H7L6.47,5.31H6.19L5.63,3.85l0,.87v.59H5.25v-2H5.8l.53,1.46.53-1.46h.55Zm2-2H11v.32h-.6V5.31H10V3.65h-.6Zm-1.19,2H7.77v-2H9.2v.32h-1v.54h.86v.3H8.19Z"/>
  </g>
</svg>
