<svg id="Layer_1" data-name="Layer 1" xmlns="http://www.w3.org/2000/svg" viewBox="0 0 16 16">
  <title>mobile_backend</title>
  <g>
    <path d="M4.74,12.73a3.89,3.89,0,0,0,0,.48c-1.3.43-3.46-1-4.15-2.55A4.72,4.72,0,0,1,1.74,5C3.25,3.7,5.38,3,8.25,5.05a2.48,2.48,0,0,1,3-1.09,2.4,2.4,0,0,1,1.54,2.92A3.46,3.46,0,0,1,16.06,10a3.3,3.3,0,0,1-1.75,3,3.15,3.15,0,0,1-3.06,0c.19-.5.64-.34,1-.4a5.66,5.66,0,0,0,1.65-.29c1.35-.64,1.41-1.54,1.2-2.84a2.3,2.3,0,0,0-2.34-1.65c-.32,0-.64,0-1.15.1A6.5,6.5,0,0,1,11.78,7a1.74,1.74,0,0,0-.08-1.8A1.6,1.6,0,0,0,9,5.58c-.1.27-.21.53-.29.75-.69.08-.9-.43-1.22-.72a4,4,0,1,0-3.7,6.78A8.31,8.31,0,0,0,4.74,12.73Z"/>
    <path d="M10.53,10.63v.8c0,1.22-.29,1.59-1.48,1.86a4.41,4.41,0,0,1-2.56-.16,1.29,1.29,0,0,1-.93-1.28c0-.85,0-1.72,0-2.57A1.25,1.25,0,0,1,6.52,8,4.43,4.43,0,0,1,9.44,8c.83.27,1,.59,1.09,1.46v1.17Zm-4-.5c.14.29.19.56.32.58A7.05,7.05,0,0,0,8.43,11c.75,0,.94-.21,1-.82Zm.11,1.59c.29.75.69.93,1.76.85.74-.05.93-.21,1.06-.85ZM9.39,9A2.79,2.79,0,0,0,6.52,9,2.8,2.8,0,0,0,9.39,9Z"/>
  </g>
</svg>
