<svg id="Layer_1" data-name="Layer 1" xmlns="http://www.w3.org/2000/svg" viewBox="0 0 16.11 16">
  <title>multiOperations8</title>
  <polygon points="4.45 5.55 0.02 5.56 0.02 9.4 0.05 9.86 4.45 5.55"/>
  <path d="M11.12,6.09" transform="translate(0 0)"/>
  <line x1="9.67" y1="15.14" x2="9.66" y2="15.13"/>
  <polygon points="9.71 15.11 9.71 15.1 9.7 15.11 9.71 15.11"/>
  <line x1="6.01" y1="11.42" x2="6.06" y2="11.42"/>
  <polygon points="9.95 0 0 0 0 3.33 6.53 3.32 9.95 0"/>
  <polygon points="16.11 5.56 16.11 9.78 11.88 9.78 16.11 5.56"/>
  <polygon points="10.2 11.42 9.21 12.47 15.12 12.47 15.12 14.97 6.54 14.97 5.58 16 16 16 16 11.42 10.2 11.42"/>
  <path d="M15.56,4.48,14.12,5.91a.36.36,0,0,1-.52,0L10.14,2.46a.37.37,0,0,1,0-.53L11.57.49a1.51,1.51,0,0,1,2.12,0l1.87,1.87A1.49,1.49,0,0,1,15.56,4.48ZM8.9,3.16.73,11.34.07,15.12A.74.74,0,0,0,.93,16l3.79-.66,8.17-8.18a.37.37,0,0,0,0-.53L9.44,3.16a.38.38,0,0,0-.54,0Zm-5,7.48a.44.44,0,0,1,0-.62L8.71,5.23a.42.42,0,0,1,.62,0,.43.43,0,0,1,0,.61l-4.8,4.8a.43.43,0,0,1-.61,0ZM2.79,13.26h1.5v1.13l-2,.35-1-1,.35-2H2.79Z" transform="translate(0 0)"/>
</svg>
