<svg id="Layer_1" data-name="Layer 1" xmlns="http://www.w3.org/2000/svg" viewBox="0 0 16.11 16">
  <title>multiOperations6_white</title>
  <polygon points="6.02 5.55 0.02 5.56 0.02 9.4 2.5 9.4 6.02 5.55" style="fill: #fff"/>
  <path d="M11.12,6.09" transform="translate(0 0)" style="fill: #fff"/>
  <line x1="9.67" y1="15.14" x2="9.66" y2="15.13" style="fill: #fff"/>
  <polygon points="9.71 15.11 9.71 15.1 9.7 15.11 9.71 15.11" style="fill: #fff"/>
  <line x1="6.01" y1="11.42" x2="6.06" y2="11.42" style="fill: #fff"/>
  <g>
    <path d="M9.73,3,3.79,9.94l3.94,4,6-7ZM4.86,10.08,10,4.32l.62.62L5.48,10.72ZM7.31,12.6,6.7,12,11.86,6.2l.62.62Z" transform="translate(0 0)" style="fill: #fff"/>
    <path d="M15.32,2l-.77-.76A1.94,1.94,0,0,0,11.9.86L10.67,2.08l3.84,3.83,1.22-1.22A2,2,0,0,0,15.32,2Z" transform="translate(0 0)" style="fill: #fff"/>
    <polygon points="3.16 14.61 7.12 14.61 3.16 10.6 3.16 14.61" style="fill: #fff"/>
  </g>
  <polygon points="11.12 0 0 0 0 3.33 7.76 3.32 11.12 0" style="fill: #fff"/>
  <polygon points="16.11 5.91 16.11 9.44 12.91 9.44 16.11 5.91" style="fill: #fff"/>
  <g>
    <polygon points="0.88 14.97 0.88 12.47 2.44 12.47 2.44 11.42 0.02 11.42 0.01 11.42 0.01 16 0.02 16 1.54 16 1.54 14.97 0.88 14.97" style="fill: #fff"/>
    <polygon points="11.52 11.42 10.65 12.47 15.12 12.47 15.12 14.97 9.13 14.97 8.17 16 16 16 16 11.42 11.52 11.42" style="fill: #fff"/>
  </g>
  <rect x="1.54" y="15.77" width="7.2" height="0.23" style="fill: #fff"/>
</svg>
