<svg id="Layer_1" data-name="Layer 1" xmlns="http://www.w3.org/2000/svg" viewBox="0 0 16 16">
  <title>platform_runtime</title>
  <g>
    <path d="M8.53,13.07H5.27A6.37,6.37,0,0,1,1.79,12,4.24,4.24,0,0,1,.16,9.88a4.42,4.42,0,0,1,.5-4.34A4.75,4.75,0,0,1,5.5,3.44a4.43,4.43,0,0,1,2,.79c.55.37.58.39,1-.08a2.23,2.23,0,0,1,2.4-.66,2.38,2.38,0,0,1,1.76,2.74c-.08.29,0,.31.24.34A3.24,3.24,0,0,1,16,9.38a3.14,3.14,0,0,1-2.48,3.48,7.66,7.66,0,0,1-1.73.21C10.71,13.1,9.61,13.07,8.53,13.07Zm0-1h4.13a2.11,2.11,0,0,0,2.18-1.72,2.24,2.24,0,0,0-2.23-2.84c-.29,0-.61,0-.9,0-.55,0-.66-.26-.37-.73a1.49,1.49,0,0,0,.34-1.19,1.53,1.53,0,0,0-.94-1.18,1.34,1.34,0,0,0-1.61.42,2,2,0,0,0-.45.84c-.07.53-.44.61-.84.29a4.08,4.08,0,0,1-.55-.55,3.38,3.38,0,0,0-3.76-.87A3.83,3.83,0,0,0,1.11,9.65a4,4,0,0,0,3.63,2.47C6,12,7.24,12.1,8.48,12.1Z"/>
    <path d="M11.32,9.52c0,.13,0,.26-.08.31-.34.34-.68.71-1,1-.08.08-.23.05-.36.05a.49.49,0,0,1-.27-.1.37.37,0,0,1,0-.27c.24-.26.5-.52.74-.79a.3.3,0,0,0-.06-.5,1.48,1.48,0,0,1-.71-.73c-.1-.27,0-.37.27-.37a.79.79,0,0,1,.36,0c.35.29.66.63,1,1A.75.75,0,0,1,11.32,9.52Z"/>
    <path d="M6.82,10.65c-.11.16-.19.29-.26.31s-.24-.05-.32-.13c-.34-.34-.68-.68-1-1s-.21-.43,0-.66.64-.66,1-1A2,2,0,0,1,6.58,8c0,.19.16.37.13.53s-.18.26-.29.37c-.5.55-.47.55,0,1.13C6.58,10.28,6.69,10.46,6.82,10.65Z"/>
    <path d="M8.74,8.7c-.13.61-.29,1.26-.47,1.92a.8.8,0,0,1-.19.24.92.92,0,0,1-.31.16c-.06,0-.16-.14-.19-.21a6.22,6.22,0,0,1,.61-2.58c.08-.08.23-.19.31-.16a.38.38,0,0,1,.21.29C8.77,8.44,8.74,8.54,8.74,8.7Z"/>
  </g>
</svg>
