<svg id="Layer_1" data-name="Layer 1" xmlns="http://www.w3.org/2000/svg" viewBox="0 0 16 16">
  <title>rocket</title>
  <g>
    <path d="M3.17,10.52a.43.43,0,0,0,0-.6.43.43,0,0,0-.61,0L.1,12.39a.42.42,0,0,0,0,.6.42.42,0,0,0,.3.12A.42.42,0,0,0,.7,13Z"/>
    <path d="M3.82,12.18a.42.42,0,0,0-.6,0L.65,14.75a.42.42,0,0,0,0,.6.43.43,0,0,0,.6,0l2.57-2.57A.42.42,0,0,0,3.82,12.18Z"/>
    <path d="M5.48,12.83,3,15.3a.42.42,0,1,0,.6.6l2.47-2.46a.43.43,0,0,0,0-.61A.43.43,0,0,0,5.48,12.83Z"/>
    <path d="M15.88.12A.43.43,0,0,0,15.51,0a15.07,15.07,0,0,0-2.84.81A17.2,17.2,0,0,0,10,2.1a14.5,14.5,0,0,0-2.7,2.07L4.1,4.79a.48.48,0,0,0-.22.12L1,7.81a.44.44,0,0,0-.08.5.45.45,0,0,0,.38.23h.08l3.29-.64A14.17,14.17,0,0,0,4,9.2a.41.41,0,0,0,.09.46l.8.8-.74.75a.42.42,0,0,0,0,.6.41.41,0,0,0,.6,0l.75-.74.8.8a.43.43,0,0,0,.3.13.29.29,0,0,0,.16,0,14.17,14.17,0,0,0,1.31-.6l-.64,3.29a.42.42,0,0,0,.22.46.46.46,0,0,0,.2.05.43.43,0,0,0,.3-.13l2.9-2.91a.48.48,0,0,0,.12-.22l.62-3.21A14.5,14.5,0,0,0,13.9,6a17.2,17.2,0,0,0,1.28-2.66A15.07,15.07,0,0,0,16,.49.43.43,0,0,0,15.88.12ZM2.56,7.43,4.39,5.6l2-.38a15.12,15.12,0,0,0-1.19,1.7Zm7.84,4.18L8.57,13.44l.51-2.61a15.12,15.12,0,0,0,1.7-1.19Zm4-8.56a14.82,14.82,0,0,1-3.2,5.09,13.84,13.84,0,0,1-2.67,2,.05.05,0,0,0,0,0,17.24,17.24,0,0,1-1.72.86l-.6-.61L7.35,9.25a.42.42,0,1,0-.6-.6L5.54,9.86l-.61-.6a17.24,17.24,0,0,1,.86-1.72.05.05,0,0,0,0,0A13.49,13.49,0,0,1,7.87,4.82,14.7,14.7,0,0,1,13,1.62,17.34,17.34,0,0,1,15,1,17.34,17.34,0,0,1,14.38,3.05Z"/>
    <path d="M12.06,3.94A1.47,1.47,0,0,0,11,3.49a1.51,1.51,0,0,0-1.07.45A1.46,1.46,0,0,0,9.48,5,1.5,1.5,0,0,0,11,6.52h0a1.46,1.46,0,0,0,1.07-.44A1.51,1.51,0,0,0,12.51,5,1.47,1.47,0,0,0,12.06,3.94Zm-.6,1.54a.67.67,0,0,1-.47.19A.65.65,0,0,1,10.33,5a.67.67,0,0,1,.19-.47A.64.64,0,0,1,11,4.35a.63.63,0,0,1,.47.19A.66.66,0,0,1,11.46,5.48Z"/>
  </g>
</svg>
