<svg id="Layer_1" data-name="Layer 1" xmlns="http://www.w3.org/2000/svg" viewBox="0 0 16 16">
  <defs>
    <style>
      .cls-1 {
        fill-rule: evenodd;
      }
    </style>
  </defs>
  <title>syncplicity</title>
  <path class="cls-1" d="M5.59,13.24h2.8v-.8H5.59Zm-2.19,1h7.39v-.8H3.4ZM13.37,9h0v2.44H.66V3H8.79a3.39,3.39,0,0,1,.46-.72H0v10H14.19V8.76A4,4,0,0,1,13.37,9ZM5,7.52H5A4.4,4.4,0,0,1,6.25,5.4l-.5-1,2.64.08-1,3.18-.5-1C6.49,7.16,5.57,8.24,6,9s1.84.9,1.84.9a2.63,2.63,0,0,1-1.62,0A2,2,0,0,1,5,7.52Zm7.88-1.9a.29.29,0,0,0-.06.28c0,.2.06.38.1.58h-.6c0-.22.08-.44.1-.64a.48.48,0,0,0,0-.18c-.14-.18-.16-.28-.1-.44A.38.38,0,0,1,12.61,5a.4.4,0,0,1,.34.36A.36.36,0,0,1,12.87,5.62Zm.4-2.43c0,.32,0,.63,0,1H12c0-.26,0-.47,0-.75a.63.63,0,0,1,.32-.66.79.79,0,0,1,.86.08A.47.47,0,0,1,13.27,3.19Zm-.78-1.94A3.56,3.56,0,0,0,9,4.84a3.5,3.5,0,1,0,7,0A3.55,3.55,0,0,0,12.49,1.25Zm1.89,6H10.81l0-3.08h.56s0-.65,0-1a1,1,0,0,1,.4-.86,1.07,1.07,0,0,1,.48-.22,1.6,1.6,0,0,1,.52-.06,1.3,1.3,0,0,1,.32.06,1.15,1.15,0,0,1,.68.62,1.29,1.29,0,0,1,.08.4c0,.34,0,.68,0,1h.53Z"/>
</svg>
