<svg id="Layer_1" data-name="Layer 1" xmlns="http://www.w3.org/2000/svg" viewBox="0 0 16 16">
  <title>talk</title>
  <path d="M14.77,11.62A3.81,3.81,0,0,0,16,8.89c0-2.23-2.13-4.07-4.91-4.39A6,6,0,0,0,5.75,1.76C2.56,1.76,0,3.76,0,6.22A3.83,3.83,0,0,0,1.19,9a7.33,7.33,0,0,1-1,1.53.63.63,0,0,0-.12.7.65.65,0,0,0,.59.39,6.43,6.43,0,0,0,3.48-1.08c.26,0,.52.1.79.13a6,6,0,0,0,5.33,2.72,7.47,7.47,0,0,0,1.66-.18,6.5,6.5,0,0,0,3.49,1.08.65.65,0,0,0,.47-1.09A6.78,6.78,0,0,1,14.77,11.62ZM3.84,9.06l-.48.3a5.18,5.18,0,0,1-1.2.6c.08-.13.15-.27.23-.41l.43-.87L2.13,8A2.53,2.53,0,0,1,1.3,6.22c0-1.69,2-3.12,4.45-3.12s4.46,1.43,4.46,3.12-2,3.12-4.46,3.12a6.31,6.31,0,0,1-1.36-.16l-.55-.12Zm10,1.61-.69.68.43.87.22.41a5.38,5.38,0,0,1-1.2-.6l-.47-.31-.56.13a5.62,5.62,0,0,1-1.36.16,5.18,5.18,0,0,1-3.66-1.39c2.82-.3,5-2.15,5-4.4a2.46,2.46,0,0,0,0-.28c1.8.4,3.14,1.58,3.14,3A2.56,2.56,0,0,1,13.84,10.67Z"/>
</svg>
