<svg id="Layer_1" data-name="Layer 1" xmlns="http://www.w3.org/2000/svg" viewBox="0 0 16 16">
  <title>unified_catalog</title>
  <g>
    <path d="M10,8.1a7.85,7.85,0,0,1,0,.84,1.15,1.15,0,0,1-1.14,1.14,15.51,15.51,0,0,1-1.67,0,.71.71,0,0,1-.21,0C6.13,9.87,5.73,9,5.85,7.54c.08-1.06.5-1.56,1.42-1.61.45,0,.91,0,1.36,0,1,0,1.36.44,1.4,1.44,0,.25,0,.49,0,.74Zm-.82,0c0-1.28,0-1.32-1.13-1.33S6.68,6.9,6.67,8,6.86,9.27,8,9.28,9.19,9.25,9.2,8.07Z"/>
    <path d="M10,2.18c0,.32,0,.64,0,.95A1.15,1.15,0,0,1,8.91,4.2c-.59,0-1.18,0-1.78,0H7c-.88-.18-1.28-1-1.19-2.49C5.91.71,6.4.11,7.24.05c.42,0,.84,0,1.26,0C9.62.06,10,.44,10,1.55v.63Zm-.81,0C9.21.91,9.18.87,8.08.86S6.68,1,6.67,2.11,6.86,3.39,7.94,3.4,9.19,3.37,9.2,2.2Z"/>
    <path d="M10,14a7.85,7.85,0,0,1,0,.84A1.17,1.17,0,0,1,8.89,16c-.56,0-1.12,0-1.68,0h-.1c-.88-.14-1.29-.85-1.27-2.21,0-1.19.46-1.86,1.32-1.94a12,12,0,0,1,1.47,0c1,0,1.36.44,1.4,1.44,0,.24,0,.49,0,.73ZM9.2,14c0-1.29,0-1.33-1.12-1.34s-1.4.15-1.41,1.26.19,1.27,1.27,1.28S9.19,15.13,9.2,14Z"/>
    <path d="M4.14,2.21c0,.24,0,.49,0,.73A1.2,1.2,0,0,1,2.91,4.21c-.53,0-1,0-1.58,0a.65.65,0,0,1-.2,0C.26,4-.14,3.14,0,1.69,0,.7.53.1,1.38.05A12.52,12.52,0,0,1,2.75,0c1,0,1.36.44,1.4,1.43,0,.25,0,.49,0,.74Zm-.82-.09C3.32.89,3.29.86,2.13.86S.79,1,.79,2.14.89,3.4,2.14,3.4,3.32,3.36,3.32,2.12Z"/>
    <path d="M15.91,2.15c0,.28,0,.57,0,.84a1.17,1.17,0,0,1-1.18,1.22c-.56,0-1.12,0-1.68,0h-.1c-.88-.16-1.27-.93-1.22-2.36,0-1.08.51-1.72,1.37-1.79a12.52,12.52,0,0,1,1.37,0c1,0,1.42.42,1.45,1.49,0,.21,0,.42,0,.62Zm-.83.05c0-1.29,0-1.33-1.12-1.34-1.29,0-1.4.08-1.41,1.2s.1,1.33,1.28,1.34S15.07,3.38,15.08,2.2Z"/>
    <path d="M4.14,8.08c0,.24,0,.49,0,.73a1.19,1.19,0,0,1-1.23,1.28c-.52,0-1,0-1.57,0a1.09,1.09,0,0,1-.31,0C.22,9.82-.17,8.87,0,7.47A1.52,1.52,0,0,1,1.48,5.92c.42,0,.84,0,1.26,0,1,0,1.37.43,1.41,1.43,0,.24,0,.48,0,.73Zm-2-1.34C.88,6.74.79,6.83.79,8S.89,9.27,2,9.28,3.32,9.26,3.32,8,3.29,6.74,2.12,6.74Z"/>
    <path d="M15.91,8a7.63,7.63,0,0,1,0,.83,1.17,1.17,0,0,1-1.18,1.22c-.56,0-1.12,0-1.68,0h-.1c-.88-.16-1.27-.93-1.22-2.36,0-1.08.51-1.72,1.38-1.79a12.32,12.32,0,0,1,1.36,0c1,0,1.42.42,1.45,1.49,0,.21,0,.42,0,.63Zm-.83,0c0-1.3,0-1.32-1.11-1.34-1.29,0-1.41.09-1.42,1.2s.1,1.33,1.27,1.34S15.07,9.25,15.08,8.08Z"/>
    <path d="M4.14,13.92c0,.28,0,.56,0,.84A1.18,1.18,0,0,1,3,16c-.52,0-1,0-1.57,0a.75.75,0,0,1-.21,0C.3,15.8-.09,15,0,13.6c0-1.08.51-1.71,1.37-1.79.46,0,.91,0,1.37,0,1,0,1.41.43,1.45,1.49v.63ZM3.32,14c0-1.31,0-1.34-1.1-1.36-1.3,0-1.42.08-1.43,1.19s.09,1.34,1.26,1.35S3.31,15.14,3.32,14Z"/>
    <path d="M15.9,14c0,.28,0,.56,0,.84A1.17,1.17,0,0,1,14.76,16a11.64,11.64,0,0,1-1.67,0c-.92-.07-1.36-.75-1.37-2s.41-2.05,1.33-2.14a12,12,0,0,1,1.47,0c.93,0,1.33.43,1.39,1.34,0,.28,0,.56,0,.84Zm-.82-.05c0-1.27,0-1.3-1.15-1.31s-1.37.09-1.38,1.24.09,1.3,1.31,1.3S15.08,15.13,15.08,13.93Z"/>
  </g>
</svg>
