<svg id="Layer_1" data-name="Layer 1" xmlns="http://www.w3.org/2000/svg" viewBox="0 0 16 16">
  <defs>
    <style>
      .cls-1 {
        fill-rule: evenodd;
      }
    </style>
  </defs>
  <title>watches</title>
  <g>
    <path class="cls-1" d="M7.59,8.81h0V.06H14.5V8.77l-.76,0v-8L8.32.72l0,8.06Z"/>
    <path class="cls-1" d="M12.63,10.47h0a.37.37,0,1,0,0-.73.37.37,0,1,0,0,.73Zm-1.55.26h0a.6.6,0,0,0,.61-.6.61.61,0,1,0-.61.6Zm-1.52-.22h0a.37.37,0,0,0,.37-.37.37.37,0,0,0-.37-.36.37.37,0,0,0-.38.36A.37.37,0,0,0,9.56,10.51Zm4.91.83H7.59l0-2.53H14.5Z"/>
    <path class="cls-1" d="M7.12,12.13h0a.58.58,0,0,1-.57.59H2.18a.58.58,0,0,1-.58-.59V6.61A.58.58,0,0,1,2.18,6H6.55a.57.57,0,0,1,.57.59v5.52Zm.61-5.7h0a1.13,1.13,0,0,0-.3-.68,1.41,1.41,0,0,0-.37-.27H7a.87.87,0,0,0-.26-.08H6.56l-.08,0H2.26l-.08,0H1.93s0,0,0,0,0,0,0,0H1.8s0,0,0,0l-.05,0h0A1.32,1.32,0,0,0,.91,6.69v5.37a1.31,1.31,0,0,0,.64,1.14l0,0a1.38,1.38,0,0,0,.48.17H6.66a.07.07,0,0,1,.06,0h0l.16,0s0,0,0,0H7l0,0h0s0,0,0,0a1.34,1.34,0,0,0,.72-1.19v-.71Z"/>
    <path class="cls-1" d="M6.84,13.44H6.65l-.07,0H2.42l-.1,0H2.23l-.16,0a1.16,1.16,0,0,1,.22.4,6.24,6.24,0,0,1,.19,1.26c0,.15,0,.27,0,.33s.09.29.27.35a4.22,4.22,0,0,0,1.67.18H5a3.13,3.13,0,0,0,1.23-.18.39.39,0,0,0,.27-.35c0-.06,0-.18,0-.33a6.24,6.24,0,0,1,.19-1.26,1.08,1.08,0,0,1,.21-.39h0Z"/>
    <path class="cls-1" d="M2.09,5.35h.07a.08.08,0,0,1,.06,0H6.77s0,0,.05,0H6.9A1,1,0,0,1,6.72,5a5.74,5.74,0,0,1-.2-1.28c0-.16,0-.28,0-.34S6.4,3.08,6.22,3a4.51,4.51,0,0,0-1.7-.19H4A3.4,3.4,0,0,0,2.75,3a.39.39,0,0,0-.28.36c0,.06,0,.18,0,.34A6.38,6.38,0,0,1,2.25,5a1.32,1.32,0,0,1-.18.36h0Z"/>
    <path class="cls-1" d="M2.3,8.78h0l.49.49a2.4,2.4,0,0,1,3.39,0l.49-.49a3.1,3.1,0,0,0-4.37,0Z"/>
    <path class="cls-1" d="M3,9.44H3l.5.52a1.39,1.39,0,0,1,2,0L6,9.44a2.09,2.09,0,0,0-3,0Z"/>
    <path class="cls-1" d="M3.68,10.23h0l.81.65.8-.65a1.25,1.25,0,0,0-.8-.27A1.23,1.23,0,0,0,3.68,10.23Z"/>
  </g>
</svg>
