<svg width="18" height="18" xmlns="http://www.w3.org/2000/svg"><path d="M11.351 6.799c-.119-.151-.18-.38-.18-.686V1.825h1.024V5.76c0 .12.024.208.066.262.043.055.113.083.208.083.076 0 .171-.037.288-.108.114-.074.219-.165.314-.275V1.825H14.1v5.131h-1.03v-.568c-.186.208-.384.37-.59.478a1.288 1.288 0 0 1-.593.165c-.239 0-.415-.078-.537-.232zM8.42 2.959c0-.112.041-.202.116-.272a.45.45 0 0 1 .306-.103c.136 0 .247.034.331.103a.34.34 0 0 1 .124.272v2.795a.429.429 0 0 1-.124.325.459.459 0 0 1-.33.118c-.137 0-.24-.038-.312-.117-.073-.076-.11-.184-.11-.326V2.96zm.425 4.126c.467 0 .832-.124 1.099-.374.264-.252.397-.594.397-1.034v-2.65c0-.39-.136-.712-.404-.959-.272-.248-.621-.373-1.045-.373-.465 0-.838.118-1.114.353-.274.235-.413.551-.413.95v2.66c0 .436.135.782.403 1.04.271.258.629.387 1.077.387zm-4.06-2.886L3.41 0h1.163l.75 2.781h.071L6.11 0h1.17L5.938 4.07v2.886H4.785V4.2zm6.173 8.02c.067.08.096.2.096.358v2.405c0 .15-.025.255-.076.322-.054.066-.135.099-.248.099a.507.507 0 0 1-.22-.05.78.78 0 0 1-.215-.165v-2.902a.69.69 0 0 1 .188-.144.456.456 0 0 1 .192-.045c.123 0 .218.042.283.122zm3.16.023c.064.083.097.223.097.419v.47h-.805v-.47c0-.196.03-.336.094-.419.063-.086.167-.129.31-.129.14 0 .243.043.305.13zm1.033 1.614H13.41v.876c0 .245.028.417.089.512.06.095.163.142.308.142.152 0 .257-.04.317-.122.06-.08.091-.257.091-.532v-.211h.936v.239c0 .477-.113.837-.344 1.08-.225.24-.567.36-1.021.36-.408 0-.73-.128-.963-.384-.232-.254-.353-.607-.353-1.056v-2.092c0-.403.129-.734.388-.988.257-.254.589-.38.996-.38.419 0 .738.118.962.352.223.236.335.574.335 1.016v1.188zm-3.159 1.256c0 .328-.07.58-.212.758-.142.176-.351.262-.62.262-.178 0-.338-.032-.476-.101a1.162 1.162 0 0 1-.39-.315v.356h-.92V9.76h.92v2.034c.125-.14.254-.25.39-.324a.878.878 0 0 1 .42-.11c.291 0 .51.098.661.297.154.199.227.489.227.87v2.586zm-3.302.96h-.912v-.51a1.908 1.908 0 0 1-.525.43c-.18.101-.358.15-.527.15-.213 0-.37-.07-.478-.21-.106-.14-.16-.344-.16-.623v-3.894H7v3.573c0 .11.019.19.056.238.04.052.101.075.187.075.065 0 .15-.033.253-.097.103-.067.197-.15.282-.25v-3.539h.912v4.657zm-3-5.395H4.625v5.395H3.599v-5.395h-1.06v-.918h3.15v.918zm9.024-2.104H3.287C1.472 8.573 0 10.08 0 11.936v2.702C0 16.494 1.472 18 3.287 18h11.426C16.527 18 18 16.494 18 14.638v-2.702c0-1.856-1.473-3.363-3.287-3.363z" fill="#008999" fill-rule="evenodd"/></svg>