<svg width="18" height="18" xmlns="http://www.w3.org/2000/svg"><path d="M16.65 0H1.35C.562 0 0 .563 0 1.35v15.412C0 17.437.563 18 1.35 18h15.3c.788 0 1.35-.563 1.35-1.35V1.35C18 .562 17.437 0 16.65 0zM5.875 16H3V7h3c-.125 0-.125 9-.125 9zM3.5 5C2.643 5 2 4.25 2 3.5 2 2.643 2.643 2 3.5 2S5 2.643 5 3.5C4.893 4.25 4.25 5 3.5 5zM15 15.886h-2.595v-4.215c0-1.025 0-2.279-1.297-2.279s-1.513 1.14-1.513 2.279V16H7V7.228h2.486v1.14C9.811 7.683 10.676 7 11.865 7c2.594 0 3.027 1.823 3.027 4.101v4.785H15z" fill="#008999" fill-rule="evenodd"/></svg>