<?xml version="1.0" encoding="utf-8"?>
<!-- Generator: Adobe Illustrator 23.0.6, SVG Export Plug-In . SVG Version: 6.00 Build 0)  -->
<svg version="1.1" id="Layer_1" xmlns="http://www.w3.org/2000/svg" xmlns:xlink="http://www.w3.org/1999/xlink" x="0px" y="0px"
	 viewBox="0 0 88 80" style="enable-background:new 0 0 88 80;" xml:space="preserve">
<style type="text/css">
	.st0{fill:#FCFCFC;}
</style>
<path class="st0" d="M62.3,70.4L62.3,70.4c-0.9-1.4-1.8-2.9-2.6-4.4c-0.9,0.5-1.8,1.1-2.7,1.5c1.4,2.4,2.9,4.9,4.3,7.5
	c0.8-0.5,1.5-0.9,2.2-1.3c0.4-0.2,0.5-0.5,0.2-0.9C63.2,72,62.8,71.2,62.3,70.4z M18.4,44L18.4,44c0-1.6,0.1-3.2,0.4-4.7
	c-0.1,0-0.3,0-0.5,0c-2.5-0.1-5-0.2-7.6-0.3c-0.6,0-0.9,0.1-1,0.8c-0.7,6.1,0,12.1,2.5,17.9c3.8,8.6,10.1,14.8,18.9,18.6
	c1.6,0.7,3.2,1.2,4.8,1.7c0.1-0.3,0.2-0.4,0.2-0.5c0.6-2.7,1.2-5.5,1.8-8.2C26.7,66.1,18.4,55.9,18.4,44z M53.4,69L53.4,69
	c-1.1,0.4-2.2,0.7-3.4,0.9c0.5,2.8,1.1,5.5,1.6,8.2c0.1,0.6,0.3,0.9,1,0.7c0.8-0.3,1.7-0.5,2.6-0.7c0.6-0.1,0.8-0.4,0.6-1.1
	C55,74.4,54.2,71.7,53.4,69z M61,64.8L61,64.8c1.5,2.4,3,4.8,4.5,7.2c0.6-0.5,1-0.9,1.5-1.3c-1.8-2.3-3.4-4.5-5.1-6.7
	C61.6,64.3,61.3,64.5,61,64.8z M45,69.8L45,69.8c-14.3,0-25.9-11.6-25.9-25.9C19.1,29.6,30.6,18,45,18c14.3,0,25.8,11.6,25.8,25.9
	C70.8,58.3,59.3,69.8,45,69.8L45,69.8z M45,17L45,17c-14.9,0-27,12.1-27,27s12.1,27,27,27s27-12.1,27-27S59.9,17,45,17z M10.3,58
	L10.3,58l0.7,1.4l-4.9,2l0.6,1.3l-1,0.4L4,60.7L10.3,58z M8.9,55L8.9,55L9,55.1L4.1,57L4,56.8L8.9,55z M8,53L8,53v0.1L3.1,54L3,53.9
	L8,53z M8,50L8,50v0.2L3.1,51L3,50.9L8,50z M6.8,44L6.8,44L7,48.6l-0.9,0.1l-2-2c-0.3-0.3-0.6-0.4-0.8-0.6C3.1,46,2.9,46,2.7,46
	s-0.4,0.1-0.5,0.2S2,46.5,2,46.8c0,0.3,0.1,0.4,0.3,0.6c0.2,0.1,0.4,0.1,0.7,0.1L3.1,49l0,0c-0.6,0.1-1-0.1-1.4-0.5
	s-0.6-0.9-0.6-1.6s0.1-1.3,0.4-1.7c0.3-0.4,0.7-0.7,1.2-0.7c0.3,0,0.7,0.1,1,0.3C4,45,4.4,45.4,5.1,45.9l0.8,0.8H6l-0.1-2.6L6.8,44z
	 M7,41.6L7,41.6V42l-5-0.6L2.1,41L7,41.6z M7,39.8L7,39.8V40l-5-0.8V39L7,39.8z M8,36.8L8,36.8V37l-5-0.8V36L8,36.8z M5.2,32L5.2,32
	l0.2-0.6c0.1-0.2,0.1-0.4-0.1-0.6c-0.1-0.2-0.2-0.3-0.4-0.3c-0.2-0.1-0.3-0.1-0.5,0c-0.1,0.1-0.2,0.2-0.3,0.4c0,0.2,0,0.3,0.1,0.4
	c0.1,0.2,0.2,0.3,0.3,0.3l-0.4,1.2l0,0c-0.4-0.1-0.7-0.4-0.9-0.8c-0.2-0.4-0.2-1,0-1.5c0.2-0.6,0.4-1,0.8-1.3s0.8-0.3,1.3-0.2
	c0.2,0.1,0.4,0.2,0.6,0.4s0.2,0.5,0.3,0.8c0.2-0.3,0.4-0.4,0.7-0.6c0.3-0.1,0.6-0.1,0.8,0c0.5,0.2,0.8,0.5,1.1,1
	c0.2,0.5,0.1,1-0.1,1.6c-0.2,0.5-0.4,0.9-0.8,1.2s-0.8,0.3-1.3,0.2l0,0L7,32.4c0.2,0.1,0.3,0,0.5-0.1s0.3-0.2,0.3-0.4
	c0.1-0.2,0.1-0.4-0.1-0.6C7.6,31.1,7.5,31,7.3,31c-0.3-0.1-0.5-0.1-0.7,0s-0.3,0.3-0.3,0.6l-0.2,0.6L5.2,32z M10,28.8L10,28.8
	L9.9,29L6,26.2L6.1,26L10,28.8z M12,25.9L12,25.9L11.9,26L7,24.1L7.1,24L12,25.9z M13,23.9L13,23.9L12.9,24L8,21.2L8.1,21L13,23.9z
	 M12.3,20.4L12.3,20.4l0.8-1l-1.6-1.1h-0.1l0.1,0.2L12.3,20.4L12.3,20.4z M14,18.3L14,18.3l0.4-0.5l0.9,0.7L14.9,19l1.1,0.8
	l-0.9,1.1L14,20.1L12.5,22l-0.8-0.5L10,17.1V17l0.9-1.1L14,18.3z M18,17L18,17L18,17l-4-2.9l0.1-0.1L18,17z M20,15.9L20,15.9
	L19.9,16L16,12.1l0.1-0.1L20,15.9z M22,13.9L22,13.9L21.9,14L18,10.1l0.1-0.1L22,13.9z M22.5,10.2L22.5,10.2L21,6.9L24.2,5l0.6,1
	l-2.2,1.3l0.6,1.2c0.1-0.1,0.1-0.2,0.2-0.4c0.1-0.1,0.2-0.2,0.4-0.3c0.6-0.4,1.1-0.4,1.5-0.3c0.5,0.2,0.9,0.6,1.3,1.1
	c0.3,0.6,0.4,1,0.2,1.6c-0.1,0.6-0.4,1-1.1,1.4c-0.5,0.3-1.1,0.4-1.6,0.4c-0.6-0.1-1-0.4-1.2-0.9l0,0l1.2-0.8
	c0.1,0.2,0.3,0.4,0.5,0.4c0.2,0.1,0.4,0.1,0.6-0.1c0.2-0.1,0.3-0.3,0.3-0.6c0-0.2-0.1-0.4-0.2-0.7s-0.4-0.5-0.6-0.6S24.3,8.6,24,8.8
	c-0.1,0.1-0.2,0.2-0.3,0.3s-0.1,0.3-0.1,0.4L22.5,10.2z M29,9.9L29,9.9L28.9,10L27,5.1L27.2,5L29,9.9z M31,8.9L31,8.9L30.8,9L29,4.1
	L29.2,4L31,8.9z M34,7.9L34,7.9L33.8,8L32,3.1L32.2,3L34,7.9z M37.5,4L37.5,4c-0.2,0-0.4,0.1-0.5,0.1c-0.1,0.1-0.2,0.2-0.3,0.3
	l0.1,0.3c0.1,0.4,0.2,0.7,0.4,0.9c0.2,0.2,0.4,0.3,0.7,0.3c0.2-0.1,0.4-0.2,0.4-0.4c0.1-0.2,0.1-0.4,0.1-0.7s-0.1-0.6-0.3-0.7
	C37.9,4,37.7,4,37.5,4L37.5,4z M37.2,1.1L37.2,1.1C37.4,1,37.7,1,37.9,1s0.4,0.1,0.7,0.1l-0.1,1C38.3,2,38.1,2,37.9,2
	c-0.1,0-0.3,0-0.5,0.1c-0.4,0.1-0.6,0.2-0.7,0.4c-0.2,0.2-0.2,0.6-0.1,1l0,0c0.1-0.1,0.2-0.3,0.4-0.4c0.2-0.1,0.4-0.2,0.7-0.2
	c0.6-0.1,1,0.1,1.4,0.4c0.4,0.3,0.6,0.7,0.7,1.3s0,1-0.4,1.5c-0.3,0.4-0.8,0.7-1.4,0.8c-0.7,0.1-1.3-0.1-1.8-0.4
	c-0.5-0.3-0.8-0.8-0.9-1.5l-0.2-1.1c-0.1-0.8,0-1.4,0.4-1.9C35.9,1.5,36.5,1.2,37.2,1.1z M43,7L43,7h-0.4L42,1h0.4L43,7z M45.7,6
	L45.7,6H45l0.3-5H46L45.7,6z M47.3,7L47.3,7H47l0.8-6L48,1.1L47.3,7z M54.7,2.8L54.7,2.8c-0.8,0.5-1.4,1-1.8,1.7
	c-0.4,0.6-0.7,1.3-1.1,2.1l-0.1,0.5l-1.6-0.2l0.2-0.6c0.3-0.8,0.7-1.5,1.1-2.1c0.5-0.7,1.1-1.2,1.8-1.7L50,2l0.2-1L55,1.8L54.7,2.8z
	 M55.2,8L55.2,8L55,7.9L56.9,3L57,3.1L55.2,8z M58.2,9L58.2,9L58,8.9L59.9,4L60,4.1L58.2,9z M60.2,10L60.2,10L60,9.9L61.8,5L62,5.1
	L60.2,10z M66.6,8.2L66.6,8.2c0.1-0.2,0.1-0.3,0.1-0.5s-0.1-0.3-0.3-0.4c-0.1-0.1-0.3-0.1-0.4-0.1c-0.2,0.1-0.3,0.2-0.4,0.3
	c-0.1,0.2-0.2,0.3-0.2,0.5c0.1,0.2,0.1,0.3,0.3,0.4c0.2,0.1,0.3,0.1,0.4,0.1C66.4,8.5,66.5,8.4,66.6,8.2L66.6,8.2z M65.5,10.4
	L65.5,10.4c0.1-0.2,0.1-0.4,0.1-0.6c-0.1-0.2-0.2-0.3-0.3-0.4c-0.2-0.1-0.3-0.2-0.5-0.1c-0.2,0.1-0.3,0.2-0.4,0.4s-0.2,0.4-0.1,0.6
	c0,0.2,0.1,0.3,0.3,0.4c0.2,0.1,0.4,0.2,0.5,0.1C65.3,10.7,65.4,10.6,65.5,10.4L65.5,10.4z M67.7,8.8L67.7,8.8
	c-0.2,0.2-0.4,0.4-0.6,0.5c-0.2,0.1-0.5,0.2-0.7,0.2c0.2,0.2,0.3,0.5,0.3,0.8s-0.1,0.6-0.2,0.8c-0.3,0.5-0.6,0.7-1.1,0.8
	C65,12,64.5,11.8,64,11.5c-0.5-0.3-0.8-0.7-0.9-1.1C62.9,9.9,63,9.5,63.3,9c0.2-0.3,0.4-0.5,0.6-0.6c0.3-0.1,0.5-0.2,0.8-0.1
	c-0.2-0.2-0.2-0.5-0.2-0.8c-0.1-0.2,0.1-0.5,0.2-0.7c0.3-0.5,0.6-0.7,1-0.8s0.8,0.1,1.3,0.3c0.5,0.3,0.7,0.7,0.9,1.1
	C68,7.9,67.9,8.4,67.7,8.8z M67.1,15L67.1,15L67,14.9l3.9-4.9l0.1,0.1L67.1,15z M69.1,16L69.1,16L69,15.9l3.9-3.9l0.1,0.1L69.1,16z
	 M71.1,18L71.1,18L71,17.9l3.9-3.9l0.1,0.1L71.1,18z M76.5,19.1L76.5,19.1c0.1,0.1,0.2,0.3,0.3,0.3c0.2,0.1,0.3,0.1,0.5,0.1l0.5-0.4
	c0.4-0.3,0.6-0.5,0.7-0.8c0.1-0.3,0.1-0.4-0.1-0.6c-0.1-0.2-0.3-0.3-0.7-0.2c-0.3,0-0.5,0.1-0.8,0.3c-0.3,0.3-0.5,0.4-0.5,0.7
	C76.3,18.7,76.4,18.9,76.5,19.1L76.5,19.1z M74.6,20.1L74.6,20.1c0.2,0.3,0.5,0.4,0.7,0.4c0.3,0.1,0.6-0.1,0.9-0.3l0.3-0.2
	c-0.3,0-0.5,0-0.7-0.1s-0.4-0.3-0.5-0.4c-0.4-0.5-0.5-1-0.4-1.5s0.5-1,1.1-1.5c0.5-0.4,1.1-0.6,1.8-0.5s1.2,0.3,1.7,0.9
	c0.4,0.5,0.5,1.1,0.5,1.7c-0.1,0.6-0.5,1.2-1.3,1.7l-1.3,1c-0.6,0.4-1.3,0.6-2,0.6c-0.7-0.1-1.3-0.4-1.8-1c-0.1-0.2-0.3-0.4-0.3-0.6
	c-0.1-0.2-0.2-0.4-0.3-0.6l0.9-0.6c0.1,0.2,0.2,0.4,0.3,0.6C74.3,19.8,74.5,20,74.6,20.1z M76.1,24L76.1,24L76,23.9l4.9-1.9l0.1,0.1
	L76.1,24z M78.1,27L78.1,27L78,26.9l3.9-2.9l0.1,0.2L78.1,27z M79.1,29L79.1,29L79,28.9l4.9-1.9l0.1,0.1L79.1,29z M80.5,34L80.5,34
	L80,32.4l5-1.6l-0.5-1.5l1.1-0.3l1.4,2.8L80.5,34z M85.5,37.1L85.5,37.1c0.5-0.1,0.8-0.2,1-0.4s0.3-0.4,0.2-0.6
	c-0.1-0.3-0.2-0.4-0.5-0.4c-0.2-0.1-0.6-0.1-1.1,0L83.5,36c-0.5,0.1-0.9,0.3-1,0.4c-0.2,0.2-0.3,0.4-0.3,0.6
	c0.1,0.3,0.2,0.4,0.5,0.5s0.6,0.1,1.2-0.1L85.5,37.1L85.5,37.1z M84.3,38.8L84.3,38.8c-0.9,0.2-1.6,0.1-2.1-0.2s-0.9-0.8-1-1.4
	c-0.1-0.7,0-1.3,0.3-1.8c0.4-0.5,1-0.8,1.9-1l1.4-0.3c0.8-0.2,1.6-0.1,2.1,0.2s0.8,0.8,1,1.5c0.1,0.6,0.1,1.2-0.3,1.7
	c-0.4,0.5-1,0.8-1.9,1L84.3,38.8z M82,42L82,42v-0.3l5-0.7v0.3L82,42z M82,45L82,45v-0.6l5-0.4v0.6L82,45z M82,46.3L82,46.3V46
	l5,0.5V47L82,46.3z M82,51L82,51l0.2-1.4l4.6,0.7L87,49l0.9,0.1V52L82,51z M81,55.4L81,55.4l0.3-1.3l4.4,1.2L86,54l0.9,0.2L86.6,57
	L81,55.4z M24.5,48.4L24.5,48.4h1.9l-1-2.8l0,0L24.5,48.4L24.5,48.4z M26.9,49.5L26.9,49.5h-2.7L23.7,51H22l2.7-7h1.6l2.7,7h-1.6
	L26.9,49.5z M31.8,44L31.8,44l1.7,5.1l0,0l1.8-5.1H37v7h-1.3v-2.1l0.1-3.1v-0.1L34,50.9h-0.9l-1.8-5.1h-0.1l0.2,3.1V51H30v-7H31.8z
	 M39.5,47.4L39.5,47.4H41c0.5,0,0.8-0.1,1-0.3c0.2-0.2,0.3-0.5,0.3-0.8s-0.1-0.6-0.3-0.9c-0.3-0.2-0.6-0.3-1-0.3h-1.5V47.4
	L39.5,47.4z M39.5,48.5L39.5,48.5V51H38v-7h3.1c0.9,0,1.6,0.2,2.1,0.6s0.8,0.9,0.8,1.6c0,0.6-0.3,1.2-0.8,1.6s-1.2,0.6-2.1,0.6
	L39.5,48.5L39.5,48.5z M46.5,50L46.5,50H50v1h-5v-7h1.5V50z M50,44L50,44h2v7h-2V44z M57.5,48.1L57.5,48.1h-3.1V51H53v-7h5v1.1h-3.6
	V47h3.1V48.1z M61.5,47.2L61.5,47.2L61.5,47.2l1.8-3.2h1.8l-2.7,4.6V51h-1.6v-2.5L58,44h1.8L61.5,47.2z M67,44.2L67,44.2h-0.8V46
	h-0.3v-1.8H65V44h2V44.2z M67.4,44L67.4,44l0.6,1.6l0,0l0.7-1.6h0.4v2h-0.3v-0.8l0.1-0.8l0,0L68.2,46H68l-0.7-1.6l0,0v0.8V46H67v-2
	H67.4z M31.5,37.4L31.5,37.4h2l-1-2.8h-0.1L31.5,37.4L31.5,37.4z M33.9,38.5L33.9,38.5h-2.8L30.6,40H29l2.7-7h1.6l2.7,7h-1.6
	L33.9,38.5z M38.4,35.9L38.4,35.9L38.4,35.9l0.9-1.9h1.6l-1.6,3l1.7,3h-1.6l-0.9-2l-0.9,2H36l1.7-3l-1.6-3h1.6L38.4,35.9z M46,37.9
	L46,37.9L46,37.9l0.7-3.9H48l-1.3,6h-1.2l-1-3.5h-0.1L43.5,40h-1.2L41,34h1.3l0.7,3.9h0.1L44,34h1L46,37.9z M50.1,38.8L50.1,38.8
	c0.3,0,0.5-0.1,0.7-0.2c0.2-0.1,0.3-0.3,0.4-0.5v-0.8h-0.8c-0.3,0-0.5,0.1-0.7,0.3c-0.2,0.1-0.2,0.3-0.2,0.6c0,0.2,0.1,0.4,0.2,0.5
	C49.8,38.8,50,38.8,50.1,38.8L50.1,38.8z M51.5,39.9L51.5,39.9c-0.1-0.1-0.1-0.3-0.2-0.4c0-0.1-0.1-0.3-0.1-0.5
	c-0.2,0.3-0.4,0.5-0.6,0.7S50.1,40,49.7,40c-0.5,0-1-0.1-1.3-0.5c-0.4-0.3-0.5-0.8-0.5-1.3c0-0.6,0.2-1,0.6-1.4
	c0.4-0.3,1-0.5,1.8-0.5h0.8V36c0-0.3-0.1-0.5-0.2-0.6s-0.4-0.3-0.6-0.3s-0.4,0.1-0.5,0.2c-0.1,0.1-0.2,0.3-0.2,0.5h-1.5l0,0
	c0-0.5,0.2-1,0.6-1.3c0.4-0.4,1-0.5,1.7-0.5c0.6,0,1.2,0.1,1.6,0.5c0.4,0.3,0.6,0.8,0.6,1.5v2.4c0,0.3,0,0.6,0.1,0.8
	c0,0.3,0.1,0.5,0.2,0.7L51.5,39.9L51.5,39.9z M55.9,37.3L55.9,37.3l0.1,0.3l0,0l1.2-3.7H59l-2.5,6.6c-0.2,0.4-0.4,0.8-0.8,1
	c-0.3,0.3-0.8,0.4-1.3,0.4c-0.1,0-0.3,0-0.4-0.1c-0.1,0-0.3-0.1-0.4-0.1l0.1-1.1c0.1,0,0.1,0,0.2,0c0.1,0.1,0.1,0.1,0.1,0.1
	c0.3,0,0.5-0.1,0.6-0.2s0.3-0.3,0.3-0.5l0.2-0.4L53,34h1.8L55.9,37.3z M79.1,36.5C75.3,17.4,56.6,5,37.5,8.9
	C18.3,12.7,6,31.4,9.9,50.5C13.7,69.7,32.4,82,51.5,78.1C70.6,74.3,83,55.6,79.1,36.5z M51.3,79.5c-18.7,3.8-37-10.3-40.9-29.1
	C6.6,31.6,18.8,13.3,37.6,9.5c18.8-3.8,37.1,8.4,40.9,27.2C82.3,55.4,70.1,75.7,51.3,79.5z M73.3,23.9C62.5,8.1,43.6,6,32.2,10.9
	c0.7,2,1.3,3.9,1.9,5.8c0.1,0.5,0.7,1,0,1.5c-0.2-0.4-0.6-0.8-0.8-1.3c-0.7-1.9-1.3-3.8-2-5.8c-0.7,0.1-1,0.2-0.7,1
	c0.4,0.9,0.7,1.8,1.1,2.8c0.5,1.2,1,2.4,1.4,3.6c-0.7,0.7-1.2,0.5-1.5-0.3c-0.2-0.6-0.6-1.2-0.9-1.8c-0.7-1.3-1.3-2.8-2.1-4.2
	c-1,0.6-2,1.2-3.1,1.8c1.5,2.1,3.1,4.2,4.5,6.2c-1.8,1.5-3.4,3.1-5.1,4.6c-1.8-1.5-3.7-2.9-5.4-4.4c-0.7-0.6-1.1-0.5-1.5,0.1
	c-0.7,0.9-1.3,1.7-2.1,2.6c2.4,1.4,4.8,2.8,7.2,4.2c-1.1,1.7-2,3.5-2.8,5.3C24.5,23.4,33.7,17,44.5,17c14.6,0,26.4,11.9,26.4,26.5
	c0,8-3.5,15.1-9,19.9c1.9,2.2,3.8,4.4,5.7,6.5C79.8,59.7,84,39.5,73.3,23.9z M72.5,47l5.5,5.4L71,54C71.8,51.8,72.3,49.5,72.5,47z"
	/>
</svg>
