<?xml version="1.0" encoding="utf-8"?>
<!-- Generator: Adobe Illustrator 23.0.6, SVG Export Plug-In . SVG Version: 6.00 Build 0)  -->
<svg version="1.1" id="Layer_1" xmlns="http://www.w3.org/2000/svg" xmlns:xlink="http://www.w3.org/1999/xlink" x="0px" y="0px"
	 viewBox="0 0 64 51" style="enable-background:new 0 0 64 51;" xml:space="preserve">
<style type="text/css">
	.st0{fill:#020202;}
</style>
<path transform="translate(-460 -81)" class="st0" d="M467.1,120.5L467.1,120.5c0,0.1,0,0.2,0,0.4c0.1,0.2,0.1,0.4,0.2,0.6v0.1
	l-0.3,0.4l0.8,0.5l0.1,0.1c0.1,0.1,0.2,0.3,0.4,0.4l0,0c0.7,0.6,1.4,1,2.3,1.1l0.1,0.1v-0.1c0.1,0.1,0.3,0.1,0.4,0.1
	c0.8,0,1.5-0.2,2.1-0.6c1.2-0.7,2-2,2-3.5l0,0c0-0.2-0.1-0.4-0.1-0.6c0-0.1,0-0.2-0.1-0.2l10.8-12.1l11.9,9.5l14.4-16.9l3.7,3.1
	L516,90l-12,5.1l4.7,1.6l-12,13.9L485,101l-12.9,14.9c-0.4-0.1-0.7-0.1-1.1-0.1c-1,0-1.9,0.4-2.6,1c-0.9,0.7-1.4,1.9-1.4,3.1l0,0
	C467,120.1,467,120.3,467.1,120.5z M523,126.4L523,126.4l-56.5,0.1V82H461v50l62-0.1V126.4z"/>
</svg>
