<svg width="70" height="69" xmlns="http://www.w3.org/2000/svg" xmlns:xlink="http://www.w3.org/1999/xlink" overflow="hidden"><defs><clipPath id="clip0"><path d="M933 206 1003 206 1003 275 933 275Z" fill-rule="evenodd" clip-rule="evenodd"/></clipPath></defs><g clip-path="url(#clip0)" transform="translate(-933 -206)"><path d="M958.148 241.935 958.148 241.935 961.914 241.935 960.062 236.913 960 236.913 958.148 241.935 958.148 241.935ZM962.407 243.19 962.407 243.19 957.654 243.19 956.605 246 955 246 959.383 235 960.741 235 965 246 963.457 246 962.407 243.19Z" fill="#7F7F7F" fill-rule="evenodd"/><path d="M968.515 240.44 968.515 240.44 971.303 240.44C972.03 240.44 972.576 240.201 972.939 239.842 973.364 239.424 973.545 238.946 973.545 238.348 973.545 237.69 973.364 237.212 972.939 236.793 972.576 236.375 972.03 236.196 971.303 236.196L968.515 236.196 968.515 240.44 968.515 240.44ZM968.515 241.576 968.515 241.576 968.515 246 967 246 967 235 971.303 235C972.455 235 973.364 235.359 974.03 235.957 974.697 236.554 975 237.332 975 238.288 975 239.304 974.697 240.082 974.03 240.679 973.364 241.277 972.455 241.576 971.303 241.576L968.515 241.576Z" fill="#7F7F7F" fill-rule="evenodd"/><path d="M977 235 977 235 979 235 979 246 977 246 977 235Z" fill="#7F7F7F" fill-rule="evenodd"/><path d="M972 221.544 972 221.544C980.779 223.417 987.411 231.157 987.411 240.396 987.411 242.518 987.095 244.516 986.463 246.388L989.684 257 999.726 252.443C1001.18 248.698 1002 244.64 1002 240.396 1002 223.292 989.053 209.185 972.316 207L980.337 216.301 972 221.544Z" fill="#7F7F7F" fill-rule="evenodd"/><path d="M940.809 245.646 940.809 245.646 950.927 248.908C949.464 246.21 948.636 243.137 948.636 239.875 948.636 229.649 956.782 221.181 967.091 220.553L976 214.908 968.3 206.063 968.3 206C949.4 206 934 221.244 934 239.875 934 246.148 935.718 251.982 938.709 257L940.809 245.646Z" fill="#7F7F7F" fill-rule="evenodd"/><path d="M987.177 261.183 987.177 261.183 983.923 250.377C980.482 255.843 974.475 259.487 967.592 259.487 962.086 259.487 957.143 257.162 953.639 253.518L943.002 250 941 260.932C947.194 268.848 956.768 274 967.592 274 980.169 274 991.181 266.963 997 256.66L987.177 261.183Z" fill="#7F7F7F" fill-rule="evenodd"/></g></svg>