<svg width="42" height="42" xmlns="http://www.w3.org/2000/svg" xmlns:xlink="http://www.w3.org/1999/xlink" overflow="hidden"><defs><clipPath id="clip0"><path d="M573 232 615 232 615 274 573 274Z" fill-rule="evenodd" clip-rule="evenodd"/></clipPath></defs><g clip-path="url(#clip0)" transform="translate(-573 -232)"><path d="M587.889 254.413 587.889 254.413 590.148 254.413 589.037 251.217 589 251.217 587.889 254.413 587.889 254.413ZM590.444 255.212 590.444 255.212 587.593 255.212 586.963 257 586 257 588.63 250 589.444 250 592 257 591.074 257 590.444 255.212Z" fill="#FFFFFF" fill-rule="evenodd"/><path d="M593.947 253.462 593.947 253.462 595.689 253.462C596.144 253.462 596.485 253.31 596.712 253.082 596.977 252.815 597.091 252.511 597.091 252.13 597.091 251.712 596.977 251.408 596.712 251.141 596.485 250.875 596.144 250.761 595.689 250.761L593.947 250.761 593.947 253.462 593.947 253.462ZM593.947 254.185 593.947 254.185 593.947 257 593 257 593 250 595.689 250C596.409 250 596.977 250.228 597.394 250.609 597.811 250.989 598 251.484 598 252.092 598 252.739 597.811 253.234 597.394 253.614 596.977 253.995 596.409 254.185 595.689 254.185L593.947 254.185Z" fill="#FFFFFF" fill-rule="evenodd"/><path d="M599 250 599 250 600 250 600 257 599 257 599 250Z" fill="#FFFFFF" fill-rule="evenodd"/><path d="M596 241.727 596 241.727C601.267 242.85 605.246 247.494 605.246 253.037 605.246 254.311 605.057 255.509 604.678 256.633L606.611 263 612.636 260.266C613.507 258.019 614 255.584 614 253.037 614 242.775 606.232 234.311 596.189 233L601.002 238.581 596 241.727Z" fill="#FFFFFF" fill-rule="evenodd"/><path d="M577.053 256.098 577.053 256.098 583.076 258.081C582.205 256.442 581.712 254.573 581.712 252.59 581.712 246.375 586.561 241.228 592.697 240.846L598 237.415 593.417 232.038 593.417 232C582.167 232 573 241.266 573 252.59 573 256.403 574.023 259.95 575.803 263L577.053 256.098Z" fill="#FFFFFF" fill-rule="evenodd"/><path d="M606.036 265.99 606.036 265.99 604.06 259.236C601.971 262.652 598.324 264.929 594.145 264.929 590.802 264.929 587.801 263.476 585.674 261.199L579.216 259 578 265.832C581.761 270.78 587.573 274 594.145 274 601.781 274 608.467 269.602 612 263.162L606.036 265.99Z" fill="#FFFFFF" fill-rule="evenodd"/></g></svg>