<?xml version="1.0" encoding="utf-8"?>
<!-- Generator: Adobe Illustrator 23.0.6, SVG Export Plug-In . SVG Version: 6.00 Build 0)  -->
<svg version="1.1" id="Layer_1" xmlns="http://www.w3.org/2000/svg" xmlns:xlink="http://www.w3.org/1999/xlink" x="0px" y="0px"
	 viewBox="0 0 61 63" style="enable-background:new 0 0 61 63;" xml:space="preserve">
<path transform="translate(-618 -234)" d="M659.6,246.5h-2.9v-4.2h2.5c0.8,0,1.5,0.2,1.9,0.6c0.4,0.4,0.7,0.9,0.7,1.6
	c0,0.6-0.2,1.1-0.6,1.5C660.7,246.3,660.2,246.5,659.6,246.5z M639.1,246c0.4-0.4,0.6-0.9,0.6-1.5c0-0.7-0.2-1.2-0.7-1.6
	c-0.4-0.4-1.1-0.6-1.9-0.6h-2.5v4.2h2.9C638.2,246.5,638.7,246.3,639.1,246z M661.6,252c0.5-0.4,0.7-0.9,0.7-1.7
	c0-0.7-0.2-1.3-0.5-1.8c-0.4-0.4-0.9-0.7-1.7-0.7h-3.3v4.7h3C660.5,252.6,661.1,252.4,661.6,252z M639.6,252
	c0.5-0.4,0.7-0.9,0.7-1.7c0-0.7-0.2-1.3-0.5-1.8c-0.4-0.4-0.9-0.7-1.7-0.7h-3.3v4.7h3C638.5,252.6,639.1,252.4,639.6,252z
	 M679,241.7v47.5c0,4.3-3.5,7.8-7.7,7.8h-45.6c-4.3,0-7.7-3.5-7.7-7.8v-47.5c0-4.2,3.4-7.7,7.7-7.7h45.6
	C675.5,234,679,237.4,679,241.7z M655,254h4.7c1.3,0,2.3-0.4,3.1-1c0.8-0.6,1.2-1.5,1.2-2.7c0-0.8-0.2-1.5-0.7-2.1
	c-0.4-0.6-1.1-1-1.8-1.2c0.5-0.2,1-0.6,1.4-1c0.4-0.4,0.5-0.9,0.5-1.5c0-1.2-0.4-2-1.1-2.6c-0.8-0.6-1.8-0.9-3.2-0.9H655V254z
	 M644.1,244.9h1.8c0-0.8,0.2-1.5,0.6-1.9c0.4-0.5,1.1-0.7,2-0.7c0.7,0,1.2,0.2,1.6,0.7c0.4,0.4,0.6,1,0.6,1.6c0,0.5-0.1,1-0.4,1.5
	c-0.3,0.5-0.8,1.1-1.7,2l-4.4,4.7v1.2h8.7v-1.4h-6.5v-0.1l3.6-3.6c0.8-0.8,1.4-1.6,1.9-2.3c0.4-0.7,0.6-1.4,0.6-2.1
	c0-1-0.4-1.9-1.1-2.6c-0.7-0.7-1.7-1-2.9-1c-1.4,0-2.5,0.4-3.3,1.1C644.4,242.9,644,243.8,644.1,244.9L644.1,244.9z M633,254h4.7
	c1.3,0,2.3-0.4,3.1-1c0.8-0.6,1.2-1.5,1.2-2.7c0-0.8-0.2-1.5-0.7-2.1c-0.4-0.6-1.1-1-1.8-1.2c0.5-0.2,1-0.6,1.4-1
	c0.4-0.4,0.5-0.9,0.5-1.5c0-1.2-0.4-2-1.1-2.6c-0.8-0.6-1.8-0.9-3.2-0.9H633V254z M675.9,259.9c-0.6,0.4-1.4,0.7-2.2,0.7h-50.4
	c-0.8,0-1.6-0.3-2.2-0.7v29.3c0,2.6,2.1,4.7,4.7,4.7h45.6c2.6,0,4.6-2.1,4.6-4.7V259.9z M662.2,280l3.6,3.5c0.1,0.1,0.2,0.2,0.2,0.4
	c0,0.2-0.1,0.4-0.2,0.4l-3.6,3.5c-0.1,0.1-0.2,0.2-0.4,0.2c-0.3,0-0.6-0.2-0.6-0.6c0-0.1,0.1-0.3,0.1-0.4l2.7-2.5h-9.5
	c-0.2,0-0.4-0.1-0.5-0.2l0,0l-3.8-4.5l0.8-0.9l3.8,4.5h9.2l-2.7-2.6c-0.1-0.1-0.1-0.2-0.1-0.4c0-0.4,0.2-0.6,0.6-0.6
	C661.9,279.9,662.1,279.9,662.2,280L662.2,280L662.2,280z M664,271.6h-9.2L644,284.3l0,0c-0.1,0.1-0.2,0.2-0.4,0.2h-10.9
	c-0.3,0-0.6-0.2-0.6-0.6c0-0.3,0.3-0.5,0.6-0.5h10.6l10.8-12.7l0,0c0.1-0.1,0.3-0.2,0.5-0.2h9.5l-2.7-2.5c-0.1-0.1-0.1-0.3-0.1-0.4
	c0-0.4,0.2-0.6,0.6-0.6c0.2,0,0.4,0.1,0.4,0.2l3.6,3.5c0.1,0.1,0.2,0.2,0.2,0.4c0,0.2-0.1,0.4-0.2,0.4l-3.6,3.5
	c-0.1,0.1-0.2,0.2-0.4,0.2c-0.3,0-0.6-0.2-0.6-0.6c0-0.1,0.1-0.3,0.1-0.4L664,271.6L664,271.6L664,271.6z M632,271
	c0-0.3,0.3-0.5,0.6-0.5h10.9c0.2,0,0.4,0.1,0.4,0.2l0,0l3.8,4.5l-0.7,0.9l-3.8-4.5h-10.6l0,0C632.3,271.6,632,271.4,632,271z"/>
</svg>
