<?xml version="1.0" encoding="utf-8"?>
<!-- Generator: Adobe Illustrator 23.0.6, SVG Export Plug-In . SVG Version: 6.00 Build 0)  -->
<svg version="1.1" id="Layer_1" xmlns="http://www.w3.org/2000/svg" xmlns:xlink="http://www.w3.org/1999/xlink" x="0px" y="0px"
	 viewBox="0 0 64 64" style="enable-background:new 0 0 64 64;" xml:space="preserve">
<style type="text/css">
	.st0{fill:#FFFFFF;}
</style>
<path class="st0" d="M62.9,16.8L62.9,16.8c-1.2,0-1.3-0.9-1.3-1.4V8.5c0-0.7-0.6-1.3-1.3-1.3H40.4c-5,0-6.8,1.8-7.3,2.4L33,9.8l0,0
	l-0.4,0.5c0,0,0,0,0,0c-0.5,0.7-1,0.4-1.2,0.2l-0.7-0.9l-0.4-0.4c-0.6-0.7-2.2-1.9-5.5-1.9H3.8c-0.7,0-1.3,0.6-1.3,1.3v6.8
	c0,1.2-0.6,1.4-1,1.5H1.1c-0.3,0-1.1,0.2-1.1,1.6V51c0,0.8,0.6,1.4,1.4,1.4h19.2c6.1,0,8.8,2.3,9.6,3.2l0.5,0.6h0c0,0,1.2,1.4,2.5,0
	l0,0l0.3-0.3v0l0,0l0.3-0.4c0,0,0.1-0.1,0.2-0.2c1-1,3.6-2.8,8.6-2.8h19.8c0.8,0,1.4-0.6,1.4-1.4V18.1
	C63.9,16.9,63.1,16.8,62.9,16.8z"/>
<path class="st0" d="M58.6,45.9c0,0.6-0.5,1.2-1.2,1.2H41.1c-5.8,0-7.9,2.6-7.9,2.6L32.9,50l-0.1,0.2c0,0,0,0,0,0
	c-0.6,0.8-1.4,0-1.4,0L31,49.7c-0.3-0.3-2.4-2.7-7.6-2.7H6.7c-0.7,0-1.2-0.5-1.2-1.2V11.2C5.5,10.6,6,10,6.7,10h13
	c9.7,0,10.6,5.5,10.7,7.1v24.1c0,1.8,0.8,2.1,1.3,2.1h0.7c0.5,0,1.2-0.3,1.2-1.7V16.8h0c0.1-2,0.9-6.8,6.7-6.8h17
	c0.7,0,1.2,0.5,1.2,1.2V45.9z"/>
</svg>
