<?xml version="1.0" encoding="utf-8"?>
<!-- Generator: Adobe Illustrator 24.0.2, SVG Export Plug-In . SVG Version: 6.00 Build 0)  -->
<svg version="1.1" id="Layer_1" xmlns="http://www.w3.org/2000/svg" xmlns:xlink="http://www.w3.org/1999/xlink" x="0px" y="0px"
	 viewBox="0 0 640 448" style="enable-background:new 0 0 640 448;" xml:space="preserve">
<style type="text/css">
	.st0{fill:#FFFFFF;}
	.st1{fill:#008999;}
</style>
<path class="st0" d="M436.6,383.4H216.9c-6.6,0-12-5.4-12-12V170.7c0-6.6,5.4-12,12-12h219.7c6.6,0,12,5.4,12,12v200.7
	C448.6,378,443.2,383.4,436.6,383.4z"/>
<path class="st1" d="M537.6,194.6c4.1-10.7,6.4-22.4,6.4-34.6c0-53-43-96-96-96c-19.7,0-38.1,6-53.3,16.2C367,32.2,315.3,0,256,0
	C167.6,0,96,71.6,96,160c0,2.7,0.1,5.4,0.2,8.1C40.2,187.8,0,241.2,0,304c0,79.5,64.5,144,144,144h368c70.7,0,128-57.3,128-128
	C640,258.1,596,206.4,537.6,194.6z M403.3,272.4l-76.2,44l-76.2,44c-3.8,2.2-8.6-0.5-8.6-4.9v-88v-88c0-4.4,4.8-7.1,8.6-4.9l76.2,44
	l76.2,44C407.1,264.8,407.1,270.2,403.3,272.4z"/>
</svg>
