<svg id="Layer_1" data-name="Layer 1" xmlns="http://www.w3.org/2000/svg" viewBox="0 0 1347.4 1164.34"><title>cloudGo2</title><polygon points="0 0 1347.4 0 1347.4 1164.34 0 0" style="fill:#008999"/><path d="M1172.78,203.52a81,81,0,0,0,3-22.39c-.28-46.32-40.16-83.15-86.36-79.8a80.27,80.27,0,0,0-33,9.81,7.15,7.15,0,0,1-9.46-2.37,134.17,134.17,0,0,0-246.83,72.85c0,.6,0,1.2,0,1.8a7.19,7.19,0,0,1-4.57,6.76,120.82,120.82,0,0,0-75.94,113.25c.57,66.46,55.45,119.68,121.92,119.68h306.17c62,0,111.46-50.74,108.42-112.69a107.37,107.37,0,0,0-78.32-98A7.21,7.21,0,0,1,1172.78,203.52ZM993.84,312.82,933.5,347.66a7.19,7.19,0,0,1-10.78-6.22V202.08a7.19,7.19,0,0,1,10.78-6.22l60.34,34.84,60.34,34.84a7.18,7.18,0,0,1,0,12.44Z" style="fill:#fff"/><path d="M689.17,511.57c0-12.08-.21-22.47-.84-32h16.32l.64,20.14h.84c4.67-13.78,15.91-22.47,28.41-22.47a20.33,20.33,0,0,1,5.3.63v17.6a28.15,28.15,0,0,0-6.36-.64c-13.14,0-22.47,10-25,24a51.79,51.79,0,0,0-.85,8.69v54.7H689.17Z" style="fill:#fff"/><path d="M844.36,554.19c0,10.6.21,19.92.85,28H828.67l-1.06-16.75h-.42a38.61,38.61,0,0,1-33.92,19.08c-16.12,0-35.41-8.9-35.41-44.94v-60h18.66v56.82c0,19.5,5.93,32.65,22.89,32.65,12.51,0,21.2-8.7,24.6-17a27.32,27.32,0,0,0,1.69-9.55v-63h18.66Z" style="fill:#fff"/><path d="M875.31,507.33c0-10.6-.21-19.29-.85-27.77H891l1.06,17h.42c5.09-9.75,17-19.29,33.92-19.29,14.21,0,36.25,8.48,36.25,43.67v61.27H944V523c0-16.54-6.15-30.32-23.75-30.32-12.29,0-21.83,8.7-25,19.08a26.84,26.84,0,0,0-1.28,8.7v61.69H875.31Z" style="fill:#fff"/><path d="M1058.68,450.73c.22,6.36-4.45,11.44-11.87,11.44a11.08,11.08,0,0,1-11.23-11.44,11.36,11.36,0,0,1,11.66-11.66C1054.23,439.07,1058.68,444.15,1058.68,450.73Zm-20.77,131.44V479.56h18.65V582.17Z" style="fill:#fff"/><path d="M1087.51,507.33c0-10.6-.21-19.29-.84-27.77h16.53l1.06,17h.43c5.09-9.75,17-19.29,33.92-19.29,14.2,0,36.25,8.48,36.25,43.67v61.27H1156.2V523c0-16.54-6.14-30.32-23.74-30.32-12.3,0-21.84,8.7-25,19.08a26.86,26.86,0,0,0-1.27,8.7v61.69h-18.66Z" style="fill:#fff"/><path d="M942.08,736.35c-4.87,2.55-15.68,5.94-29.47,5.94-31,0-51.09-21-51.09-52.37,0-31.58,21.63-54.48,55.12-54.48,11,0,20.78,2.76,25.87,5.3l-4.24,14.42c-4.45-2.55-11.45-4.88-21.63-4.88-23.53,0-36.25,17.38-36.25,38.8,0,23.74,15.26,38.37,35.62,38.37a53,53,0,0,0,22.89-5.09Z" style="fill:#fff"/><path d="M963.92,589.65h18.65V740.17H963.92Z" style="fill:#fff"/><path d="M1106.81,688c0,38-26.29,54.48-51.1,54.48-27.77,0-49.18-20.35-49.18-52.79,0-34.34,22.47-54.48,50.88-54.48C1086.88,635.23,1106.81,656.64,1106.81,688Zm-81.41,1.06c0,22.47,12.93,39.43,31.16,39.43,17.81,0,31.16-16.75,31.16-39.86,0-17.38-8.69-39.43-30.74-39.43S1025.4,669.57,1025.4,689.08Z" style="fill:#fff"/><path d="M1216.2,712.19c0,10.6.21,19.92.85,28h-16.54l-1.06-16.75H1199a38.58,38.58,0,0,1-33.92,19.08c-16.11,0-35.4-8.9-35.4-44.94v-60h18.66v56.82c0,19.5,5.93,32.65,22.89,32.65,12.51,0,21.2-8.7,24.59-17a27.32,27.32,0,0,0,1.7-9.55v-63h18.66Z" style="fill:#fff"/><path d="M1335.76,589.65v124c0,9.12.22,19.5.85,26.5h-16.75l-.84-17.81h-.43c-5.72,11.45-18.23,20.14-35,20.14-24.8,0-43.88-21-43.88-52.15-.22-34.13,21-55.12,46-55.12,15.69,0,26.29,7.42,31,15.69h.43V589.65Zm-18.65,89.67a32.7,32.7,0,0,0-.85-7.84c-2.76-11.87-12.93-21.62-26.93-21.62-19.29,0-30.74,17-30.74,39.64,0,20.78,10.18,38,30.32,38,12.51,0,24-8.27,27.35-22.26a32.27,32.27,0,0,0,.85-8.06Z" style="fill:#fff"/></svg>