<svg xmlns="http://www.w3.org/2000/svg" width="36" height="36" viewBox="0 0 36 36"><g transform="translate(-241.503 -1810.898)"><rect width="13.59" height="13.435" x="243.503" y="1824.138" fill="#ee7581" color="#000" overflow="visible" rx="3" ry="3" style="isolation:auto;mix-blend-mode:normal"/><ellipse cx="246.765" cy="1827.363" fill="#f2f2f2" color="#000" overflow="visible" style="isolation:auto;mix-blend-mode:normal" rx="1.359" ry="1.343"/><ellipse style="isolation:auto;mix-blend-mode:normal" cx="253.832" cy="1834.349" fill="#f2f2f2" color="#000" overflow="visible" rx="1.359" ry="1.343"/><ellipse cx="250.298" cy="1830.856" fill="#f2f2f2" color="#000" overflow="visible" style="isolation:auto;mix-blend-mode:normal" rx="1.359" ry="1.343"/><rect width="13.552" height="13.474" x="1145.66" y="1449.802" fill="#ee7581" color="#000" overflow="visible" style="isolation:auto;mix-blend-mode:normal" rx="2.991" ry="3.009" transform="matrix(.8685 .49569 -.50433 .86351 0 0)"/><ellipse style="isolation:auto;mix-blend-mode:normal" cx="1148.912" cy="1453.035" fill="#f2f2f2" color="#000" overflow="visible" rx="1.355" ry="1.347" transform="matrix(.8685 .49569 -.50433 .86351 0 0)"/><ellipse cx="1155.959" cy="1460.042" fill="#f2f2f2" color="#000" overflow="visible" style="isolation:auto;mix-blend-mode:normal" rx="1.355" ry="1.347" transform="matrix(.8685 .49569 -.50433 .86351 0 0)"/><ellipse style="isolation:auto;mix-blend-mode:normal" cx="1152.436" cy="1456.539" fill="#f2f2f2" color="#000" overflow="visible" rx="1.355" ry="1.347" transform="matrix(.8685 .49569 -.50433 .86351 0 0)"/><ellipse cx="1148.912" cy="-1460.042" fill="#f2f2f2" color="#000" overflow="visible" style="isolation:auto;mix-blend-mode:normal" rx="1.355" ry="1.347" transform="matrix(.8685 .49569 .50433 -.86351 0 0)"/><ellipse style="isolation:auto;mix-blend-mode:normal" cx="1155.959" cy="-1453.035" fill="#f2f2f2" color="#000" overflow="visible" rx="1.355" ry="1.347" transform="matrix(.8685 .49569 .50433 -.86351 0 0)"/><path fill="#d2dce9" style="isolation:auto;mix-blend-mode:normal" d="M246.76367 805.65625a1.3590385 1.3434732 0 0 0-.25.0234 1.3590385 1.3434732 0 0 1 1.11133 1.32031 1.3590385 1.3434732 0 0 1-1.10938 1.32031 1.3590385 1.3434732 0 0 0 .24805.0234 1.3590385 1.3434732 0 0 0 1.35938-1.34375 1.3590385 1.3434732 0 0 0-1.35938-1.34375zM253.83203 812.64258a1.3590385 1.3434732 0 0 0-.25195.0234 1.3590385 1.3434732 0 0 1 1.11133 1.32031 1.3590385 1.3434732 0 0 1-1.10938 1.32031 1.3590385 1.3434732 0 0 0 .25.0234 1.3590385 1.3434732 0 0 0 1.35938-1.34375 1.3590385 1.3434732 0 0 0-1.35938-1.34375zM250.29883 809.15039a1.3590385 1.3434732 0 0 0-.25195.0234 1.3590385 1.3434732 0 0 1 1.11132 1.32031 1.3590385 1.3434732 0 0 1-1.10742 1.32031 1.3590385 1.3434732 0 0 0 .24805.0234 1.3590385 1.3434732 0 0 0 1.35742-1.34375 1.3590385 1.3434732 0 0 0-1.35742-1.34375zM261.52734 808.56055a1.3590385 1.3434733 0 0 0-.2832.0234 1.3590385 1.3434733 0 0 1 .43164.15625 1.3590385 1.3434733 0 0 1 .4961 1.83594 1.3590385 1.3434733 0 0 1-.92383.64649 1.3590385 1.3434733 0 0 0 1.42383-.64649 1.3590385 1.3434733 0 0 0-.49805-1.83594 1.3590385 1.3434733 0 0 0-.64649-.17968zM271.18164 806.00391a1.3590385 1.3434733 0 0 0-.28711.0234 1.3590385 1.3434733 0 0 1 .43359.15625 1.3590385 1.3434733 0 0 1 .49805 1.83399 1.3590385 1.3434733 0 0 1-.92187.64844 1.3590385 1.3434733 0 0 0 1.42187-.64844 1.3590385 1.3434733 0 0 0-.49805-1.83399 1.3590385 1.3434733 0 0 0-.64648-.17968zM266.25781 807.2832a1.3590385 1.3434733 0 0 0-.18359.0234 1.3590385 1.3434733 0 0 1 .42773.1543 1.3590385 1.3434733 0 0 1 .49805 1.83594 1.3590385 1.3434733 0 0 1-.92773.64843 1.3590385 1.3434733 0 0 0 1.42578-.64843 1.3590385 1.3434733 0 0 0-.4961-1.83594 1.3590385 1.3434733 0 0 0-.74414-.17774zM264.96484 802.51172a1.3590385 1.3434733 0 0 0-.18359.0234 1.3590385 1.3434733 0 0 1 .42773.15429 1.3590385 1.3434733 0 0 1 .49805 1.83594 1.3590385 1.3434733 0 0 1-.92773.64844 1.3590385 1.3434733 0 0 0 1.42578-.64844 1.3590385 1.3434733 0 0 0-.4961-1.83594 1.3590385 1.3434733 0 0 0-.74414-.17773zM267.55078 812.05469a1.3590385 1.3434733 0 0 0-.18359.0234 1.3590385 1.3434733 0 0 1 .42773.1543 1.3590385 1.3434733 0 0 1 .49805 1.83594 1.3590385 1.3434733 0 0 1-.92578.64844 1.3590385 1.3434733 0 0 0 1.42578-.64844 1.3590385 1.3434733 0 0 0-.49805-1.83398 1.3590385 1.3434733 0 0 0-.74414-.17969z" color="#000" overflow="visible" transform="translate(0 1020.362)"/><path fill="#ee6276" style="isolation:auto;mix-blend-mode:normal" d="M264.7207 800.54492c-.18598.0138-.3709.0463-.55078.0937.26066.0653.51712.15337.76172.29297l6.57422 3.75195c1.43934.82149 1.92071 2.64269 1.08008 4.08203l-3.75977 6.4375c-.42353.72518-1.10085 1.20944-1.85156 1.40821 1.27323.31897 2.65374-.21338 3.35156-1.40821l3.76172-6.4375c.84063-1.43934.35731-3.26054-1.08203-4.08203l-6.57227-3.75195c-.53975-.30806-1.13507-.42972-1.71289-.38672zM254.54492 803.82227c.69987.54826 1.15625 1.39154 1.15625 2.35351l0 7.43555c0 1.66201-1.33799 3-3 3l-7.59179 0c-.15348 0-.30012-.0229-.44727-.0449.50889.39775 1.14099.64453 1.83984.64453l7.5918 0c1.66201 0 3-1.33799 3-3l0-7.43555c0-1.50719-1.10436-2.73505-2.54883-2.95312z" color="#000" overflow="visible" transform="translate(0 1020.362)"/></g></svg>