<svg id="footsteps" xmlns="http://www.w3.org/2000/svg" viewBox="0 0 139.07 52.22"><title>footsteps</title><g id="shoeprints"><g id="copy"><path id="original" d="M74.35,35.31c-.67.21-2.28,12-1.46,12.63C83,55.11,95.39,52.5,99.4,45.76,104.11,37.86,85.84,31.76,74.35,35.31ZM52,38c-.48,3.77,4.12,7.24,11.78,8.49,1.51.25,3.55-12.47,2.34-12.9C56.77,30.23,52.43,34.2,52,38Z" style="fill:#FFFFFF"/></g></g><path id="original-2" data-name="original" d="M114,17.88c-.69-.15-3.27-11.81-2.5-12.46,9.49-8,22-6.41,26.61,0C143.44,12.87,125.73,20.47,114,17.88Zm-22.54-.79c-.79-3.72,3.5-7.56,11-9.44,1.48-.37,4.57,12.13,3.39,12.66C96.89,24.4,92.23,20.81,91.44,17.09Z" style="fill:#FFFFFF"/><path id="original-3" data-name="original" d="M22.63,29.28c-.69-.15-3.27-11.81-2.5-12.46,9.49-8,22.05-6.41,26.61,0C52.08,24.27,34.38,31.87,22.63,29.28ZM.09,28.49c-.79-3.73,3.5-7.56,11-9.44,1.48-.38,4.57,12.13,3.39,12.66C5.54,35.8.88,32.21.09,28.49Z" style="fill:#FFFFFF"/></svg>