<svg width="1059" height="304" xmlns="http://www.w3.org/2000/svg" xmlns:xlink="http://www.w3.org/1999/xlink" overflow="hidden"><defs><clipPath id="clip0"><path d="M104 91 1163 91 1163 395 104 395Z" fill-rule="evenodd" clip-rule="evenodd"/></clipPath><clipPath id="clip1"><path d="M121 149 150 149 150 178 121 178Z" fill-rule="evenodd" clip-rule="evenodd"/></clipPath><clipPath id="clip2"><path d="M121 149 150 149 150 178 121 178Z" fill-rule="evenodd" clip-rule="evenodd"/></clipPath><clipPath id="clip3"><path d="M121 149 150 149 150 178 121 178Z" fill-rule="evenodd" clip-rule="evenodd"/></clipPath><clipPath id="clip4"><path d="M121 222 150 222 150 248 121 248Z" fill-rule="evenodd" clip-rule="evenodd"/></clipPath><clipPath id="clip5"><path d="M121 222 150 222 150 248 121 248Z" fill-rule="evenodd" clip-rule="evenodd"/></clipPath><clipPath id="clip6"><path d="M121 222 150 222 150 248 121 248Z" fill-rule="evenodd" clip-rule="evenodd"/></clipPath><clipPath id="clip7"><path d="M123 188 148 188 148 212 123 212Z" fill-rule="evenodd" clip-rule="evenodd"/></clipPath><clipPath id="clip8"><path d="M123 188 148 188 148 212 123 212Z" fill-rule="evenodd" clip-rule="evenodd"/></clipPath><clipPath id="clip9"><path d="M123 188 148 188 148 212 123 212Z" fill-rule="evenodd" clip-rule="evenodd"/></clipPath><clipPath id="clip10"><path d="M182 101 216 101 216 141 182 141Z" fill-rule="evenodd" clip-rule="evenodd"/></clipPath><clipPath id="clip11"><path d="M182 101 216 101 216 141 182 141Z" fill-rule="evenodd" clip-rule="evenodd"/></clipPath><clipPath id="clip12"><path d="M182 101 216 101 216 141 182 141Z" fill-rule="evenodd" clip-rule="evenodd"/></clipPath><clipPath id="clip13"><path d="M334 150 361 150 361 177 334 177Z" fill-rule="evenodd" clip-rule="evenodd"/></clipPath><clipPath id="clip14"><path d="M334 150 361 150 361 177 334 177Z" fill-rule="evenodd" clip-rule="evenodd"/></clipPath><clipPath id="clip15"><path d="M334 150 361 150 361 177 334 177Z" fill-rule="evenodd" clip-rule="evenodd"/></clipPath><clipPath id="clip16"><path d="M340 225 357 225 357 242 340 242Z" fill-rule="evenodd" clip-rule="evenodd"/></clipPath><clipPath id="clip17"><path d="M340 225 357 225 357 242 340 242Z" fill-rule="evenodd" clip-rule="evenodd"/></clipPath><clipPath id="clip18"><path d="M340 225 357 225 357 242 340 242Z" fill-rule="evenodd" clip-rule="evenodd"/></clipPath><clipPath id="clip19"><path d="M399 98 448 98 448 147 399 147Z" fill-rule="evenodd" clip-rule="evenodd"/></clipPath><clipPath id="clip20"><path d="M399 98 448 98 448 147 399 147Z" fill-rule="evenodd" clip-rule="evenodd"/></clipPath><clipPath id="clip21"><path d="M399 98 448 98 448 147 399 147Z" fill-rule="evenodd" clip-rule="evenodd"/></clipPath><clipPath id="clip22"><path d="M648 92 699 92 699 143 648 143Z" fill-rule="evenodd" clip-rule="evenodd"/></clipPath><clipPath id="clip23"><path d="M648 92 699 92 699 143 648 143Z" fill-rule="evenodd" clip-rule="evenodd"/></clipPath><clipPath id="clip24"><path d="M648 92 699 92 699 143 648 143Z" fill-rule="evenodd" clip-rule="evenodd"/></clipPath><clipPath id="clip25"><path d="M876 103 914 103 914 142 876 142Z" fill-rule="evenodd" clip-rule="evenodd"/></clipPath><clipPath id="clip26"><path d="M876 103 914 103 914 142 876 142Z" fill-rule="evenodd" clip-rule="evenodd"/></clipPath><clipPath id="clip27"><path d="M876 103 914 103 914 142 876 142Z" fill-rule="evenodd" clip-rule="evenodd"/></clipPath><clipPath id="clip28"><path d="M1068 100 1103 100 1103 140 1068 140Z" fill-rule="evenodd" clip-rule="evenodd"/></clipPath><clipPath id="clip29"><path d="M1068 100 1103 100 1103 140 1068 140Z" fill-rule="evenodd" clip-rule="evenodd"/></clipPath><clipPath id="clip30"><path d="M1068 100 1103 100 1103 140 1068 140Z" fill-rule="evenodd" clip-rule="evenodd"/></clipPath><clipPath id="clip31"><path d="M122 296 150 296 150 319 122 319Z" fill-rule="evenodd" clip-rule="evenodd"/></clipPath><clipPath id="clip32"><path d="M122 296 150 296 150 319 122 319Z" fill-rule="evenodd" clip-rule="evenodd"/></clipPath><clipPath id="clip33"><path d="M122 296 150 296 150 319 122 319Z" fill-rule="evenodd" clip-rule="evenodd"/></clipPath></defs><g clip-path="url(#clip0)" transform="translate(-104 -91)"><rect x="113" y="121" width="166" height="214" fill="#EBF0F9"/><text fill="#407CA0" font-family="Calibri,Calibri_MSFontService,sans-serif" font-weight="700" font-size="16" selector=".amplify" transform="translate(168.079 169)">marketplace </text><g clip-path="url(#clip1)"><g clip-path="url(#clip2)"><g clip-path="url(#clip3)"><path d="M141.714 160.393C141.714 160.112 141.612 159.87 141.407 159.665 141.202 159.46 140.959 159.357 140.679 159.357L138.607 159.357 138.607 157.286C138.607 157.005 138.505 156.762 138.3 156.557 138.095 156.352 137.852 156.25 137.571 156.25 137.291 156.25 137.048 156.352 136.843 156.557 136.638 156.762 136.536 157.005 136.536 157.286L136.536 159.357 134.464 159.357C134.184 159.357 133.941 159.46 133.736 159.665 133.531 159.87 133.429 160.112 133.429 160.393 133.429 160.673 133.531 160.916 133.736 161.121 133.941 161.326 134.184 161.429 134.464 161.429L136.536 161.429 136.536 163.5C136.536 163.781 136.638 164.023 136.843 164.228 137.048 164.433 137.291 164.536 137.571 164.536 137.852 164.536 138.095 164.433 138.3 164.228 138.505 164.023 138.607 163.781 138.607 163.5L138.607 161.429 140.679 161.429C140.959 161.429 141.202 161.326 141.407 161.121 141.612 160.916 141.714 160.673 141.714 160.393ZM132.393 173.857C132.393 174.429 132.191 174.917 131.786 175.322 131.381 175.726 130.893 175.929 130.321 175.929 129.75 175.929 129.261 175.726 128.857 175.322 128.452 174.917 128.25 174.429 128.25 173.857 128.25 173.285 128.452 172.797 128.857 172.393 129.261 171.988 129.75 171.786 130.321 171.786 130.893 171.786 131.381 171.988 131.786 172.393 132.191 172.797 132.393 173.285 132.393 173.857ZM146.893 173.857C146.893 174.429 146.691 174.917 146.286 175.322 145.881 175.726 145.393 175.929 144.821 175.929 144.25 175.929 143.761 175.726 143.357 175.322 142.952 174.917 142.75 174.429 142.75 173.857 142.75 173.285 142.952 172.797 143.357 172.393 143.761 171.988 144.25 171.786 144.821 171.786 145.393 171.786 145.881 171.988 146.286 172.393 146.691 172.797 146.893 173.285 146.893 173.857ZM148.964 156.25 148.964 164.536C148.964 164.795 148.878 165.024 148.705 165.223 148.533 165.423 148.312 165.539 148.042 165.571L131.147 167.546C131.158 167.621 131.182 167.737 131.22 167.894 131.257 168.05 131.29 168.193 131.317 168.323 131.344 168.452 131.357 168.571 131.357 168.679 131.357 168.851 131.228 169.196 130.969 169.714L145.857 169.714C146.138 169.714 146.38 169.817 146.585 170.022 146.79 170.227 146.893 170.47 146.893 170.75 146.893 171.03 146.79 171.273 146.585 171.478 146.38 171.683 146.138 171.786 145.857 171.786L129.286 171.786C129.005 171.786 128.762 171.683 128.557 171.478 128.352 171.273 128.25 171.03 128.25 170.75 128.25 170.599 128.309 170.386 128.428 170.111 128.547 169.836 128.706 169.515 128.905 169.148 129.105 168.781 129.216 168.576 129.237 168.533L126.373 155.214 123.071 155.214C122.791 155.214 122.548 155.112 122.343 154.907 122.138 154.702 122.036 154.459 122.036 154.179 122.036 153.898 122.138 153.655 122.343 153.45 122.548 153.245 122.791 153.143 123.071 153.143L127.214 153.143C127.387 153.143 127.541 153.178 127.675 153.248 127.81 153.318 127.918 153.402 127.999 153.499 128.08 153.596 128.15 153.728 128.21 153.895 128.269 154.063 128.309 154.206 128.331 154.324 128.352 154.443 128.382 154.602 128.42 154.802 128.458 155.001 128.482 155.139 128.493 155.214L147.929 155.214C148.209 155.214 148.452 155.317 148.657 155.522 148.862 155.727 148.964 155.969 148.964 156.25Z" fill="#407CA0"/></g></g></g><text fill="#407CA0" font-family="Calibri,Calibri_MSFontService,sans-serif" font-weight="700" font-size="16" transform="translate(164.675 239)">Community</text><g clip-path="url(#clip4)"><g clip-path="url(#clip5)"><g clip-path="url(#clip6)"><path d="M26.7847 19.4441C28.1693 18.0797 29 16.3679 29 14.5 29 10.4722 25.1484 7.14427 20.1288 6.55017 18.5429 3.65017 14.8172 1.61111 10.4722 1.61111 4.68733 1.61111 0 5.21597 0 9.66667 0 11.5295 0.830729 13.2413 2.21528 14.6108 1.44497 16.1564 0.337326 17.3547 0.317188 17.3748 -1.34152e-16 17.7122-0.090625 18.2056 0.0956597 18.6335 0.27691 19.0615 0.699826 19.3384 1.16302 19.3384 3.8566 19.3384 6.0316 18.3214 7.46649 17.3849 7.92969 17.4906 8.40799 17.5712 8.89635 17.6316 10.4773 20.5215 14.1878 22.5556 18.5278 22.5556 19.575 22.5556 20.5819 22.4347 21.5385 22.2132 22.9734 23.1446 25.1434 24.1667 27.842 24.1667 28.3052 24.1667 28.7231 23.8898 28.9094 23.4618 29.0906 23.0339 29.005 22.5405 28.6878 22.2031 28.6677 22.188 27.555 20.9898 26.7847 19.4441ZM7.00833 14.797 6.1474 15.3559C5.4375 15.8141 4.7125 16.1766 3.97743 16.4333 4.11337 16.1967 4.24931 15.945 4.38021 15.6882L5.16059 14.1224 3.91198 12.8889C3.23229 12.2142 2.41667 11.1116 2.41667 9.66667 2.41667 6.61059 6.10712 4.02778 10.4722 4.02778 14.8373 4.02778 18.5278 6.61059 18.5278 9.66667 18.5278 12.7227 14.8373 15.3056 10.4722 15.3056 9.64149 15.3056 8.81076 15.2099 8.00521 15.0236L7.00833 14.797ZM25.088 17.7222 23.8444 18.9507 24.6248 20.5165C24.7557 20.7733 24.8917 21.025 25.0276 21.2616 24.2925 21.0049 23.5675 20.6424 22.8576 20.1842L21.9967 19.6253 20.9948 19.8569C20.1892 20.0432 19.3585 20.1389 18.5278 20.1389 15.809 20.1389 13.3823 19.1269 11.9172 17.6366 17.0174 17.0929 20.9444 13.7398 20.9444 9.66667 20.9444 9.49549 20.9243 9.32934 20.9092 9.16319 24.1516 9.89323 26.5833 12.0229 26.5833 14.5 26.5833 15.945 25.7677 17.0476 25.088 17.7222Z" fill="#407CA0" transform="matrix(1 0 -0 1.00862 121 222)"/></g></g></g><text fill="#407CA0" font-family="Calibri,Calibri_MSFontService,sans-serif" font-weight="700" font-size="16" transform="translate(165.534 204)">Tech doc</text><g clip-path="url(#clip7)"><g clip-path="url(#clip8)"><g clip-path="url(#clip9)"><path d="M6.75 0.75C7.57843 0.75 8.25 1.42157 8.25 2.25L8.25 16.5C8.25 17.3284 7.57843 18 6.75 18L3.75 18C2.92157 18 2.25 17.3284 2.25 16.5L2.25 2.25C2.25 1.42157 2.92157 0.75 3.75 0.75Z" fill="#407CA0" transform="matrix(1.04167 0 -0 1 123 188)"/><path d="M12.75 0.75C13.5784 0.75 14.25 1.42157 14.25 2.25L14.25 16.5C14.25 17.3284 13.5784 18 12.75 18L9.75 18C8.92157 18 8.25 17.3284 8.25 16.5L8.25 2.25C8.25 1.42157 8.92157 0.75 9.75 0.75Z" fill="#407CA0" transform="matrix(1.04167 0 -0 1 123 188)"/><path d="M19.11 2.224C19.9384 2.224 20.61 2.89557 20.61 3.724L20.61 16.474C20.61 17.3024 19.9384 17.974 19.11 17.974L17.61 17.974C16.7816 17.974 16.11 17.3024 16.11 16.474L16.11 3.724C16.11 2.89557 16.7816 2.224 17.61 2.224Z" fill="#407CA0" transform="matrix(1.03084 -0.143786 0.149777 0.989609 121.686 190.745)"/><path d="M0.75 19.5C0.75 20.3284 1.42157 21 2.25 21L21.75 21C22.5784 21 23.25 20.3284 23.25 19.5 23.25 18.6716 22.5784 18 21.75 18L2.25 18C1.42157 18 0.75 18.6716 0.75 19.5Z" fill="#407CA0" transform="matrix(1.04167 0 -0 1 123 188)"/></g></g></g><g clip-path="url(#clip10)"><g clip-path="url(#clip11)"><g clip-path="url(#clip12)"><path d="M31.5714 15.7857 20.6429 15.7857 20.6429 4.85714C20.6429 3.51612 19.5553 2.42857 18.2143 2.42857L15.7857 2.42857C14.4447 2.42857 13.3571 3.51612 13.3571 4.85714L13.3571 15.7857 2.42857 15.7857C1.08754 15.7857 0 16.8733 0 18.2143L0 20.6429C0 21.9839 1.08754 23.0714 2.42857 23.0714L13.3571 23.0714 13.3571 34C13.3571 35.341 14.4447 36.4286 15.7857 36.4286L18.2143 36.4286C19.5553 36.4286 20.6429 35.341 20.6429 34L20.6429 23.0714 31.5714 23.0714C32.9125 23.0714 34 21.9839 34 20.6429L34 18.2143C34 16.8733 32.9125 15.7857 31.5714 15.7857Z" fill="#9DB6DF" transform="matrix(1 0 -0 1.02941 182 101)"/></g></g></g><rect x="325" y="121" width="209" height="174" fill="#EBF0F9"/><text fill="#407CA0" font-family="Calibri,Calibri_MSFontService,sans-serif" font-weight="700" font-size="16" transform="translate(376.831 204)">Developer Channel </text><path d="M347.035 207.995C344.252 208.011 341.469 207.975 338.691 207.825 337.787 207.774 336.884 207.696 336.064 207.258 335.516 206.964 335.093 206.557 334.826 205.98 334.377 205.021 334.236 204.01 334.153 202.979 333.975 200.85 333.965 198.721 334.059 196.597 334.106 195.468 334.142 194.328 334.414 193.22 334.518 192.787 334.67 192.364 334.873 191.962 335.354 191.018 336.189 190.549 337.197 190.353 338.043 190.188 338.91 190.194 339.771 190.157 342.691 190.039 345.615 189.977 348.539 190.008 350.79 190.034 353.046 190.09 355.296 190.204 355.991 190.24 356.691 190.25 357.354 190.493 358.252 190.822 358.92 191.379 359.281 192.281 359.631 193.148 359.766 194.045 359.84 194.967 360.043 197.473 360.048 199.979 359.881 202.484 359.824 203.33 359.766 204.175 359.542 205.005 359.035 206.913 357.829 207.66 356.059 207.779 354.168 207.903 352.273 207.97 350.377 207.995 349.265 208.006 348.148 207.995 347.035 207.995ZM344.294 202.721C346.821 201.355 349.317 200.004 351.855 198.633 349.312 197.257 346.816 195.911 344.294 194.545 344.294 197.293 344.294 199.989 344.294 202.721Z" fill="#407CA0" fill-rule="evenodd"/><text fill="#407CA0" font-family="Calibri,Calibri_MSFontService,sans-serif" font-weight="700" font-size="16" transform="translate(375.904 274)">Developer Events </text><path d="M347.5 259C340.598 259 335 264.598 335 271.5 335 278.402 340.598 284 347.5 284 354.402 284 360 278.402 360 271.5 360 264.598 354.402 259 347.5 259ZM352.144 263.112C353.558 263.112 354.704 264.258 354.704 265.672 354.704 267.087 353.558 268.232 352.144 268.232 350.729 268.232 349.583 267.087 349.583 265.672 349.583 264.258 350.729 263.112 352.144 263.112ZM350.055 272.251C350.055 273.666 348.909 274.811 347.495 274.811 346.08 274.811 344.934 273.666 344.934 272.251 344.934 270.837 346.08 269.691 347.495 269.691 348.909 269.691 350.055 270.837 350.055 272.251ZM342.856 263.112C344.271 263.112 345.417 264.258 345.417 265.672 345.417 267.087 344.271 268.232 342.856 268.232 341.442 268.232 340.296 267.087 340.296 265.672 340.296 264.258 341.442 263.112 342.856 263.112ZM338.723 271.928 338.723 268.775C338.723 267.958 339.391 267.284 340.214 267.284L340.34 267.284C340.861 268.134 341.793 268.698 342.862 268.698 343.931 268.698 344.863 268.134 345.384 267.284L345.51 267.284C346.327 267.284 347.001 267.953 347.001 268.775L347.001 269.378C345.62 269.614 344.567 270.815 344.567 272.251 344.567 272.668 344.655 273.063 344.814 273.419L340.208 273.419C339.391 273.419 338.723 272.75 338.723 271.928ZM351.634 278.397C351.634 279.214 350.965 279.888 350.143 279.888L344.852 279.888C344.035 279.888 343.361 279.219 343.361 278.397L343.361 275.245C343.361 274.428 344.03 273.753 344.852 273.753L344.978 273.753C345.499 274.603 346.431 275.168 347.5 275.168 348.569 275.168 349.501 274.603 350.022 273.753L350.148 273.753C350.965 273.753 351.639 274.422 351.639 275.245L351.639 278.397ZM356.277 271.928C356.277 272.745 355.609 273.419 354.786 273.419L350.192 273.419C350.351 273.063 350.439 272.668 350.439 272.251 350.439 270.809 349.386 269.614 348.004 269.378L348.004 268.775C348.004 267.958 348.673 267.284 349.496 267.284L349.622 267.284C350.143 268.134 351.075 268.698 352.144 268.698 353.213 268.698 354.145 268.134 354.666 267.284L354.792 267.284C355.609 267.284 356.283 267.953 356.283 268.775L356.283 271.928Z" fill="#407CA0" fill-rule="evenodd"/><text fill="#407CA0" font-family="Calibri,Calibri_MSFontService,sans-serif" font-weight="700" font-size="16" transform="translate(375.43 169)">Developer Portal </text><g clip-path="url(#clip13)"><g clip-path="url(#clip14)"><g clip-path="url(#clip15)"><path d="M338.094 163.799 343.765 158.129C344.331 157.562 344.331 156.644 343.765 156.077 343.198 155.51 342.28 155.51 341.713 156.077L335.039 162.751C334.748 163.039 334.608 163.42 334.613 163.797 334.608 164.175 334.748 164.553 335.039 164.842L341.713 171.516C342.278 172.083 343.198 172.083 343.765 171.516 344.333 170.949 344.331 170.031 343.765 169.464L338.094 163.799 338.094 163.799Z" fill="#407CA0"/><path d="M359.962 162.455 353.288 155.781C352.721 155.214 351.803 155.214 351.235 155.781 350.668 156.346 350.668 157.266 351.235 157.831L356.905 163.5 351.235 169.171C350.668 169.737 350.668 170.655 351.235 171.222 351.801 171.789 352.719 171.789 353.288 171.222L359.962 164.548C360.251 164.259 360.393 163.881 360.387 163.502 360.39 163.122 360.248 162.743 359.962 162.455Z" fill="#407CA0"/><path d="M347.703 171.942C347.561 172.804 346.748 173.389 345.885 173.247L345.885 173.247C345.024 173.105 344.44 172.29 344.581 171.43L347.271 155.057C347.413 154.196 348.227 153.612 349.088 153.754L349.088 153.754C349.949 153.896 350.533 154.708 350.392 155.571L347.703 171.942Z" fill="#407CA0"/></g></g></g><text fill="#407CA0" font-family="Calibri,Calibri_MSFontService,sans-serif" font-weight="700" font-size="16" transform="translate(377.139 239)">Developer Blogs </text><path d="M335 234C335 227.373 340.373 222 347 222 353.627 222 359 227.373 359 234 359 240.627 353.627 246 347 246 340.373 246 335 240.627 335 234Z" fill="#407CA0" fill-rule="evenodd"/><g clip-path="url(#clip16)"><g clip-path="url(#clip17)"><g clip-path="url(#clip18)"><path d="M349.653 228.096 353.904 232.347 344.674 241.577 340.884 241.995C340.377 242.051 339.948 241.622 340.005 241.115L340.426 237.322 349.653 228.096ZM356.533 227.463 354.537 225.467C353.915 224.845 352.905 224.845 352.283 225.467L350.405 227.345 354.656 231.595 356.533 229.718C357.156 229.095 357.156 228.086 356.533 227.463Z" fill="#EBF0F9"/></g></g></g><g clip-path="url(#clip19)"><g clip-path="url(#clip20)"><g clip-path="url(#clip21)"><path d="M406.43 123.042 416.721 112.752C417.749 111.723 417.749 110.057 416.721 109.028 415.692 107.999 414.026 107.999 412.997 109.028L400.885 121.14C400.358 121.664 400.104 122.355 400.113 123.039 400.104 123.725 400.358 124.411 400.885 124.936L412.997 137.048C414.023 138.076 415.692 138.076 416.721 137.048 417.752 136.019 417.749 134.353 416.721 133.324L406.43 123.042 406.43 123.042Z" fill="#9DB6DF"/><path d="M446.117 120.603 434.004 108.491C432.975 107.462 431.309 107.462 430.279 108.491 429.25 109.517 429.25 111.186 430.279 112.212L440.569 122.5 430.279 132.792C429.25 133.819 429.25 135.485 430.279 136.514 431.305 137.543 432.972 137.543 434.004 136.514L446.117 124.402C446.64 123.878 446.897 123.191 446.888 122.503 446.893 121.814 446.636 121.126 446.117 120.603Z" fill="#9DB6DF"/><path d="M423.868 137.82C423.61 139.385 422.136 140.446 420.569 140.189L420.569 140.189C419.006 139.932 417.946 138.453 418.203 136.891L423.085 107.178C423.342 105.615 424.82 104.555 426.382 104.813L426.382 104.813C427.945 105.07 429.005 106.544 428.748 108.111L423.868 137.82Z" fill="#9DB6DF"/></g></g></g><rect x="577" y="118" width="192" height="242" fill="#EBF0F9"/><text fill="#407CA0" font-family="Calibri,Calibri_MSFontService,sans-serif" font-weight="700" font-size="16" transform="translate(595.728 169)">Integration Builder<tspan x="-0.721252" y="34">Central</tspan></text><g clip-path="url(#clip22)"><g clip-path="url(#clip23)"><g clip-path="url(#clip24)"><path d="M648 122.281C648 118.748 649.924 115.654 652.785 113.999 652.952 106.222 659.308 99.9688 667.125 99.9688 672.278 99.9688 676.797 102.686 679.326 106.767 680.258 106.491 681.245 106.344 682.266 106.344 686.704 106.344 690.49 109.134 691.965 113.056 696.019 114.165 699 117.875 699 122.281 699 127.552 694.719 131.844 689.437 131.844L657.563 131.844C652.282 131.844 648 127.562 648 122.281ZM689.394 115.906C688.997 112.32 685.957 109.531 682.266 109.531 680.581 109.531 679.031 110.112 677.807 111.085 676.423 106.497 672.164 103.156 667.125 103.156 660.964 103.156 655.969 108.151 655.969 114.313 655.969 114.911 656.016 115.499 656.107 116.073 653.288 116.731 651.188 119.266 651.188 122.281 651.188 125.802 654.047 128.656 657.557 128.656L689.443 128.656C692.961 128.656 695.813 125.795 695.813 122.281 695.813 118.76 692.953 115.906 689.443 115.906Z" stroke="#9DB6DF" stroke-width="1.33333" fill="#9DB6DF" fill-rule="evenodd"/></g></g></g><text fill="#407CA0" font-family="Calibri,Calibri_MSFontService,sans-serif" font-weight="700" font-size="16" transform="translate(592.377 272)">Flow Manager<tspan x="1.23505" y="-35">Dashboard</tspan><tspan x="0" y="36">Unified Catalog</tspan><tspan x="-1.0506" y="70">Syncplicity</tspan></text><rect x="811" y="119" width="163" height="200" fill="#EBF0F9"/><text fill="#407CA0" font-family="Calibri,Calibri_MSFontService,sans-serif" font-weight="700" font-size="16" transform="translate(824.849 169)">Report an issue<tspan x="1.20673" y="70">Enroll to a training</tspan><tspan x="1.20673" y="105">Find an add</tspan><tspan x="78.8734" y="105">-</tspan><tspan x="83.7067" y="105">on</tspan></text><g clip-path="url(#clip25)"><g clip-path="url(#clip26)"><g clip-path="url(#clip27)"><path d="M19 38C8.50732 38 0 29.4927 0 19 0 8.50614 8.50732 0 19 0 29.4927 0 38 8.50614 38 19 38 29.4927 29.4927 38 19 38ZM19 4.75C11.1305 4.75 4.75 11.1305 4.75 19 4.75 26.8695 11.1305 33.25 19 33.25 26.8694 33.25 33.25 26.8695 33.25 19 33.25 11.1305 26.8695 4.75 19 4.75ZM14.25 11.875 26.125 19 14.25 26.125 14.25 11.875Z" stroke="#9DB6DF" stroke-width="1.33333" fill="#9DB6DF" transform="matrix(1 0 -0 1.02632 876 103)"/></g></g></g><rect x="1006" y="119" width="151" height="244" fill="#EBF0F9"/><text fill="#407CA0" font-family="Calibri,Calibri_MSFontService,sans-serif" font-weight="700" font-size="16" transform="translate(1020.99 169)">AMPLIFY Overview <tspan x="3.01666" y="34">Videos</tspan><tspan x="2.75183" y="70">Webinars</tspan><tspan x="2.75183" y="105">Blogs</tspan><tspan x="3.55292" y="142">Asset Library </tspan><tspan x="2.75183" y="178">Roadmaps</tspan><tspan font-weight="400" x="-12.011" y="211">More Resources… </tspan></text><g clip-path="url(#clip28)"><g clip-path="url(#clip29)"><g clip-path="url(#clip30)"><path d="M1100.5 116.25 1089.25 116.25 1089.25 105C1089.25 103.62 1088.13 102.5 1086.75 102.5L1084.25 102.5C1082.87 102.5 1081.75 103.62 1081.75 105L1081.75 116.25 1070.5 116.25C1069.12 116.25 1068 117.37 1068 118.75L1068 121.25C1068 122.63 1069.12 123.75 1070.5 123.75L1081.75 123.75 1081.75 135C1081.75 136.38 1082.87 137.5 1084.25 137.5L1086.75 137.5C1088.13 137.5 1089.25 136.38 1089.25 135L1089.25 123.75 1100.5 123.75C1101.88 123.75 1103 122.63 1103 121.25L1103 118.75C1103 117.37 1101.88 116.25 1100.5 116.25Z" fill="#9DB6DF"/></g></g></g><rect x="121" y="253" width="149" height="32" fill="#407CA0"/><text fill="#FFFFFF" font-family="Calibri,Calibri_MSFontService,sans-serif" font-weight="700" font-size="16" transform="translate(166.166 274)">Support Portal </text><path d="M135 278 135 279C137.083 279 138.736 278.573 140 278L135 278Z" fill="#FFFFFF" fill-rule="evenodd"/><path d="M127 269 127 270.818C127 273.091 128.6 273.545 128.6 273.545 128.6 273.545 130.2 279 135 279" stroke="#FFFFFF" stroke-width="2" stroke-linecap="round" stroke-miterlimit="8" fill="none" fill-rule="evenodd"/><path d="M144 270 141.545 270C141.545 264.592 139.091 262.2 139.091 262.2 136.636 268.267 128.455 263.933 128.455 270L126 270C126 270 126 269.898 126 266.533 126 260.467 130.909 257 135 257 138.273 257 139.091 258.733 139.091 258.733 142.364 258.733 144 263.067 144 266.533L144 270Z" fill="#FFFFFF" fill-rule="evenodd"/><path d="M135.5 273C135.324 273 134.676 273 134.5 273 133.672 273 133 273.672 133 274.5 133 275.328 133.672 276 134.5 276 134.676 276 135.324 276 135.5 276 136.328 276 137 275.328 137 274.5 137 273.672 136.328 273 135.5 273Z" fill="#FFFFFF" fill-rule="evenodd"/><path d="M136 275 140.444 275C142.408 275 144 273.465 144 271.571L144 269" stroke="#FFFFFF" stroke-width="2" stroke-linecap="round" stroke-miterlimit="8" fill="none" fill-rule="evenodd"/><path d="M143.5 273 142 273 142 268 143.5 268C144.329 268 145 268.895 145 270L145 271C145 272.105 144.329 273 143.5 273Z" fill="#FFFFFF" fill-rule="evenodd"/><text fill="#407CA0" font-family="Calibri,Calibri_MSFontService,sans-serif" font-weight="400" font-size="16" transform="translate(574.142 380)">More <tspan x="39.12" y="0">AMPLIFY </tspan><tspan x="99.9534" y="0">products… </tspan></text><path d="M749 367 766 377 749 387Z" fill="#9DB6DF" fill-rule="evenodd"/><text fill="#407CA0" font-family="Calibri,Calibri_MSFontService,sans-serif" font-weight="400" font-size="16" transform="translate(814.813 339)">More actions… </text><path d="M917 326 934 336 917 346Z" fill="#9DB6DF" fill-rule="evenodd"/><path d="M1131 365 1148 375 1131 385Z" fill="#9DB6DF" fill-rule="evenodd"/><text fill="#407CA0" font-family="Calibri,Calibri_MSFontService,sans-serif" font-weight="400" font-size="16" transform="translate(325.623 317)">We love developers… </text><path d="M471 304 488 314 471 324Z" fill="#9DB6DF" fill-rule="evenodd"/><text fill="#407CA0" font-family="Calibri,Calibri_MSFontService,sans-serif" font-weight="400" font-size="16" transform="translate(113.892 358)">Get started with <tspan x="0" y="19">Axway portals… </tspan></text><path d="M232 354 249 364 232 374Z" fill="#9DB6DF" fill-rule="evenodd"/><text fill="#407CA0" font-family="Calibri,Calibri_MSFontService,sans-serif" font-weight="700" font-size="16" transform="translate(825.694 204)">Setup your dev tools<tspan x="-661.92" y="109">Axway U</tspan></text><g clip-path="url(#clip31)"><g clip-path="url(#clip32)"><g clip-path="url(#clip33)"><path d="M27.2274 6.7025 15.0237 2.95313C14.3588 2.74881 13.6412 2.74881 12.9767 2.95313L0.772625 6.7025C-0.25725 7.01881-0.25725 8.38075 0.772625 8.69706L2.90019 9.35069C2.43337 9.92775 2.14637 10.6317 2.11794 11.4026 1.69662 11.6441 1.4 12.0798 1.4 12.6 1.4 13.0716 1.6485 13.4684 2.00638 13.7222L0.889437 18.7482C0.792313 19.1852 1.12481 19.6 1.57237 19.6L4.02719 19.6C4.47519 19.6 4.80769 19.1852 4.71056 18.7482L3.59362 13.7222C3.9515 13.4684 4.2 13.0716 4.2 12.6 4.2 12.0938 3.91694 11.6703 3.51487 11.4244 3.54812 10.7673 3.88412 10.1863 4.42006 9.81794L12.9762 12.4469C13.3726 12.5685 14.133 12.7203 15.0233 12.4469L27.2274 8.6975C28.2577 8.38075 28.2577 7.01925 27.2274 6.7025ZM15.4346 13.7852C14.1864 14.1684 13.1228 13.9567 12.565 13.7852L6.22037 11.8361 5.6 16.8C5.6 18.3466 9.36075 19.6 14 19.6 18.6392 19.6 22.4 18.3466 22.4 16.8L21.7796 11.8357 15.4346 13.7852Z" fill="#407CA0" transform="matrix(1 0 -0 1.02679 122 296)"/></g></g></g><text fill="#407CA0" font-family="Calibri,Calibri_MSFontService,sans-serif" font-weight="700" font-size="16" transform="translate(826.056 305)">Ask for help</text></g></svg>
