<svg width="27" height="19" xmlns="http://www.w3.org/2000/svg" xmlns:xlink="http://www.w3.org/1999/xlink" overflow="hidden"><defs><clipPath id="clip0"><path d="M231 194 258 194 258 213 231 213Z" fill-rule="evenodd" clip-rule="evenodd"/></clipPath></defs><g clip-path="url(#clip0)" transform="translate(-231 -194)"><path d="M244.035 211.995C241.252 212.011 238.469 211.975 235.691 211.825 234.787 211.774 233.884 211.696 233.064 211.258 232.516 210.964 232.093 210.557 231.826 209.98 231.377 209.021 231.236 208.01 231.153 206.979 230.975 204.85 230.965 202.721 231.059 200.597 231.106 199.468 231.142 198.328 231.414 197.22 231.518 196.787 231.67 196.364 231.873 195.962 232.354 195.018 233.189 194.549 234.197 194.353 235.043 194.188 235.91 194.194 236.771 194.157 239.691 194.039 242.615 193.977 245.539 194.008 247.79 194.034 250.046 194.09 252.296 194.204 252.991 194.24 253.691 194.25 254.354 194.493 255.252 194.822 255.92 195.379 256.281 196.281 256.631 197.148 256.766 198.045 256.84 198.967 257.043 201.473 257.048 203.979 256.881 206.484 256.824 207.33 256.766 208.175 256.542 209.005 256.035 210.913 254.829 211.66 253.059 211.779 251.168 211.903 249.273 211.97 247.377 211.995 246.265 212.006 245.148 211.995 244.035 211.995ZM241.294 206.721C243.821 205.355 246.317 204.004 248.855 202.633 246.312 201.257 243.816 199.911 241.294 198.545 241.294 201.293 241.294 203.989 241.294 206.721Z" fill="#407CA0" fill-rule="evenodd"/></g></svg>