<svg width="35" height="17" xmlns="http://www.w3.org/2000/svg" xmlns:xlink="http://www.w3.org/1999/xlink" overflow="hidden"><defs><clipPath id="clip0"><path d="M480 196 515 196 515 213 480 213Z" fill-rule="evenodd" clip-rule="evenodd"/></clipPath></defs><g clip-path="url(#clip0)" transform="translate(-480 -196)"><path d="M481 196 514 196 514 209.711 497.5 209.711 497.5 212 490.168 212 490.168 209.711 481 209.711ZM482.836 207.434 486.497 207.434 486.497 200.566 488.332 200.566 488.332 207.434 490.168 207.434 490.168 198.289 482.836 198.289ZM492.004 198.289 492.004 209.711 495.664 209.711 495.664 207.434 499.336 207.434 499.336 198.289ZM495.664 200.566 497.5 200.566 497.5 205.145 495.664 205.145ZM501.171 198.289 501.171 207.434 504.832 207.434 504.832 200.566 506.668 200.566 506.668 207.434 508.504 207.434 508.504 200.566 510.329 200.566 510.329 207.434 512.165 207.434 512.165 198.289Z" fill="#407CA0" fill-rule="evenodd"/></g></svg>