<svg width="32" height="32" viewBox="0 0 32 32" xmlns="http://www.w3.org/2000/svg" xmlns:xlink="http://www.w3.org/1999/xlink" overflow="hidden"><defs></defs><g id="Icons new Arranged Names" fill="none" fill-rule="evenodd"><g id="27 Cloud" fill="#000000"><path d="M0 19C0 16.7828 1.20754 14.8416 3.00211 13.803 3.10691 8.9234 7.09527 5 12 5 15.2335 5 18.0687 6.70521 19.6555 9.26543 20.2402 9.0927 20.8593 9 21.5 9 24.2846 9 26.6602 10.7509 27.5858 13.2119 30.1297 13.9075 32 16.2354 32 19 32 22.307 29.3136 25 25.9998 25L6.00018 25C2.68698 25 0 22.3137 0 19ZM25.9725 15C25.7238 12.75 23.8163 11 21.5 11 20.4428 11 19.4707 11.3646 18.7026 11.9749 17.8341 9.09633 15.1618 7 12 7 8.13401 7 5 10.134 5 14 5 14.3758 5.02961 14.7447 5.08663 15.1044 3.31779 15.5176 2 17.1081 2 19 2 21.2091 3.79412 23 5.99684 23L26.0032 23C28.2106 23 30 21.2046 30 19 30 16.7909 28.2059 15 26.0032 15Z" id="Rectangle 1 copy 2" fill="#407CA0"/></g></g></svg>