<svg width="25" height="26" xmlns="http://www.w3.org/2000/svg" xmlns:xlink="http://www.w3.org/1999/xlink" overflow="hidden"><defs><clipPath id="clip0"><path d="M232 225 257 225 257 251 232 251Z" fill-rule="evenodd" clip-rule="evenodd"/></clipPath><clipPath id="clip1"><path d="M237 229 254 229 254 246 237 246Z" fill-rule="evenodd" clip-rule="evenodd"/></clipPath><clipPath id="clip2"><path d="M237 229 254 229 254 246 237 246Z" fill-rule="evenodd" clip-rule="evenodd"/></clipPath><clipPath id="clip3"><path d="M237 229 254 229 254 246 237 246Z" fill-rule="evenodd" clip-rule="evenodd"/></clipPath></defs><g clip-path="url(#clip0)" transform="translate(-232 -225)"><path d="M232 238C232 231.373 237.373 226 244 226 250.627 226 256 231.373 256 238 256 244.627 250.627 250 244 250 237.373 250 232 244.627 232 238Z" fill="#407CA0" fill-rule="evenodd"/><g clip-path="url(#clip1)"><g clip-path="url(#clip2)"><g clip-path="url(#clip3)"><path d="M246.653 232.096 250.904 236.347 241.674 245.577 237.884 245.995C237.377 246.051 236.948 245.622 237.005 245.115L237.426 241.322 246.653 232.096ZM253.533 231.463 251.537 229.467C250.915 228.845 249.905 228.845 249.283 229.467L247.405 231.345 251.656 235.595 253.533 233.718C254.156 233.095 254.156 232.086 253.533 231.463Z" fill="#EBF0F9"/></g></g></g></g></svg>