<svg width="26" height="27" xmlns="http://www.w3.org/2000/svg" xmlns:xlink="http://www.w3.org/1999/xlink" overflow="hidden"><defs><clipPath id="clip0"><path d="M231 262 257 262 257 289 231 289Z" fill-rule="evenodd" clip-rule="evenodd"/></clipPath></defs><g clip-path="url(#clip0)" transform="translate(-231 -262)"><path d="M244.5 263C237.598 263 232 268.598 232 275.5 232 282.402 237.598 288 244.5 288 251.402 288 257 282.402 257 275.5 257 268.598 251.402 263 244.5 263ZM249.144 267.112C250.558 267.112 251.704 268.258 251.704 269.672 251.704 271.087 250.558 272.232 249.144 272.232 247.729 272.232 246.583 271.087 246.583 269.672 246.583 268.258 247.729 267.112 249.144 267.112ZM247.055 276.251C247.055 277.666 245.909 278.811 244.495 278.811 243.08 278.811 241.934 277.666 241.934 276.251 241.934 274.837 243.08 273.691 244.495 273.691 245.909 273.691 247.055 274.837 247.055 276.251ZM239.856 267.112C241.271 267.112 242.417 268.258 242.417 269.672 242.417 271.087 241.271 272.232 239.856 272.232 238.442 272.232 237.296 271.087 237.296 269.672 237.296 268.258 238.442 267.112 239.856 267.112ZM235.723 275.928 235.723 272.775C235.723 271.958 236.391 271.284 237.214 271.284L237.34 271.284C237.861 272.134 238.793 272.698 239.862 272.698 240.931 272.698 241.863 272.134 242.384 271.284L242.51 271.284C243.327 271.284 244.001 271.953 244.001 272.775L244.001 273.378C242.62 273.614 241.567 274.815 241.567 276.251 241.567 276.668 241.655 277.063 241.814 277.419L237.208 277.419C236.391 277.419 235.723 276.75 235.723 275.928ZM248.634 282.397C248.634 283.214 247.965 283.888 247.143 283.888L241.852 283.888C241.035 283.888 240.361 283.219 240.361 282.397L240.361 279.245C240.361 278.428 241.03 277.753 241.852 277.753L241.978 277.753C242.499 278.603 243.431 279.168 244.5 279.168 245.569 279.168 246.501 278.603 247.022 277.753L247.148 277.753C247.965 277.753 248.639 278.422 248.639 279.245L248.639 282.397ZM253.277 275.928C253.277 276.745 252.609 277.419 251.786 277.419L247.192 277.419C247.351 277.063 247.439 276.668 247.439 276.251 247.439 274.809 246.386 273.614 245.004 273.378L245.004 272.775C245.004 271.958 245.673 271.284 246.496 271.284L246.622 271.284C247.143 272.134 248.075 272.698 249.144 272.698 250.213 272.698 251.145 272.134 251.666 271.284L251.792 271.284C252.609 271.284 253.283 271.953 253.283 272.775L253.283 275.928Z" fill="#407CA0" fill-rule="evenodd"/></g></svg>