<svg viewBox="0 0 24 24" xmlns="http://www.w3.org/2000/svg" xmlns:xlink="http://www.w3.org/1999/xlink" overflow="hidden"><defs></defs><rect x="2.25" y="0.75" rx="1.5" ry="1.5" width="6" height="17.25" stroke-width="1.50005" stroke-linejoin="round" fill="#407CA0"/><rect x="8.25" y="0.75" rx="1.5" ry="1.5" width="6" height="17.25" stroke-width="1.50005" stroke-linejoin="round" fill="#407CA0"/><rect x="16.11" y="2.224" rx="1.5" ry="1.5" width="4.5" height="15.75" stroke-width="1.50005" stroke-linejoin="round" fill="#407CA0" transform="matrix(0.989609 -0.143786 0.143786 0.989609 -1.261 2.745)"/><path d="M0.75 19.5C0.75 20.3284 1.42157 21 2.25 21L21.75 21C22.5784 21 23.25 20.3284 23.25 19.5 23.25 18.6716 22.5784 18 21.75 18L2.25 18C1.42157 18 0.75 18.6716 0.75 19.5Z" stroke-width="1.50005" stroke-linejoin="round" fill="#407CA0"/><line x1="3" y1="21" x2="3" y2="23.25" stroke-width="1.50005" stroke-linejoin="round" fill="none"/><line x1="21" y1="21" x2="21" y2="23.25" stroke-width="1.50005" stroke-linejoin="round" fill="none"/></svg>