<svg width="1792" height="1792" viewBox="0 0 1792 1792" xmlns="http://www.w3.org/2000/svg" xmlns:xlink="http://www.w3.org/1999/xlink" overflow="hidden"><path d="M1280 704C1280 686.667 1273.67 671.667 1261 659 1248.33 646.333 1233.33 640 1216 640L1088 640 1088 512C1088 494.667 1081.67 479.667 1069 467 1056.33 454.333 1041.33 448 1024 448 1006.67 448 991.667 454.333 979 467 966.333 479.667 960 494.667 960 512L960 640 832 640C814.667 640 799.667 646.333 787 659 774.333 671.667 768 686.667 768 704 768 721.333 774.333 736.333 787 749 799.667 761.667 814.667 768 832 768L960 768 960 896C960 913.333 966.333 928.333 979 941 991.667 953.667 1006.67 960 1024 960 1041.33 960 1056.33 953.667 1069 941 1081.67 928.333 1088 913.333 1088 896L1088 768 1216 768C1233.33 768 1248.33 761.667 1261 749 1273.67 736.333 1280 721.333 1280 704ZM704 1536C704 1571.33 691.5 1601.5 666.5 1626.5 641.5 1651.5 611.333 1664 576 1664 540.667 1664 510.5 1651.5 485.5 1626.5 460.5 1601.5 448 1571.33 448 1536 448 1500.67 460.5 1470.5 485.5 1445.5 510.5 1420.5 540.667 1408 576 1408 611.333 1408 641.5 1420.5 666.5 1445.5 691.5 1470.5 704 1500.67 704 1536ZM1600 1536C1600 1571.33 1587.5 1601.5 1562.5 1626.5 1537.5 1651.5 1507.33 1664 1472 1664 1436.67 1664 1406.5 1651.5 1381.5 1626.5 1356.5 1601.5 1344 1571.33 1344 1536 1344 1500.67 1356.5 1470.5 1381.5 1445.5 1406.5 1420.5 1436.67 1408 1472 1408 1507.33 1408 1537.5 1420.5 1562.5 1445.5 1587.5 1470.5 1600 1500.67 1600 1536ZM1728 448 1728 960C1728 976 1722.67 990.167 1712 1002.5 1701.33 1014.83 1687.67 1022 1671 1024L627 1146C627.667 1150.67 629.167 1157.83 631.5 1167.5 633.833 1177.17 635.833 1186 637.5 1194 639.167 1202 640 1209.33 640 1216 640 1226.67 632 1248 616 1280L1536 1280C1553.33 1280 1568.33 1286.33 1581 1299 1593.67 1311.67 1600 1326.67 1600 1344 1600 1361.33 1593.67 1376.33 1581 1389 1568.33 1401.67 1553.33 1408 1536 1408L512 1408C494.667 1408 479.667 1401.67 467 1389 454.333 1376.33 448 1361.33 448 1344 448 1334.67 451.667 1321.5 459 1304.5 466.333 1287.5 476.167 1267.67 488.5 1245 500.833 1222.33 507.667 1209.67 509 1207L332 384 128 384C110.667 384 95.6667 377.667 83 365 70.3333 352.333 64 337.333 64 320 64 302.667 70.3333 287.667 83 275 95.6667 262.333 110.667 256 128 256L384 256C394.667 256 404.167 258.167 412.5 262.5 420.833 266.833 427.5 272 432.5 278 437.5 284 441.833 292.167 445.5 302.5 449.167 312.833 451.667 321.667 453 329 454.333 336.333 456.167 346.167 458.5 358.5 460.833 370.833 462.333 379.333 463 384L1664 384C1681.33 384 1696.33 390.333 1709 403 1721.67 415.667 1728 430.667 1728 448Z" fill="#407CA0"/></svg>