<svg viewBox="0 0 515.97 230.87" xmlns="http://www.w3.org/2000/svg" xmlns:xlink="http://www.w3.org/1999/xlink" id="horizontal_color" overflow="hidden"><defs></defs><rect x="0" y="0" width="515.97" height="230.87" fill="none"/><path d="M195.82 328.14 208.82 326.2C211.82 325.77 212.82 324.26 212.82 322.43 212.82 318.66 209.92 315.54 203.89 315.54 197.65 315.54 194.21 319.54 193.78 324.15L181.08 321.46C181.94 313.18 189.58 304.03 203.78 304.03 220.56 304.03 226.78 313.5 226.78 324.15L226.78 350.15C226.797 352.959 227.015 355.762 227.43 358.54L214.32 358.54C213.953 356.443 213.772 354.318 213.78 352.19 211.09 356.39 206.03 360.04 198.18 360.04 186.88 360.04 180 352.4 180 344.12 180 334.7 187 329.43 195.82 328.14ZM212.82 337.14 212.82 334.77 200.88 336.6C197.22 337.14 194.32 339.18 194.32 343.27 194.32 346.39 196.58 349.41 201.21 349.41 207.22 349.44 212.81 346.53 212.81 337.17ZM247.82 331.98 228.99 305.62 245.99 305.62C247.82 308.52 254.7 318.42 256.53 321.33L266.97 305.62 283.22 305.62 264.72 331.55 283.87 358.55 267 358.55 256 342.34C254.06 345.24 247 355.68 245.13 358.59L228.95 358.59ZM332.82 305.62 344.22 339.72 354.01 305.62 368.21 305.62 351.64 358.55 337.28 358.55 324.91 322.4 312.75 358.55 298.23 358.55 281.34 305.62 296.4 305.62 306.19 339.62 317.7 305.62ZM382.73 328.11 395.73 326.17C398.73 325.74 399.73 324.23 399.73 322.4 399.73 318.63 396.83 315.51 390.8 315.51 384.56 315.51 381.12 319.51 380.69 324.12L367.99 321.43C368.85 313.15 376.49 304 390.69 304 407.47 304 413.69 313.47 413.69 324.12L413.69 350.12C413.707 352.929 413.925 355.732 414.34 358.51L401.19 358.51C400.823 356.413 400.642 354.288 400.65 352.16 397.96 356.36 392.9 360.01 385.05 360.01 373.75 360.01 366.87 352.37 366.87 344.09 366.86 334.7 373.86 329.43 382.68 328.14ZM399.73 337.11 399.73 334.74 387.79 336.57C384.13 337.11 381.23 339.15 381.23 343.24 381.23 346.36 383.49 349.38 388.12 349.38 394.09 349.44 399.68 346.53 399.68 337.17ZM422.64 379.39 435.12 351.85 412.63 305.59 428.63 305.59 442.72 336.59 455.72 305.59 471 305.59 437.76 379.39Z" fill="#101820" transform="translate(-138.02 -190.56)"/><path d="M599.57 280 599.57 307 480.91 250.54 480.91 232.54 584.77 282 584.77 255 612 268 612 286ZM507.48 299.14 507.48 317.14 526.48 326.14 495.91 358.5 516.19 358.5 552.46 320.5ZM599.6 316 495.08 266.28 495.08 284.28 578.28 323.85Z" fill="#D22630" transform="translate(-138.02 -190.56)"/></svg>