<?xml version="1.0" ?><svg enable-background="new 0 0 512 512" id="Layer_1" version="1.0" viewBox="0 0 512 512" xml:space="preserve" xmlns="http://www.w3.org/2000/svg" xmlns:xlink="http://www.w3.org/1999/xlink"><g><g><g><path d="M327.5,309.5c18.8,24.2,18.8,57.9,1.9,83c-5.4,8,7.6,15.5,13,7.6c21-31.1,18.6-71.8-4.2-101.1c-2.5-3.2-8-2.6-10.6,0     C324.4,302.1,325.1,306.4,327.5,309.5L327.5,309.5z"/></g></g><g><g><path d="M296.5,320.4C296.5,320.4,296.5,320.4,296.5,320.4c0.7-1.8,1.5-3.5,2.2-5.3c-10.7,10.7-21.3,21.3-32,32     c1.8-0.7,3.5-1.5,5.3-2.2c-4.7,0-8.9,5.8-11.9,8.8c-6.1,6.1-12.2,12.3-18.4,18.4c-11.4,11.4-22.7,22.8-34.1,34.1     c-6.2,6.1-14.1,9.7-22.9,7.9c-6-1.2-10.3-4.6-14.5-8.8c-9.4-9.4-18.7-18.7-28.1-28.1c-24.5-24.5-48.9-48.9-73.4-73.4     c-2.4-2.4-5.1-4.7-7-7.5c-2.2-3.3-3.7-7.1-4-11.1c-0.2-1.8-0.1-3.6,0-5.3c0.2-1.7-0.1-0.3,0.4-2c1.3-5,2.3-7.6,6-11.6     c6.9-7.3,14.2-14.2,21.3-21.3c23.4-23.4,46.7-46.7,70.1-70.1c0.5-0.5,1-1,1.5-1.5c6.8-6.8-3.8-17.4-10.6-10.6     c-21.6,21.6-43.2,43.2-64.7,64.7c-9.1,9.1-18.2,18-27.2,27.2c-15.4,15.6-15.6,40.1-0.1,55.9c22.1,22.5,44.5,44.5,66.8,66.8     c11.5,11.5,23,23,34.5,34.5c2,2,4,4.1,6.1,6.1c10.5,10.1,26.1,14.2,40.1,9.3c7.6-2.7,13.2-7.5,18.7-13     c5.7-5.7,11.4-11.4,17.1-17.2c12.4-12.4,24.8-24.8,37.2-37.2c0.8-0.8,1.6-1.6,2.4-2.4c-1.8,0.7-3.5,1.5-5.3,2.2     c4,0,6.7-3.6,9.3-6.2c4-4,8-8,12-12c3.9-3.9,7.8-7.8,11.7-11.7c2.6-2.6,6.4-5.5,6.4-9.5C311.5,310.7,296.5,310.7,296.5,320.4     L296.5,320.4z"/></g></g><g><g><path d="M402.9,162.5c-22.4-22.4-44.8-44.8-67.1-67.1c-17.7-17.7-35.4-35.4-53.1-53.1C270.3,29.9,257.8,17.4,245.4,5     c-3.4-3.4-9.4-2.7-11.8,1.5c-9.9,17.7-19.9,35.5-29.8,53.2c-15.8,28.3-31.7,56.6-47.5,85c-3.7,6.6-7.3,13.1-11,19.7     c-1.6,2.9-1.2,6.7,1.2,9.1c17.1,17.1,34.3,34.3,51.4,51.4c27.3,27.3,54.6,54.6,82,82c6.3,6.3,12.6,12.6,18.8,18.8     c-0.7-1.8-1.5-3.5-2.2-5.3c0,0,0,0,0,0c0,5.8,6.3,9.2,11.3,6.5c16.4-9.2,32.9-18.4,49.3-27.6c28.4-15.9,56.9-31.8,85.3-47.8     c7.7-4.3,15.4-8.6,23.2-13c4.2-2.4,4.9-8.4,1.5-11.8c-18.7-18.7-37.4-37.4-56.1-56.1C408.3,167.9,405.6,165.2,402.9,162.5     c-6.8-6.8-17.4,3.8-10.6,10.6c18.7,18.7,37.4,37.4,56.1,56.1c2.7,2.7,5.4,5.4,8.1,8.1c0.5-3.9,1-7.9,1.5-11.8     c-20,11.2-40.1,22.4-60.1,33.7c-22.7,12.7-45.4,25.4-68.1,38.1c-9.9,5.5-19.7,11-29.6,16.6c3.8,2.2,7.5,4.3,11.3,6.5     c0-3.8-3-6.1-5.4-8.5c-3.5-3.5-7-7-10.6-10.6c-12-12-24-24-35.9-35.9c-27.7-27.7-55.4-55.4-83.2-83.2     c-6.4-6.4-12.9-12.9-19.3-19.3c0.4,3,0.8,6.1,1.2,9.1c9.9-17.7,19.9-35.5,29.8-53.2c15.8-28.3,31.7-56.6,47.5-85     c3.7-6.6,7.3-13.1,11-19.7c-3.9,0.5-7.9,1-11.8,1.5c19.4,19.4,38.8,38.8,58.3,58.3c23.9,23.9,47.7,47.7,71.6,71.6     c9.2,9.2,18.4,18.4,27.6,27.6C399.1,179.9,409.8,169.3,402.9,162.5z"/></g></g><g><g><path d="M394.6,427.7c-30-20.6-59.9-41.3-89.9-61.9c-9.6-6.6-19.3-13.3-28.9-19.9c-2.7-1.9-6.9-1.1-9.1,1.2     c-17.6,17.6-35.3,35.3-52.9,52.9c-2.5,2.5-5,5-7.6,7.6c-3.6,3.6-2.4,9.1,1.5,11.8c25,17.2,50,34.4,75,51.7     c15.4,10.6,30.7,21.2,46.1,31.8c7.7,5.3,16.5,8.3,25.8,5c8.3-3,14.3-10.6,20.4-16.7c7.6-7.6,15.2-15.1,22.7-22.7     C409.9,456.1,408.4,437.9,394.6,427.7c-3.3-2.4-8.3-0.5-10.3,2.7c-2.3,3.8-0.5,7.9,2.7,10.3c4.5,3.4,5.5,10.1,2.4,14.7     c-1.3,1.9-3.2,3.5-4.8,5.1c-6.8,6.8-13.6,13.6-20.4,20.4c-4.2,4.2-9.9,12.3-16.2,13.3c-5.3,0.8-9.6-3.1-13.7-5.9     c-28.6-19.7-57.1-39.4-85.7-59.1c-11.1-7.6-22.2-15.2-33.2-22.9c0.5,3.9,1,7.9,1.5,11.8c17.6-17.6,35.3-35.3,52.9-52.9     c2.5-2.5,5-5,7.6-7.6c-3,0.4-6.1,0.8-9.1,1.2c31.1,21.4,62.2,42.9,93.4,64.3c8.5,5.8,17,11.7,25.4,17.5     C395,446.1,402.5,433.1,394.6,427.7z"/></g></g><g><g><path d="M181.6,223.4c-9-8-20.6-7-29,1.2c-4.8,4.7-9.5,9.5-14.2,14.2c-12.3,12.3-24.6,24.6-36.8,36.8     c-6.4,6.4-10.4,14.4-6.8,23.5c5.5,13.8,22.5,15.8,32.7,6c11.4-11,22.5-22.5,33.7-33.7c6-6,12.1-12.1,18.1-18.1     c1.7-1.7,3.5-3.4,4.8-5.5C189.3,240,187.7,230.2,181.6,223.4c-6.4-7.2-17,3.4-10.6,10.6c3.6,4-0.8,7.3-3.5,10     c-4.5,4.5-9.1,9.1-13.6,13.6c-10.9,10.9-21.7,21.7-32.6,32.6c-2.2,2.2-5.4,6.8-8.9,6.4c-4.3-0.5-4.9-5-2.6-7.9     c0.7-0.9,1.7-1.7,2.6-2.6c10.2-10.2,20.5-20.5,30.7-30.7c5.5-5.5,11.1-11.1,16.6-16.6c2.9-2.9,7-8.8,11.4-4.9     C178.1,240.4,188.8,229.8,181.6,223.4z"/></g></g><g><g><path d="M213.2,255.1c-9-8-20.6-7-29,1.2c-4.8,4.7-9.5,9.5-14.2,14.2c-12.3,12.3-24.6,24.6-36.8,36.8     c-6.4,6.4-10.4,14.4-6.8,23.5c5.5,13.8,22.6,15.8,32.7,6c11.4-11,22.5-22.5,33.7-33.7c6-6,12.1-12.1,18.1-18.1     c1.7-1.7,3.5-3.4,4.8-5.5C221,271.7,219.4,261.9,213.2,255.1c-6.4-7.2-17,3.4-10.6,10.6c3.6,4-0.8,7.3-3.5,10     c-4.5,4.5-9.1,9.1-13.6,13.6c-10.9,10.9-21.7,21.7-32.6,32.6c-2.2,2.2-5.4,6.8-8.9,6.4c-4.3-0.5-4.9-5-2.7-7.9     c0.7-0.9,1.7-1.7,2.6-2.6c10.2-10.2,20.5-20.5,30.7-30.7c5.5-5.5,11.1-11.1,16.6-16.6c2.9-2.9,7-8.8,11.4-4.9     C209.8,272.1,220.5,261.5,213.2,255.1z"/></g></g><g><g><path d="M244.9,286.7c-9-8-20.6-7-29,1.2c-4.8,4.7-9.5,9.5-14.2,14.2c-12.3,12.3-24.6,24.6-36.8,36.8     c-6.4,6.4-10.4,14.4-6.8,23.5c5.5,13.8,22.5,15.8,32.7,6c11.4-11,22.5-22.5,33.7-33.7c6-6,12.1-12.1,18.1-18.1     c1.7-1.7,3.5-3.4,4.8-5.5C252.7,303.4,251,293.6,244.9,286.7c-6.4-7.2-17,3.4-10.6,10.6c3.6,4-0.8,7.3-3.5,10     c-4.5,4.5-9.1,9.1-13.6,13.6c-10.9,10.9-21.7,21.7-32.6,32.6c-2.2,2.2-5.4,6.8-8.9,6.4c-4.3-0.5-4.9-5-2.6-7.9     c0.7-0.9,1.7-1.7,2.6-2.6c10.2-10.2,20.5-20.5,30.7-30.7c5.5-5.5,11.1-11.1,16.6-16.6c2.9-2.9,7-8.8,11.4-4.9     C241.5,303.7,252.1,293.2,244.9,286.7z"/></g></g><g><g><path d="M301.7,74.6c19.7-15.2,46.4-18.6,68.6-6.4c19.2,10.6,32,30.9,33.3,52.8c0.9,15.5-3.6,30.3-12.5,43     c-5.6,7.9,7.4,15.4,13,7.6c17.5-25,19.3-58.6,4.7-85.4c-12.9-23.6-37.6-39.1-64.4-40.4c-18-0.9-36,4.9-50.2,15.9     c-3.2,2.5-4.9,6.4-2.7,10.3C293.3,75.1,298.5,77.1,301.7,74.6L301.7,74.6z"/></g></g></g></svg>