<?xml version="1.0" encoding="utf-8"?>
<!-- Generator: Adobe Illustrator 23.0.6, SVG Export Plug-In . SVG Version: 6.00 Build 0)  -->
<svg version="1.1" id="Layer_1" xmlns="http://www.w3.org/2000/svg" xmlns:xlink="http://www.w3.org/1999/xlink" x="0px" y="0px"
	 viewBox="0 0 91 67" style="enable-background:new 0 0 91 67;" xml:space="preserve">
<style type="text/css">
	.st0{fill-rule:evenodd;clip-rule:evenodd;}
	.st1{fill-rule:evenodd;clip-rule:evenodd;fill:#FEFEFE;}
</style>
<g transform="translate(-735 -230)">
	<path class="st0" d="M799,236.2L799,236.2L799,236.2c0-1-0.9-1.9-2-1.9h-21.5v-1.7c0-1-1-1.6-2.1-1.6H764c-1,0-2,0.7-2,1.7v6.3h37
		V236.2z"/>
	<path class="st0" d="M767,272.5L767,272.5L767,272.5c0-0.8-0.7-1.6-1.6-1.6h-16.9v-1.5c0-0.8-0.7-1.4-1.5-1.4h-7.4
		c-0.8,0-1.5,0.7-1.5,1.6v5.4h29V272.5z"/>
	<path class="st0" d="M794,269.6L794,269.6v5.4h29v-2.5c0-0.8-0.8-1.6-1.7-1.6h-16.7v-1.5c0-0.8-0.7-1.4-1.6-1.4h-7.3
		C794.7,268,794,268.7,794,269.6z"/>
	<path class="st0" d="M823.5,278.5L823.5,278.5h-30.9c-0.9,0-1.5,0.6-1.4,1.5l0.4,3.8h-8.9v-18.7h14.1c1.1,0,2.1-0.9,2.2-2l2.2-18.3
		c0.1-1.1-0.6-1.9-1.7-1.9h-39.3c-1.1,0-1.9,0.9-1.7,1.9l2.2,18.3c0.1,1.1,1.2,2,2.2,2h14.2v18.7h-9.1l0.6-3.8
		c0.1-0.9-0.6-1.5-1.4-1.5h-30.9c-0.8,0-1.3,0.6-1.3,1.5l1.7,14.5c0.1,0.8,0.9,1.5,1.7,1.5h26.6c0.9,0,1.7-0.7,1.7-1.5l0.6-5.2h24.9
		l0.6,5.2c0.1,0.8,0.9,1.5,1.7,1.5h26.6c0.9,0,1.7-0.7,1.8-1.5l1.7-14.5C825,279.2,824.4,278.5,823.5,278.5z"/>
	<path class="st1" d="M768,248L768,248l3,8.1l0,0l3-8.1h3v11h-2.3v-3.3l0.3-4.8h-0.1l-3.1,8.1h-1.6l-3.1-8.1l0,0l0.2,4.8v3.3H765
		v-11H768z"/>
	<path class="st1" d="M786.2,254.4L786.2,254.4h-4.8v4.6H779v-11h8v1.7h-5.7v3h4.8V254.4z"/>
	<path class="st1" d="M797,249.7L797,249.7h-3.3v9.3h-2.4v-9.3H788V248h9V249.7z"/>
</g>
</svg>
