<?xml version="1.0" encoding="utf-8"?>
<!-- Generator: Adobe Illustrator 23.0.6, SVG Export Plug-In . SVG Version: 6.00 Build 0)  -->
<svg version="1.1" id="Layer_1" xmlns="http://www.w3.org/2000/svg" xmlns:xlink="http://www.w3.org/1999/xlink" x="0px" y="0px"
	 viewBox="0 0 61.6 36.9" style="enable-background:new 0 0 61.6 36.9;" xml:space="preserve">
<g>
	<path d="M178.4-84.9c-0.7,2.8-1.2,5.6-2.3,8.3c-0.5,1.1-2.2,1.7-3.4,2.5c-0.3-1.3-1.2-2.8-0.9-3.9c2.8-9.4,1.6-18-4.7-25.7
		c-6.3-7.6-17.6-10.6-27.6-7.1c-9.6,3.3-16.5,12.4-16.5,22.3c0,3.4,1,6.9,1.2,10.3c0.1,1.3-0.7,2.8-1,4.1c-1.1-0.9-2.8-1.6-3.3-2.8
		c-6-14.2,2.1-32.3,16.8-38c18.1-7,37.2,3.5,40.9,22.6c0.2,1,0.5,1.9,0.8,2.9C178.4-87.9,178.4-86.4,178.4-84.9z"/>
	<path d="M147.9-79c-2.9,0-5.7,0.1-8.6,0c-2.2-0.1-2.9-1.1-1.7-3.2c2.9-5.1,5.9-10.1,8.8-15.2c1.1-1.9,2.2-1.8,3.3,0
		c2.8,4.8,5.6,9.7,8.4,14.6c1.4,2.5,0.5,3.8-2.3,3.8C153.1-79,150.5-79,147.9-79C147.9-79,147.9-79,147.9-79z"/>
</g>
<g>
	<path d="M87.2-115.3c-8.2,0-16.5,0-24.7,0c-4.8,0-5.8-1.9-3.4-6.1c8.2-14.2,16.3-28.3,24.5-42.5c2.6-4.5,4.4-4.6,7,0
		c8.3,14.4,16.6,28.7,24.8,43.2c2.1,3.6,1,5.4-3.2,5.4C103.9-115.3,95.6-115.4,87.2-115.3z M87.1-142.2
		C87.1-142.2,87.1-142.2,87.1-142.2c-3.1,0-6.2-0.1-9.4,0c-3.9,0.1-4.6,1.3-2.8,4.6c3.2,5.8,6.6,11.5,9.8,17.2
		c1.5,2.7,3.1,2.2,4.4,0c3.5-5.9,6.9-11.9,10.3-17.8c1.4-2.5,0.3-3.8-2.3-3.9C93.9-142.3,90.5-142.2,87.1-142.2z"/>
</g>
<g>
	<path d="M157.1-138.4c2.7,0,5.5-0.1,8.2,0c2.2,0.1,3.8-0.7,4.9-2.8c1.6-3,3.3-5.9,5.1-8.7c1.2-1.9,1.2-3.7,0-5.6
		c-1.8-2.9-3.5-5.8-5.1-8.7c-1.1-2-2.7-2.7-4.9-2.7c-5.4,0.1-10.7,0-16.1,0c-2.1,0-4.1-0.1-5.1-2.4c-1-2.4,0.7-3.7,2.1-5.1
		c15.5-15.6,43.2-8.2,49.5,13.3c3.5,11.9-1,25.4-10.7,32.4c-10.6,7.7-24.4,8.2-34.7,1.1c-1.7-1.2-3.4-2.6-4.7-4.2
		c-0.9-1.1-1.6-3.1-1.2-4.2c0.5-1.1,2.4-2.1,3.8-2.3C151.1-138.6,154.1-138.4,157.1-138.4C157.1-138.4,157.1-138.4,157.1-138.4z"/>
	<path d="M159.6-142.4c-2.3-0.7-5-0.8-6.3-2.2c-2.1-2.3-4.5-5.5-4.5-8.3c0-2.8,2.3-6.1,4.4-8.3c1.2-1.3,4.1-1.1,6.3-1.2
		c1.9,0,4.6-0.1,5.6,1c2,2.4,4.3,5.5,4.4,8.4c0,2.8-2.2,6-4.2,8.4C164.2-143.2,161.6-143.1,159.6-142.4z"/>
</g>
<g>
	<path d="M2-41.2c-0.1,0.8-0.2,1.4-0.2,1.8c-4.9,1.6-13-3.9-15.6-9.6c-3.4-7.7-1.8-16.1,4.5-21.4c5.7-4.8,13.7-7.3,24.5,0.3
		c2.9-3.7,6.4-5.9,11.3-4.1c5,1.9,6.5,5.8,5.8,11c6.9,1.1,11.4,4.7,12.3,11.7c0.4,3.5-2.2,9.4-6.6,11.3c-4.1,1.8-9.1,2-11.5-0.1
		c0.7-1.9,2.4-1.3,3.8-1.5c2.1-0.3,4.3-0.2,6.2-1.1c5.1-2.4,5.3-5.8,4.5-10.7c-0.5-3.5-4.8-6.4-8.8-6.2c-1.2,0-2.4,0.2-4.3,0.4
		c0.2-1.3,0.3-2.3,0.6-3.2c0.9-2.3,1.3-4.6-0.3-6.8c-2.7-3.7-8.2-3-10.1,1.2c-0.4,1-0.8,2-1.1,2.8c-2.6,0.3-3.4-1.6-4.6-2.7
		C2.4-76.5-10-69.2-11.8-61c-2,9,2,16,10.2,18.6C-0.4-42,0.7-41.6,2-41.2z"/>
	<path d="M23.8-49c0,1,0,2,0,3c-0.1,4.6-1.1,6-5.6,7c-3.2,0.7-6.4,0.6-9.6-0.6c-2.2-0.8-3.5-2.4-3.5-4.8c0-3.2-0.1-6.5,0-9.7
		c0-2.4,1.3-3.9,3.6-4.7c3.7-1.2,7.3-1.4,11-0.1c3.1,1,3.9,2.2,4.1,5.5C23.9-52,23.8-50.5,23.8-49C23.8-49,23.8-49,23.8-49z
		 M8.6-50.9c0.5,1.1,0.7,2.1,1.2,2.2c2,0.5,4.1,0.9,6.1,0.9c2.8,0,3.5-0.8,3.6-3.1C16.2-50.9,12.8-50.9,8.6-50.9z M9.1-44.9
		c1.1,2.8,2.6,3.5,6.6,3.2c2.8-0.2,3.5-0.8,4-3.2C16.3-44.9,12.9-44.9,9.1-44.9z M19.5-55.3c-3.4-1.9-6.8-2-10.8,0.1
		C12.8-53.2,16.2-53.2,19.5-55.3z"/>
</g>
<g>
	<path d="M33.1,36.8c-4.1,0-8.2,0-12.4,0c-4.8,0-9.1-1.4-13.2-4c-3.1-2-5-4.9-6.2-8.1C-0.9,19-0.4,13.3,3.2,8.2
		c4.4-6.4,10.7-9,18.4-8c2.6,0.3,5.2,1.5,7.4,3c2.1,1.4,2.2,1.5,3.8-0.3c2.6-2.8,5.6-3.4,9.1-2.5c4.4,1,7.8,5.9,6.7,10.4
		c-0.3,1.1,0,1.2,0.9,1.3c6.3,0.5,11.2,4.6,11.9,10.7c0.7,6.2-2.8,11.4-9.4,13.2c-2.1,0.6-4.4,0.7-6.6,0.8
		C41.4,36.9,37.2,36.8,33.1,36.8z M32.9,33.1c5.2,0,10.5,0,15.7,0c4.3,0,7.3-2.4,8.3-6.5c1.4-5.7-2.6-10.8-8.5-10.8
		c-1.1,0-2.3,0.1-3.4,0c-2.1-0.1-2.5-1-1.4-2.8c0.9-1.4,1.7-2.8,1.3-4.5c-0.5-2-1.6-3.9-3.6-4.5c-2.1-0.6-4.4-0.7-6.1,1.6
		c-0.7,1-1.5,1.8-1.7,3.2c-0.3,2-1.7,2.3-3.2,1.1c-0.8-0.6-1.5-1.4-2.1-2.1c-4-4.4-9.1-4.9-14.3-3.3C6.3,6.8,1.6,15.7,4.9,23.8
		c2,5,7.9,9.9,13.8,9.4C23.4,32.8,28.2,33.1,32.9,33.1z"/>
	<path d="M43.7,23.3c-0.1,0.5,0,1-0.3,1.2c-1.3,1.3-2.6,2.7-3.9,3.9c-0.3,0.3-0.9,0.2-1.4,0.2c-0.3,0-0.8-0.2-1-0.4
		c-0.1-0.2-0.1-0.8,0.1-1c0.9-1,1.9-2,2.8-3c0.7-0.7,0.5-1.5-0.2-1.9c-1.2-0.7-2.2-1.5-2.7-2.8c-0.4-1,0.1-1.4,1-1.4
		c0.5,0,1.1,0,1.4,0.2c1.3,1.1,2.5,2.4,3.7,3.6C43.6,22.3,43.6,22.9,43.7,23.3z"/>
	<path d="M26.6,27.6c-0.4,0.6-0.7,1.1-1,1.2c-0.3,0.1-0.9-0.2-1.2-0.5c-1.3-1.3-2.6-2.6-4-3.9c-1-0.9-0.8-1.6,0.1-2.5
		c1.3-1.2,2.4-2.5,3.7-3.6c0.4-0.3,1-0.4,1.5-0.6c0.2,0.7,0.6,1.4,0.5,2c-0.1,0.5-0.7,1-1.1,1.4c-1.9,2.1-1.8,2.1,0.1,4.3
		C25.7,26.2,26.1,26.9,26.6,27.6z"/>
	<path d="M33.9,20.2c-0.5,2.3-1.1,4.8-1.8,7.3c-0.1,0.3-0.4,0.6-0.7,0.9c-0.4,0.3-0.8,0.5-1.2,0.6c-0.2,0-0.6-0.5-0.7-0.8
		c-0.4-1.2,1.3-8.9,2.3-9.8c0.3-0.3,0.9-0.7,1.2-0.6c0.4,0.1,0.7,0.7,0.8,1.1C34,19.2,33.9,19.6,33.9,20.2z"/>
</g>
</svg>
