<?xml version="1.0" encoding="utf-8"?>
<!-- Generator: Adobe Illustrator 23.0.6, SVG Export Plug-In . SVG Version: 6.00 Build 0)  -->
<svg version="1.1" id="Layer_1" xmlns="http://www.w3.org/2000/svg" xmlns:xlink="http://www.w3.org/1999/xlink" x="0px" y="0px"
	 viewBox="0 0 60.6 43" style="enable-background:new 0 0 60.6 43;" xml:space="preserve">
<g>
	<path d="M60.6,32.1c-0.7,2.8-1.2,5.6-2.3,8.3c-0.5,1.1-2.2,1.7-3.4,2.5c-0.3-1.3-1.2-2.8-0.9-3.9c2.8-9.4,1.6-18-4.7-25.7
		C43,5.7,31.6,2.7,21.6,6.2C12,9.5,5.1,18.6,5.1,28.5c0,3.4,1,6.9,1.2,10.3c0.1,1.3-0.7,2.8-1,4.1C4.2,42,2.5,41.4,2,40.2
		C-4,26,4.1,7.9,18.8,2.2c18.1-7,37.2,3.5,40.9,22.6c0.2,1,0.5,1.9,0.8,2.9C60.6,29.1,60.6,30.6,60.6,32.1z"/>
	<path d="M30.1,38c-2.9,0-5.7,0.1-8.6,0c-2.2-0.1-2.9-1.1-1.7-3.2c2.9-5.1,5.9-10.1,8.8-15.2c1.1-1.9,2.2-1.8,3.3,0
		c2.8,4.8,5.6,9.7,8.4,14.6c1.4,2.5,0.5,3.8-2.3,3.8C35.3,38.1,32.7,38.1,30.1,38C30.1,38,30.1,38,30.1,38z"/>
</g>
</svg>
