<?xml version="1.0" encoding="utf-8"?>
<!-- Generator: Adobe Illustrator 23.0.6, SVG Export Plug-In . SVG Version: 6.00 Build 0)  -->
<svg version="1.1" id="Layer_1" xmlns="http://www.w3.org/2000/svg" xmlns:xlink="http://www.w3.org/1999/xlink" x="0px" y="0px"
	 viewBox="0 0 53.1 60.1" style="enable-background:new 0 0 53.1 60.1;" xml:space="preserve">
<g>
	<path d="M34.5,97.8c-0.7,2.8-1.2,5.6-2.3,8.3c-0.5,1.1-2.2,1.7-3.4,2.5c-0.3-1.3-1.2-2.8-0.9-3.9c2.8-9.4,1.6-18-4.7-25.7
		c-6.3-7.6-17.6-10.6-27.6-7.1c-9.6,3.3-16.5,12.4-16.5,22.3c0,3.4,1,6.9,1.2,10.3c0.1,1.3-0.7,2.8-1,4.1c-1.1-0.9-2.8-1.6-3.3-2.8
		c-6-14.2,2.1-32.3,16.8-38c18.1-7,37.2,3.5,40.9,22.6c0.2,1,0.5,1.9,0.8,2.9C34.5,94.8,34.5,96.3,34.5,97.8z"/>
	<path d="M4,103.7c-2.9,0-5.7,0.1-8.6,0c-2.2-0.1-2.9-1.1-1.7-3.2c2.9-5.1,5.9-10.1,8.8-15.2c1.1-1.9,2.2-1.8,3.3,0
		c2.8,4.8,5.6,9.7,8.4,14.6c1.4,2.5,0.5,3.8-2.3,3.8C9.3,103.7,6.7,103.7,4,103.7C4,103.7,4,103.7,4,103.7z"/>
</g>
<g>
	<path d="M-56.7,67.4c-8.2,0-16.5,0-24.7,0c-4.8,0-5.8-1.9-3.4-6.1c8.2-14.2,16.3-28.3,24.5-42.5c2.6-4.5,4.4-4.6,7,0
		c8.3,14.4,16.6,28.7,24.8,43.2c2.1,3.6,1,5.4-3.2,5.4C-39.9,67.4-48.3,67.3-56.7,67.4z M-56.7,40.5C-56.7,40.5-56.7,40.5-56.7,40.5
		c-3.1,0-6.2-0.1-9.4,0c-3.9,0.1-4.6,1.3-2.8,4.6c3.2,5.8,6.6,11.5,9.8,17.2c1.5,2.7,3.1,2.2,4.4,0c3.5-5.9,6.9-11.9,10.3-17.8
		c1.4-2.5,0.3-3.8-2.3-3.9C-50,40.4-53.3,40.5-56.7,40.5z"/>
</g>
<g>
	<path d="M13.3,44.3c2.7,0,5.5-0.1,8.2,0c2.2,0.1,3.8-0.7,4.9-2.8c1.6-3,3.3-5.9,5.1-8.7c1.2-1.9,1.2-3.7,0-5.6
		c-1.8-2.9-3.5-5.8-5.1-8.7c-1.1-2-2.7-2.7-4.9-2.7c-5.4,0.1-10.7,0-16.1,0c-2.1,0-4.1-0.1-5.1-2.4c-1-2.4,0.7-3.7,2.1-5.1
		C17.9-7.3,45.6,0.1,51.9,21.6c3.5,11.9-1,25.4-10.7,32.4c-10.6,7.7-24.4,8.2-34.7,1.1c-1.7-1.2-3.4-2.6-4.7-4.2
		c-0.9-1.1-1.6-3.1-1.2-4.2c0.5-1.1,2.4-2.1,3.8-2.3C7.3,44.1,10.3,44.3,13.3,44.3C13.3,44.3,13.3,44.3,13.3,44.3z"/>
	<path d="M15.7,40.3c-2.3-0.7-5-0.8-6.3-2.2C7.4,35.8,5,32.7,5,29.8c0-2.8,2.3-6.1,4.4-8.3c1.2-1.3,4.1-1.1,6.3-1.2
		c1.9,0,4.6-0.1,5.6,1c2,2.4,4.3,5.5,4.4,8.4c0,2.8-2.2,6-4.2,8.4C20.3,39.5,17.8,39.6,15.7,40.3z"/>
</g>
</svg>
