<?xml version="1.0" encoding="utf-8"?>
<!-- Generator: Adobe Illustrator 23.0.6, SVG Export Plug-In . SVG Version: 6.00 Build 0)  -->
<svg version="1.1" id="Layer_1" xmlns="http://www.w3.org/2000/svg" xmlns:xlink="http://www.w3.org/1999/xlink" x="0px" y="0px"
	 viewBox="0 0 60.2 36.2" style="enable-background:new 0 0 60.2 36.2;" xml:space="preserve">
<g>
	<path d="M193.9-10c-0.7,2.8-1.2,5.6-2.3,8.3c-0.5,1.1-2.2,1.7-3.4,2.5c-0.3-1.3-1.2-2.8-0.9-3.9c2.8-9.4,1.6-18-4.7-25.7
		C176.3-36.5,165-39.4,155-36c-9.6,3.3-16.5,12.4-16.5,22.3c0,3.4,1,6.9,1.2,10.3c0.1,1.3-0.7,2.8-1,4.1c-1.1-0.9-2.8-1.6-3.3-2.8
		c-6-14.2,2.1-32.3,16.8-38c18.1-7,37.2,3.5,40.9,22.6c0.2,1,0.5,1.9,0.8,2.9C193.9-13,193.9-11.5,193.9-10z"/>
	<path d="M163.5-4.1c-2.9,0-5.7,0.1-8.6,0c-2.2-0.1-2.9-1.1-1.7-3.2c2.9-5.1,5.9-10.1,8.8-15.2c1.1-1.9,2.2-1.8,3.3,0
		c2.8,4.8,5.6,9.7,8.4,14.6c1.4,2.5,0.5,3.8-2.3,3.8C168.7-4.1,166.1-4.1,163.5-4.1C163.5-4.1,163.5-4.1,163.5-4.1z"/>
</g>
<g>
	<path d="M102.8-40.5c-8.2,0-16.5,0-24.7,0c-4.8,0-5.8-1.9-3.4-6.1C82.8-60.7,91-74.9,99.1-89.1c2.6-4.5,4.4-4.6,7,0
		c8.3,14.4,16.6,28.7,24.8,43.2c2.1,3.6,1,5.4-3.2,5.4C119.5-40.4,111.1-40.5,102.8-40.5z M102.7-67.3
		C102.7-67.3,102.7-67.3,102.7-67.3c-3.1,0-6.2-0.1-9.4,0c-3.9,0.1-4.6,1.3-2.8,4.6c3.2,5.8,6.6,11.5,9.8,17.2
		c1.5,2.7,3.1,2.2,4.4,0c3.5-5.9,6.9-11.9,10.3-17.8c1.4-2.5,0.3-3.8-2.3-3.9C109.4-67.4,106.1-67.3,102.7-67.3z"/>
</g>
<g>
	<path d="M172.7-63.5c2.7,0,5.5-0.1,8.2,0c2.2,0.1,3.8-0.7,4.9-2.8c1.6-3,3.3-5.9,5.1-8.7c1.2-1.9,1.2-3.7,0-5.6
		c-1.8-2.9-3.5-5.8-5.1-8.7c-1.1-2-2.7-2.7-4.9-2.7c-5.4,0.1-10.7,0-16.1,0c-2.1,0-4.1-0.1-5.1-2.4c-1-2.4,0.7-3.7,2.1-5.1
		c15.5-15.6,43.2-8.2,49.5,13.3c3.5,11.9-1,25.4-10.7,32.4c-10.6,7.7-24.4,8.2-34.7,1.1c-1.7-1.2-3.4-2.6-4.7-4.2
		c-0.9-1.1-1.6-3.1-1.2-4.2c0.5-1.1,2.4-2.1,3.8-2.3C166.7-63.7,169.7-63.5,172.7-63.5C172.7-63.5,172.7-63.5,172.7-63.5z"/>
	<path d="M175.1-67.5c-2.3-0.7-5-0.8-6.3-2.2c-2.1-2.3-4.5-5.5-4.5-8.3c0-2.8,2.3-6.1,4.4-8.3c1.2-1.3,4.1-1.1,6.3-1.2
		c1.9,0,4.6-0.1,5.6,1c2,2.4,4.3,5.5,4.4,8.4c0,2.8-2.2,6-4.2,8.4C179.8-68.3,177.2-68.2,175.1-67.5z"/>
</g>
<g>
	<path d="M17.6,33.7c-0.1,0.8-0.2,1.4-0.2,1.8c-4.9,1.6-13-3.9-15.6-9.6C-1.7,18.3,0,9.9,6.3,4.5C12-0.3,20-2.8,30.8,4.8
		c2.9-3.7,6.4-5.9,11.3-4.1c5,1.9,6.5,5.8,5.8,11c6.9,1.1,11.4,4.7,12.3,11.7c0.4,3.5-2.2,9.4-6.6,11.3c-4.1,1.8-9.1,2-11.5-0.1
		c0.7-1.9,2.4-1.3,3.8-1.5c2.1-0.3,4.3-0.2,6.2-1.1c5.1-2.4,5.3-5.8,4.5-10.7c-0.5-3.5-4.8-6.4-8.8-6.2c-1.2,0-2.4,0.2-4.3,0.4
		c0.2-1.3,0.3-2.3,0.6-3.2c0.9-2.3,1.3-4.6-0.3-6.8C41,2,35.6,2.6,33.6,6.8c-0.4,1-0.8,2-1.1,2.8c-2.6,0.3-3.4-1.6-4.6-2.7
		c-10-8.6-22.3-1.3-24.1,6.9c-2,9,2,16,10.2,18.6C15.1,32.9,16.3,33.3,17.6,33.7z"/>
	<path d="M39.4,25.8c0,1,0,2,0,3c-0.1,4.6-1.1,6-5.6,7c-3.2,0.7-6.4,0.6-9.6-0.6c-2.2-0.8-3.5-2.4-3.5-4.8c0-3.2-0.1-6.5,0-9.7
		c0-2.4,1.3-3.9,3.6-4.7c3.7-1.2,7.3-1.4,11-0.1c3.1,1,3.9,2.2,4.1,5.5C39.4,22.9,39.4,24.4,39.4,25.8
		C39.4,25.8,39.4,25.8,39.4,25.8z M24.2,23.9c0.5,1.1,0.7,2.1,1.2,2.2c2,0.5,4.1,0.9,6.1,0.9c2.8,0,3.5-0.8,3.6-3.1
		C31.7,23.9,28.3,23.9,24.2,23.9z M24.6,29.9c1.1,2.8,2.6,3.5,6.6,3.2c2.8-0.2,3.5-0.8,4-3.2C31.9,29.9,28.4,29.9,24.6,29.9z
		 M35.1,19.6c-3.4-1.9-6.8-2-10.8,0.1C28.4,21.6,31.7,21.6,35.1,19.6z"/>
</g>
</svg>
