<?xml version="1.0" encoding="utf-8"?>
<!-- Generator: Adobe Illustrator 23.0.6, SVG Export Plug-In . SVG Version: 6.00 Build 0)  -->
<svg version="1.1" id="Layer_1" xmlns="http://www.w3.org/2000/svg" xmlns:xlink="http://www.w3.org/1999/xlink" x="0px" y="0px"
	 viewBox="0 0 58.6 52" style="enable-background:new 0 0 58.6 52;" xml:space="preserve">
<g>
	<path d="M120.5,82.4c-0.7,2.8-1.2,5.6-2.3,8.3c-0.5,1.1-2.2,1.7-3.4,2.5c-0.3-1.3-1.2-2.8-0.9-3.9c2.8-9.4,1.6-18-4.7-25.7
		C102.9,56,91.6,53,81.6,56.5C72,59.8,65.1,68.9,65.1,78.8c0,3.4,1,6.9,1.2,10.3c0.1,1.3-0.7,2.8-1,4.1c-1.1-0.9-2.8-1.6-3.3-2.8
		c-6-14.2,2.1-32.3,16.8-38c18.1-7,37.2,3.5,40.9,22.6c0.2,1,0.5,1.9,0.8,2.9C120.5,79.4,120.5,80.9,120.5,82.4z"/>
	<path d="M90.1,88.3c-2.9,0-5.7,0.1-8.6,0c-2.2-0.1-2.9-1.1-1.7-3.2c2.9-5.1,5.9-10.1,8.8-15.2c1.1-1.9,2.2-1.8,3.3,0
		c2.8,4.8,5.6,9.7,8.4,14.6c1.4,2.5,0.5,3.8-2.3,3.8C95.3,88.4,92.7,88.3,90.1,88.3C90.1,88.3,90.1,88.3,90.1,88.3z"/>
</g>
<g>
	<path d="M29.4,52c-8.2,0-16.5,0-24.7,0c-4.8,0-5.8-1.9-3.4-6.1C9.4,31.7,17.6,17.6,25.7,3.4c2.6-4.5,4.4-4.6,7,0
		c8.3,14.4,16.6,28.7,24.8,43.2c2.1,3.6,1,5.4-3.2,5.4C46.1,52,37.7,52,29.4,52z M29.3,25.1C29.3,25.1,29.3,25.1,29.3,25.1
		c-3.1,0-6.2-0.1-9.4,0c-3.9,0.1-4.6,1.3-2.8,4.6c3.2,5.8,6.6,11.5,9.8,17.2c1.5,2.7,3.1,2.2,4.4,0C35,41,38.4,35,41.7,29.1
		c1.4-2.5,0.3-3.8-2.3-3.9C36,25.1,32.7,25.1,29.3,25.1z"/>
</g>
</svg>
