<svg width="53" height="53" xmlns="http://www.w3.org/2000/svg" xmlns:xlink="http://www.w3.org/1999/xlink" overflow="hidden"><defs><clipPath id="clip0"><path d="M647 91 700 91 700 144 647 144Z" fill-rule="evenodd" clip-rule="evenodd"/></clipPath><clipPath id="clip1"><path d="M648 92 699 92 699 143 648 143Z" fill-rule="evenodd" clip-rule="evenodd"/></clipPath><clipPath id="clip2"><path d="M648 92 699 92 699 143 648 143Z" fill-rule="evenodd" clip-rule="evenodd"/></clipPath><clipPath id="clip3"><path d="M648 92 699 92 699 143 648 143Z" fill-rule="evenodd" clip-rule="evenodd"/></clipPath></defs><g clip-path="url(#clip0)" transform="translate(-647 -91)"><g clip-path="url(#clip1)"><g clip-path="url(#clip2)"><g clip-path="url(#clip3)"><path d="M648 122.281C648 118.748 649.924 115.654 652.785 113.999 652.952 106.222 659.308 99.9688 667.125 99.9688 672.278 99.9688 676.797 102.686 679.326 106.767 680.258 106.491 681.245 106.344 682.266 106.344 686.704 106.344 690.49 109.134 691.965 113.056 696.019 114.165 699 117.875 699 122.281 699 127.552 694.719 131.844 689.437 131.844L657.563 131.844C652.282 131.844 648 127.562 648 122.281ZM689.394 115.906C688.997 112.32 685.957 109.531 682.266 109.531 680.581 109.531 679.031 110.112 677.807 111.085 676.423 106.497 672.164 103.156 667.125 103.156 660.964 103.156 655.969 108.151 655.969 114.313 655.969 114.911 656.016 115.499 656.107 116.073 653.288 116.731 651.188 119.266 651.188 122.281 651.188 125.802 654.047 128.656 657.557 128.656L689.443 128.656C692.961 128.656 695.813 125.795 695.813 122.281 695.813 118.76 692.953 115.906 689.443 115.906Z" stroke="#9DB6DF" stroke-width="1.33333" fill="#9DB6DF" fill-rule="evenodd"/></g></g></g><path d="M664 108 680 117 664 126Z" fill="#9DB6DF" fill-rule="evenodd"/></g></svg>