<svg viewBox="0 0 16 16" xmlns="http://www.w3.org/2000/svg" xmlns:xlink="http://www.w3.org/1999/xlink" id="Layer_1" overflow="hidden"><g><path d="M3.17 10.52C3.33259 10.353 3.33259 10.087 3.17 9.92 3.0026 9.75155 2.73034 9.75071 2.56189 9.91811 2.56126 9.91874 2.56063 9.91937 2.56 9.92L0.1 12.39C-0.0656854 12.5523-0.0683991 12.8183 0.0939388 12.9839 0.0959385 12.986 0.097959 12.988 0.1 12.99 0.179997 13.0684 0.287999 13.1116 0.4 13.11 0.510587 13.1143 0.618398 13.0748 0.7 13Z" stroke="#9DB6DF" stroke-width="0.627451" fill="#9DB6DF"/><path d="M3.82 12.18C3.65766 12.0143 3.39175 12.0116 3.22606 12.1739 3.22402 12.1759 3.222 12.178 3.22 12.18L0.65 14.75C0.484315 14.9123 0.481601 15.1783 0.643939 15.3439 0.645938 15.346 0.647959 15.348 0.65 15.35 0.816956 15.5126 1.08304 15.5126 1.25 15.35L3.82 12.78C3.98569 12.6177 3.9884 12.3517 3.82606 12.1861 3.82406 12.184 3.82204 12.182 3.82 12.18Z" stroke="#9DB6DF" stroke-width="0.627451" fill="#9DB6DF"/><path d="M5.48 12.83 3 15.3C2.83431 15.4657 2.83431 15.7343 3 15.9 3.16569 16.0657 3.43431 16.0657 3.6 15.9L6.07 13.44C6.23845 13.2726 6.23929 13.0003 6.07189 12.8319 6.07126 12.8313 6.07063 12.8306 6.07 12.83 5.90435 12.6738 5.64565 12.6738 5.48 12.83Z" stroke="#9DB6DF" stroke-width="0.627451" fill="#9DB6DF"/><path d="M15.88 0.12C15.7828 0.023315 15.6454-0.0212575 15.51-2.68221e-09 14.5391 0.176366 13.5879 0.447669 12.67 0.81 11.7445 1.16234 10.8512 1.59394 10 2.1 9.02189 2.68166 8.11565 3.37644 7.3 4.17L4.1 4.79C4.01733 4.80981 3.94141 4.85122 3.88 4.91L1 7.81C0.870495 7.94309 0.838485 8.14315 0.92 8.31 0.997367 8.44819 1.14168 8.53555 1.3 8.54L1.38 8.54 4.67 7.9C4.42444 8.32151 4.20081 8.75542 4 9.2 3.93075 9.35706 3.96667 9.54062 4.09 9.66L4.89 10.46 4.15 11.21C3.98431 11.3723 3.9816 11.6383 4.14394 11.8039 4.14594 11.806 4.14796 11.808 4.15 11.81 4.30434 11.9757 4.56378 11.9849 4.72946 11.8305 4.73655 11.8239 4.7434 11.8171 4.75 11.81L5.5 11.07 6.3 11.87C6.37898 11.9511 6.48678 11.9979 6.6 12 6.65228 12.015 6.70772 12.015 6.76 12 7.20656 11.8223 7.64379 11.6221 8.07 11.4L7.43 14.69C7.39122 14.8754 7.48133 15.0638 7.65 15.15 7.71202 15.1816 7.78041 15.1987 7.85 15.2 7.96322 15.1979 8.07102 15.1511 8.15 15.07L11.05 12.16C11.1088 12.0986 11.1502 12.0227 11.17 11.94L11.79 8.73C12.5995 7.90722 13.3078 6.99074 13.9 6 14.4021 5.15165 14.8303 4.26171 15.18 3.34 15.5464 2.41927 15.821 1.46465 16 0.489999 16.0213 0.354589 15.9767 0.217158 15.88 0.119999ZM2.56 7.43 4.39 5.6 6.39 5.22C5.95487 5.75875 5.55727 6.32675 5.2 6.92ZM10.4 11.61 8.57 13.44 9.08 10.83C9.67325 10.4727 10.2413 10.0751 10.78 9.64ZM14.4 3.05C13.6923 4.94749 12.6032 6.6798 11.2 8.14 10.3939 8.91188 9.49739 9.58343 8.53 10.14 7.97311 10.4584 7.39889 10.7456 6.81 11L6.21 10.39 7.35 9.25C7.51569 9.08431 7.51569 8.81569 7.35 8.65 7.18431 8.48431 6.91569 8.48431 6.75 8.65L5.54 9.86 4.93 9.26C5.18444 8.67111 5.47156 8.09689 5.79 7.54 6.36498 6.54866 7.06395 5.63464 7.87 4.82 9.33979 3.40939 11.0867 2.31968 13 1.62 13.6536 1.37323 14.3215 1.16619 15 1 14.8358 1.69546 14.6287 2.3801 14.38 3.05Z" stroke="#9DB6DF" stroke-width="0.627451" fill="#9DB6DF"/><path d="M12.06 3.94C11.7826 3.65209 11.3998 3.4896 11 3.49 10.5976 3.49144 10.2125 3.65343 9.93 3.94 9.64111 4.21676 9.47843 4.59994 9.48 5 9.46888 5.82835 10.1314 6.50888 10.9597 6.52 10.9732 6.52018 10.9866 6.52018 11 6.52L11 6.52C11.402 6.52694 11.7891 6.36775 12.07 6.08 12.3554 5.79345 12.5139 5.4044 12.51 5 12.5104 4.60017 12.3479 4.21743 12.06 3.94ZM11.46 5.48C11.3343 5.60245 11.1655 5.67067 10.99 5.67 10.6311 5.67569 10.3355 5.38933 10.3298 5.03039 10.3296 5.02026 10.3297 5.01013 10.33 5 10.3293 4.82449 10.3976 4.65573 10.52 4.53 10.6479 4.40574 10.8219 4.3405 11 4.35 11.1764 4.34472 11.3469 4.41365 11.47 4.54 11.7269 4.79864 11.7254 5.21652 11.4668 5.47338 11.4645 5.4756 11.4623 5.47781 11.46 5.48Z" stroke="#9DB6DF" stroke-width="0.627451" fill="#9DB6DF"/></g></svg>