<svg width="512" height="512" viewBox="0 0 512 512" xmlns="http://www.w3.org/2000/svg" xmlns:xlink="http://www.w3.org/1999/xlink" id="Layer_1" overflow="hidden"><path d="M256 512C114.625 512 0 397.375 0 256 0 114.609 114.625 0 256 0 397.375 0 512 114.609 512 256 512 397.375 397.375 512 256 512ZM256 64C149.969 64 64 149.969 64 256 64 362.031 149.969 448 256 448 362.03 448 448 362.031 448 256 448 149.969 362.031 64 256 64ZM192 160 352 256 192 352 192 160Z" stroke="#9DB6DF" stroke-width="17.9649" fill="#9DB6DF"/></svg>