<svg width="41" height="35" xmlns="http://www.w3.org/2000/svg" xmlns:xlink="http://www.w3.org/1999/xlink" overflow="hidden"><defs><clipPath id="clip0"><path d="M765 102 806 102 806 137 765 137Z" fill-rule="evenodd" clip-rule="evenodd"/></clipPath></defs><g clip-path="url(#clip0)" transform="translate(-765 -102)"><path d="M801.4 135 769.6 135C768.161 135 767 133.835 767 132.403L767 110.607C767 109.175 768.161 108 769.6 108L801.4 108C802.829 108 804 109.165 804 110.607L804 132.403C803.99 133.835 802.829 135 801.4 135ZM769.6 109.546C769.014 109.546 768.541 110.02 768.541 110.607L768.541 132.403C768.541 132.99 769.014 133.465 769.6 133.465L801.4 133.465C801.986 133.465 802.459 132.99 802.459 132.403L802.459 110.607C802.459 110.02 801.986 109.546 801.4 109.546L769.6 109.546Z" stroke="#9DB6DF" stroke-width="2" stroke-miterlimit="8" fill="#9DB6DF" fill-rule="evenodd"/><path d="M791.194 110 779.806 110C779.365 110 779 109.622 779 109.167L779 103.833C779 103.378 779.365 103 779.806 103L791.194 103C791.635 103 792 103.378 792 103.833L792 109.167C792 109.622 791.635 110 791.194 110ZM780.612 108.333 790.388 108.333 790.388 104.667 780.612 104.667 780.612 108.333Z" stroke="#9DB6DF" stroke-width="2" stroke-miterlimit="8" fill="#9DB6DF" fill-rule="evenodd"/><path d="M785.775 122 784.225 122C783.005 122 782 121.096 782 119.978L782 117.022C782 115.914 782.995 115 784.225 115L785.775 115C786.995 115 788 115.904 788 117.022L788 119.978C787.989 121.096 786.995 122 785.775 122ZM784.225 116.468C783.882 116.468 783.604 116.721 783.604 117.032L783.604 119.988C783.604 120.299 783.882 120.551 784.225 120.551L785.775 120.551C786.118 120.551 786.396 120.299 786.396 119.988L786.396 117.032C786.396 116.721 786.118 116.468 785.775 116.468L784.225 116.468Z" stroke="#9DB6DF" stroke-width="2" stroke-miterlimit="8" fill="#9DB6DF" fill-rule="evenodd"/><path d="M803.237 119 787.763 119C787.346 119 787 118.773 787 118.5 787 118.227 787.346 118 787.763 118L803.237 118C803.654 118 804 118.227 804 118.5 804 118.773 803.654 119 803.237 119Z" stroke="#9DB6DF" stroke-width="2" stroke-miterlimit="8" fill="#9DB6DF" fill-rule="evenodd"/><path d="M783.237 119 767.763 119C767.346 119 767 118.773 767 118.5 767 118.227 767.346 118 767.763 118L783.237 118C783.654 118 784 118.227 784 118.5 784 118.773 783.654 119 783.237 119Z" stroke="#9DB6DF" stroke-width="2" stroke-miterlimit="8" fill="#9DB6DF" fill-rule="evenodd"/></g></svg>