<?xml version="1.0" encoding="utf-8"?>
<!-- Generator: Adobe Illustrator 23.0.6, SVG Export Plug-In . SVG Version: 6.00 Build 0)  -->
<svg version="1.1" id="Layer_1" xmlns="http://www.w3.org/2000/svg" xmlns:xlink="http://www.w3.org/1999/xlink" x="0px" y="0px"
	 viewBox="0 0 81 67" style="enable-background:new 0 0 81 67;" xml:space="preserve">
<style type="text/css">
	.st0{fill-rule:evenodd;clip-rule:evenodd;fill:#FFFFFF;}
</style>
<path class="st0" d="M28,61L28,61h14v-4H28V61z M17,66L17,66h37v-4H17V66z M66.9,40L66.9,40v12.2H3.3V9.6H44
	c0.6-1.3,1.4-2.5,2.3-3.6H0v50h71V38.6C69.7,39.2,68.3,39.7,66.9,40z M25,32.4L25,32.4L25,32.4c0.8-4.5,4.4-8.8,6.3-10.6L28.8,17
	L42,17.4l-4.8,15.9l-2.5-4.9c-2.2,2.2-6.8,7.6-4.8,11.6c2.2,4.4,9.2,4.5,9.2,4.5S35.2,46,31,44.6C26,42.9,24,37.8,25,32.4z
	 M64.4,22.9c-0.4,0.4-0.4,0.9-0.3,1.4c0.2,1,0.3,1.9,0.5,2.9h-3c0.2-1.1,0.4-2.2,0.5-3.2c0-0.3-0.1-0.7-0.2-0.9
	c-0.7-0.9-0.8-1.4-0.5-2.2c0.4-0.7,1.1-1.2,1.7-1.1c0.8,0.1,1.7,0.9,1.7,1.8C64.9,21.9,64.7,22.5,64.4,22.9z M66.4,10.7
	c0.1,1.6,0.1,3.2,0.1,4.9h-6.7c0-1.3-0.1-2.4-0.1-3.8c0-1.4,0.2-2.6,1.6-3.3c1.4-0.7,3.2-0.6,4.3,0.4C66.1,9.3,66.4,10,66.4,10.7z
	 M62.5,1C52.9,1,45,9.1,45,19c0,9.9,7.9,18,17.5,18C72.2,37,80,28.9,80,19C80,9.1,72.2,1,62.5,1z M72,31H54.1L54,15.6h2.8
	c0,0-0.1-3.3,0-4.9c0.1-1.8,0.6-3.3,2-4.3c0.8-0.5,1.2-0.9,2.4-1.1C62.5,5,62.6,5,63.8,5c0.4,0,1.4,0.2,1.6,0.3
	c1.5,0.6,2.7,1.5,3.4,3.1c0.2,0.6,0.4,1.3,0.4,2c0.1,1.7,0.1,3.4,0.1,5.2H72V31z"/>
</svg>
