<svg width="800" height="800" viewBox="0 0 800 800" xmlns="http://www.w3.org/2000/svg" xmlns:xlink="http://www.w3.org/1999/xlink" id="GUIDE" overflow="hidden"><path d="M580.562 219.439C567.841 206.716 550.925 199.711 532.939 199.711 514.952 199.711 498.036 206.716 485.314 219.439 472.594 232.159 465.589 249.073 465.589 267.06 465.589 285.05 472.594 301.964 485.314 314.685 498.036 327.406 514.947 334.408 532.932 334.411 532.939 334.411 532.939 334.411 532.939 334.411 550.925 334.411 567.841 327.406 580.562 314.685 593.283 301.962 600.288 285.049 600.288 267.06 600.286 249.073 593.281 232.16 580.562 219.439ZM553.771 287.895C548.205 293.463 540.811 296.531 532.937 296.531L532.937 296.531C525.065 296.529 517.666 293.463 512.103 287.895 506.537 282.333 503.47 274.935 503.47 267.061 503.47 259.193 506.535 251.792 512.103 246.227 517.666 240.662 525.07 237.597 532.937 237.597 540.805 237.597 548.205 240.66 553.771 246.227 565.263 257.715 565.263 276.407 553.771 287.895Z" fill="#FFFFFF"/><g><path d="M62.282 627.218C57.435 627.218 52.589 625.371 48.89 621.672 41.492 614.275 41.492 602.277 48.89 594.882L158.42 485.35C165.818 477.953 177.812 477.953 185.21 485.35 192.608 492.747 192.608 504.745 185.21 512.142L75.676 621.672C71.978 625.371 67.131 627.218 62.282 627.218Z" fill="#FFFFFF"/></g><g><path d="M86.774 732.172C81.924 732.172 77.078 730.322 73.379 726.623 65.981 719.226 65.981 707.234 73.379 699.837L187.545 585.67C194.943 578.272 206.937 578.272 214.332 585.67 221.73 593.068 221.73 605.063 214.332 612.46L100.168 726.623C96.47 730.322 91.62 732.172 86.774 732.172Z" fill="#FFFFFF"/></g><g><path d="M191.725 756.661C186.876 756.661 182.029 754.814 178.33 751.115 170.932 743.718 170.932 731.722 178.33 724.326L287.863 614.79C295.259 607.396 307.255 607.394 314.65 614.79 322.048 622.187 322.048 634.185 314.65 641.583L205.12 751.115C201.421 754.813 196.574 756.661 191.725 756.661Z" fill="#FFFFFF"/></g><path d="M751.113 48.891C746.811 44.591 740.704 42.613 734.71 43.58 732.508 43.937 680.005 52.56 608.46 79.896 566.486 95.93 526.61 115.133 489.931 136.972 444.892 163.786 404.575 194.693 370.032 228.843L226.977 256.693C223.284 257.411 219.891 259.217 217.224 261.87L87.618 391.06C81.711 396.946 80.351 405.998 84.258 413.361 87.588 419.631 94.076 423.42 100.983 423.42 102.185 423.42 103.398 423.306 104.611 423.073L250.796 394.61C241.28 413.282 232.377 432.665 224.113 452.754 221.209 459.826 222.834 467.948 228.238 473.357L264.049 509.168 230.779 542.438C223.381 549.836 223.381 561.828 230.779 569.225 234.478 572.924 239.324 574.774 244.176 574.774 249.023 574.774 253.869 572.924 257.568 569.228L290.838 535.957 326.649 571.77C330.274 575.389 335.118 577.318 340.049 577.318 342.472 577.318 344.92 576.851 347.248 575.892 367.339 567.63 386.723 558.727 405.389 549.214L376.934 695.4C375.341 703.583 379.284 711.843 386.643 715.752 389.449 717.24 392.495 717.965 395.522 717.965 400.439 717.965 405.3 716.047 408.939 712.392L538.127 582.788C540.783 580.125 542.586 576.727 543.308 573.035L571.153 429.98C605.301 395.433 636.213 355.121 663.029 310.079 684.863 273.396 704.069 233.521 720.106 191.55 747.436 119.999 756.064 67.502 756.419 65.3 757.386 59.292 755.407 53.188 751.113 48.891ZM158.393 374.001 239.882 292.777 327.556 275.708C308.541 299.099 290.901 324.342 274.709 351.356L158.393 374.001ZM507.219 560.121 425.997 641.61 448.64 525.294C475.661 509.102 500.899 491.464 524.288 472.446L507.219 560.121ZM684.359 178.936C660.444 241.307 616.349 331.238 542.122 405.467 507.951 439.635 468.162 470.007 423.232 496.305 422.428 496.706 421.647 497.159 420.91 497.671 396.861 511.614 371.344 524.399 344.434 535.973L317.628 509.164 371.738 455.058C379.133 447.661 379.133 435.666 371.738 428.268 364.34 420.871 352.346 420.872 344.948 428.268L290.839 482.374 264.033 455.565C275.611 428.652 288.394 403.132 302.341 379.077 302.849 378.345 303.292 377.577 303.691 376.782 329.989 331.844 360.363 292.05 394.54 257.873 468.765 183.648 558.696 139.554 621.067 115.638 658.964 101.101 691.589 92.037 713.157 86.841 707.959 108.412 698.894 141.038 684.359 178.936Z" fill="#FFFFFF"/></svg>