<?xml version="1.0" encoding="utf-8"?>
<!-- Generator: Adobe Illustrator 23.0.6, SVG Export Plug-In . SVG Version: 6.00 Build 0)  -->
<svg version="1.1" id="Layer_1" xmlns="http://www.w3.org/2000/svg" xmlns:xlink="http://www.w3.org/1999/xlink" x="0px" y="0px"
	 viewBox="0 0 60 71" style="enable-background:new 0 0 60 71;" xml:space="preserve">
<style type="text/css">
	.st0{fill-rule:evenodd;clip-rule:evenodd;fill:#181C22;}
</style>
<g transform="translate(-500 -227)">
	<path class="st0" d="M529,266L529,266v-38h30v37.8l-3.3,0.1V231l-23.5-0.1l0.1,35L529,266z"/>
	<path class="st0" d="M550.9,273.2L550.9,273.2c0.9,0,1.6-0.7,1.6-1.6c0-0.9-0.7-1.6-1.6-1.6c-0.9,0-1.6,0.7-1.6,1.6
		C549.3,272.5,550,273.2,550.9,273.2z M544.1,274.3L544.1,274.3c1.5,0,2.7-1.2,2.7-2.6c0-1.5-1.2-2.6-2.7-2.6
		c-1.5,0-2.6,1.1-2.6,2.6C541.5,273.2,542.7,274.3,544.1,274.3z M537.5,273.4L537.5,273.4c0.9,0,1.6-0.7,1.6-1.6
		c0-0.8-0.8-1.6-1.6-1.6c-0.9,0-1.6,0.7-1.6,1.6C535.9,272.7,536.6,273.4,537.5,273.4z M558.9,277L558.9,277H529l0.1-11H559
		L558.9,277z"/>
	<path class="st0" d="M527,280.4L527,280.4c0,1.4-1.1,2.6-2.5,2.6h-19c-1.4,0-2.5-1.1-2.5-2.6v-24c0-1.4,1.1-2.6,2.5-2.6h19
		c1.4,0,2.5,1.1,2.5,2.6V280.4L527,280.4z M529.6,255.7L529.6,255.7c0-1.4-1.1-2.7-1.3-3c-0.5-0.5-1-0.9-1.6-1.1l-0.1-0.1
		c-0.4-0.2-0.7-0.3-1.1-0.3c0,0,0,0-0.1,0c-0.1-0.1-0.1-0.1-0.2-0.1h-0.1c-0.1-0.1-0.1-0.1-0.2-0.1h-0.1c-0.1,0-0.2,0-0.2,0h-0.1
		c-0.1,0-0.2-0.1-0.3-0.1h-18.3c-0.1,0-0.2,0.1-0.3,0.1c-0.1,0-0.1,0-0.1,0c-0.1,0-0.1,0-0.2,0c-0.1,0-0.1,0-0.2,0
		c-0.1,0.1-0.1,0.1-0.1,0.1c-0.1,0-0.2,0-0.2,0l-0.1,0.1c-0.1,0-0.2,0-0.2,0c0,0.1-0.1,0.1-0.1,0.1c-0.1,0-0.2,0-0.2,0.1h-0.1
		c-0.1,0.1-0.2,0.1-0.2,0.1c0,0.1-0.1,0.1-0.1,0.1c-0.1,0-0.2,0.1-0.2,0.1c0,0,0,0.1-0.1,0.1c-2.1,0.9-3.5,2.9-3.5,5.3v23.3
		c0,2.1,1.1,3.9,2.7,5l0.2,0.1c0.7,0.4,1.4,0.6,2.1,0.7h0.1c0.1,0,0.1,0,0.2,0c0.1,0,0.1,0,0.2,0h0.1c0.1,0,0.2,0.1,0.3,0.1h18.3
		c0.1,0,0.2-0.1,0.3-0.1c0.1,0,0.1,0,0.1,0c0.1,0,0.2,0,0.2,0s0.1,0,0.1,0c0.1-0.1,0.2-0.1,0.2-0.1s0.1,0,0.1,0
		c0.2-0.1,0.5-0.1,0.7-0.2c0,0,0.1,0,0.1-0.1c0.1,0,0.2-0.1,0.2-0.1c0.1,0,0.1-0.1,0.1-0.1c0.1,0,0.1-0.1,0.2-0.1
		c0-0.1,0.1-0.1,0.1-0.1c0.1-0.1,0.1-0.1,0.2-0.1c1.8-1,3.1-2.9,3.1-5.2v-3.1L529.6,255.7z"/>
	<path class="st0" d="M525.7,286.1L525.7,286.1c-0.1,0-0.1,0-0.1,0c-0.1,0-0.2,0-0.2,0.1c-0.1,0-0.1,0-0.1,0c-0.1,0-0.2,0-0.2,0
		c-0.1,0-0.1,0-0.1,0c-0.1,0-0.2,0.1-0.3,0.1h-18.1c-0.1,0-0.3-0.1-0.4-0.1h-0.1c-0.1,0-0.2,0-0.3,0c-0.1,0-0.1,0-0.1,0
		c-0.2-0.1-0.5-0.1-0.7-0.2c0.5,0.5,0.7,0.9,1,1.7c0.5,1,0.7,3.7,0.8,5.5c0.1,0.7,0.1,1.2,0.1,1.4c0.2,0.9,0.4,1.2,1.2,1.5
		c1.1,0.4,2.4,0.8,7.3,0.8c0,0,0.1,0.1,0.3,0.1c0.8,0,2-0.1,2-0.1c3.3-0.1,4.4-0.4,5.3-0.8c0.8-0.4,1-0.6,1.2-1.5
		c0-0.2,0.1-0.8,0.1-1.4c0.2-1.8,0.4-4.5,0.8-5.5c0.3-0.8,0.5-1.2,0.9-1.7c0,0,0,0-0.1,0C525.9,286.1,525.8,286.1,525.7,286.1z"/>
	<path class="st0" d="M505.1,251L505.1,251c0.1-0.1,0.2-0.1,0.3-0.1l0,0c0.1-0.1,0.2-0.1,0.3-0.1s0.1,0,0.1,0c0.1,0,0.1,0,0.2,0
		c0.1,0,0.2-0.1,0.3-0.1h18.3c0.1,0,0.2,0.1,0.3,0.1c0.1,0,0.1,0,0.1,0s0.1,0,0.2,0h0.1c0.1,0,0.2,0.1,0.2,0.1s0.1,0,0.1,0
		c0.1,0,0.2,0,0.3,0.1c-0.3-0.4-0.6-0.9-0.8-1.6c-0.5-1-0.7-3.8-0.9-5.6c-0.1-0.7-0.1-1.2-0.1-1.4c-0.2-0.9-0.4-1.3-1.2-1.6
		c-1.1-0.4-2.5-0.8-7.4-0.8c0,0-0.1,0-0.3,0c-0.8,0-2,0.1-2,0.1c-3.4,0.1-4.5,0.4-5.4,0.8c-0.8,0.3-1,0.7-1.2,1.6
		c0,0.2-0.1,0.8-0.1,1.4c-0.2,1.8-0.4,4.6-0.9,5.6c-0.3,0.7-0.5,1.2-0.8,1.6H505.1L505.1,251z"/>
	<path class="st0" d="M506,265.9L506,265.9l2.1,2.1c1.9-1.9,4.5-3,7.4-3c2.9,0,5.5,1.2,7.3,3l2.1-2.1c-2.4-2.4-5.8-3.9-9.5-3.9
		C511.8,262,508.4,263.5,506,265.9z"/>
	<path class="st0" d="M509,268.8L509,268.8l2.2,2.2c1.1-1.1,2.6-1.8,4.4-1.8c1.7,0,3.2,0.7,4.3,1.8l2.2-2.2c-1.7-1.7-4-2.8-6.5-2.8
		C513,266,510.7,267.1,509,268.8z"/>
	<path class="st0" d="M512,272.2L512,272.2l3.5,2.8l3.5-2.8c-0.9-0.8-2.1-1.2-3.5-1.2C514.1,271,512.9,271.5,512,272.2z"/>
</g>
</svg>
